<!DOCTYPE svg PUBLIC "-//W3C//DTD SVG 1.1//EN" "http://www.w3.org/Graphics/SVG/1.1/DTD/svg11.dtd">
<!-- Uploaded to: SVG Repo, www.svgrepo.com, Transformed by: SVG Repo Mixer Tools -->
<svg fill="#ffffff" height="800px" width="800px" version="1.1" id="Layer_1" xmlns="http://www.w3.org/2000/svg" xmlns:xlink="http://www.w3.org/1999/xlink" viewBox="0 0 512 512" xml:space="preserve">
<g id="SVGRepo_bgCarrier" stroke-width="0"/>
<g id="SVGRepo_tracerCarrier" stroke-linecap="round" stroke-linejoin="round"/>
<g id="SVGRepo_iconCarrier"> <g> <g> <g> <path d="M169.084,347.96c-7.601,1.226-14.975,2.612-22.085,4.152c-11.515,2.494-18.828,13.851-16.334,25.366 c2.494,11.515,13.851,18.828,25.366,16.334c6.356-1.377,12.985-2.623,19.845-3.729c11.632-1.876,19.541-12.826,17.665-24.458 C191.666,353.993,180.716,346.085,169.084,347.96z"/> <path d="M279.419,341.788c-7.31-0.285-14.691-0.437-22.123-0.453c-11.782-0.025-21.354,9.506-21.379,21.288 c-0.025,11.782,9.506,21.354,21.288,21.379c6.907,0.015,13.763,0.156,20.548,0.421c11.773,0.46,21.69-8.712,22.15-20.485 S291.193,342.247,279.419,341.788z"/> <path d="M467.28,417.534l-192-405.333c-7.706-16.268-30.854-16.268-38.559,0L55.485,394.808 c-8.182,9.406-12.819,20.176-12.819,31.859C42.667,480.147,138.225,512,256,512s213.333-31.853,213.333-85.333 C469.333,423.508,468.632,420.389,467.28,417.534z M256,469.333c-88.745,0-161.577-22.529-169.878-39.534L256,71.168 l136.538,288.246c-0.782-0.34-1.59-0.642-2.427-0.892c-6.988-2.085-14.358-4.001-22.063-5.736 c-11.494-2.589-22.911,4.631-25.499,16.125s4.631,22.911,16.125,25.499c6.774,1.526,13.204,3.197,19.238,4.997 c11.29,3.369,23.174-3.053,26.542-14.343c0.031-0.105,0.056-0.21,0.085-0.314l21.34,45.05 C417.577,446.805,344.745,469.333,256,469.333z"/> </g> </g> </g> </g>
</svg>