<!DOCTYPE svg PUBLIC "-//W3C//DTD SVG 1.1//EN" "http://www.w3.org/Graphics/SVG/1.1/DTD/svg11.dtd">
<!-- Uploaded to: SVG Repo, www.svgrepo.com, Transformed by: SVG Repo Mixer Tools -->
<svg fill="#ffffff" height="800px" width="800px" version="1.1" id="Capa_1" xmlns="http://www.w3.org/2000/svg" xmlns:xlink="http://www.w3.org/1999/xlink" viewBox="0 0 430.949 430.949" xml:space="preserve">
<g id="SVGRepo_bgCarrier" stroke-width="0"/>
<g id="SVGRepo_tracerCarrier" stroke-linecap="round" stroke-linejoin="round"/>
<g id="SVGRepo_iconCarrier"> <path id="XMLID_1996_" d="M261.795,393.329c0,4.971-4.029,9-9,9h-20.091c-4.969,0-8.997-4.026-9-8.995l-0.105-184.977 c-0.003-4.971,4.024-9.002,8.995-9.005c0.001,0,0.004,0,0.005,0c4.969,0,8.997,4.025,9,8.995l0.101,175.981h11.096 C257.766,384.329,261.795,388.358,261.795,393.329z M280.462,305.547c4.492-2.126,6.411-7.492,4.286-11.985l-6.146-12.987 l-0.658-11.11c-2.778-47.041-4.455-75.435-9.927-93.743c-6.206-20.76-17.884-29.617-39.049-29.617h-26.99 c-19.662,0-31.793,9.205-38.179,28.968c-5.405,16.73-7.089,41.835-9.42,76.58c-0.613,9.136-1.245,18.565-2.006,28.86l-6.175,13.05 c-2.126,4.493-0.208,9.858,4.286,11.984c1.244,0.589,2.553,0.867,3.843,0.867c3.371,0,6.604-1.903,8.142-5.152l6.892-14.563 c0.473-1,0.758-2.078,0.84-3.181c0.821-11.014,1.491-21.001,2.139-30.66c4.978-74.209,7.851-88.753,29.639-88.753h26.99 c13.023,0,17.913,3.762,21.803,16.772c4.873,16.304,6.596,45.482,9.204,89.649l0.762,12.859c0.069,1.147,0.357,2.272,0.849,3.313 l6.891,14.563C270.604,305.753,275.971,307.673,280.462,305.547z M76.447,112.943c4.971,0,9-4.029,9-9V36.918 c1.646-1.535,9.544-7.253,39.577-12.355C149.936,20.331,182.059,18,215.476,18c33.417,0,65.54,2.331,90.451,6.563 c30.031,5.103,37.93,10.82,39.575,12.355v67.025c0,4.971,4.029,9,9,9s9-4.029,9-9V35.76c0-12.806-14.81-21.367-48.018-27.76 c-26.803-5.159-62.319-8-100.009-8c-37.688,0-73.206,2.841-100.009,8c-33.21,6.393-48.02,14.954-48.02,27.76v68.184 C67.447,108.914,71.476,112.943,76.447,112.943z M391.48,213.491c0-4.971-4.029-9-9-9h-75.678c-4.971,0-9,4.029-9,9s4.029,9,9,9 h38.713c-0.009,0.162-0.013,0.324-0.013,0.488v44.104c0,4.971,4.029,9,9,9s9-4.029,9-9v-44.104c0-0.164-0.005-0.326-0.013-0.488 h18.99C387.45,222.491,391.48,218.462,391.48,213.491z M298.045,145.305c1.146,4.838,5.997,7.831,10.833,6.681l36.624-8.682v42.469 c0,4.971,4.029,9,9,9s9-4.029,9-9v-44.363c0-0.796-0.104-1.567-0.297-2.303l19.739-4.68c4.836-1.146,7.828-5.996,6.681-10.833 c-1.146-4.836-5.994-7.829-10.833-6.681l-74.066,17.559C299.89,135.618,296.898,140.468,298.045,145.305z M382.945,292.556 l-26.183-6.208c-0.116-0.03-0.234-0.058-0.352-0.084l-47.532-11.269c-4.837-1.149-9.688,1.845-10.833,6.681 c-1.147,4.837,1.844,9.687,6.681,10.833l40.776,9.668v73.595c-3.42-1.438-6.938-2.604-10.173-3.579 c-14.428-4.348-34.584-7.818-58.29-10.037c-4.956-0.451-9.336,3.173-9.8,8.122c-0.463,4.949,3.174,9.337,8.122,9.8 c44.023,4.12,62.904,11.337,68.661,15.089c-3.528,2.345-13.217,6.994-38.097,11.221c-24.911,4.231-57.035,6.563-90.452,6.563 c-33.417,0-65.541-2.331-90.453-6.563c-24.879-4.227-34.568-8.877-38.097-11.221c5.755-3.752,24.635-10.97,68.664-15.091 c4.949-0.464,8.585-4.851,8.122-9.8s-4.849-8.588-9.8-8.122c-23.707,2.219-43.864,5.69-58.292,10.038 c-3.233,0.974-6.752,2.142-10.172,3.578v-73.592l40.777-9.669c4.836-1.146,7.828-5.997,6.681-10.833 c-1.147-4.837-5.999-7.832-10.833-6.681L74.559,286.26c-0.131,0.028-0.262,0.06-0.391,0.093l-26.161,6.203 c-4.836,1.146-7.828,5.997-6.681,10.833c1.147,4.837,5.998,7.828,10.833,6.681l15.288-3.624v88.494 c-0.001,0.083-0.002,0.167-0.002,0.25c0,12.806,14.81,21.367,48.02,27.76c26.803,5.159,62.32,8,100.009,8 c37.689,0,73.207-2.841,100.01-8c33.209-6.393,48.019-14.954,48.019-27.76v-88.745l15.29,3.625 c4.838,1.154,9.688-1.844,10.833-6.681C390.773,298.553,387.781,293.702,382.945,292.556z M48.007,134.427l19.737,4.68 c-0.194,0.735-0.297,1.507-0.297,2.303v44.363c0,4.971,4.029,9,9,9s9-4.029,9-9v-42.47l36.625,8.683 c4.839,1.149,9.687-1.844,10.833-6.681s-1.845-9.687-6.681-10.833l-74.065-17.559c-4.834-1.147-9.687,1.843-10.833,6.681 C40.179,128.431,43.171,133.28,48.007,134.427z M198.35,199.353c-4.968,0-8.997,4.026-9,8.995l-0.101,175.981h-11.096 c-4.971,0-9,4.029-9,9s4.029,9,9,9h20.091c4.969,0,8.997-4.026,9-8.995l0.106-184.977c0.003-4.971-4.024-9.002-8.995-9.005 C198.353,199.353,198.352,199.353,198.35,199.353z M48.469,222.491H67.46c-0.009,0.162-0.013,0.324-0.013,0.488v44.104 c0,4.971,4.029,9,9,9s9-4.029,9-9v-44.104c0-0.164-0.004-0.326-0.013-0.488h38.714c4.971,0,9-4.029,9-9s-4.029-9-9-9H48.469 c-4.971,0-9,4.029-9,9S43.499,222.491,48.469,222.491z M212.742,131.672c-18.305-5.831-30.604-22.663-30.604-41.885 s12.299-36.055,30.604-41.886c1.777-0.566,3.686-0.566,5.463,0c18.305,5.831,30.603,22.663,30.603,41.886 c0,19.222-12.298,36.054-30.603,41.885c-0.889,0.283-1.81,0.425-2.731,0.425S213.631,131.955,212.742,131.672z M215.474,113.481 c9.28-4.139,15.334-13.328,15.334-23.694c0-10.367-6.054-19.557-15.334-23.695c-9.281,4.14-15.336,13.328-15.336,23.695 C200.138,100.153,206.193,109.342,215.474,113.481z"/> </g>
</svg>