<!DOCTYPE svg PUBLIC "-//W3C//DTD SVG 1.1//EN" "http://www.w3.org/Graphics/SVG/1.1/DTD/svg11.dtd">
<!-- Uploaded to: SVG Repo, www.svgrepo.com, Transformed by: SVG Repo Mixer Tools -->
<svg fill="#ffffff" width="800px" height="800px" viewBox="0 0 24 24" id="settings-alt-2" data-name="Flat Color" xmlns="http://www.w3.org/2000/svg" class="icon flat-color">
<g id="SVGRepo_bgCarrier" stroke-width="0"/>
<g id="SVGRepo_tracerCarrier" stroke-linecap="round" stroke-linejoin="round"/>
<g id="SVGRepo_iconCarrier">
<path id="primary" d="M21.42,21.42h0a2,2,0,0,1-2.82,0l-7.18-7.18A6.48,6.48,0,0,1,2,9.05a7.07,7.07,0,0,1,.1-1.85A1,1,0,0,1,3.8,6.74L7,10l2.49-.5L10,7,6.74,3.8A1,1,0,0,1,7.2,2.12,7.07,7.07,0,0,1,9.05,2a6.48,6.48,0,0,1,5.19,9.4l7.18,7.18A2,2,0,0,1,21.42,21.42Z" style="fill: #fff;"/>
</g>
</svg>