<!DOCTYPE svg PUBLIC "-//W3C//DTD SVG 1.1//EN" "http://www.w3.org/Graphics/SVG/1.1/DTD/svg11.dtd">
<!-- Uploaded to: SVG Repo, www.svgrepo.com, Transformed by: SVG Repo Mixer Tools -->
<svg fill="#ffffff" height="800px" width="800px" version="1.1" id="Capa_1" xmlns="http://www.w3.org/2000/svg" xmlns:xlink="http://www.w3.org/1999/xlink" viewBox="0 0 60 60" xml:space="preserve">
<g id="SVGRepo_bgCarrier" stroke-width="0"/>
<g id="SVGRepo_tracerCarrier" stroke-linecap="round" stroke-linejoin="round"/>
<g id="SVGRepo_iconCarrier"> <g> <path d="M0,20h6V6h14V0H0V20z"/> <path d="M40,0v6h14v14h6V0H40z"/> <path d="M54,54H40v6h20V40h-6V54z"/> <path d="M6,40H0v20h20v-6H6V40z"/> <path d="M30,4c-4.963,0-9,4.037-9,9v12c0,1.654,1.346,3,3,3s3-1.346,3-3V13c0-1.654,1.346-3,3-3s3,1.346,3,3v12 c0,1.654,1.346,3,3,3s3-1.346,3-3V13C39,8.037,34.963,4,30,4z"/> <path d="M36,32c-1.654,0-3,1.346-3,3v12c0,1.654-1.346,3-3,3s-3-1.346-3-3V35c0-1.654-1.346-3-3-3s-3,1.346-3,3v12 c0,4.963,4.037,9,9,9s9-4.037,9-9V35C39,33.346,37.654,32,36,32z"/> <path d="M46.535,21.051l-4.242,4.242c-0.391,0.391-0.391,1.023,0,1.414C42.488,26.902,42.744,27,43,27s0.512-0.098,0.707-0.293 l4.242-4.242c0.391-0.391,0.391-1.023,0-1.414S46.926,20.66,46.535,21.051z"/> <path d="M43,30c0,0.553,0.447,1,1,1h6c0.553,0,1-0.447,1-1s-0.447-1-1-1h-6C43.447,29,43,29.447,43,30z"/> <path d="M42.293,34.707l4.242,4.242c0.195,0.195,0.451,0.293,0.707,0.293s0.512-0.098,0.707-0.293c0.391-0.391,0.391-1.023,0-1.414 l-4.242-4.242c-0.391-0.391-1.023-0.391-1.414,0S41.902,34.316,42.293,34.707z"/> <path d="M16.293,33.293l-4.242,4.242c-0.391,0.391-0.391,1.023,0,1.414c0.195,0.195,0.451,0.293,0.707,0.293 s0.512-0.098,0.707-0.293l4.242-4.242c0.391-0.391,0.391-1.023,0-1.414S16.684,32.902,16.293,33.293z"/> <path d="M9,30c0,0.553,0.447,1,1,1h6c0.553,0,1-0.447,1-1s-0.447-1-1-1h-6C9.447,29,9,29.447,9,30z"/> <path d="M17.707,25.293l-4.242-4.242c-0.391-0.391-1.023-0.391-1.414,0s-0.391,1.023,0,1.414l4.242,4.242 C16.488,26.902,16.744,27,17,27s0.512-0.098,0.707-0.293C18.098,26.316,18.098,25.684,17.707,25.293z"/> </g> </g>
</svg>