<!DOCTYPE svg PUBLIC "-//W3C//DTD SVG 1.1//EN" "http://www.w3.org/Graphics/SVG/1.1/DTD/svg11.dtd">
<!-- Uploaded to: SVG Repo, www.svgrepo.com, Transformed by: SVG Repo Mixer Tools -->
<svg width="800px" height="800px" viewBox="0 0 20 20" version="1.1" xmlns="http://www.w3.org/2000/svg" xmlns:xlink="http://www.w3.org/1999/xlink" fill="#ffffff">
<g id="SVGRepo_bgCarrier" stroke-width="0"/>
<g id="SVGRepo_tracerCarrier" stroke-linecap="round" stroke-linejoin="round"/>
<g id="SVGRepo_iconCarrier"> <title>center_round [#814]</title> <desc>Created with Sketch.</desc> <defs> </defs> <g id="Page-1" stroke="none" stroke-width="1" fill="none" fill-rule="evenodd"> <g id="Dribbble-Light-Preview" transform="translate(-300.000000, -4559.000000)" fill="#ffffff"> <g id="icons" transform="translate(56.000000, 160.000000)"> <path d="M246.069,4410 L248,4410 C248.552,4410 249,4409.552 249,4409 L249,4409 C249,4408.448 248.552,4408 248,4408 L246.069,4408 C246.252,4407 246.828,4405.208 247.688,4404.102 L249.05,4405.464 C249.44,4405.855 250.073,4405.855 250.464,4405.464 L250.464,4405.464 C250.855,4405.074 250.855,4404.441 250.464,4404.05 L249.102,4402.688 C250.208,4401.828 252,4401.252 253,4401.069 L253,4403 C253,4403.553 253.447,4404 253.999,4404 L254,4404 C254.552,4404 255,4403.553 255,4403 L255,4401.069 C256,4401.252 257.791,4401.828 258.897,4402.688 L257.535,4404.05 C257.145,4404.441 257.145,4405.074 257.535,4405.464 L257.535,4405.464 C257.926,4405.855 258.559,4405.855 258.949,4405.465 L260.311,4404.102 C261.171,4405.208 261.747,4407 261.93,4408 L259.999,4408 C259.447,4408 259,4408.448 259,4409 L259,4409 C259,4409.552 259.447,4410 259.999,4410 L261.93,4410 C261.747,4411 261.171,4412.792 260.311,4413.898 L258.949,4412.536 C258.559,4412.145 257.926,4412.145 257.535,4412.536 L257.535,4412.536 C257.145,4412.926 257.145,4413.559 257.535,4413.95 L258.897,4415.312 C257.791,4416.172 256,4416.748 255,4416.931 L255,4415 C255,4414.448 254.552,4414 254,4414 L253.999,4414 C253.447,4414 253,4414.448 253,4415 L253,4416.931 C252,4416.748 250.208,4416.172 249.102,4415.312 L250.464,4413.95 C250.855,4413.559 250.855,4412.926 250.464,4412.536 L250.464,4412.536 C250.074,4412.145 249.44,4412.145 249.05,4412.536 L247.688,4413.898 C246.828,4412.792 246.252,4411 246.069,4410 M254,4399 C248.477,4399 244,4403.477 244,4409 C244,4414.523 248.477,4419 254,4419 C259.522,4419 264,4414.523 264,4409 C264,4403.477 259.522,4399 254,4399" id="center_round-[#814]"> </path> </g> </g> </g> </g>
</svg>