<?xml version="1.0" encoding="UTF-8" standalone="no"?>
<!DOCTYPE svg PUBLIC "-//W3C//DTD SVG 1.1//EN" "http://www.w3.org/Graphics/SVG/1.1/DTD/svg11.dtd">
<svg width="100%" height="100%" viewBox="0 0 128 128" version="1.1" xmlns="http://www.w3.org/2000/svg" xmlns:xlink="http://www.w3.org/1999/xlink" xml:space="preserve" xmlns:serif="http://www.serif.com/" style="fill-rule:evenodd;clip-rule:evenodd;stroke-linejoin:round;stroke-miterlimit:2;">
    <g>
        <g transform="matrix(0.6,0,0,0.666667,31,9.33333)">
            <path d="M60,12.25C60,11.008 58.88,10 57.5,10L52.5,10C51.12,10 50,11.008 50,12.25L50,37.75C50,38.992 51.12,40 52.5,40L57.5,40C58.88,40 60,38.992 60,37.75L60,12.25Z" style="fill:rgb(160,160,160);"/>
        </g>
        <g transform="matrix(0.6,0,0,0.666667,31,85.3333)">
            <path d="M60,12.25C60,11.008 58.88,10 57.5,10L52.5,10C51.12,10 50,11.008 50,12.25L50,37.75C50,38.992 51.12,40 52.5,40L57.5,40C58.88,40 60,38.992 60,37.75L60,12.25Z" style="fill:rgb(160,160,160);"/>
        </g>
    </g>
    <g transform="matrix(0.866025,0.5,-0.5,0.866025,40.5744,-23.4256)">
        <g transform="matrix(0.6,0,0,0.666667,31,9.33333)">
            <path d="M60,12.25C60,11.008 58.88,10 57.5,10L52.5,10C51.12,10 50,11.008 50,12.25L50,37.75C50,38.992 51.12,40 52.5,40L57.5,40C58.88,40 60,38.992 60,37.75L60,12.25Z" style="fill:rgb(191,191,191);"/>
        </g>
        <g transform="matrix(0.6,0,0,0.666667,31,85.3333)">
            <path d="M60,12.25C60,11.008 58.88,10 57.5,10L52.5,10C51.12,10 50,11.008 50,12.25L50,37.75C50,38.992 51.12,40 52.5,40L57.5,40C58.88,40 60,38.992 60,37.75L60,12.25Z" style="fill:rgb(191,191,191);"/>
        </g>
    </g>
    <g transform="matrix(0.5,0.866025,-0.866025,0.5,87.4256,-23.4256)">
        <g transform="matrix(0.6,0,0,0.666667,31,9.33333)">
            <path d="M60,12.25C60,11.008 58.88,10 57.5,10L52.5,10C51.12,10 50,11.008 50,12.25L50,37.75C50,38.992 51.12,40 52.5,40L57.5,40C58.88,40 60,38.992 60,37.75L60,12.25Z" style="fill:rgb(160,160,160);"/>
        </g>
        <g transform="matrix(0.6,0,0,0.666667,31,85.3333)">
            <path d="M60,12.25C60,11.008 58.88,10 57.5,10L52.5,10C51.12,10 50,11.008 50,12.25L50,37.75C50,38.992 51.12,40 52.5,40L57.5,40C58.88,40 60,38.992 60,37.75L60,12.25Z" style="fill:rgb(160,160,160);"/>
        </g>
    </g>
    <g transform="matrix(2.77556e-16,1,-1,2.77556e-16,128,-7.10543e-15)">
        <g transform="matrix(0.6,0,0,0.666667,31,9.33333)">
            <path d="M60,12.25C60,11.008 58.88,10 57.5,10L52.5,10C51.12,10 50,11.008 50,12.25L50,37.75C50,38.992 51.12,40 52.5,40L57.5,40C58.88,40 60,38.992 60,37.75L60,12.25Z" style="fill:rgb(191,191,191);"/>
        </g>
        <g transform="matrix(0.6,0,0,0.666667,31,85.3333)">
            <path d="M60,12.25C60,11.008 58.88,10 57.5,10L52.5,10C51.12,10 50,11.008 50,12.25L50,37.75C50,38.992 51.12,40 52.5,40L57.5,40C58.88,40 60,38.992 60,37.75L60,12.25Z" style="fill:rgb(191,191,191);"/>
        </g>
    </g>
    <g transform="matrix(-0.5,0.866025,-0.866025,-0.5,151.426,40.5744)">
        <g transform="matrix(0.6,0,0,0.666667,31,9.33333)">
            <path d="M60,12.25C60,11.008 58.88,10 57.5,10L52.5,10C51.12,10 50,11.008 50,12.25L50,37.75C50,38.992 51.12,40 52.5,40L57.5,40C58.88,40 60,38.992 60,37.75L60,12.25Z" style="fill:rgb(160,160,160);"/>
        </g>
        <g transform="matrix(0.6,0,0,0.666667,31,85.3333)">
            <path d="M60,12.25C60,11.008 58.88,10 57.5,10L52.5,10C51.12,10 50,11.008 50,12.25L50,37.75C50,38.992 51.12,40 52.5,40L57.5,40C58.88,40 60,38.992 60,37.75L60,12.25Z" style="fill:rgb(160,160,160);"/>
        </g>
    </g>
    <g transform="matrix(-0.866025,0.5,-0.5,-0.866025,151.426,87.4256)">
        <g transform="matrix(0.6,0,0,0.666667,31,9.33333)">
            <path d="M60,12.25C60,11.008 58.88,10 57.5,10L52.5,10C51.12,10 50,11.008 50,12.25L50,37.75C50,38.992 51.12,40 52.5,40L57.5,40C58.88,40 60,38.992 60,37.75L60,12.25Z" style="fill:rgb(191,191,191);"/>
        </g>
        <g transform="matrix(0.6,0,0,0.666667,31,85.3333)">
            <path d="M60,12.25C60,11.008 58.88,10 57.5,10L52.5,10C51.12,10 50,11.008 50,12.25L50,37.75C50,38.992 51.12,40 52.5,40L57.5,40C58.88,40 60,38.992 60,37.75L60,12.25Z" style="fill:rgb(191,191,191);"/>
        </g>
    </g>
    <g transform="matrix(1,0,0,1,1.73133,0.25)">
        <text x="44.473px" y="66.163px" style="font-family:'ArialMT', 'Arial', sans-serif;font-size:10px;fill:rgb(191,191,191);">Loading</text>
    </g>
</svg>
