<!DOCTYPE svg PUBLIC "-//W3C//DTD SVG 1.1//EN" "http://www.w3.org/Graphics/SVG/1.1/DTD/svg11.dtd">
<!-- Uploaded to: SVG Repo, www.svgrepo.com, Transformed by: SVG Repo Mixer Tools -->
<svg fill="#ffffff" height="800px" width="800px" version="1.1" id="Layer_1" xmlns="http://www.w3.org/2000/svg" xmlns:xlink="http://www.w3.org/1999/xlink" viewBox="0 0 512.601 512.601" xml:space="preserve">
<g id="SVGRepo_bgCarrier" stroke-width="0"/>
<g id="SVGRepo_tracerCarrier" stroke-linecap="round" stroke-linejoin="round"/>
<g id="SVGRepo_iconCarrier"> <g> <g> <path d="M512.275,488.671L469.608,19.337c0-10.667-10.667-19.2-21.333-19.2h-384c-10.667,0-19.2,8.533-21.333,19.2L0.275,488.671 c-2.133,12.8,8.533,21.333,19.2,23.467c10.667,2.133,21.333-8.533,23.467-19.2L83.475,42.804h345.6l40.533,450.133 c2.133,12.8,10.667,21.333,23.467,19.2C505.875,510.004,514.408,501.471,512.275,488.671z"/> </g> </g> <g> <g> <path d="M390.675,307.337c-4.267-40.533-40.533-72.533-81.067-72.533H202.941c-40.533,0-76.8,29.867-81.067,72.533 l-14.933,113.067c0,12.8,6.4,23.467,19.2,27.733c85.333,27.733,177.067,27.733,262.4,0c10.667-4.267,17.067-14.933,17.067-27.733 L390.675,307.337z M151.741,411.871l12.8-100.267c2.133-19.2,19.2-34.133,38.4-34.133h106.667c19.2,0,36.267,14.933,38.4,34.133 l12.8,100.267C292.541,431.071,220.008,431.071,151.741,411.871z"/> </g> </g> <g> <g> <path d="M192.275,0.137c-12.8,0-21.333,8.533-21.333,21.333v234.667c0,12.8,8.533,21.333,21.333,21.333 s21.333-8.533,21.333-21.333V21.471C213.608,8.671,205.075,0.137,192.275,0.137z"/> </g> </g> <g> <g> <path d="M320.275,0.137c-12.8,0-21.333,8.533-21.333,21.333v234.667c0,12.8,8.533,21.333,21.333,21.333 s21.333-8.533,21.333-21.333V21.471C341.608,8.671,333.075,0.137,320.275,0.137z"/> </g> </g> <g> <g> <path d="M375.741,341.471H136.808c-12.8,0-21.333,8.533-21.333,21.333s8.533,21.333,21.333,21.333h238.933 c12.8,0,21.333-8.533,21.333-21.333S388.541,341.471,375.741,341.471z"/> </g> </g> <g> <g> <path d="M256.275,341.471c-12.8,0-21.333,8.533-21.333,21.333v85.333c0,12.8,8.533,21.333,21.333,21.333 c12.8,0,21.333-8.533,21.333-21.333v-85.333C277.608,350.004,269.075,341.471,256.275,341.471z"/> </g> </g> </g>
</svg>