<!DOCTYPE svg PUBLIC "-//W3C//DTD SVG 1.1//EN" "http://www.w3.org/Graphics/SVG/1.1/DTD/svg11.dtd">
<!-- Uploaded to: SVG Repo, www.svgrepo.com, Transformed by: SVG Repo Mixer Tools -->
<svg fill="#ffffff" height="800px" width="800px" version="1.1" id="Capa_1" xmlns="http://www.w3.org/2000/svg" xmlns:xlink="http://www.w3.org/1999/xlink" viewBox="0 0 366.836 366.836" xml:space="preserve">
<g id="SVGRepo_bgCarrier" stroke-width="0"/>
<g id="SVGRepo_tracerCarrier" stroke-linecap="round" stroke-linejoin="round"/>
<g id="SVGRepo_iconCarrier"> <path id="XMLID_2_" d="M287.794,357.836c0,4.971-4.029,9-9,9H88.042c-4.971,0-9-4.029-9-9s4.029-9,9-9h190.752 C283.765,348.836,287.794,352.865,287.794,357.836z M146.221,187.955c-1.028-4.863-5.805-7.962-10.667-6.943 c-23.91,5.058-36.033,13.417-36.033,24.847c0,28.502,75.311,29.325,83.897,29.325s83.894-0.823,83.894-29.325 c0-11.429-12.122-19.788-36.031-24.846c-4.861-1.023-9.638,2.08-10.667,6.942s2.079,9.639,6.942,10.668 c11.962,2.53,18.046,5.471,20.62,7.28c-6.145,4.481-28.409,11.28-64.758,11.28c-36.351,0-58.616-6.799-64.762-11.279 c2.574-1.811,8.659-4.751,20.622-7.281C144.142,197.594,147.25,192.818,146.221,187.955z M167.208,207.579 c0.1,0.003,0.199,0.005,0.298,0.005c4.836,0,8.832-3.839,8.99-8.707c0.144-4.422,0.003-8.625-0.418-12.492l-1.616-14.835 c-0.539-4.94-4.972-8.51-9.922-7.973c-4.941,0.538-8.511,4.98-7.973,9.922l1.616,14.835c0.33,3.029,0.438,6.379,0.322,9.957 C158.344,203.259,162.24,207.418,167.208,207.579z M148.479,126.154c1.318,3.675,4.78,5.965,8.472,5.965 c1.009,0,2.034-0.171,3.038-0.531c4.679-1.678,7.111-6.831,5.434-11.51C150.366,78.1,120.59,25.603,82.174,4.16 c-4.339-2.424-9.822-0.869-12.245,3.472s-0.868,9.823,3.472,12.245C101.474,35.547,130.943,77.263,148.479,126.154z M150.155,42.211 c0-19.177,12.27-35.97,30.531-41.786c1.777-0.566,3.686-0.566,5.463,0c18.262,5.816,30.531,22.609,30.531,41.786 c0,19.175-12.27,35.968-30.53,41.787c-0.889,0.283-1.811,0.425-2.732,0.425s-1.844-0.142-2.732-0.425 C162.425,78.179,150.155,61.386,150.155,42.211z M168.155,42.211c0,10.32,6.026,19.47,15.263,23.596 c9.236-4.126,15.263-13.275,15.263-23.596c0-10.321-6.025-19.471-15.263-23.595C174.181,22.74,168.155,31.89,168.155,42.211z M245.826,106.285c-4.905-0.799-9.534,2.52-10.339,7.424c-0.804,4.905,2.521,9.534,7.425,10.339 c13.28,2.178,20.662,4.564,24.643,6.299c-10.759,4.536-39.612,10.481-84.137,10.481c-44.526,0-73.379-5.945-84.135-10.482 c4.061-1.771,11.663-4.221,25.461-6.433c4.907-0.787,8.248-5.403,7.462-10.312c-0.787-4.907-5.397-8.243-10.312-7.462 c-30.547,4.896-44.169,12.353-44.169,24.175c0,10.684,10.961,17.66,35.539,22.62c18.831,3.801,43.745,5.894,70.153,5.894 s51.323-2.093,70.155-5.894c24.58-4.96,35.541-11.937,35.541-22.62C289.114,118.605,275.764,111.194,245.826,106.285z M296.907,7.632c-2.423-4.341-7.906-5.896-12.245-3.472c-38.423,21.446-68.196,73.941-83.248,115.918 c-1.678,4.68,0.755,9.832,5.434,11.51c1.004,0.36,2.029,0.531,3.038,0.531c3.691,0,7.154-2.29,8.472-5.965 c17.53-48.889,47-90.604,75.078-106.277C297.775,17.455,299.33,11.973,296.907,7.632z M210.265,173.497 c0.537-4.941-3.033-9.383-7.975-9.92c-4.944-0.54-9.383,3.033-9.92,7.975l-1.612,14.833c-0.421,3.867-0.562,8.07-0.418,12.492 c0.158,4.868,4.154,8.707,8.99,8.707c0.099,0,0.198-0.002,0.298-0.005c4.968-0.161,8.864-4.32,8.702-9.288 c-0.116-3.578-0.008-6.928,0.322-9.959L210.265,173.497z M153.415,252.875l-9.579,64.544h-12.269c-4.971,0-9,4.029-9,9s4.029,9,9,9 h20.031c4.46,0,8.248-3.267,8.902-7.679l10.719-72.223c0.729-4.917-2.664-9.494-7.581-10.224 C158.718,244.56,154.144,247.959,153.415,252.875z M223,317.419l-9.579-64.544c-0.729-4.916-5.314-8.314-10.224-7.581 c-4.917,0.729-8.311,5.307-7.581,10.224l10.719,72.223c0.654,4.412,4.442,7.679,8.902,7.679h20.027c4.971,0,9-4.029,9-9 s-4.029-9-9-9H223z"/> </g>
</svg>