<!DOCTYPE svg PUBLIC "-//W3C//DTD SVG 1.1//EN" "http://www.w3.org/Graphics/SVG/1.1/DTD/svg11.dtd">
<!-- Uploaded to: SVG Repo, www.svgrepo.com, Transformed by: SVG Repo Mixer Tools -->
<svg width="800px" height="800px" viewBox="0 0 24 24" xmlns="http://www.w3.org/2000/svg" fill="#ffffff">
<g id="SVGRepo_bgCarrier" stroke-width="0"/>
<g id="SVGRepo_tracerCarrier" stroke-linecap="round" stroke-linejoin="round"/>
<g id="SVGRepo_iconCarrier">
<path d="M11.9,16.5a4.92,4.92,0,0,0-2.7-4.4l5.5-8L13.1,3,2,19H22V17H11.9Zm-2,.5H5.8L8,13.7a3.06,3.06,0,0,1,1.9,2.8Zm3.2-6a3,3,0,0,0,3,3h.4v1.5h2V14H19a3,3,0,0,0,0-6h-.5V6.5h-2V8h-.4A3,3,0,0,0,13.1,11Zm5.4-1H19a1,1,0,0,1,0,2h-.5Zm-2.4,0h.4v2h-.4a1,1,0,0,1,0-2Z"/>
<rect width="24" height="24" fill="none"/>
</g>
</svg>