<!DOCTYPE svg PUBLIC "-//W3C//DTD SVG 1.1//EN" "http://www.w3.org/Graphics/SVG/1.1/DTD/svg11.dtd">
<!-- Uploaded to: SVG Repo, www.svgrepo.com, Transformed by: SVG Repo Mixer Tools -->
<svg fill="#ffffff" width="800px" height="800px" viewBox="0 0 24 24" xmlns="http://www.w3.org/2000/svg">
<g id="SVGRepo_bgCarrier" stroke-width="0"/>
<g id="SVGRepo_tracerCarrier" stroke-linecap="round" stroke-linejoin="round"/>
<g id="SVGRepo_iconCarrier"> <path d="M3.21670804,13.9719907 C4.11578916,17.9940298 7.7068536,21 12,21 C16.2931464,21 19.8842108,17.9940298 20.783292,13.9719907 C19.0845722,15.219965 15.7819673,16 12,16 C8.21803273,16 4.91542783,15.219965 3.21670804,13.9719907 L3.21670804,13.9719907 Z M3.21670804,10.0280093 C4.91542783,8.78003502 8.21803273,8 12,8 C15.7819673,8 19.0845722,8.78003502 20.783292,10.0280093 C19.8842108,6.00597022 16.2931464,3 12,3 C7.7068536,3 4.11578916,6.00597022 3.21670804,10.0280093 L3.21670804,10.0280093 Z M12,22 C6.4771525,22 2,17.5228475 2,12 C2,6.4771525 6.4771525,2 12,2 C17.5228475,2 22,6.4771525 22,12 C22,17.5228475 17.5228475,22 12,22 Z M12,15 C16.9849473,15 21,13.5207701 21,12 C21,10.4792299 16.9849473,9 12,9 C7.01505266,9 3,10.4792299 3,12 C3,13.5207701 7.01505266,15 12,15 Z"/> </g>
</svg>