<?xml version="1.0" encoding="UTF-8" standalone="no"?>
<!DOCTYPE svg PUBLIC "-//W3C//DTD SVG 1.1//EN" "http://www.w3.org/Graphics/SVG/1.1/DTD/svg11.dtd">
<svg width="100%" height="100%" viewBox="0 0 800 800" version="1.1" xmlns="http://www.w3.org/2000/svg" xmlns:xlink="http://www.w3.org/1999/xlink" xml:space="preserve" xmlns:serif="http://www.serif.com/" style="fill-rule:evenodd;clip-rule:evenodd;stroke-linejoin:round;stroke-miterlimit:2;">
    <g id="SVGRepo_iconCarrier">
        <path d="M233.333,133.333C288.192,133.333 333.333,178.475 333.333,233.333C333.333,288.192 288.192,333.333 233.333,333.333C178.475,333.333 133.333,288.192 133.333,233.333C133.333,178.475 178.475,133.333 233.333,133.333ZM400,666.667C363.428,666.667 333.333,636.572 333.333,600C333.333,563.428 363.428,533.333 400,533.333C436.572,533.333 466.667,563.428 466.667,600C466.667,636.572 436.572,666.667 400,666.667ZM633.333,333.333C615.047,333.333 600,318.286 600,300C600,281.714 615.047,266.667 633.333,266.667C651.619,266.667 666.667,281.714 666.667,300C666.667,318.286 651.619,333.333 633.333,333.333Z" style="fill:rgb(191,191,191);fill-rule:nonzero;"/>
        <path d="M233.333,400C324.764,400 400,324.764 400,233.333C400,141.903 324.764,66.667 233.333,66.667C141.903,66.667 66.667,141.903 66.667,233.333C66.776,324.723 141.944,399.891 233.333,400ZM233.333,133.333C288.192,133.333 333.333,178.475 333.333,233.333C333.333,288.192 288.192,333.333 233.333,333.333C178.475,333.333 133.333,288.192 133.333,233.333C133.333,178.475 178.475,133.333 233.333,133.333ZM400,466.667C326.855,466.667 266.667,526.855 266.667,600C266.667,673.145 326.855,733.333 400,733.333C473.145,733.333 533.333,673.145 533.333,600C533.333,526.855 473.145,466.667 400,466.667ZM400,666.667C363.428,666.667 333.333,636.572 333.333,600C333.333,563.428 363.428,533.333 400,533.333C436.572,533.333 466.667,563.428 466.667,600C466.667,636.572 436.572,666.667 400,666.667ZM733.333,300C733.333,245.142 688.192,200 633.333,200C578.475,200 533.333,245.142 533.333,300C533.333,354.858 578.475,400 633.333,400C688.192,400 733.333,354.858 733.333,300ZM633.333,333.333C615.047,333.333 600,318.286 600,300C600,281.714 615.047,266.667 633.333,266.667C651.619,266.667 666.667,281.714 666.667,300C666.667,318.286 651.619,333.333 633.333,333.333ZM533.333,166.667C533.333,184.953 518.286,200 500,200C481.714,200 466.667,184.953 466.667,166.667C466.667,148.381 481.714,133.333 500,133.333C518.286,133.333 533.333,148.381 533.333,166.667ZM633.333,500C651.619,500 666.667,515.047 666.667,533.333C666.667,551.619 651.619,566.667 633.333,566.667C615.047,566.667 600,551.619 600,533.333C600,515.047 615.047,500 633.333,500ZM200,433.333C218.286,433.333 233.333,448.381 233.333,466.667C233.333,484.953 218.286,500 200,500C181.714,500 166.667,484.953 166.667,466.667C166.667,448.381 181.714,433.333 200,433.333Z" style="fill:white;fill-rule:nonzero;"/>
    </g>
</svg>
