<!DOCTYPE svg PUBLIC "-//W3C//DTD SVG 1.1//EN" "http://www.w3.org/Graphics/SVG/1.1/DTD/svg11.dtd">
<!-- Uploaded to: SVG Repo, www.svgrepo.com, Transformed by: SVG Repo Mixer Tools -->
<svg width="800px" height="800px" viewBox="0 0 512 512" version="1.1" xmlns="http://www.w3.org/2000/svg" xmlns:xlink="http://www.w3.org/1999/xlink" fill="#ffffff" stroke="#ffffff">
<g id="SVGRepo_bgCarrier" stroke-width="0"/>
<g id="SVGRepo_tracerCarrier" stroke-linecap="round" stroke-linejoin="round"/>
<g id="SVGRepo_iconCarrier"> <title>connector-filled</title> <g id="Page-1" stroke="none" stroke-width="1" fill="none" fill-rule="evenodd"> <g id="add" fill="#ffffff" transform="translate(64.000000, 64.000000)"> <path d="M181.333333,1.42108547e-14 C234.352669,1.42108547e-14 277.333333,42.980664 277.333333,96 C277.333333,147.504498 236.773621,189.535767 185.852495,191.89551 L181.333333,192 L117.333333,192 C87.8781467,192 64,215.878147 64,245.333333 C64,273.610313 86.0061,296.747492 113.826652,298.553223 L117.333333,298.666667 L194.68864,298.665629 C204.04963,262.29754 236.783165,235.312679 275.922191,234.678099 L277.333333,234.666667 L341.333333,234.666667 L341.333,266.666667 L405.333333,266.666667 L405.333333,298.666667 L341.333,298.666667 L341.333,341.332667 L405.333333,341.333333 L405.333333,373.333333 L341.333,373.332667 L341.333333,405.333333 L277.333333,405.333333 C237.571799,405.333333 204.161914,378.138692 194.68864,341.334371 L117.333333,341.333333 C64.3139973,341.333333 21.3333333,298.352669 21.3333333,245.333333 C21.3333333,193.828836 61.8930457,151.797566 112.814172,149.437824 L117.333333,149.333333 L181.333333,149.333333 C210.78852,149.333333 234.666667,125.455187 234.666667,96 C234.666667,67.7230208 212.660567,44.5858417 184.840015,42.7801105 L181.333333,42.6666667 L1.42108547e-14,42.6666667 L1.42108547e-14,1.42108547e-14 L181.333333,1.42108547e-14 Z" id="Combined-Shape"> </path> </g> </g> </g>
</svg>