<!DOCTYPE svg PUBLIC "-//W3C//DTD SVG 1.1//EN" "http://www.w3.org/Graphics/SVG/1.1/DTD/svg11.dtd">
<!-- Uploaded to: SVG Repo, www.svgrepo.com, Transformed by: SVG Repo Mixer Tools -->
<svg fill="#ffffff" height="800px" width="800px" version="1.1" id="Layer_1" xmlns="http://www.w3.org/2000/svg" xmlns:xlink="http://www.w3.org/1999/xlink" viewBox="0 0 502 502" xml:space="preserve">
<g id="SVGRepo_bgCarrier" stroke-width="0"/>
<g id="SVGRepo_tracerCarrier" stroke-linecap="round" stroke-linejoin="round"/>
<g id="SVGRepo_iconCarrier"> <g> <g> <g> <path d="M261,159.975v-14.922c26.461-4.738,46.613-27.907,46.613-55.71c0-12.951-8.217-30.964-25.119-55.066 c-11.817-16.851-23.459-30.274-23.949-30.838C256.646,1.254,253.894,0,251,0s-5.646,1.254-7.545,3.438 c-0.49,0.563-12.132,13.987-23.949,30.838c-16.902,24.103-25.119,42.115-25.119,55.066c0,27.803,20.152,50.972,46.613,55.71 v14.922c-89.742,5.196-161.163,79.841-161.163,170.863C79.837,425.217,156.621,502,251,502s171.163-76.783,171.163-171.163 C422.163,239.815,350.742,165.171,261,159.975z M396.705,290.559c-13.265-9.304-31.429-17.22-53.864-23.217 c-5.337-1.429-10.817,1.743-12.243,7.078c-1.426,5.335,1.743,10.817,7.078,12.243c39.174,10.472,64.486,27.812,64.486,44.174 c0,18.104-30.46,37.655-79.319,47.745c1.846-15.313,2.804-31.357,2.804-47.745c0-44.293-6.98-86.087-19.653-117.682 c-4.392-10.948-9.359-20.328-14.784-28.042C342.273,199.22,382.575,239.506,396.705,290.559z M214.387,89.342 c0-13.795,20.124-43.286,36.613-63.746c16.49,20.46,36.613,49.95,36.613,63.746c0,16.721-11.272,30.85-26.613,35.213V82.399 c0-5.523-4.477-10-10-10s-10,4.477-10,10v42.156C225.659,120.192,214.387,106.063,214.387,89.342z M210.812,185.108 c-4.837,6.863-9.31,15.038-13.325,24.465c-6.463,15.173-11.575,33.042-15.154,52.59c-19.174,3.51-36.738,8.501-51.748,14.803 c-9.786,4.109-18.246,8.703-25.314,13.682C119.381,239.545,159.709,199.217,210.812,185.108z M138.327,295.406 c11.964-5.023,25.764-9.146,40.836-12.267c-1.443,11.961-2.35,24.367-2.674,37.029c-0.141,5.521,4.22,10.111,9.741,10.252 c5.532,0.146,10.112-4.219,10.252-9.741c0.373-14.567,1.51-28.306,3.262-41.072c13.864-1.914,28.489-3.05,43.516-3.343 c5.522-0.107,9.911-4.671,9.804-10.192c-0.107-5.522-4.673-9.923-10.192-9.804c-13.557,0.264-26.836,1.19-39.606,2.732 c10.139-49.123,29.785-79.326,47.734-79.326c25.847,0,54.647,62.08,54.647,151.163c0,18.334-1.222,35.521-3.385,51.262 c-15.741,2.163-32.928,3.385-51.262,3.385c-89.083,0-151.163-28.8-151.163-54.647C99.837,318.59,113.866,305.676,138.327,295.406 z M251,482c-16.279,0-33.568-25.125-44.046-64.01c-1.438-5.333-6.928-8.488-12.257-7.054c-5.333,1.437-8.491,6.925-7.054,12.257 c5.981,22.196,13.85,40.186,23.086,53.351c-51.057-14.128-91.345-54.431-105.453-105.497 c7.713,5.425,17.093,10.392,28.042,14.784c31.595,12.674,73.389,19.653,117.682,19.653c16.388,0,32.431-0.958,47.745-2.804 C288.655,451.54,269.104,482,251,482z M291.21,476.561c5.425-7.713,10.392-17.093,14.784-28.042 c5.794-14.446,10.395-31.029,13.686-49.003c17.974-3.291,34.557-7.891,49.003-13.686c10.948-4.392,20.328-9.359,28.042-14.784 C382.611,422.133,342.296,462.448,291.21,476.561z"/> <path d="M187.405,370.096c0.246,0,0.495-0.009,0.744-0.027c5.508-0.405,9.645-5.199,9.239-10.707 c-0.257-3.491-0.47-7.067-0.632-10.63c-0.252-5.517-4.937-9.791-10.445-9.535c-5.517,0.251-9.786,4.928-9.535,10.445 c0.171,3.749,0.395,7.513,0.665,11.188C177.83,366.088,182.215,370.096,187.405,370.096z"/> <path d="M269.451,276.492c3.55,0.14,5.592,0.321,8.418,0.572c1.205,0.107,2.51,0.223,4.069,0.348 c0.271,0.021,0.541,0.032,0.809,0.032c5.161,0,9.538-3.969,9.957-9.203c0.44-5.505-3.665-10.325-9.17-10.766 c-1.492-0.119-2.742-0.23-3.895-0.333c-2.876-0.255-5.36-0.476-9.403-0.635c-5.532-0.221-10.168,4.081-10.385,9.6 C259.635,271.625,263.933,276.275,269.451,276.492z"/> </g> </g> </g> </g>
</svg>