<!DOCTYPE svg PUBLIC "-//W3C//DTD SVG 1.1//EN" "http://www.w3.org/Graphics/SVG/1.1/DTD/svg11.dtd">
<!-- Uploaded to: SVG Repo, www.svgrepo.com, Transformed by: SVG Repo Mixer Tools -->
<svg fill="#ffffff" height="800px" width="800px" version="1.1" id="Capa_1" xmlns="http://www.w3.org/2000/svg" xmlns:xlink="http://www.w3.org/1999/xlink" viewBox="0 0 351.338 351.338" xml:space="preserve">
<g id="SVGRepo_bgCarrier" stroke-width="0"/>
<g id="SVGRepo_tracerCarrier" stroke-linecap="round" stroke-linejoin="round"/>
<g id="SVGRepo_iconCarrier"> <g> <path d="M346.338,154.251c0,0-46.439,0-61.919,0c-4,0-4.128-3.5-4.128-3.5V72.772c0-2.188,0.644-2.107,1.002-0.926 c0.358,1.182,0.767,2.428,1.229,3.744c1.37,3.894,6.389,17.077,13.433,23.232c7.339,6.416,22.624,9.877,33.28,9.877 c6.971,0,11.484-1.45,14.205-4.563c3.74-4.28,3.943-12.301,0.602-23.837c-1.38-4.763-5.332-16.49-12.221-22.511 c-8.685-7.593-29.498-11.403-38.708-11.403c-1.03,0-4.224,0.001-4.734,0.001c-12.73,0-23.088,10.357-23.088,23.088V151 c0,0,0.544,3.251-4.289,3.251c-5.437,0-15.24,0-21.75,0c-3.583,0-3.461-2.499-3.461-2.499V43.036 c0-13.453-10.944-24.399-24.396-24.399c-0.542,0-4.003-0.001-5.131-0.001c-11.517,0-32.892,4.642-41.543,12.204 c-10.166,8.885-20.901,39.777-12.535,49.351c2.821,3.227,7.564,4.729,14.927,4.729h0.001c11.435,0,27.818-3.697,35.657-10.549 c7.519-6.572,12.906-20.734,14.379-24.918c1.371-3.895,3.642-7.716,3.642-6.418v108.383c0,0,0.461,2.832-4.706,2.832 c-62.229,0-57.522,0-74.791,0c-4.458,0-4.31-3.166-4.31-3.166V75.817c0-10.946-8.905-19.853-19.851-19.853 c-0.412,0-24.798,0.787-35.444,9.419c-5.951,4.824-9.022,14.67-10.154,18.575c-4.227,14.594-0.443,18.923,0.8,20.345 c2.474,2.829,6.423,4.147,12.429,4.147h0.001c6.96,0,20.551-2.229,27.392-8.209c3.67-3.208,6.608-8.484,8.621-12.927 c0.449-0.992,1.207-1.855,1.207,1.895v61.875c0,0-0.315,3.166-3.653,3.166c-27.823,0-113.331,0-113.331,0c-2.75,0-5,2.25-5,5 v162.154c0,2.75,2.25,5,5,5h5c2.75,0,5-2.25,5-5V174.251c0-2.75,2.025-5,4.501-5s6.514,1.007,8.973,2.236l11.746,5.874 c2.459,1.229,3.001,3.939,1.203,6.02l-9.456,10.948c-1.798,2.081-1.183,4.628,1.367,5.659l67.604,27.338 c2.55,1.03,3.782,3.764,2.739,6.074c-1.044,2.311-4.09,4.703-6.771,5.319l-28.684,6.586c-2.681,0.616-6.419,2.754-8.308,4.753 L33.277,278.24c-1.889,1.999-2.282,5.566-0.875,7.929l21.771,36.529c1.407,2.362,4.492,3.143,6.854,1.735l4.295-2.56 c2.362-1.407,3.143-4.492,1.735-6.855l-15.965-26.787c-1.407-2.362-1.014-5.93,0.875-7.929l15.727-16.64 c1.889-1.998,5.627-4.137,8.308-4.753l31.51-7.234c2.681-0.616,5.799-3.17,6.931-5.676l9.166-20.295 c1.133-2.506-0.027-5.4-2.577-6.431l-62.652-25.336c-2.55-1.031-3.165-3.578-1.368-5.659l8.367-9.688 c1.798-2.081,1.256-4.791-1.203-6.02l-2.166-1.083c-2.459-1.23-2.222-2.236,0.528-2.236h161.236c2.75,0,5.363,2.221,5.808,4.935 l5.413,33.084c0.444,2.714,2.949,5.626,5.565,6.471l62.949,20.317c2.616,0.845,3.293,3.244,1.503,5.332l-8.374,9.766 c-1.79,2.088-3.181,6.045-3.09,8.793l0.38,11.543c0.091,2.748-2.074,5.213-4.811,5.477l-24.792,2.391 c-2.737,0.264-6.763,1.848-8.946,3.519l-37.49,28.7c-2.184,1.672-1.779,3.551,0.898,4.177l80.502,18.816 c2.678,0.626,5.381-1.054,6.006-3.732l1.139-4.867c0.625-2.678-1.053-5.381-3.73-6.008l-49.596-11.592 c-2.678-0.627-3.082-2.506-0.898-4.178l8.88-6.798c2.184-1.672,6.21-3.255,8.947-3.518l34.536-3.33 c2.737-0.264,4.902-2.729,4.811-5.477l-0.651-19.787c-0.091-2.748,1.3-6.705,3.09-8.793l19.253-22.451 c1.79-2.088,1.113-4.487-1.503-5.332l-75.688-24.429c-2.616-0.845-5.121-3.757-5.565-6.471l-3.538-21.623 c-0.444-2.714,1.442-4.935,4.192-4.935h82.363c2.75,0,5,2.25,5,5v147.154c0,2.75,2.25,5,5,5h5c2.75,0,5-2.25,5-5V159.251 C351.338,156.501,349.088,154.251,346.338,154.251z M331.414,93.616c-1.891,1.569-21.959-2.915-25.588-6.087 c-4.772-4.17-13.095-24.882-11.69-26.126c1.283-1.137,23.928,4.283,27.814,7.68C326.76,73.287,332.731,92.522,331.414,93.616z M192.898,63.079c-4.098,3.581-27.396,8.422-28.812,6.688c-1.168-1.432,4.94-22.769,10.505-27.632 c4.489-3.924,30.39-9.641,31.305-8.496C207.252,35.335,198.403,58.266,192.898,63.079z M102.284,88.948 c-5.222,4.566-16.854,5.459-17.551,4.503c-0.889-1.221,3.845-14.167,6.827-16.773c2.571-2.247,18.056-7.359,19.081-5.577 C111.442,72.492,105.43,86.199,102.284,88.948z"/> <path d="M238.781,258.366l-16.425-32.852c-1.23-2.46-4.224-3.417-6.652-2.127l-32.053,17.028c-2.428,1.29-5.995,0.744-7.926-1.214 l-18.326-18.58c-1.931-1.958-5.112-1.98-7.07-0.049l-3.561,3.512c-1.958,1.931-1.979,5.112-0.049,7.07l26.174,26.537 c1.931,1.958,5.498,2.504,7.926,1.214l28.344-15.058c2.429-1.29,5.422-0.334,6.652,2.126l3.089,6.178 c1.229,2.46,0.263,5.553-2.149,6.874l-69.004,37.797c-2.412,1.32-4.749,4.622-5.193,7.336l-2.636,16.1 c-0.444,2.714,1.413,5.298,4.127,5.742l4.934,0.809c2.714,0.444,5.298-1.413,5.742-4.127l1.454-8.881 c0.444-2.714,2.781-6.016,5.193-7.337l75.26-41.224C239.044,263.92,240.011,260.826,238.781,258.366z"/> </g> </g>
</svg>