<!DOCTYPE svg PUBLIC "-//W3C//DTD SVG 1.1//EN" "http://www.w3.org/Graphics/SVG/1.1/DTD/svg11.dtd">
<!-- Uploaded to: SVG Repo, www.svgrepo.com, Transformed by: SVG Repo Mixer Tools -->
<svg version="1.1" id="_x32_" xmlns="http://www.w3.org/2000/svg" xmlns:xlink="http://www.w3.org/1999/xlink" width="800px" height="800px" viewBox="0 0 512 512" xml:space="preserve" fill="#ffffff">
<g id="SVGRepo_bgCarrier" stroke-width="0"/>
<g id="SVGRepo_tracerCarrier" stroke-linecap="round" stroke-linejoin="round"/>
<g id="SVGRepo_iconCarrier"> <style type="text/css">  .st0{fill:#ffffff;}  </style> <g> <path class="st0" d="M335.016,195.75l-26.797-11.219c-6.141,8.844-12.656,17.906-19.125,26.688l35.922,15.047v240.141 l-138.047-57.813V245.75c-5.938-7.719-12.813-16.719-20-26.375v189.219L34.922,463.891V223.75l103.938-43.531 c-6.703-9.813-12.734-19.125-17.563-27.344L2.922,202.453V512l174.047-72.906l158.047,66.203l174.063-72.906V122.859 L335.016,195.75z M477.078,411.109l-132.047,55.297V226.266l132.047-55.297V411.109z"/> <path class="st0" d="M225.016,254.188c0,0,62.75-78.375,84.719-117.875c19.141-34.406,11.469-79.25-17.938-108.656 C273.359,9.219,249.188,0,225.016,0c-24.188,0-48.359,9.219-66.813,27.656c-29.391,29.406-37.047,74.25-17.922,108.656 C162.25,175.813,225.016,254.188,225.016,254.188z M225.016,37.078c31.672,0,57.375,25.703,57.375,57.391 s-25.703,57.375-57.375,57.375c-31.688,0-57.375-25.688-57.375-57.375S193.328,37.078,225.016,37.078z"/> </g> </g>
</svg>