<?xml version="1.0" encoding="UTF-8" standalone="no"?>
<!DOCTYPE svg PUBLIC "-//W3C//DTD SVG 1.1//EN" "http://www.w3.org/Graphics/SVG/1.1/DTD/svg11.dtd">
<svg width="100%" height="100%" viewBox="0 0 128 128" version="1.1" xmlns="http://www.w3.org/2000/svg" xmlns:xlink="http://www.w3.org/1999/xlink" xml:space="preserve" xmlns:serif="http://www.serif.com/" style="fill-rule:evenodd;clip-rule:evenodd;stroke-linejoin:round;stroke-miterlimit:2;">
    <g transform="matrix(1.05713,0,0,1.11111,-3.69447,-4.5337)">
        <path d="M118.382,61.585C109.032,69.082 100.356,75.749 92.008,80.004C83.661,84.26 74.921,86.73 64,87.083C53.079,86.73 44.339,84.26 35.992,80.004C27.644,75.749 19.04,68.865 9.69,61.368C19.04,53.871 27.644,47.612 35.992,43.356C44.339,39.1 53.079,36.631 64,36.278C74.921,36.631 83.661,39.1 92.008,43.356C100.356,47.612 109.032,54.087 118.382,61.585Z" style="fill:rgb(191,191,191);"/>
        <path d="M118.382,61.585C109.032,69.082 100.356,75.749 92.008,80.004C83.661,84.26 74.921,86.73 64,87.083C53.079,86.73 44.339,84.26 35.992,80.004C27.644,75.749 19.04,68.865 9.69,61.368C19.04,53.871 27.644,47.612 35.992,43.356C44.339,39.1 53.079,36.631 64,36.278C74.921,36.631 83.661,39.1 92.008,43.356C100.356,47.612 109.032,54.087 118.382,61.585ZM112.485,61.589C104.669,67.775 97.329,73.207 90.221,76.831C82.402,80.818 74.215,83.133 64.002,83.48C53.786,83.134 45.598,80.818 37.779,76.831C30.67,73.207 23.387,67.61 15.584,61.382C23.385,55.276 30.673,50.152 37.779,46.529C45.598,42.543 53.785,40.227 63.998,39.88C74.214,40.227 82.402,42.543 90.221,46.529C97.328,50.153 104.669,55.44 112.485,61.589Z" style="fill:white;stroke:white;stroke-width:1.84px;"/>
    </g>
    <g transform="matrix(0.959393,0,0,0.959393,-1.38084,1.28108)">
        <circle cx="68.148" cy="65.374" r="24.556" style="fill:white;"/>
    </g>
    <g transform="matrix(1.12308,0,0,1.12308,-9.12828,-6.32923)">
        <circle cx="65.114" cy="62.622" r="13.76" style="fill:rgb(64,64,64);"/>
    </g>
    <g transform="matrix(1.21246,0,0,1.21246,-20.0496,-17.4945)">
        <circle cx="62.292" cy="59.094" r="5.716" style="fill:white;"/>
    </g>
</svg>
