<!DOCTYPE svg PUBLIC "-//W3C//DTD SVG 1.1//EN" "http://www.w3.org/Graphics/SVG/1.1/DTD/svg11.dtd">
<!-- Uploaded to: SVG Repo, www.svgrepo.com, Transformed by: SVG Repo Mixer Tools -->
<svg fill="#ffffff" width="800px" height="800px" viewBox="0 0 24 24" xmlns="http://www.w3.org/2000/svg" preserveAspectRatio="xMinYMin" class="jam jam-flashlight-on">
<g id="SVGRepo_bgCarrier" stroke-width="0"/>
<g id="SVGRepo_tracerCarrier" stroke-linecap="round" stroke-linejoin="round"/>
<g id="SVGRepo_iconCarrier">
<path d="M13.24 13.12l.381.02a.992.992 0 0 0 .764-.29l2.121-2.122-3.535-3.536-2.122 2.122a.992.992 0 0 0-.291.763l.021.38 2.662 2.662zm-1.684 1.143l-2.121-2.12-7.071 7.07a1 1 0 0 0 0 1.414l.707.708a1 1 0 0 0 1.414 0l7.071-7.072zM9.435 7.9l2.121-2.12a2 2 0 0 1 2.829 0l3.535 3.535a2 2 0 0 1 0 2.828l-2.12 2.12a2.993 2.993 0 0 1-2.288.875L5.9 22.748a3 3 0 0 1-4.242 0l-.707-.706a3 3 0 0 1 0-4.243l7.611-7.611a2.993 2.993 0 0 1 .874-2.289zm8.485 0a1 1 0 0 1 0-1.414l2.122-2.121a1 1 0 1 1 1.414 1.414L19.335 7.9a1 1 0 0 1-1.415 0zm1.863 1.674a1 1 0 0 1 .707-1.225l1.932-.518a1 1 0 1 1 .517 1.932l-1.931.518a1 1 0 0 1-1.225-.707zm-3.984-3.795a1 1 0 0 1 0-1.414l2.121-2.121a1 1 0 0 1 1.415 1.414l-2.122 2.121a1 1 0 0 1-1.414 0zm-1.673-1.862a1 1 0 0 1-.707-1.225L13.936.76a1 1 0 1 1 1.932.518l-.517 1.932a1 1 0 0 1-1.225.707z"/>
</g>
</svg>