<!DOCTYPE svg PUBLIC "-//W3C//DTD SVG 1.1//EN" "http://www.w3.org/Graphics/SVG/1.1/DTD/svg11.dtd">
<!-- Uploaded to: SVG Repo, www.svgrepo.com, Transformed by: SVG Repo Mixer Tools -->
<svg fill="#ffffff" height="800px" width="800px" version="1.1" id="Capa_1" xmlns="http://www.w3.org/2000/svg" xmlns:xlink="http://www.w3.org/1999/xlink" viewBox="0 0 297 297" xml:space="preserve">
<g id="SVGRepo_bgCarrier" stroke-width="0"/>
<g id="SVGRepo_tracerCarrier" stroke-linecap="round" stroke-linejoin="round"/>
<g id="SVGRepo_iconCarrier"> <path d="M286.897,5.051H10.693c-0.101,0-0.197,0.012-0.298,0.016c-0.098-0.004-0.193-0.016-0.293-0.016 C4.523,5.051,0,9.574,0,15.153v266.693c0,5.579,4.523,10.102,10.102,10.102h66.673c3.622,0,6.966-1.938,8.767-5.082 c1.799-3.143,1.779-7.008-0.054-10.133l-25.731-43.859c25.239-7.129,43.789-30.367,43.789-57.857v-57.342 c3.323,0.797,6.788,1.225,10.352,1.225c13.933,0,26.396-6.448,34.601-16.536c8.205,10.088,20.669,16.536,34.603,16.536 c3.563,0,7.029-0.428,10.354-1.225v57.342c0,27.49,18.55,50.729,43.789,57.857l-25.731,43.859c-1.833,3.125-1.853,6.99-0.054,10.133 c1.801,3.144,5.145,5.082,8.767,5.082h66.673c5.579,0,10.103-4.523,10.103-10.102V73.906V15.153 C297,9.574,292.477,5.051,286.897,5.051z M20.204,271.745v-36.62h17.449l21.483,36.62H20.204z M83.342,108.345v66.673 c0,22.003-17.9,39.903-39.903,39.903H20.204V111.516c7.041,4.662,15.456,7.385,24.494,7.385c13.932,0,26.397-6.449,34.602-16.535 c1.285,1.58,2.687,3.059,4.17,4.45C83.395,107.314,83.342,107.823,83.342,108.345z M158.601,73.906 c0-5.579-4.523-10.103-10.103-10.103s-10.103,4.523-10.103,10.103c0,13.669-10.989,24.79-24.498,24.79 c-13.507,0-24.495-11.121-24.495-24.79c0-5.579-4.523-10.103-10.103-10.103c-5.578,0-10.102,4.523-10.102,10.103 c0,13.669-10.99,24.79-24.5,24.79c-13.491,0-24.471-11.098-24.494-24.746l0.489-48.695h256.103v48.651 c0,13.669-10.989,24.79-24.496,24.79c-13.51,0-24.5-11.121-24.5-24.79c0-5.579-4.523-10.103-10.102-10.103 c-5.579,0-10.102,4.523-10.102,10.103c0,13.669-10.988,24.79-24.495,24.79C169.591,98.696,158.601,87.575,158.601,73.906z M213.658,175.018v-66.673c0-0.522-0.052-1.03-0.128-1.531c1.482-1.39,2.883-2.869,4.168-4.448 c8.205,10.086,20.67,16.535,34.602,16.535c9.039,0,17.455-2.723,24.496-7.385v103.405h-23.234 C231.559,214.921,213.658,197.02,213.658,175.018z M237.863,271.745l21.484-36.62h17.448v36.62H237.863z"/> </g>
</svg>