<!DOCTYPE svg PUBLIC "-//W3C//DTD SVG 1.1//EN" "http://www.w3.org/Graphics/SVG/1.1/DTD/svg11.dtd">
<!-- Uploaded to: SVG Repo, www.svgrepo.com, Transformed by: SVG Repo Mixer Tools -->
<svg fill="#ffffff" version="1.1" id="Layer_1" xmlns="http://www.w3.org/2000/svg" xmlns:xlink="http://www.w3.org/1999/xlink" width="800px" height="800px" viewBox="0 0 512 512" enable-background="new 0 0 512 512" xml:space="preserve">
<g id="SVGRepo_bgCarrier" stroke-width="0"/>
<g id="SVGRepo_tracerCarrier" stroke-linecap="round" stroke-linejoin="round"/>
<g id="SVGRepo_iconCarrier"> <path d="M256,0C114.609,0,0,114.609,0,256s114.609,256,256,256s256-114.609,256-256S397.391,0,256,0z M256,472 c-119.297,0-216-96.703-216-216S136.703,40,256,40s216,96.703,216,216S375.297,472,256,472z"/> <g> <path d="M354.469,206.766c-16.312,0-29.547,13.234-29.547,29.547c0,3.469,0.719,6.734,1.812,9.844H137.844 c-5.438,0-9.844,4.406-9.844,9.844s4.406,9.844,9.844,9.844h216.625c16.297,0,29.531-13.234,29.531-29.531 C384,220,370.766,206.766,354.469,206.766z"/> <path d="M137.844,226.469H256c16.312,0,29.531-13.234,29.531-29.547c0-16.297-13.219-29.531-29.531-29.531 s-29.531,13.234-29.531,29.531c0,3.469,0.719,6.75,1.797,9.844h-90.422c-5.438,0-9.844,4.406-9.844,9.844 S132.406,226.469,137.844,226.469z"/> <path d="M295.375,285.531c-0.562,0-1.125,0.141-1.719,0.188c-0.375-0.031-0.688-0.188-1.078-0.188H140.656 c-7,0-12.656,4.422-12.656,9.859s5.656,9.844,12.656,9.844h127c-1.094,3.094-1.812,6.375-1.812,9.844 c0,16.312,13.234,29.531,29.531,29.531c16.312,0,29.547-13.219,29.547-29.531S311.688,285.531,295.375,285.531z"/> </g> </g>
</svg>