# 3ds Max Wavefront OBJ Exporter v0.97b - (c)2007 guruware
# File Created: 07.12.2016 13:15:21

#
# object Mesh01
#

v  -19.9105 35.5280 -30.3188
v  -19.9105 35.5280 -66.4812
v  19.9065 35.5280 -66.4812
v  19.9065 35.5280 -30.3188
v  -19.9105 35.5280 18.1207
v  -19.9105 35.5280 -18.0417
v  19.9065 35.5280 -18.0417
v  19.9065 35.5280 18.1207
v  -19.9105 35.5280 66.4812
v  -19.9105 35.5280 30.3188
v  19.9065 35.5280 30.3188
v  19.9065 35.5280 66.4812
v  -60.1603 6.7422 66.4812
v  -60.1603 6.7422 30.3188
v  -32.0054 34.8971 30.3188
v  -32.0054 34.8971 66.4812
v  -60.1603 6.7422 18.1207
v  -60.1603 6.7422 -18.0418
v  -32.0054 34.8971 -18.0418
v  -32.0054 34.8971 18.1207
v  -60.1603 6.7422 -30.3188
v  -60.1603 6.7422 -66.4812
v  -32.0054 34.8971 -66.4812
v  -32.0054 34.8971 -30.3188
v  60.0340 6.7422 66.4812
v  31.8792 34.8971 66.4812
v  31.8792 34.8971 30.3188
v  60.0340 6.7422 30.3188
v  60.0340 6.7422 18.1207
v  31.8792 34.8971 18.1207
v  31.8792 34.8971 -18.0418
v  60.0340 6.7422 -18.0418
v  60.0340 6.7422 -30.3188
v  31.8792 34.8971 -30.3188
v  31.8792 34.8971 -66.4812
v  60.0340 6.7422 -66.4812
v  -60.1603 -10.1639 -30.3188
v  -32.0054 -38.3187 -30.3188
v  -32.0054 -38.3187 -66.4812
v  -60.1603 -10.1639 -66.4812
v  -60.1603 -10.1639 18.1207
v  -32.0054 -38.3187 18.1207
v  -32.0054 -38.3187 -18.0418
v  -60.1603 -10.1639 -18.0418
v  -60.1603 -10.1639 66.4812
v  -32.0054 -38.3187 66.4812
v  -32.0054 -38.3187 30.3188
v  -60.1603 -10.1639 30.3188
v  60.0340 -10.1639 66.4812
v  60.0340 -10.1639 30.3188
v  31.8792 -38.3187 30.3188
v  31.8792 -38.3187 66.4812
v  60.0340 -10.1639 18.1207
v  60.0340 -10.1639 -18.0418
v  31.8792 -38.3187 -18.0418
v  31.8792 -38.3187 18.1207
v  60.0340 -10.1639 -30.3188
v  60.0340 -10.1639 -66.4812
v  31.8792 -38.3187 -66.4812
v  31.8792 -38.3187 -30.3188
# 60 vertices

vn 0.0000 -1.0000 -0.0000
vn 0.7071 -0.7071 -0.0000
vn 0.7071 -0.7071 0.0000
vn -0.7071 -0.7071 0.0000
vn -0.7071 -0.7071 -0.0000
vn 0.7071 0.7071 0.0000
vn -0.7071 0.7071 0.0000
vn -0.7071 0.7071 -0.0000
vn -0.0000 1.0000 0.0000
vn 0.7071 0.7071 -0.0000
# 10 vertex normals

vt 0.5077 0.5147 0.5000
vt 0.5077 0.9771 0.5000
vt 0.9700 0.9771 0.5000
vt 0.9700 0.5147 0.5000
# 4 texture coords

g Mesh01
s 2
f 1/1/1 2/2/1 3/3/1 4/4/1 
f 5/1/1 6/2/1 7/3/1 8/4/1 
f 9/1/1 10/2/1 11/3/1 12/4/1 
f 13/1/2 14/2/3 15/3/2 16/4/2 
f 17/1/2 18/2/3 19/3/2 20/4/2 
f 21/1/2 22/2/3 23/3/2 24/4/2 
f 25/1/4 26/4/5 27/3/4 28/2/4 
f 29/1/4 30/4/4 31/3/4 32/2/4 
f 33/1/5 34/4/5 35/3/5 36/2/4 
f 37/1/6 38/4/6 39/3/6 40/2/6 
f 41/1/6 42/4/6 43/3/6 44/2/6 
f 45/1/6 46/4/6 47/3/6 48/2/6 
f 49/1/7 50/2/7 51/3/7 52/4/8 
f 53/1/7 54/2/7 55/3/7 56/4/8 
f 57/1/7 58/2/7 59/3/7 60/4/8 
f 2/2/9 1/1/9 4/4/9 3/3/9 
f 6/2/9 5/1/9 8/4/9 7/3/9 
f 10/2/9 9/1/9 12/4/9 11/3/9 
f 14/2/8 13/1/7 16/4/7 15/3/7 
f 18/2/8 17/1/7 20/4/7 19/3/7 
f 22/2/8 21/1/7 24/4/7 23/3/7 
f 27/3/10 26/4/6 25/1/10 28/2/10 
f 31/3/10 30/4/10 29/1/10 32/2/10 
f 35/3/6 34/4/6 33/1/6 36/2/10 
f 39/3/5 38/4/5 37/1/5 40/2/5 
f 43/3/5 42/4/5 41/1/5 44/2/5 
f 47/3/5 46/4/5 45/1/5 48/2/5 
f 50/2/2 49/1/2 52/4/3 51/3/2 
f 54/2/2 53/1/2 56/4/2 55/3/2 
f 58/2/2 57/1/2 60/4/2 59/3/2 
# 30 polygons

