<!DOCTYPE svg PUBLIC "-//W3C//DTD SVG 1.1//EN" "http://www.w3.org/Graphics/SVG/1.1/DTD/svg11.dtd">
<!-- Uploaded to: SVG Repo, www.svgrepo.com, Transformed by: SVG Repo Mixer Tools -->
<svg fill="#ffffff" height="800px" width="800px" version="1.1" id="Capa_1" xmlns="http://www.w3.org/2000/svg" xmlns:xlink="http://www.w3.org/1999/xlink" viewBox="0 0 489.486 489.486" xml:space="preserve">
<g id="SVGRepo_bgCarrier" stroke-width="0"/>
<g id="SVGRepo_tracerCarrier" stroke-linecap="round" stroke-linejoin="round"/>
<g id="SVGRepo_iconCarrier"> <g> <path d="M471.073,2.673c-98.5-11.5-149.6,16.1-176.2,44.8c-50,53.9-42,155.8-53.2,193.9c-19.3,18-32.6,40.9-42.7,64.8 c-5.6-10.5-12.4-20.2-20.9-28.3c-9.6-96.6-22.9-114.6-36.5-130.3c-18.8-20.8-57.8-40-123-32.3c-7.3,0-13.5,5.2-16.7,11.5 c-3.1,7.3-2.1,14.6,2.1,20.8c11.5,14.6,20.8,31.3,28.1,47.9c2.1,4.2,20.3,56.3,46.9,74c11.5,9.4,24.7,15.9,37.5,18.8 c42.9,9.7,56.3,52.1,62.5,74l-11.5,104.2c-1,11.5,6.3,21.9,17.7,22.9c11.2,1.2,20-7.3,20.8-17.7c9.8-117,33.3-174,65.7-202.2 c12.5-12,35.4-20.8,50-26.1c17.7-7.3,36.9-15.5,54.2-27.1c38-25.6,63.6-101.1,66.7-107.3c11.5-26.1,26.1-51.1,42.7-74 C497.773,14.373,478.773,1.773,471.073,2.673z M74.973,191.273c-2.1-4.2-13.5-28.1-17.7-36.5c58.6-1.2,66.7,42.7,70.9,56.3 c2.1,8.3,4.2,25,6.3,40.6C132.273,251.673,93.973,246.673,74.973,191.273z M398.073,110.973c-28.8,55.5-22.5,72.9-111.5,102.1 c6.8-83.3,26.1-125.1,39.6-140.7c13.5-14.5,49.7-36.2,107.3-32.2C424.173,56.873,401.173,104.773,398.073,110.973z"/> </g> </g>
</svg>