<!DOCTYPE svg PUBLIC "-//W3C//DTD SVG 1.1//EN" "http://www.w3.org/Graphics/SVG/1.1/DTD/svg11.dtd">
<!-- Uploaded to: SVG Repo, www.svgrepo.com, Transformed by: SVG Repo Mixer Tools -->
<svg fill="#ffffff" version="1.1" id="Capa_1" xmlns="http://www.w3.org/2000/svg" xmlns:xlink="http://www.w3.org/1999/xlink" width="800px" height="800px" viewBox="0 0 55.934 55.934" xml:space="preserve">
<g id="SVGRepo_bgCarrier" stroke-width="0"/>
<g id="SVGRepo_tracerCarrier" stroke-linecap="round" stroke-linejoin="round"/>
<g id="SVGRepo_iconCarrier"> <g> <g> <path d="M27.967,0C12.548,0,0.002,12.547,0.002,27.966c0,15.42,12.545,27.968,27.965,27.968s27.965-12.548,27.965-27.968 C55.932,12.547,43.387,0,27.967,0z M27.967,50.741c-12.561,0-22.778-10.216-22.778-22.775c0-12.562,10.217-22.777,22.778-22.777 c12.561,0,22.777,10.216,22.777,22.777C50.744,40.525,40.527,50.741,27.967,50.741z"/> <g> <path d="M28.524,12.503c-0.293-0.299-0.819-0.299-1.112,0c-0.578,0.589-5.645,5.841-5.645,9.085s5.067,8.496,5.645,9.085 c0.147,0.149,0.347,0.233,0.556,0.233s0.409-0.084,0.556-0.233c0.578-0.589,5.645-5.841,5.645-9.085S29.102,13.092,28.524,12.503 z"/> <path d="M24.091,30.643c-2.294-2.295-9.593-2.427-10.417-2.435c-0.187,0-0.41,0.081-0.558,0.229 c-0.148,0.146-0.23,0.349-0.229,0.559c0.008,0.824,0.139,8.122,2.433,10.415c2.294,2.294,9.591,2.425,10.416,2.433 c0.002,0,0.004,0,0.007,0c0.005,0,0.011,0,0.015,0c0.435,0.008,0.795-0.344,0.795-0.777c0-0.082-0.012-0.157-0.034-0.23 C26.491,39.354,26.243,32.793,24.091,30.643z"/> <path d="M42.818,28.438c-0.147-0.147-0.358-0.231-0.558-0.229c-0.825,0.008-8.124,0.14-10.416,2.435 c-2.294,2.291-2.426,9.59-2.433,10.414c-0.002,0.211,0.08,0.411,0.228,0.56c0.146,0.146,0.345,0.228,0.552,0.228 c0.002,0,0.004,0,0.006,0c0.826-0.008,8.123-0.139,10.416-2.433c2.295-2.293,2.427-9.591,2.434-10.415 C43.048,28.785,42.966,28.584,42.818,28.438z"/> </g> </g> </g> </g>
</svg>