<!DOCTYPE svg PUBLIC "-//W3C//DTD SVG 1.1//EN" "http://www.w3.org/Graphics/SVG/1.1/DTD/svg11.dtd">
<!-- Uploaded to: SVG Repo, www.svgrepo.com, Transformed by: SVG Repo Mixer Tools -->
<svg fill="#ffffff" version="1.1" id="Capa_1" xmlns="http://www.w3.org/2000/svg" xmlns:xlink="http://www.w3.org/1999/xlink" width="800px" height="800px" viewBox="0 0 487.243 487.243" xml:space="preserve">
<g id="SVGRepo_bgCarrier" stroke-width="0"/>
<g id="SVGRepo_tracerCarrier" stroke-linecap="round" stroke-linejoin="round"/>
<g id="SVGRepo_iconCarrier"> <g> <g> <g> <path d="M196.832,302.479c-0.225-22.92-15.482-66.853-36.727-88.086c-21.245-21.234-65.598-32.276-88.061-36.708 c-3.154-0.623-6.408,0.376-8.661,2.644c-2.286,2.272-3.28,5.521-2.64,8.667c4.414,22.484,15.451,66.852,36.695,88.077 c15.611,15.62,43.707,25.693,66.436,31.708v161.981c0,9.103,7.366,16.481,16.477,16.481c9.109,0,16.48-7.38,16.48-16.481 C196.832,470.763,196.894,309.612,196.832,302.479z"/> <path d="M262.751,124.978c-0.13-22.921-15.481-66.852-36.727-88.088C204.78,15.655,160.426,4.614,137.96,0.182 c-3.154-0.623-6.404,0.376-8.657,2.644c-2.286,2.272-3.284,5.521-2.64,8.666c4.409,22.486,15.451,66.853,36.695,88.079 c15.607,15.621,43.707,25.694,66.43,31.708v339.483c0,9.103,7.372,16.481,16.482,16.481c9.108,0,16.479-7.38,16.479-16.481 C262.751,470.763,262.813,136.902,262.751,124.978z"/> <path d="M426.514,139.555c0.614-3.146-0.386-6.395-2.64-8.666c-2.285-2.268-5.533-3.266-8.657-2.644 c-22.499,4.432-66.854,15.473-88.097,36.708c-21.24,21.235-36.658,63.929-36.688,88.086 c-0.031,15.634-0.031,217.723-0.031,217.723c0,9.103,7.371,16.481,16.478,16.481c9.108,0,16.479-7.38,16.479-16.481V259.34 c22.754-6.013,50.854-16.086,66.468-31.707C411.063,206.406,422.104,162.04,426.514,139.555z"/> </g> </g> </g> </g>
</svg>