<!DOCTYPE svg PUBLIC "-//W3C//DTD SVG 1.1//EN" "http://www.w3.org/Graphics/SVG/1.1/DTD/svg11.dtd">
<!-- Uploaded to: SVG Repo, www.svgrepo.com, Transformed by: SVG Repo Mixer Tools -->
<svg width="800px" height="800px" viewBox="0 0 24 24" fill="none" xmlns="http://www.w3.org/2000/svg">
<g id="SVGRepo_bgCarrier" stroke-width="0"/>
<g id="SVGRepo_tracerCarrier" stroke-linecap="round" stroke-linejoin="round"/>
<g id="SVGRepo_iconCarrier"> <path d="M11.9999 2C16.714 2 19.071 2 20.5354 3.46447C21.9999 4.92893 21.9999 7.28595 21.9999 12C21.9999 16.714 21.9999 19.0711 20.5354 20.5355C19.1784 21.8926 17.055 21.9921 12.9999 21.9994M2.00049 11C2.00779 6.94493 2.10734 4.8215 3.46438 3.46447C4.43813 2.49071 5.8065 2.16443 8 2.0551" stroke="#ffffff" stroke-width="1.5" stroke-linecap="round"/> <path d="M12 12L17 7M17 7H13.25M17 7V10.75" stroke="#ffffff" stroke-width="1.5" stroke-linecap="round" stroke-linejoin="round"/> <path d="M2 18C2 16.1144 2 15.1716 2.58579 14.5858C3.17157 14 4.11438 14 6 14C7.88562 14 8.82843 14 9.41421 14.5858C10 15.1716 10 16.1144 10 18C10 19.8856 10 20.8284 9.41421 21.4142C8.82843 22 7.88562 22 6 22C4.11438 22 3.17157 22 2.58579 21.4142C2 20.8284 2 19.8856 2 18Z" stroke="#ffffff" stroke-width="1.5"/> </g>
</svg>