<!DOCTYPE svg PUBLIC "-//W3C//DTD SVG 1.1//EN" "http://www.w3.org/Graphics/SVG/1.1/DTD/svg11.dtd">
<!-- Uploaded to: SVG Repo, www.svgrepo.com, Transformed by: SVG Repo Mixer Tools -->
<svg width="800px" height="800px" viewBox="0 0 16 16" version="1.1" xmlns="http://www.w3.org/2000/svg" xmlns:xlink="http://www.w3.org/1999/xlink" class="si-glyph si-glyph-database-plus" fill="#ffffff">
<g id="SVGRepo_bgCarrier" stroke-width="0"/>
<g id="SVGRepo_tracerCarrier" stroke-linecap="round" stroke-linejoin="round"/>
<g id="SVGRepo_iconCarrier"> <title>657</title> <defs> </defs> <g stroke="none" stroke-width="1" fill="none" fill-rule="evenodd"> <g transform="translate(1.000000, 0.000000)" fill="#ffffff"> <path d="M6.43,5 C9.98119094,5 13,3.83708138 13,2.5 C13,1.16291862 9.98119094,0 6.43,0 C2.87880906,0 0,1.16291862 0,2.5 C0,3.83708138 2.87880906,5 6.43,5 Z" class="si-glyph-fill"> </path> <path d="M6.494,9.919 C10.055,9.919 12.941,8.937 12.941,7.723 L12.941,4.377 C12.941,5.049 10.009,6.051 6.494,6.051 C2.979,6.051 0.047,5.049 0.047,4.377 L0.047,7.723 C0.047,8.937 2.934,9.919 6.494,9.919 L6.494,9.919 Z" class="si-glyph-fill"> </path> <rect x="10" y="13" width="4.915" height="0.957" class="si-glyph-fill"> </rect> <path d="M0.0160000001,9.444 L0.0160000001,12.713 C0.0160000001,13.901 2.903,14.859 6.463,14.859 C7.332,14.859 8.16,14.8 8.918,14.697 L8.918,11.958 L10.958,11.958 L10.958,10.52 C9.789,10.841 8.198,11.081 6.463,11.081 C2.947,11.08 0.0160000001,10.1 0.0160000001,9.444 L0.0160000001,9.444 Z" class="si-glyph-fill"> </path> <rect x="12" y="11" width="0.958" height="4.937" class="si-glyph-fill"> </rect> </g> </g> </g>
</svg>