<!DOCTYPE svg PUBLIC "-//W3C//DTD SVG 1.1//EN" "http://www.w3.org/Graphics/SVG/1.1/DTD/svg11.dtd">
<!-- Uploaded to: SVG Repo, www.svgrepo.com, Transformed by: SVG Repo Mixer Tools -->
<svg fill="#ffffff" width="800px" height="800px" viewBox="0 0 24 24" xmlns="http://www.w3.org/2000/svg">
<g id="SVGRepo_bgCarrier" stroke-width="0"/>
<g id="SVGRepo_tracerCarrier" stroke-linecap="round" stroke-linejoin="round"/>
<g id="SVGRepo_iconCarrier"> <path d="M5,19.5 L5,4.5 C5,2.96073971 8.12240404,2 12,2 C15.877596,2 19,2.96073971 19,4.5 L19,19.5 C19,21.0392603 15.877596,22 12,22 C8.12240404,22 5,21.0392603 5,19.5 Z M6,18.139559 C7.22292183,17.4161776 9.44789219,17 12,17 C14.5521078,17 16.7770782,17.4161776 18,18.139559 L18,5.86044103 C16.7770782,6.58382244 14.5521078,7 12,7 C9.44789219,7 7.22292183,6.58382244 6,5.86044103 L6,18.139559 L6,18.139559 Z M12,6 C15.3021058,6 18,5.1698787 18,4.5 C18,3.8301213 15.3021058,3 12,3 C8.69789421,3 6,3.8301213 6,4.5 C6,5.1698787 8.69789421,6 12,6 Z M12,21 C15.3021058,21 18,20.1698787 18,19.5 C18,18.8301213 15.3021058,18 12,18 C8.69789421,18 6,18.8301213 6,19.5 C6,20.1698787 8.69789421,21 12,21 Z"/> </g>
</svg>