<!DOCTYPE svg PUBLIC "-//W3C//DTD SVG 1.1//EN" "http://www.w3.org/Graphics/SVG/1.1/DTD/svg11.dtd">
<!-- Uploaded to: SVG Repo, www.svgrepo.com, Transformed by: SVG Repo Mixer Tools -->
<svg width="800px" height="800px" viewBox="0 0 16 16" version="1.1" xmlns="http://www.w3.org/2000/svg" xmlns:xlink="http://www.w3.org/1999/xlink" fill="#ffffff">
<g id="SVGRepo_bgCarrier" stroke-width="0"/>
<g id="SVGRepo_tracerCarrier" stroke-linecap="round" stroke-linejoin="round"/>
<g id="SVGRepo_iconCarrier"> <path fill="#fff" d="M8 0c-4.418 0-8 3.582-8 8s3.582 8 8 8c4.418 0 8-3.582 8-8s-3.582-8-8-8zM14.8 9.5c0 0.5-0.7 0.66-2 1 0.124-0.589 0.206-1.277 0.229-1.98l2.001-0.020c0 0.36-0.080 0.5-0.16 1v0zM1.2 9.5v0c-0.1-0.5-0.15-0.64-0.2-1h2c0.024 0.723 0.106 1.411 0.244 2.079-1.344-0.419-2.044-0.579-2.044-1.079zM1.2 6.5c0-0.5 0.7-0.66 2-1-0.115 0.594-0.187 1.284-0.2 1.989l-2 0.011c0-0.36 0.080-0.5 0.16-1v0zM8.5 5c1.13 0.013 2.226 0.107 3.298 0.277 0.047 0.643 0.165 1.41 0.201 2.199l-3.499 0.025v-2.5zM8.5 4v-2.94c1.17 0.27 2.2 1.47 2.84 3.15-0.836-0.116-1.819-0.192-2.817-0.21zM7.5 1.060v2.94c-1.017 0.015-2.001 0.087-2.968 0.214 0.768-1.684 1.798-2.884 2.968-3.154zM7.5 5v2.5h-3.5c0.031-0.806 0.142-1.571 0.326-2.307 0.932-0.080 2.035-0.177 3.158-0.193zM4 8.5h3.5v2.5c-1.13-0.013-2.226-0.107-3.298-0.277-0.047-0.643-0.165-1.41-0.201-2.199zM7.5 12v2.94c-1.17-0.27-2.2-1.47-2.84-3.15 0.836 0.116 1.819 0.192 2.817 0.21zM8.5 14.94v-2.94c1.017-0.015 2.001-0.087 2.968-0.214-0.768 1.684-1.798 2.884-2.968 3.154zM8.5 11v-2.5h3.5c-0.031 0.806-0.142 1.571-0.326 2.307-0.932 0.080-2.035 0.177-3.158 0.193zM15 7.5h-2c-0.024-0.723-0.106-1.411-0.244-2.079 1.354 0.399 2.014 0.559 2.014 1.079v0c0.13 0.5 0.18 0.64 0.23 1zM14.3 4.91c-0.506-0.204-1.106-0.38-1.726-0.5-0.361-1.019-0.809-1.898-1.389-2.672 1.355 0.726 2.413 1.811 3.067 3.131zM4.84 1.76c-0.568 0.752-1.019 1.631-1.305 2.581-0.699 0.189-1.299 0.365-1.874 0.593 0.751-1.39 1.823-2.475 3.139-3.156zM1.73 11.090c0.506 0.204 1.106 0.38 1.726 0.5 0.361 1.019 0.809 1.898 1.389 2.672-1.367-0.722-2.436-1.807-3.097-3.131zM11.17 14.24c0.564-0.753 1.012-1.631 1.295-2.581 0.699-0.189 1.299-0.365 1.874-0.593-0.751 1.39-1.823 2.475-3.139 3.156z"/> </g>
</svg>