<!DOCTYPE svg PUBLIC "-//W3C//DTD SVG 1.1//EN" "http://www.w3.org/Graphics/SVG/1.1/DTD/svg11.dtd">
<!-- Uploaded to: SVG Repo, www.svgrepo.com, Transformed by: SVG Repo Mixer Tools -->
<svg fill="#ffffff" height="800px" width="800px" version="1.1" id="Layer_1" xmlns="http://www.w3.org/2000/svg" xmlns:xlink="http://www.w3.org/1999/xlink" viewBox="0 0 512 512" xml:space="preserve">
<g id="SVGRepo_bgCarrier" stroke-width="0"/>
<g id="SVGRepo_tracerCarrier" stroke-linecap="round" stroke-linejoin="round"/>
<g id="SVGRepo_iconCarrier"> <g> <g> <path d="M476.099,0.001H35.901C16.105,0.001,0,16.106,0,35.902v440.196c0,19.796,16.105,35.901,35.901,35.901h440.197 c6.386,0,12.382-1.684,17.583-4.619c2.573-0.969,4.991-2.472,7.062-4.543c1.172-1.172,2.145-2.463,2.964-3.822 c5.173-6.222,8.29-14.212,8.29-22.919v-146.62H512c0-0.004,0-0.009,0-0.013V35.902C512,16.106,495.894,0.001,476.099,0.001z M443.926,39.878l-33.38,33.38l-33.38-33.38H443.926z M150.789,333.015l-50.439,50.439l-48.598-48.598l50.439-50.439 L150.789,333.015z M51.751,177.583l47.77-47.769l50.439,50.438l-47.77,47.77L51.751,177.583z M130.388,256.219l47.77-47.77 l48.598,48.598l-47.77,47.77L130.388,256.219z M206.355,180.252l51.056-51.056l48.598,48.598l-51.056,51.056L206.355,180.252z M254.953,285.245l50.229,50.229l-47.77,47.77l-50.229-50.229L254.953,285.245z M283.149,257.046l51.056-51.056l50.229,50.229 l-51.056,51.056L283.149,257.046z M412.631,284.416l48.142,48.142l-51.056,51.056l-48.142-48.142L412.631,284.416z M362.402,177.793l48.142-48.142l50.229,50.229l-48.142,48.142L362.402,177.793z M382.349,101.455l-48.142,48.142l-48.598-48.598 l48.142-48.142L382.349,101.455z M290.336,39.878l-32.925,32.924l-32.924-32.924H290.336z M229.214,101l-51.056,51.055 l-50.439-50.438l51.056-51.056L229.214,101z M133.063,39.878L99.521,73.42L65.981,39.878H133.063z M39.877,70.169l31.448,31.448 l-31.448,31.447V70.169z M39.877,222.103l34.116,34.116l-34.116,34.116V222.103z M39.877,379.375l32.275,32.275l-32.275,32.277 V379.375z M68.074,472.122l32.275-32.275l32.275,32.275H68.074z M128.547,411.651l50.439-50.439l50.229,50.229l-50.439,50.439 L128.547,411.651z M224.924,472.122l32.487-32.485l32.485,32.485H224.924z M285.608,411.44l47.77-47.77l48.142,48.142 l-47.77,47.77L285.608,411.44z M377.605,472.124l32.113-32.114l32.114,32.114H377.605z M472.123,446.019l-34.208-34.207 l34.208-34.208V446.019z M472.123,287.514l-31.293-31.293l31.293-31.294V287.514z M472.123,134.835l-33.38-33.38l33.38-33.38 V134.835z"/> </g> </g> </g>
</svg>