<!DOCTYPE svg PUBLIC "-//W3C//DTD SVG 1.1//EN" "http://www.w3.org/Graphics/SVG/1.1/DTD/svg11.dtd">
<!-- Uploaded to: SVG Repo, www.svgrepo.com, Transformed by: SVG Repo Mixer Tools -->
<svg width="800px" height="800px" viewBox="0 0 24 24" xmlns="http://www.w3.org/2000/svg" fill="none" stroke="#ffffff" stroke-width="1" stroke-linecap="round" stroke-linejoin="miter">
<g id="SVGRepo_bgCarrier" stroke-width="0"/>
<g id="SVGRepo_tracerCarrier" stroke-linecap="round" stroke-linejoin="round"/>
<g id="SVGRepo_iconCarrier">
<path d="M8.61,7.61l-5.1,5.1a5.52,5.52,0,0,0,0,7.78h0a5.52,5.52,0,0,0,7.78,0l5.1-5.1Z"/>
<path d="M3.51,20.49h0a5.5,5.5,0,0,1,0-7.78l4.6-4.6,4.6-4.6a5.5,5.5,0,0,1,7.78,0h0a5.5,5.5,0,0,1,0,7.78l-4.6,4.6-4.6,4.6a5.5,5.5,0,0,1-7.78,0Z"/>
</g>
</svg>