<!DOCTYPE svg PUBLIC "-//W3C//DTD SVG 1.1//EN" "http://www.w3.org/Graphics/SVG/1.1/DTD/svg11.dtd">
<!-- Uploaded to: SVG Repo, www.svgrepo.com, Transformed by: SVG Repo Mixer Tools -->
<svg fill="#ffffff" width="800px" height="800px" viewBox="0 0 32 32" version="1.1" xmlns="http://www.w3.org/2000/svg">
<g id="SVGRepo_bgCarrier" stroke-width="0"/>
<g id="SVGRepo_tracerCarrier" stroke-linecap="round" stroke-linejoin="round"/>
<g id="SVGRepo_iconCarrier"> <title>falling</title> <path d="M30.052 8.772l-0.337-0.659c-0.372-0.728-1.263-1.018-1.992-0.646l-5.919 3.022c-0.316 0.161-0.549 0.42-0.681 0.721-0.078 0.102-0.143 0.215-0.194 0.34l-1.451 3.571-0.514-0.733-3.122-5.355v-6.029c0-0.818-0.663-1.481-1.48-1.481h-0.74c-0.817 0-1.48 0.663-1.48 1.481v6.649c0 0.338 0.113 0.649 0.303 0.898 0.009 0.017 0.018 0.034 0.028 0.050l2.671 4.581-4.581 3.215 0.381-3.049c0.065-0.516-0.145-1.002-0.513-1.315l-4.141-5.117c-0.514-0.636-1.446-0.734-2.082-0.219l-0.575 0.466c-0.635 0.514-0.733 1.447-0.219 2.083l3.736 4.618-0.703 5.623c-0.036 0.285 0.013 0.562 0.125 0.805 0.040 0.192 0.118 0.379 0.238 0.549l2.55 3.637c0.021 0.029 0.043 0.058 0.065 0.085 0.126 0.367 0.394 0.684 0.773 0.862l6.021 2.815c0.015 0.007 0.031 0.014 0.046 0.020 0.493 0.336 1.163 0.352 1.681-0.010l5.447-3.809c0.67-0.469 0.834-1.392 0.365-2.062l-0.424-0.607c-0.468-0.67-1.391-0.834-2.061-0.366l-4.38 3.063-2.967-1.387 7.189-5.044c0.174-0.122 0.313-0.274 0.416-0.445 0.135-0.135 0.246-0.299 0.322-0.487l2.3-5.658 5.253-2.682c0.728-0.372 1.017-1.264 0.645-1.992zM8.499 27.249c0 2.071-1.679 3.75-3.75 3.75s-3.75-1.679-3.75-3.75c0-2.071 1.679-3.75 3.75-3.75s3.75 1.679 3.75 3.75z"/> </g>
</svg>