<!DOCTYPE svg PUBLIC "-//W3C//DTD SVG 1.1//EN" "http://www.w3.org/Graphics/SVG/1.1/DTD/svg11.dtd">
<!-- Uploaded to: SVG Repo, www.svgrepo.com, Transformed by: SVG Repo Mixer Tools -->
<svg fill="#ffffff" height="800px" width="800px" version="1.1" id="Layer_1" xmlns="http://www.w3.org/2000/svg" xmlns:xlink="http://www.w3.org/1999/xlink" viewBox="0 0 512 512" xml:space="preserve">
<g id="SVGRepo_bgCarrier" stroke-width="0"/>
<g id="SVGRepo_tracerCarrier" stroke-linecap="round" stroke-linejoin="round"/>
<g id="SVGRepo_iconCarrier"> <g> <g> <g> <path d="M256.275,205.17c-27.949,0-50.603,22.662-50.603,50.594c0,27.936,22.668,50.603,50.603,50.603 c27.941,0,50.603-22.653,50.603-50.603C306.878,227.837,284.22,205.17,256.275,205.17z"/> <path d="M256.3,44.455c-23.637-13.458-47.304-24.196-70.389-31.787c-12.686-4.176-26.381,3.097-29.91,16.16 c-3.267,12.092,3.984,24.548,15.873,28.49c12.775,4.235,25.923,9.697,39.242,16.23c-51.77,37.201-99.895,85.332-137.087,137.098 C47.774,156.549,33.982,94.305,64.396,63.891c9.138-9.138,9.138-23.954,0-33.092c-9.137-9.138-23.954-9.138-33.092,0 C-24.875,86.976,3.838,183.16,44.987,255.753c-89.167,156.468-33.874,255.815,69.306,255.815 c104.938,0,241.248-95.3,324.215-210.633c3.97,8.16,7.614,16.397,10.858,24.687c41.986,107.294-0.223,165.513-110.716,127.914 c-8.444-2.874-11.708-5.262-16.035-2.047c-9.95,7.394-19.993,14.366-30.088,20.893c-5.189,3.354-4.543,11.149,1.101,13.666 c191.832,85.529,276.638-53.087,174.417-231.041C582.887,52.447,458.828-70.927,256.3,44.455z M256.011,412.138 c-83.936-54.836-134.94-126.304-134.94-126.304c-3.363-4.393-10.12-4.037-12.909,0.743 c-6.075,10.404-11.503,20.782-16.238,31.061c-1.229,2.668-0.825,5.813,1.017,8.101c0,0,51.659,64.982,117.243,112.016 C-47.801,561.764,24.253,251.004,256.165,99.344c61.828,40.399,118.463,97.768,157.218,157.399 C372.233,321.098,314.002,375.247,256.011,412.138z M439.026,210.447c-34.891-47.873-83.797-98.263-137.625-136.962 C433.954,8.778,508.583,62.505,439.026,210.447z"/> <path d="M104.811,47.14c2.092,0,6.1-0.534,14.123-0.248c12.881,0.498,23.76-9.631,24.222-22.547 c0.463-12.915-9.631-23.76-22.547-24.222c-5.936-0.214-11.798-0.12-17.416,0.275c-12.892,0.906-22.608,12.092-21.7,24.985 C82.361,37.715,92.635,47.14,104.811,47.14z"/> </g> </g> </g> </g>
</svg>