<!DOCTYPE svg PUBLIC "-//W3C//DTD SVG 1.1//EN" "http://www.w3.org/Graphics/SVG/1.1/DTD/svg11.dtd">
<!-- Uploaded to: SVG Repo, www.svgrepo.com, Transformed by: SVG Repo Mixer Tools -->
<svg fill="#ffffff" width="800px" height="800px" viewBox="0 0 24 24" xmlns="http://www.w3.org/2000/svg">
<g id="SVGRepo_bgCarrier" stroke-width="0"/>
<g id="SVGRepo_tracerCarrier" stroke-linecap="round" stroke-linejoin="round"/>
<g id="SVGRepo_iconCarrier"> <path d="M19.9895,18.546 C19.9845,18.592 19.9745,18.635 19.9585,18.679 C19.9475,18.705 19.9365,18.729 19.9215,18.754 C19.9135,18.769 19.9105,18.786 19.8995,18.8 C19.8815,18.824 19.8565,18.838 19.8345,18.857 C19.8215,18.87 19.8145,18.889 19.7995,18.9 L15.7995,21.9 C15.7915,21.906 15.7785,21.904 15.7695,21.91 C15.6905,21.962 15.6015,22 15.4995,22 L8.4995,22 C8.3985,22 8.3095,21.962 8.2305,21.91 C8.2215,21.904 8.2085,21.906 8.2005,21.9 L4.2005,18.9 C4.1855,18.889 4.1785,18.87 4.1645,18.857 C4.1435,18.838 4.1185,18.824 4.1005,18.8 C4.0895,18.786 4.0865,18.769 4.0785,18.754 C4.0635,18.729 4.0525,18.705 4.0415,18.679 C4.0255,18.635 4.0155,18.592 4.0105,18.546 C4.0095,18.53 3.9995,18.517 3.9995,18.5 L3.9995,5.5 C3.9995,5.483 4.0095,5.47 4.0105,5.454 C4.0155,5.408 4.0255,5.365 4.0415,5.321 C4.0525,5.295 4.0635,5.271 4.0785,5.246 C4.0865,5.231 4.0895,5.214 4.1005,5.2 C4.1185,5.176 4.1435,5.162 4.1645,5.143 C4.1785,5.13 4.1855,5.111 4.2005,5.1 L8.2005,2.1 C8.2865,2.035 8.3915,2 8.4995,2 L15.4995,2 C15.6085,2 15.7135,2.035 15.7995,2.1 L19.7995,5.1 C19.8145,5.111 19.8215,5.13 19.8355,5.143 C19.8565,5.162 19.8815,5.176 19.8995,5.2 C19.9105,5.214 19.9135,5.231 19.9215,5.246 C19.9365,5.271 19.9475,5.295 19.9585,5.321 C19.9745,5.365 19.9845,5.408 19.9895,5.454 C19.9905,5.47 19.9995,5.483 19.9995,5.5 L19.9995,18.5 C19.9995,18.517 19.9905,18.53 19.9895,18.546 Z M8.6665,3 L5.3335,5.5 L8.6665,8 L15.3335,8 L18.6665,5.5 L15.3335,3 L8.6665,3 Z M18.6665,18.5 L15.9995,16.5 L15.9995,20.5 L18.6665,18.5 Z M15.9995,15.25 L18.9995,17.5 L18.9995,6.5 L15.9995,8.75 L15.9995,15.25 Z M8.9995,15 L14.9995,15 L14.9995,9 L8.9995,9 L8.9995,15 Z M8.9995,21 L14.9995,21 L14.9995,16 L8.9995,16 L8.9995,21 Z M7.9995,16.5 L5.3335,18.5 L7.9995,20.5 L7.9995,16.5 Z M4.9995,6.5 L4.9995,17.5 L7.9995,15.25 L7.9995,8.75 L4.9995,6.5 Z"/> </g>
</svg>