<!DOCTYPE svg PUBLIC "-//W3C//DTD SVG 1.1//EN" "http://www.w3.org/Graphics/SVG/1.1/DTD/svg11.dtd">
<!-- Uploaded to: SVG Repo, www.svgrepo.com, Transformed by: SVG Repo Mixer Tools -->
<svg fill="#ffffff" height="800px" width="800px" version="1.1" id="Layer_1" xmlns="http://www.w3.org/2000/svg" xmlns:xlink="http://www.w3.org/1999/xlink" viewBox="0 0 512 512" xml:space="preserve" stroke="#ffffff">
<g id="SVGRepo_bgCarrier" stroke-width="0"/>
<g id="SVGRepo_tracerCarrier" stroke-linecap="round" stroke-linejoin="round"/>
<g id="SVGRepo_iconCarrier"> <g> <g> <path d="M468.32,176.933H335.067V43.68c0-24.085-19.595-43.68-43.68-43.68H43.68C19.595,0,0,19.595,0,43.68v247.706 c0,24.085,19.595,43.68,43.68,43.68h133.253V468.32c0,24.085,19.595,43.68,43.68,43.68H468.32c24.085,0,43.68-19.595,43.68-43.68 V220.613C512,196.528,492.405,176.933,468.32,176.933z M335.067,291.387v-53.633h116.112v213.425H237.754V335.067h53.633 C315.472,335.067,335.067,315.472,335.067,291.387z M43.68,318.479c-14.94,0-27.093-12.153-27.093-27.093V43.68 c0-14.94,12.153-27.093,27.093-27.093h247.706c14.94,0,27.093,12.153,27.093,27.093v247.706c0,14.94-12.153,27.093-27.093,27.093 H43.68z M495.413,468.32c0,14.94-12.153,27.093-27.093,27.093H220.613c-14.94,0-27.093-12.153-27.093-27.093V335.067h27.646 v124.406c0,4.581,3.712,8.294,8.294,8.294h230.013c4.581,0,8.294-3.712,8.294-8.294V229.46c0-4.581-3.712-8.294-8.294-8.294 H335.067v-27.646H468.32c14.94,0,27.093,12.153,27.093,27.093V468.32z"/> </g> </g> </g>
</svg>