<?xml version="1.0" encoding="utf-8"?>

<!DOCTYPE svg PUBLIC "-//W3C//DTD SVG 1.1//EN" "http://www.w3.org/Graphics/SVG/1.1/DTD/svg11.dtd">
<!-- Uploaded to: SVG Repo, www.svgrepo.com, Generator: SVG Repo Mixer Tools -->
<svg height="800px" width="800px" version="1.1" id="_x32_" xmlns="http://www.w3.org/2000/svg" xmlns:xlink="http://www.w3.org/1999/xlink" 
	 viewBox="0 0 512 512"  xml:space="preserve">
<style type="text/css">
	.st0{fill:#FFFFFF;}
</style>
<g>
	<path class="st0" d="M256.003,0.004C114.836,0.004,0,114.839,0,256c0,141.154,114.836,255.996,256.003,255.996
		C397.157,511.996,512,397.153,512,256C512,114.839,397.157,0.004,256.003,0.004z M256.003,466.049
		C140,466.049,45.947,371.997,45.947,256c0-115.997,94.052-210.056,210.056-210.056C372,45.943,466.046,140.003,466.046,256
		C466.046,371.997,372,466.049,256.003,466.049z"/>
	<path class="st0" d="M327.142,190.743c-0.783-0.456-1.745-0.427-2.507,0.015l-105.712,63.12c-0.128,0.07-0.193,0.206-0.3,0.299
		v-58.547h-35v122.528h35v-60.334c0.107,0.085,0.172,0.228,0.3,0.299l105.712,63.112c0.762,0.448,1.724,0.477,2.507,0.021
		c0.756-0.428,1.24-1.268,1.24-2.151v-63.112v-63.091C328.382,191.997,327.898,191.171,327.142,190.743z"/>
</g>
</svg>