<?xml version="1.0" encoding="utf-8"?>

<!DOCTYPE svg PUBLIC "-//W3C//DTD SVG 1.1//EN" "http://www.w3.org/Graphics/SVG/1.1/DTD/svg11.dtd">
<!-- Uploaded to: SVG Repo, www.svgrepo.com, Generator: SVG Repo Mixer Tools -->
<svg height="800px" width="800px" version="1.1" id="_x32_" xmlns="http://www.w3.org/2000/svg" xmlns:xlink="http://www.w3.org/1999/xlink" 
	 viewBox="0 0 512 512"  xml:space="preserve">
<style type="text/css">
	.st0{fill:#FFFFFF;}
</style>
<g>
	<path class="st0" d="M255.996,0.004C114.624,0.004,0,114.627,0,256c0,141.373,114.624,255.996,255.996,255.996
		C397.377,511.996,512,397.373,512,256C512,114.627,397.377,0.004,255.996,0.004z M401.892,258.586l-128.849,76.921
		c-0.922,0.546-2.094,0.578-3.047,0.015c-0.929-0.515-1.508-1.515-1.508-2.625v-58.265l-101.974,60.874
		c-0.922,0.546-2.094,0.578-3.047,0.015c-0.914-0.515-1.508-1.515-1.508-2.625v-76.889v-76.921c0-1.078,0.594-2.094,1.508-2.625
		c0.954-0.546,2.125-0.515,3.047,0.031l101.974,60.874v-58.281c0-1.078,0.578-2.094,1.508-2.625
		c0.954-0.546,2.126-0.515,3.047,0.031l128.849,76.921c0.922,0.515,1.469,1.531,1.469,2.594
		C403.361,257.07,402.814,258.054,401.892,258.586z"/>
</g>
</svg>