<?xml version="1.0" encoding="UTF-8" standalone="no"?>
<!-- Uploaded to: SVG Repo, www.svgrepo.com, Transformed by: SVG Repo Mixer Tools -->

<svg
   width="800px"
   height="800px"
   viewBox="0 0 24 24"
   fill="none"
   stroke="#ffffff"
   version="1.1"
   id="svg2"
   sodipodi:docname="Copy.svg"
   inkscape:version="1.3 (0e150ed6c4, 2023-07-21)"
   xmlns:inkscape="http://www.inkscape.org/namespaces/inkscape"
   xmlns:sodipodi="http://sodipodi.sourceforge.net/DTD/sodipodi-0.dtd"
   xmlns="http://www.w3.org/2000/svg"
   xmlns:svg="http://www.w3.org/2000/svg">
  <defs
     id="defs2" />
  <sodipodi:namedview
     id="namedview2"
     pagecolor="#ffffff"
     bordercolor="#000000"
     borderopacity="0.25"
     inkscape:showpageshadow="2"
     inkscape:pageopacity="0.0"
     inkscape:pagecheckerboard="true"
     inkscape:deskcolor="#d1d1d1"
     inkscape:zoom="1.40125"
     inkscape:cx="399.64318"
     inkscape:cy="400"
     inkscape:window-width="2256"
     inkscape:window-height="1398"
     inkscape:window-x="-11"
     inkscape:window-y="-11"
     inkscape:window-maximized="1"
     inkscape:current-layer="svg2" />
  <g
     id="SVGRepo_bgCarrier"
     stroke-width="0" />
  <g
     id="SVGRepo_tracerCarrier"
     stroke-linecap="round"
     stroke-linejoin="round" />
  <g
     id="SVGRepo_iconCarrier"
     style="fill:none;fill-opacity:1;stroke:#2a70ae;stroke-opacity:1">
    <path
       d="M6 11C6 8.17157 6 6.75736 6.87868 5.87868C7.75736 5 9.17157 5 12 5H15C17.8284 5 19.2426 5 20.1213 5.87868C21 6.75736 21 8.17157 21 11V16C21 18.8284 21 20.2426 20.1213 21.1213C19.2426 22 17.8284 22 15 22H12C9.17157 22 7.75736 22 6.87868 21.1213C6 20.2426 6 18.8284 6 16V11Z"
       stroke="#FFFFFF"
       stroke-width="1.5"
       id="path1"
       style="fill:none;fill-opacity:1;stroke:#2a70ae;stroke-opacity:1" />
    <path
       d="M6 19C4.34315 19 3 17.6569 3 16V10C3 6.22876 3 4.34315 4.17157 3.17157C5.34315 2 7.22876 2 11 2H15C16.6569 2 18 3.34315 18 5"
       stroke="#FFFFFF"
       stroke-width="1.5"
       id="path2"
       style="fill:none;fill-opacity:1;stroke:#2a70ae;stroke-opacity:1" />
  </g>
</svg>
