<!DOCTYPE svg PUBLIC "-//W3C//DTD SVG 1.1//EN" "http://www.w3.org/Graphics/SVG/1.1/DTD/svg11.dtd">
<!-- Uploaded to: SVG Repo, www.svgrepo.com, Transformed by: SVG Repo Mixer Tools -->
<svg width="800px" height="800px" viewBox="0 0 24 24" fill="none" xmlns="http://www.w3.org/2000/svg">
<g id="SVGRepo_bgCarrier" stroke-width="0"/>
<g id="SVGRepo_tracerCarrier" stroke-linecap="round" stroke-linejoin="round"/>
<g id="SVGRepo_iconCarrier"> <path d="M18.18 8.03933L18.6435 7.57589C19.4113 6.80804 20.6563 6.80804 21.4241 7.57589C22.192 8.34374 22.192 9.58868 21.4241 10.3565L20.9607 10.82M18.18 8.03933C18.18 8.03933 18.238 9.02414 19.1069 9.89309C19.9759 10.762 20.9607 10.82 20.9607 10.82M18.18 8.03933L13.9194 12.2999C13.6308 12.5885 13.4865 12.7328 13.3624 12.8919C13.2161 13.0796 13.0906 13.2827 12.9882 13.4975C12.9014 13.6797 12.8368 13.8732 12.7078 14.2604L12.2946 15.5L12.1609 15.901M20.9607 10.82L16.7001 15.0806C16.4115 15.3692 16.2672 15.5135 16.1081 15.6376C15.9204 15.7839 15.7173 15.9094 15.5025 16.0118C15.3203 16.0986 15.1268 16.1632 14.7396 16.2922L13.5 16.7054L13.099 16.8391M13.099 16.8391L12.6979 16.9728C12.5074 17.0363 12.2973 16.9867 12.1553 16.8447C12.0133 16.7027 11.9637 16.4926 12.0272 16.3021L12.1609 15.901M13.099 16.8391L12.1609 15.901" stroke="#FFFFFF" stroke-width="1.5"/> <path d="M8 13H10.5" stroke="#FFFFFF" stroke-width="1.5" stroke-linecap="round"/> <path d="M8 9H14.5" stroke="#FFFFFF" stroke-width="1.5" stroke-linecap="round"/> <path d="M8 17H9.5" stroke="#FFFFFF" stroke-width="1.5" stroke-linecap="round"/> <path d="M19.8284 3.17157C18.6569 2 16.7712 2 13 2H11C7.22876 2 5.34315 2 4.17157 3.17157C3 4.34315 3 6.22876 3 10V14C3 17.7712 3 19.6569 4.17157 20.8284C5.34315 22 7.22876 22 11 22H13C16.7712 22 18.6569 22 19.8284 20.8284C20.7715 19.8853 20.9554 18.4796 20.9913 16" stroke="#FFFFFF" stroke-width="1.5" stroke-linecap="round"/> </g>
</svg>