<?xml version="1.0" encoding="utf-8"?>

<!DOCTYPE svg PUBLIC "-//W3C//DTD SVG 1.1//EN" "http://www.w3.org/Graphics/SVG/1.1/DTD/svg11.dtd">
<!-- Uploaded to: SVG Repo, www.svgrepo.com, Generator: SVG Repo Mixer Tools -->
<svg height="800px" width="800px" version="1.1" id="_x32_" xmlns="http://www.w3.org/2000/svg" xmlns:xlink="http://www.w3.org/1999/xlink" 
	 viewBox="0 0 512 512"  xml:space="preserve">
<style type="text/css">
	.st0{fill:#BB0000;}
</style>
<g>
	<polygon class="st0" points="314.427,151.751 255.996,210.174 197.573,151.751 151.751,197.581 210.173,256.004 151.751,314.427 
		197.573,360.258 255.996,301.834 314.427,360.258 360.249,314.427 301.827,256.004 360.257,197.581 	"/>
	<path class="st0" d="M437.016,74.992C390.773,28.7,326.607-0.008,256.004,0c-70.61-0.008-134.784,28.7-181.02,74.992
		C28.7,121.228-0.017,185.394,0,256.004c-0.017,70.602,28.7,134.768,74.984,181.012c46.235,46.292,110.409,75.008,181.02,74.984
		c70.603,0.024,134.769-28.692,181.012-74.984c46.285-46.244,74.992-110.409,74.984-181.012
		C512.008,185.394,483.301,121.228,437.016,74.992z M398.728,398.727c-36.613,36.572-86.908,59.1-142.724,59.124
		c-55.832-0.024-106.118-22.552-142.723-59.124c-36.572-36.613-59.107-86.908-59.124-142.723
		c0.016-55.832,22.552-106.102,59.124-142.723c36.606-36.564,86.892-59.108,142.723-59.116
		c55.816,0.008,106.111,22.552,142.724,59.116c36.563,36.622,59.099,86.892,59.116,142.723
		C457.827,311.82,435.291,362.114,398.728,398.727z"/>
</g>
</svg>