<?xml version="1.0" encoding="UTF-8" standalone="no"?>
<!-- Uploaded to: SVG Repo, www.svgrepo.com, Transformed by: SVG Repo Mixer Tools -->

<svg
   width="800px"
   height="800px"
   viewBox="0 0 24 24"
   fill="none"
   version="1.1"
   id="svg1"
   sodipodi:docname="Flag_Red.svg"
   inkscape:version="1.3 (0e150ed6c4, 2023-07-21)"
   xmlns:inkscape="http://www.inkscape.org/namespaces/inkscape"
   xmlns:sodipodi="http://sodipodi.sourceforge.net/DTD/sodipodi-0.dtd"
   xmlns="http://www.w3.org/2000/svg"
   xmlns:svg="http://www.w3.org/2000/svg">
  <defs
     id="defs1" />
  <sodipodi:namedview
     id="namedview1"
     pagecolor="#ffffff"
     bordercolor="#000000"
     borderopacity="0.25"
     inkscape:showpageshadow="2"
     inkscape:pageopacity="0.0"
     inkscape:pagecheckerboard="0"
     inkscape:deskcolor="#d1d1d1"
     inkscape:zoom="1.11375"
     inkscape:cx="400"
     inkscape:cy="400"
     inkscape:window-width="1920"
     inkscape:window-height="1129"
     inkscape:window-x="1912"
     inkscape:window-y="-8"
     inkscape:window-maximized="1"
     inkscape:current-layer="SVGRepo_iconCarrier" />
  <g
     id="SVGRepo_bgCarrier"
     stroke-width="0" />
  <g
     id="SVGRepo_tracerCarrier"
     stroke-linecap="round"
     stroke-linejoin="round" />
  <g
     id="SVGRepo_iconCarrier">
    <path
       d="M5.75 1C6.16421 1 6.5 1.33579 6.5 1.75V3.6L8.22067 3.25587C9.8712 2.92576 11.5821 3.08284 13.1449 3.70797L13.3486 3.78943C14.9097 4.41389 16.628 4.53051 18.2592 4.1227C19.0165 3.93339 19.75 4.50613 19.75 5.28669V12.6537C19.75 13.298 19.3115 13.8596 18.6864 14.0159L18.472 14.0695C16.7024 14.5119 14.8385 14.3854 13.1449 13.708C11.5821 13.0828 9.8712 12.9258 8.22067 13.2559L6.5 13.6V21.75C6.5 22.1642 6.16421 22.5 5.75 22.5C5.33579 22.5 5 22.1642 5 21.75V1.75C5 1.33579 5.33579 1 5.75 1Z"
       fill="#ff0000"
       id="path1"
       style="fill:#ad2f2f;fill-opacity:1" />
  </g>
</svg>
