<!DOCTYPE svg PUBLIC "-//W3C//DTD SVG 1.1//EN" "http://www.w3.org/Graphics/SVG/1.1/DTD/svg11.dtd">
<!-- Uploaded to: SVG Repo, www.svgrepo.com, Transformed by: SVG Repo Mixer Tools -->
<svg version="1.1" id="Uploaded to svgrepo.com" xmlns="http://www.w3.org/2000/svg" xmlns:xlink="http://www.w3.org/1999/xlink" width="800px" height="800px" viewBox="0 0 32 32" xml:space="preserve" fill="#ffffff" stroke="#ffffff">
<g id="SVGRepo_bgCarrier" stroke-width="0"/>
<g id="SVGRepo_tracerCarrier" stroke-linecap="round" stroke-linejoin="round"/>
<g id="SVGRepo_iconCarrier"> <style type="text/css"> .blueprint_een{fill:#ffffff;} .st0{fill:#ffffff;} </style> <path class="blueprint_een" d="M31.359,15.316L18.73,1.845c-0.206-0.22-0.466-0.318-0.722-0.318 C17.495,1.527,17,1.923,17,2.529V8H1C0.448,8,0,8.448,0,9v14c0,0.552,0.448,1,1,1h16v5.471c0,0.605,0.495,1.002,1.008,1.002 c0.255,0,0.516-0.098,0.722-0.318l12.629-13.471C31.719,16.299,31.719,15.701,31.359,15.316z M19,26.942V22H2V10h17V5.058L29.259,16 L19,26.942z"/> </g>
</svg>