<?xml version="1.0" encoding="UTF-8" standalone="no"?>
<!-- Uploaded to: SVG Repo, www.svgrepo.com, Transformed by: SVG Repo Mixer Tools -->

<svg
   width="800px"
   height="800px"
   viewBox="0 -0.5 25 25"
   fill="none"
   version="1.1"
   id="svg5"
   sodipodi:docname="Guid.svg"
   inkscape:version="1.3 (0e150ed6c4, 2023-07-21)"
   xmlns:inkscape="http://www.inkscape.org/namespaces/inkscape"
   xmlns:sodipodi="http://sodipodi.sourceforge.net/DTD/sodipodi-0.dtd"
   xmlns="http://www.w3.org/2000/svg"
   xmlns:svg="http://www.w3.org/2000/svg">
  <defs
     id="defs5" />
  <sodipodi:namedview
     id="namedview5"
     pagecolor="#ffffff"
     bordercolor="#000000"
     borderopacity="0.25"
     inkscape:showpageshadow="2"
     inkscape:pageopacity="0.0"
     inkscape:pagecheckerboard="true"
     inkscape:deskcolor="#d1d1d1"
     inkscape:zoom="1.40125"
     inkscape:cx="399.64318"
     inkscape:cy="400"
     inkscape:window-width="2256"
     inkscape:window-height="1398"
     inkscape:window-x="-11"
     inkscape:window-y="-11"
     inkscape:window-maximized="1"
     inkscape:current-layer="svg5" />
  <g
     id="SVGRepo_bgCarrier"
     stroke-width="0" />
  <g
     id="SVGRepo_tracerCarrier"
     stroke-linecap="round"
     stroke-linejoin="round" />
  <g
     id="SVGRepo_iconCarrier"
     style="fill:none;fill-opacity:1;stroke:#b96b29;stroke-opacity:1">
    <path
       fill-rule="evenodd"
       clip-rule="evenodd"
       d="M3.5 7V17C3.5 18.1046 4.39543 19 5.5 19H19.5C20.6046 19 21.5 18.1046 21.5 17V7C21.5 5.89543 20.6046 5 19.5 5H5.5C4.39543 5 3.5 5.89543 3.5 7Z"
       stroke="#FFFFFF"
       stroke-width="1.5"
       stroke-linecap="round"
       stroke-linejoin="round"
       id="path1"
       style="fill:none;fill-opacity:1;stroke:#b96b29;stroke-opacity:1" />
    <path
       d="M15.5 10H18.5"
       stroke="#FFFFFF"
       stroke-width="1.5"
       stroke-linecap="round"
       id="path2"
       style="fill:none;fill-opacity:1;stroke:#b96b29;stroke-opacity:1" />
    <path
       d="M15.5 13H18.5"
       stroke="#FFFFFF"
       stroke-width="1.5"
       stroke-linecap="round"
       id="path3"
       style="fill:none;fill-opacity:1;stroke:#b96b29;stroke-opacity:1" />
    <path
       fill-rule="evenodd"
       clip-rule="evenodd"
       d="M11.5 10C11.5 11.1046 10.6046 12 9.5 12C8.39543 12 7.5 11.1046 7.5 10C7.5 8.89543 8.39543 8 9.5 8C10.0304 8 10.5391 8.21071 10.9142 8.58579C11.2893 8.96086 11.5 9.46957 11.5 10Z"
       stroke="#FFFFFF"
       stroke-width="1.5"
       stroke-linecap="round"
       stroke-linejoin="round"
       id="path4"
       style="fill:none;fill-opacity:1;stroke:#b96b29;stroke-opacity:1" />
    <path
       d="M5.5 16C8.283 12.863 11.552 13.849 13.5 16"
       stroke="#FFFFFF"
       stroke-width="1.5"
       stroke-linecap="round"
       id="path5"
       style="fill:none;fill-opacity:1;stroke:#b96b29;stroke-opacity:1" />
  </g>
</svg>
