<!DOCTYPE svg PUBLIC "-//W3C//DTD SVG 1.1//EN" "http://www.w3.org/Graphics/SVG/1.1/DTD/svg11.dtd">
<!-- Uploaded to: SVG Repo, www.svgrepo.com, Transformed by: SVG Repo Mixer Tools -->
<svg width="800px" height="800px" viewBox="0 0 24 24" fill="none" xmlns="http://www.w3.org/2000/svg">
<g id="SVGRepo_bgCarrier" stroke-width="0"/>
<g id="SVGRepo_tracerCarrier" stroke-linecap="round" stroke-linejoin="round"/>
<g id="SVGRepo_iconCarrier"> <path fill-rule="evenodd" clip-rule="evenodd" d="M1 5C1 3.34315 2.34315 2 4 2H8.43845C9.81505 2 11.015 2.93689 11.3489 4.27239L11.7808 6H13.5H20C21.6569 6 23 7.34315 23 9V11C23 11.5523 22.5523 12 22 12C21.4477 12 21 11.5523 21 11V9C21 8.44772 20.5523 8 20 8H13.5H11.7808H4C3.44772 8 3 8.44772 3 9V10V19C3 19.5523 3.44772 20 4 20H9C9.55228 20 10 20.4477 10 21C10 21.5523 9.55228 22 9 22H4C2.34315 22 1 20.6569 1 19V10V9V5ZM3 6.17071C3.31278 6.06015 3.64936 6 4 6H9.71922L9.40859 4.75746C9.2973 4.3123 8.89732 4 8.43845 4H4C3.44772 4 3 4.44772 3 5V6.17071ZM20.1716 18.7574C20.6951 17.967 21 17.0191 21 16C21 13.2386 18.7614 11 16 11C13.2386 11 11 13.2386 11 16C11 18.7614 13.2386 21 16 21C17.0191 21 17.967 20.6951 18.7574 20.1716L21.2929 22.7071C21.6834 23.0976 22.3166 23.0976 22.7071 22.7071C23.0976 22.3166 23.0976 21.6834 22.7071 21.2929L20.1716 18.7574ZM13 16C13 14.3431 14.3431 13 16 13C17.6569 13 19 14.3431 19 16C19 17.6569 17.6569 19 16 19C14.3431 19 13 17.6569 13 16Z" fill="#ffffff"/> </g>
</svg>