<?xml version="1.0" encoding="UTF-8" standalone="no"?>
<!-- Uploaded to: SVG Repo, www.svgrepo.com, Transformed by: SVG Repo Mixer Tools -->

<svg
   width="800px"
   height="800px"
   viewBox="0 0 24 24"
   fill="none"
   version="1.1"
   id="svg1"
   sodipodi:docname="Paste.svg"
   inkscape:version="1.3 (0e150ed6c4, 2023-07-21)"
   xmlns:inkscape="http://www.inkscape.org/namespaces/inkscape"
   xmlns:sodipodi="http://sodipodi.sourceforge.net/DTD/sodipodi-0.dtd"
   xmlns="http://www.w3.org/2000/svg"
   xmlns:svg="http://www.w3.org/2000/svg">
  <defs
     id="defs1" />
  <sodipodi:namedview
     id="namedview1"
     pagecolor="#ffffff"
     bordercolor="#000000"
     borderopacity="0.25"
     inkscape:showpageshadow="2"
     inkscape:pageopacity="0.0"
     inkscape:pagecheckerboard="true"
     inkscape:deskcolor="#d1d1d1"
     inkscape:zoom="1.40125"
     inkscape:cx="399.64318"
     inkscape:cy="400"
     inkscape:window-width="2256"
     inkscape:window-height="1398"
     inkscape:window-x="-11"
     inkscape:window-y="-11"
     inkscape:window-maximized="1"
     inkscape:current-layer="svg1" />
  <g
     id="SVGRepo_bgCarrier"
     stroke-width="0" />
  <g
     id="SVGRepo_tracerCarrier"
     stroke-linecap="round"
     stroke-linejoin="round" />
  <g
     id="SVGRepo_iconCarrier"
     style="fill:#6d55b5;fill-opacity:1">
    <path
       fill-rule="evenodd"
       clip-rule="evenodd"
       d="M12 0C11.2347 0 10.6293 0.125708 10.1567 0.359214C9.9845 0.44429 9.82065 0.544674 9.68861 0.62717L9.59036 0.688808C9.49144 0.751003 9.4082 0.803334 9.32081 0.853848C9.09464 0.984584 9.00895 0.998492 9.00053 0.999859C8.99983 0.999973 9.00019 0.999859 9.00053 0.999859C7.89596 0.999859 7 1.89543 7 3H6C4.34315 3 3 4.34315 3 6V20C3 21.6569 4.34315 23 6 23H18C19.6569 23 21 21.6569 21 20V6C21 4.34315 19.6569 3 18 3H17C17 1.89543 16.1046 1 15 1C15.0003 1 15.0007 1.00011 15 1C14.9916 0.998633 14.9054 0.984584 14.6792 0.853848C14.5918 0.80333 14.5086 0.751004 14.4096 0.688804L14.3114 0.62717C14.1793 0.544674 14.0155 0.44429 13.8433 0.359214C13.3707 0.125708 12.7653 0 12 0ZM16.7324 5C16.3866 5.5978 15.7403 6 15 6H9C8.25972 6 7.61337 5.5978 7.26756 5H6C5.44772 5 5 5.44772 5 6V20C5 20.5523 5.44772 21 6 21H18C18.5523 21 19 20.5523 19 20V6C19 5.44772 18.5523 5 18 5H16.7324ZM11.0426 2.15229C11.1626 2.09301 11.4425 2 12 2C12.5575 2 12.8374 2.09301 12.9574 2.15229C13.0328 2.18953 13.1236 2.24334 13.2516 2.32333L13.3261 2.37008C13.43 2.43542 13.5553 2.51428 13.6783 2.58539C13.9712 2.75469 14.4433 3 15 3V4H9V3C9.55666 3 10.0288 2.75469 10.3217 2.58539C10.4447 2.51428 10.57 2.43543 10.6739 2.37008L10.7484 2.32333C10.8764 2.24334 10.9672 2.18953 11.0426 2.15229Z"
       fill="#ffffff"
       id="path1"
       style="fill:#6d55b5;fill-opacity:1" />
  </g>
</svg>
