<!DOCTYPE svg PUBLIC "-//W3C//DTD SVG 1.1//EN" "http://www.w3.org/Graphics/SVG/1.1/DTD/svg11.dtd">
<!-- Uploaded to: SVG Repo, www.svgrepo.com, Transformed by: SVG Repo Mixer Tools -->
<svg width="800px" height="800px" viewBox="0 0 512 512" version="1.1" xmlns="http://www.w3.org/2000/svg" xmlns:xlink="http://www.w3.org/1999/xlink" fill="#ffffff" stroke="#ffffff">
<g id="SVGRepo_bgCarrier" stroke-width="0"/>
<g id="SVGRepo_tracerCarrier" stroke-linecap="round" stroke-linejoin="round"/>
<g id="SVGRepo_iconCarrier"> <title>project-new</title> <g id="Page-1" stroke="none" stroke-width="1" fill="none" fill-rule="evenodd"> <g id="Combined-Shape" fill="#ffffff" transform="translate(64.000000, 34.346667)"> <path d="M192,-7.10542736e-15 L384,110.851252 L384,242.986 L341.333,242.986 L341.333,157.655 L213.333,231.555 L213.333,431.088 L192,443.405007 L0,332.553755 L0,110.851252 L192,-7.10542736e-15 Z M341.333333,264.32 L341.333,328.32 L405.333333,328.32 L405.333333,370.986667 L341.333,370.986 L341.333333,434.986667 L298.666667,434.986667 L298.666,370.986 L234.666667,370.986667 L234.666667,328.32 L298.666,328.32 L298.666667,264.32 L341.333333,264.32 Z M42.666,157.654 L42.6666667,307.920144 L170.666,381.82 L170.666,231.555 L42.666,157.654 Z M192,49.267223 L66.1333333,121.936377 L192,194.605531 L317.866667,121.936377 L192,49.267223 Z"> </path> </g> </g> </g>
</svg>