<!DOCTYPE svg PUBLIC "-//W3C//DTD SVG 1.1//EN" "http://www.w3.org/Graphics/SVG/1.1/DTD/svg11.dtd">
<!-- Uploaded to: SVG Repo, www.svgrepo.com, Transformed by: SVG Repo Mixer Tools -->
<svg fill="#ffffff" height="800px" width="800px" version="1.1" id="Capa_1" xmlns="http://www.w3.org/2000/svg" xmlns:xlink="http://www.w3.org/1999/xlink" viewBox="0 0 355.096 355.096" xml:space="preserve" stroke="#ffffff">
<g id="SVGRepo_bgCarrier" stroke-width="0"/>
<g id="SVGRepo_tracerCarrier" stroke-linecap="round" stroke-linejoin="round"/>
<g id="SVGRepo_iconCarrier"> <g> <path d="M0,25.309v304.479h355.096V25.309H0z M263.983,48.658c7.073,0,12.819,5.74,12.819,12.821 c0,7.084-5.746,12.826-12.819,12.826c-7.08,0-12.836-5.742-12.836-12.826C251.146,54.398,256.902,48.658,263.983,48.658z M214.66,48.658c7.077,0,12.822,5.74,12.822,12.821c0,7.084-5.745,12.826-12.822,12.826c-7.076,0-12.832-5.742-12.832-12.826 C201.828,54.398,207.584,48.658,214.66,48.658z M319.578,296.326H35.505V105.707h284.073V296.326z M313.301,74.306 c-7.078,0-12.833-5.742-12.833-12.826c0-7.081,5.755-12.821,12.833-12.821c7.079,0,12.817,5.74,12.817,12.821 C326.118,68.563,320.38,74.306,313.301,74.306z"/> <path d="M177.549,149.854c25.226,0,45.738,20.525,45.738,45.754s-20.513,45.755-45.738,45.755c-8.187,0-16.191-2.195-23.192-6.32 l6.28-10.099l-33.865,2.88l12.427,31.631l5.857-9.445c9.789,5.866,21.018,8.96,32.493,8.96c34.938,0,63.354-28.427,63.354-63.361 c0-34.948-28.417-63.374-63.354-63.374c-34.948,0-63.38,28.426-63.38,63.374h17.613 C131.782,170.379,152.322,149.854,177.549,149.854z"/> <path d="M174.173,157.249v29.803c-3.422,1.351-5.832,4.668-5.832,8.556c0,5.075,4.123,9.195,9.208,9.195 c3.885,0,7.2-2.417,8.54-5.825h20.494v-6.746h-20.494c-0.919-2.363-2.815-4.245-5.17-5.18v-29.803H174.173z"/> </g> </g>
</svg>