<?xml version="1.0" encoding="UTF-8" standalone="no"?>
<!-- Uploaded to: SVG Repo, www.svgrepo.com, Transformed by: SVG Repo Mixer Tools -->

<svg
   fill="#ffffff"
   version="1.1"
   id="Capa_1"
   width="800px"
   height="800px"
   viewBox="0 0 442.357 442.357"
   xml:space="preserve"
   sodipodi:docname="ReloadResources.svg"
   inkscape:version="1.3 (0e150ed6c4, 2023-07-21)"
   xmlns:inkscape="http://www.inkscape.org/namespaces/inkscape"
   xmlns:sodipodi="http://sodipodi.sourceforge.net/DTD/sodipodi-0.dtd"
   xmlns="http://www.w3.org/2000/svg"
   xmlns:svg="http://www.w3.org/2000/svg"><defs
   id="defs3" /><sodipodi:namedview
   id="namedview3"
   pagecolor="#ffffff"
   bordercolor="#000000"
   borderopacity="0.25"
   inkscape:showpageshadow="2"
   inkscape:pageopacity="0.0"
   inkscape:pagecheckerboard="true"
   inkscape:deskcolor="#d1d1d1"
   inkscape:zoom="1.40125"
   inkscape:cx="399.64318"
   inkscape:cy="400"
   inkscape:window-width="2256"
   inkscape:window-height="1398"
   inkscape:window-x="-11"
   inkscape:window-y="-11"
   inkscape:window-maximized="1"
   inkscape:current-layer="g2" />&#10;&#10;<g
   id="SVGRepo_bgCarrier"
   stroke-width="0" />&#10;&#10;<g
   id="SVGRepo_tracerCarrier"
   stroke-linecap="round"
   stroke-linejoin="round" />&#10;&#10;<g
   id="SVGRepo_iconCarrier"> <g
   id="g3"> <g
   id="g2"> <path
   d="M415.679,226.857c0,107.248-87.252,194.5-194.5,194.5s-194.5-87.252-194.5-194.5c0-90.115,62.074-168.267,148.828-189.108 l1.816,16.365l43.856-32.254L171.318,0l1.857,16.739C75.698,38.897,5.679,126.127,5.679,226.857 c0,118.828,96.673,215.5,215.5,215.5s215.5-96.672,215.5-215.5H415.679z"
   id="path1" /> <path
   d="M79.18,226.857c0,78.299,63.7,142,141.999,142s141.999-63.701,141.999-142c0-78.297-63.701-141.999-141.999-141.999 S79.18,148.56,79.18,226.857z M221.179,281.787c-30.288,0-54.929-24.641-54.929-54.93c0-30.288,24.641-54.929,54.929-54.929 s54.929,24.641,54.929,54.929C276.107,257.146,251.467,281.787,221.179,281.787z M180.621,162.717l-32.355-32.355 c17.667-13.382,39.105-22.028,62.414-24.042v45.352C199.746,153.192,189.557,157.047,180.621,162.717z M141.253,317.617 l31.956-31.955c13.087,10.695,29.79,17.125,47.97,17.125c15.641,0,30.189-4.758,42.283-12.896l32.232,32.233 c-20.555,16.112-46.433,25.731-74.516,25.731C190.571,347.857,162.585,336.426,141.253,317.617z"
   id="path2"
   style="fill:#b94f4f;fill-opacity:1" /> </g> </g> </g>&#10;&#10;</svg>
