<?xml version="1.0" encoding="UTF-8" standalone="no"?>
<!-- Uploaded to: SVG Repo, www.svgrepo.com, Generator: SVG Repo Mixer Tools -->

<svg
   width="800px"
   height="800px"
   viewBox="0 0 16 16"
   fill="#FFFFFF"
   version="1.1"
   id="svg1"
   sodipodi:docname="SaveAll.svg"
   inkscape:version="1.3 (0e150ed6c4, 2023-07-21)"
   xmlns:inkscape="http://www.inkscape.org/namespaces/inkscape"
   xmlns:sodipodi="http://sodipodi.sourceforge.net/DTD/sodipodi-0.dtd"
   xmlns="http://www.w3.org/2000/svg"
   xmlns:svg="http://www.w3.org/2000/svg">
  <defs
     id="defs1" />
  <sodipodi:namedview
     id="namedview1"
     pagecolor="#ffffff"
     bordercolor="#000000"
     borderopacity="0.25"
     inkscape:showpageshadow="2"
     inkscape:pageopacity="0.0"
     inkscape:pagecheckerboard="true"
     inkscape:deskcolor="#d1d1d1"
     inkscape:zoom="1.11375"
     inkscape:cx="400"
     inkscape:cy="400"
     inkscape:window-width="1920"
     inkscape:window-height="1129"
     inkscape:window-x="1912"
     inkscape:window-y="-8"
     inkscape:window-maximized="1"
     inkscape:current-layer="svg1" />
  <path
     d="M14.85 2.65l-1.5-1.5L13 1H4.48l-.5.5V4H1.5l-.5.5v10l.5.5h10l.5-.5V12h2.5l.5-.5V3l-.15-.35zM11 14H2V5h1v3.07h6V5h.79L11 6.21V14zM6 7V5h2v2H6zm8 4h-2V6l-.15-.35-1.5-1.5L10 4H5V2h7.81l1.21 1.21L14 11z"
     id="path1"
     style="fill:#4d7ba9;fill-opacity:1" />
</svg>
