<?xml version="1.0" encoding="UTF-8" standalone="no"?>
<!-- Uploaded to: SVG Repo, www.svgrepo.com, Generator: SVG Repo Mixer Tools -->

<svg
   width="800px"
   height="800px"
   viewBox="0 0 24 24"
   fill="none"
   version="1.1"
   id="svg1"
   sodipodi:docname="Save.svg"
   inkscape:version="1.3 (0e150ed6c4, 2023-07-21)"
   xmlns:inkscape="http://www.inkscape.org/namespaces/inkscape"
   xmlns:sodipodi="http://sodipodi.sourceforge.net/DTD/sodipodi-0.dtd"
   xmlns="http://www.w3.org/2000/svg"
   xmlns:svg="http://www.w3.org/2000/svg">
  <defs
     id="defs1" />
  <sodipodi:namedview
     id="namedview1"
     pagecolor="#ffffff"
     bordercolor="#000000"
     borderopacity="0.25"
     inkscape:showpageshadow="2"
     inkscape:pageopacity="0.0"
     inkscape:pagecheckerboard="true"
     inkscape:deskcolor="#d1d1d1"
     inkscape:zoom="1.11375"
     inkscape:cx="400"
     inkscape:cy="400"
     inkscape:window-width="1920"
     inkscape:window-height="1129"
     inkscape:window-x="1912"
     inkscape:window-y="-8"
     inkscape:window-maximized="1"
     inkscape:current-layer="svg1" />
  <path
     fill-rule="evenodd"
     clip-rule="evenodd"
     d="M18.1716 1C18.702 1 19.2107 1.21071 19.5858 1.58579L22.4142 4.41421C22.7893 4.78929 23 5.29799 23 5.82843V20C23 21.6569 21.6569 23 20 23H4C2.34315 23 1 21.6569 1 20V4C1 2.34315 2.34315 1 4 1H18.1716ZM4 3C3.44772 3 3 3.44772 3 4V20C3 20.5523 3.44772 21 4 21L5 21L5 15C5 13.3431 6.34315 12 8 12L16 12C17.6569 12 19 13.3431 19 15V21H20C20.5523 21 21 20.5523 21 20V6.82843C21 6.29799 20.7893 5.78929 20.4142 5.41421L18.5858 3.58579C18.2107 3.21071 17.702 3 17.1716 3H17V5C17 6.65685 15.6569 8 14 8H10C8.34315 8 7 6.65685 7 5V3H4ZM17 21V15C17 14.4477 16.5523 14 16 14L8 14C7.44772 14 7 14.4477 7 15L7 21L17 21ZM9 3H15V5C15 5.55228 14.5523 6 14 6H10C9.44772 6 9 5.55228 9 5V3Z"
     fill="#FFFFFF"
     id="path1"
     style="fill:#4d7ba9;fill-opacity:1" />
</svg>
