<?xml version="1.0" encoding="UTF-8" standalone="no"?>
<!-- Uploaded to: SVG Repo, www.svgrepo.com, Transformed by: SVG Repo Mixer Tools -->

<svg
   fill="#ffffff"
   width="800px"
   height="800px"
   viewBox="0 0 1920 1920"
   stroke="#ffffff"
   version="1.1"
   id="svg1"
   sodipodi:docname="Shortcuts.svg"
   inkscape:version="1.3 (0e150ed6c4, 2023-07-21)"
   xmlns:inkscape="http://www.inkscape.org/namespaces/inkscape"
   xmlns:sodipodi="http://sodipodi.sourceforge.net/DTD/sodipodi-0.dtd"
   xmlns="http://www.w3.org/2000/svg"
   xmlns:svg="http://www.w3.org/2000/svg">
  <defs
     id="defs1" />
  <sodipodi:namedview
     id="namedview1"
     pagecolor="#ffffff"
     bordercolor="#000000"
     borderopacity="0.25"
     inkscape:showpageshadow="2"
     inkscape:pageopacity="0.0"
     inkscape:pagecheckerboard="true"
     inkscape:deskcolor="#d1d1d1"
     inkscape:zoom="1.40125"
     inkscape:cx="399.64318"
     inkscape:cy="400"
     inkscape:window-width="2256"
     inkscape:window-height="1398"
     inkscape:window-x="-11"
     inkscape:window-y="-11"
     inkscape:window-maximized="1"
     inkscape:current-layer="SVGRepo_iconCarrier" />
  <g
     id="SVGRepo_bgCarrier"
     stroke-width="0" />
  <g
     id="SVGRepo_tracerCarrier"
     stroke-linecap="round"
     stroke-linejoin="round" />
  <g
     id="SVGRepo_iconCarrier">
    <path
       d="M1807.059 1637.706c0 31.059-25.299 56.47-56.47 56.47H169.411c-31.172 0-56.47-25.411-56.47-56.47v-903.53c0-31.058 25.298-56.47 56.47-56.47h1581.176c31.172 0 56.47 25.412 56.47 56.47v903.53Zm-56.47-1072.941h-729.262c14.908-86.965 65.958-113.506 133.384-147.163 89.336-44.611 200.583-100.291 200.583-304.602h-112.941c0 134.513-57.939 163.426-138.24 203.633-80.301 40.094-177.544 90.24-196.518 248.132H169.412C76.009 564.765 0 640.775 0 734.176v903.53c0 93.402 76.01 169.412 169.412 169.412h1581.176c93.403 0 169.412-76.01 169.412-169.412v-903.53c0-93.402-76.01-169.411-169.412-169.411Zm-564.707 677.647H734.118c-31.172 0-56.47 25.299-56.47 56.47v112.942c0 31.171 25.298 56.47 56.47 56.47h451.764c31.172 0 56.47-25.299 56.47-56.47v-112.942c0-31.171-25.298-56.47-56.47-56.47m338.824 0h-112.941c-31.172 0-56.47 25.299-56.47 56.47v112.942c0 31.171 25.298 56.47 56.47 56.47h112.94c31.173 0 56.471-25.299 56.471-56.47v-112.942c0-31.171-25.298-56.47-56.47-56.47m-1016.47 0H395.293c-31.172 0-56.47 25.299-56.47 56.47v112.942c0 31.171 25.298 56.47 56.47 56.47h112.941c31.172 0 56.47-25.299 56.47-56.47v-112.942c0-31.171-25.298-56.47-56.47-56.47m0-338.824h-112.94c-31.173 0-56.471 25.3-56.471 56.47V1073c0 31.172 25.298 56.47 56.47 56.47h112.941c31.172 0 56.47-25.298 56.47-56.47V960.059c0-31.172-25.298-56.47-56.47-56.47m225.883 225.882h112.94c31.173 0 56.471-25.3 56.471-56.471V960.059c0-31.172-25.298-56.47-56.47-56.47h-112.94c-31.172 0-56.47 25.298-56.47 56.47V1073c0 31.172 25.298 56.47 56.47 56.47m451.764-225.882h-112.94c-31.173 0-56.471 25.3-56.471 56.47V1073c0 31.172 25.298 56.47 56.47 56.47h112.941c31.172 0 56.47-25.298 56.47-56.47V960.059c0-31.172-25.298-56.47-56.47-56.47m338.824 0h-112.941c-31.172 0-56.47 25.298-56.47 56.47V1073c0 31.172 25.298 56.47 56.47 56.47h112.94c31.173 0 56.471-25.298 56.471-56.47V960.059c0-31.172-25.298-56.47-56.47-56.47"
       fill-rule="evenodd"
       id="path1"
       style="fill:#a6365d;fill-opacity:1" />
  </g>
</svg>
