<?xml version="1.0" encoding="UTF-8" standalone="no"?>
<!-- Created with Inkscape (http://www.inkscape.org/) -->

<svg
   xmlns:dc="http://purl.org/dc/elements/1.1/"
   xmlns:cc="http://creativecommons.org/ns#"
   xmlns:rdf="http://www.w3.org/1999/02/22-rdf-syntax-ns#"
   xmlns:svg="http://www.w3.org/2000/svg"
   xmlns="http://www.w3.org/2000/svg"
   xmlns:sodipodi="http://sodipodi.sourceforge.net/DTD/sodipodi-0.dtd"
   xmlns:inkscape="http://www.inkscape.org/namespaces/inkscape"
   width="150.125"
   height="150.09375"
   id="svg2"
   version="1.1"
   inkscape:version="0.48.4 r9939"
   sodipodi:docname="icons.svg"
   inkscape:export-filename="E:\Code\ezengine\Trunk\Projects\BuildSite\www\static\failure.png"
   inkscape:export-xdpi="9.5920067"
   inkscape:export-ydpi="9.5920067">
  <defs
     id="defs4" />
  <sodipodi:namedview
     id="base"
     pagecolor="#ffffff"
     bordercolor="#666666"
     borderopacity="1.0"
     inkscape:pageopacity="0.0"
     inkscape:pageshadow="2"
     inkscape:zoom="2.8"
     inkscape:cx="6.014836"
     inkscape:cy="18.633102"
     inkscape:document-units="px"
     inkscape:current-layer="layer1"
     showgrid="true"
     inkscape:snap-global="true"
     inkscape:snap-bbox="true"
     inkscape:object-paths="true"
     inkscape:snap-grids="true"
     inkscape:window-width="708"
     inkscape:window-height="423"
     inkscape:window-x="300"
     inkscape:window-y="300"
     inkscape:window-maximized="0"
     fit-margin-top="0"
     fit-margin-left="0"
     fit-margin-right="0"
     fit-margin-bottom="0">
    <inkscape:grid
       type="xygrid"
       id="grid2987"
       empspacing="5"
       visible="true"
       enabled="true"
       snapvisiblegridlinesonly="true"
       originx="-220px"
       originy="-739.89343px" />
  </sodipodi:namedview>
  <metadata
     id="metadata7">
    <rdf:RDF>
      <cc:Work
         rdf:about="">
        <dc:format>image/svg+xml</dc:format>
        <dc:type
           rdf:resource="http://purl.org/dc/dcmitype/StillImage" />
        <dc:title></dc:title>
      </cc:Work>
    </rdf:RDF>
  </metadata>
  <g
     inkscape:label="Layer 1"
     inkscape:groupmode="layer"
     id="layer1"
     transform="translate(-220,-162.375)">
    <rect
       style="fill:none;stroke:#000000;stroke-width:0.1;stroke-miterlimit:4;stroke-dasharray:none"
       id="rect2985-7-4"
       width="150"
       height="150"
       x="-370"
       y="317.36218"
       transform="scale(-1,1)" />
    <rect
       style="fill:none;stroke:#000000;stroke-width:0.1;stroke-miterlimit:4;stroke-dasharray:none"
       id="rect2985-7"
       width="150"
       height="150"
       x="-215"
       y="317.36218"
       transform="scale(-1,1)" />
    <path
       style="fill:#000000;stroke:none"
       d="m 80.140544,342.82276 49.999996,-6.51786 0,53.39286 -49.999996,0 z"
       id="rect3779"
       inkscape:connector-curvature="0"
       sodipodi:nodetypes="ccccc"
       inkscape:export-filename="E:\Code\ezengine\Trunk\Projects\BuildSite\www\assets\rect3785.png"
       inkscape:export-xdpi="19.184013"
       inkscape:export-ydpi="19.184013" />
    <path
       style="fill:#000000;stroke:none"
       d="m 135.14054,335.76919 65,-8.39286 0,62.32143 -65,0 z"
       id="rect3781"
       inkscape:connector-curvature="0"
       sodipodi:nodetypes="ccccc"
       inkscape:export-filename="E:\Code\ezengine\Trunk\Projects\BuildSite\www\assets\rect3785.png"
       inkscape:export-xdpi="19.184013"
       inkscape:export-ydpi="19.184013" />
    <path
       style="fill:#000000;stroke:none"
       d="m 135.14054,394.69776 65,0 0,62.85714 -65,-9.375 z"
       id="rect3783"
       inkscape:connector-curvature="0"
       sodipodi:nodetypes="ccccc"
       inkscape:export-filename="E:\Code\ezengine\Trunk\Projects\BuildSite\www\assets\rect3785.png"
       inkscape:export-xdpi="19.184013"
       inkscape:export-ydpi="19.184013" />
    <path
       style="fill:#000000;stroke:none"
       d="m 80.140544,394.69776 49.999996,0 0,52.85714 -49.999996,-7.01785 z"
       id="rect3785"
       inkscape:connector-curvature="0"
       sodipodi:nodetypes="ccccc"
       inkscape:export-xdpi="19.184013"
       inkscape:export-ydpi="19.184013" />
    <path
       style="fill:#000000;stroke:none"
       d="m 292.85343,357.36218 c 0,0 12.17834,0.0408 20.3612,-10.36707 8.18287,-10.40792 5.64895,-19.50666 5.64895,-19.50666 0,0 -10.5008,0.84048 -18.84827,9.93827 -8.34747,9.09779 -7.16188,19.93546 -7.16188,19.93546 z"
       id="path3840"
       inkscape:connector-curvature="0"
       sodipodi:nodetypes="czczc" />
    <path
       style="fill:#000000;stroke:none"
       d="m 295.09081,452.07903 c -8.91622,-0.07 -9.28055,4.8998 -21.592,5.05076 -15.46818,-0.35411 -34.26642,-33.05246 -33.71385,-61.24049 0.55257,-28.18803 21.66785,-36.99344 32.45115,-36.99684 10.7833,-0.003 12.31719,5.88755 21.59201,5.93465 9.27482,0.0471 13.65863,-6.14612 23.35978,-6.18719 9.70115,-0.0411 17.79051,1.97788 25.00128,13.00572 -18.64389,8.37788 -18.31774,42.56972 3.40926,50.76016 -3.04854,16.44725 -18.57608,34.6909 -28.158,34.72399 -9.58192,0.0331 -13.4334,-4.98079 -22.34963,-5.05076 z"
       id="path3842"
       inkscape:connector-curvature="0"
       sodipodi:nodetypes="zczzzzcczz" />
    <path
       inkscape:connector-curvature="0"
       style="font-size:medium;font-style:normal;font-variant:normal;font-weight:normal;font-stretch:normal;text-indent:0;text-align:start;text-decoration:none;line-height:normal;letter-spacing:normal;word-spacing:normal;text-transform:none;direction:ltr;block-progression:tb;writing-mode:lr-tb;text-anchor:start;baseline-shift:baseline;color:#000000;fill:#000000;fill-opacity:1;stroke:none;stroke-width:309;marker:none;visibility:visible;display:inline;overflow:visible;enable-background:accumulate;font-family:Bitstream Vera Sans;-inkscape-font-specification:Bitstream Vera Sans"
       d="m 453.72434,327.36296 c -0.83989,-10e-4 -1.71593,0.0337 -2.62948,0.1066 -23.0891,1.85951 -16.96572,26.25195 -17.30841,34.4202 -0.42165,5.97337 -1.63278,10.6808 -5.74103,16.52052 -4.82659,5.73966 -11.62186,15.02939 -14.84097,24.69967 -1.51927,4.56396 -2.24223,9.21586 -1.57456,13.61856 -0.20914,0.18731 -0.40826,0.38353 -0.59759,0.58566 -1.41709,1.51286 -2.46414,3.34592 -3.63085,4.58008 -1.09,1.0873 -2.64297,1.50088 -4.34958,2.11316 -1.70724,0.61256 -3.58167,1.51564 -4.71946,3.69897 0,0 0,5.3e-4 -5.3e-4,10e-4 -0.001,0.004 -0.004,0.007 -0.006,0.0101 l 0,0 c -1.02999,1.92378 -0.72379,4.13916 -0.40923,6.19167 0.31458,2.05249 0.63304,3.99203 0.21033,5.30792 -1.35117,3.6931 -1.52368,6.24769 -0.5725,8.1007 0.9532,1.85686 2.91308,2.67645 5.12816,3.13909 4.43019,0.9253 10.42981,0.69535 15.15821,3.20146 l 0.40641,-0.76684 -0.4022,0.76912 c 5.06198,2.64655 10.19384,3.58657 14.28815,2.65139 2.96845,-0.678 5.37813,-2.44555 6.61565,-5.16537 3.2024,-0.0157 6.71649,-1.37204 12.34561,-1.682 3.8188,-0.30759 8.58916,1.35611 14.07625,1.05142 0.14349,0.59532 0.35102,1.16791 0.63516,1.71203 0.003,0.006 0.006,0.0115 0.009,0.0167 2.12708,4.25344 6.07935,6.19898 10.29126,5.86656 4.21747,-0.33282 8.70149,-2.81964 12.32613,-7.1332 l -0.66449,-0.55843 0.66957,0.5523 c 3.45482,-4.18909 9.18927,-5.92615 12.99165,-8.21951 1.90122,-1.14671 3.4439,-2.58256 3.5631,-4.66805 0.11913,-2.08443 -1.10461,-4.42037 -3.91859,-7.54398 0,0 -5.4e-4,-5.4e-4 -5.4e-4,-5.4e-4 -10e-4,-10e-4 -10e-4,-0.003 -0.003,-0.004 -0.92457,-1.04485 -1.36566,-2.98135 -1.83966,-5.04353 -0.47368,-2.06095 -1.00242,-4.28413 -2.69442,-5.72489 l 0,0 c -0.003,-0.003 -0.007,-0.006 -0.0101,-0.009 0,0 0,0 0,0 -0.6734,-0.58679 -1.37317,-0.98502 -2.07788,-1.25259 2.35242,-6.9767 1.42943,-13.9238 -0.94519,-20.20157 -2.91433,-7.70456 -8.00234,-14.41791 -11.88813,-19.01042 -4.3495,-5.48623 -8.6037,-10.69497 -8.5199,-18.38808 0.12951,-11.7414 1.29151,-33.51545 -19.36979,-33.54366 z m 2.79714,18.08876 c 1.1724,0 2.17372,0.34364 3.2023,1.0902 1.04491,0.75841 1.7977,1.7078 2.40441,3.0336 0.59548,1.2921 0.88199,2.55609 0.9101,4.05605 0,0.0393 0,0.073 0.0115,0.11237 0.0115,1.53926 -0.25281,2.84822 -0.83706,4.18526 -0.33337,0.76292 -0.71622,1.40324 -1.17446,1.95761 -0.15557,-0.0746 -0.31714,-0.14649 -0.48471,-0.2154 l 0,0 c -1.16154,-0.49749 -2.05258,-0.81408 -2.7952,-1.07177 0.2692,-0.32359 0.49336,-0.70735 0.69046,-1.18712 0.29774,-0.72467 0.44381,-1.43254 0.4719,-2.27519 0,-0.0337 0.0115,-0.0618 0.0115,-0.10113 0.0169,-0.80895 -0.0899,-1.49995 -0.32583,-2.20779 -0.24718,-0.74155 -0.56178,-1.27523 -1.01682,-1.71904 -0.45504,-0.44382 -0.91008,-0.64605 -1.45502,-0.66292 -0.0255,-0.001 -0.051,-0.001 -0.0762,-0.001 -0.51258,0.001 -0.95766,0.17731 -1.41814,0.56283 -0.48313,0.40449 -0.84266,0.9213 -1.14042,1.64039 -0.29774,0.71906 -0.4438,1.43252 -0.47188,2.28082 -0.006,0.0337 -0.006,0.0618 -0.006,0.0955 -0.0101,0.46629 0.0199,0.89344 0.0918,1.30824 -1.0488,-0.52261 -2.03718,-0.87891 -2.96478,-1.09969 -0.0529,-0.40112 -0.0834,-0.81504 -0.0932,-1.24783 l 0,-0.11798 c -0.0169,-1.53366 0.23594,-2.84821 0.82583,-4.18523 0.58986,-1.33705 1.32018,-2.2977 2.34823,-3.07856 1.02804,-0.78088 2.03926,-1.14041 3.23585,-1.15164 0.0187,0 0.0374,0 0.056,0 z m -16.04688,1.27049 c 0.77775,10e-4 1.47371,0.26169 2.19357,0.83653 0.78088,0.62356 1.37075,1.42128 1.8651,2.54485 0.49437,1.12356 0.75842,2.24712 0.83143,3.57291 l 0,0.0115 c 0.0354,0.55683 0.0311,1.08097 -0.013,1.58859 -0.15383,0.0437 -0.30456,0.091 -0.45224,0.1419 -0.83861,0.28867 -1.57767,0.68207 -2.22183,1.1074 0.063,-0.44493 0.0723,-0.89637 0.024,-1.39971 -0.006,-0.0281 -0.006,-0.0506 -0.006,-0.0787 -0.0674,-0.66852 -0.20786,-1.2303 -0.4438,-1.79769 -0.2528,-0.58986 -0.5337,-1.00558 -0.90448,-1.3258 -0.33601,-0.29018 -0.65349,-0.42344 -1.00276,-0.4208 -0.0362,0 -0.0727,10e-4 -0.10963,0.006 -0.39324,0.0337 -0.71908,0.22469 -1.02806,0.60109 -0.30897,0.37639 -0.51121,0.84268 -0.65727,1.46061 -0.14606,0.61796 -0.18539,1.22468 -0.1236,1.92128 0,0.0281 0.006,0.0506 0.006,0.0787 0.0674,0.67414 0.20223,1.23591 0.44381,1.80331 0.24717,0.58425 0.53368,0.99997 0.90446,1.32018 0.0621,0.0536 0.12346,0.10185 0.18467,0.14483 -0.38566,0.29682 -0.56981,0.43366 -0.88584,0.66589 -0.2027,0.14872 -0.4441,0.32582 -0.72469,0.53263 -0.61191,-0.57322 -1.08927,-1.29363 -1.50664,-2.24219 -0.49435,-1.12356 -0.7584,-2.24712 -0.83704,-3.57292 l 0,-0.0115 c -0.073,-1.32579 0.0562,-2.46621 0.42133,-3.64593 0.36516,-1.17975 0.85392,-2.03365 1.56174,-2.73588 0.70784,-0.70222 1.42131,-1.05614 2.28083,-1.10107 0.0671,-0.004 0.13369,-0.006 0.19961,-0.006 z m 7.29803,9.1979 c 1.80771,-0.007 3.98303,0.58566 6.61654,2.2789 1.61762,1.05194 2.87633,1.13985 5.77473,2.38123 l 0.004,10e-4 0.004,0.001 c 1.39454,0.57218 2.21307,1.31798 2.61298,2.10332 0.3999,0.78537 0.40968,1.63703 0.0749,2.53294 -0.66941,1.79186 -2.80623,3.6776 -5.80476,4.61396 l -0.003,10e-4 -0.003,10e-4 c -1.46208,0.47502 -2.737,1.52404 -4.24003,2.38351 -1.50299,0.85943 -3.20375,1.55264 -5.51631,1.41885 0,-2e-5 0,0 0,0 -1.96873,-0.11467 -3.14557,-0.7831 -4.20966,-1.63829 -1.06413,-0.8552 -1.99142,-1.92959 -3.34925,-2.72691 l -0.004,-10e-4 -0.004,-0.001 c -2.18716,-1.23622 -3.38126,-2.66604 -3.75601,-3.90559 -0.37476,-1.23955 -0.023,-2.2976 1.06212,-3.11086 1.22003,-0.91433 2.06755,-1.53628 2.63209,-1.95058 0.56084,-0.41154 0.79418,-0.56586 0.97277,-0.73734 0.001,-10e-4 0.001,-10e-4 0.003,-0.003 0,0 5.3e-4,-0.001 5.3e-4,-0.001 0.9167,-0.86773 2.37801,-2.44863 4.58076,-3.20687 0.75816,-0.26098 1.60412,-0.42936 2.55101,-0.4331 z m 12.64073,7.47606 c -0.78007,0.0465 -1.59707,0.44814 -2.54837,0.97924 -0.95128,0.5311 -2.02104,1.21047 -3.18036,1.8795 -2.31863,1.33805 -4.98769,2.61771 -7.64019,2.61771 -2.65664,0 -4.77913,-1.22693 -6.37111,-2.48849 -0.79599,-0.63078 -1.45294,-1.26616 -1.97781,-1.75766 -0.26243,-0.24578 -0.49002,-0.45525 -0.70239,-0.61885 -0.21233,-0.1636 -0.38518,-0.32582 -0.7405,-0.32582 l -0.017,0.74663 c -0.0255,0.24983 -0.0516,0.24213 -0.0412,0.24893 0.0166,0.0115 0.099,0.0393 0.19522,0.11338 0.15613,0.12029 0.37285,0.31634 0.63007,0.55721 0.51442,0.48175 1.198,1.14411 2.03961,1.81103 1.6832,1.33385 4.02403,2.70234 6.9852,2.70234 2.96527,0 5.77076,-1.38599 8.13455,-2.75009 1.18189,-0.68205 2.2553,-1.36288 3.16808,-1.87248 0.91274,-0.5096 1.68068,-0.82915 2.12527,-0.85566 l -0.0589,-0.98697 z m 2.6358,3.5485 c 1.96947,7.76361 6.55023,18.97722 9.49441,24.44967 1.56494,2.90341 4.67836,9.07214 6.02351,16.50436 0.85234,-0.0261 1.79086,0.0977 2.79591,0.3548 3.51697,-9.11764 -2.98237,-18.93855 -5.95434,-21.6736 -1.19987,-1.16429 -1.25754,-1.68595 -0.66272,-1.66128 3.22448,2.8515 7.45751,8.5868 8.99758,15.06041 0.70226,2.95186 0.85199,6.05508 0.0985,9.11766 0.36865,0.15315 0.74304,0.31966 1.1225,0.49929 5.6454,2.74902 7.73326,5.13952 6.72941,8.4021 -0.33065,-0.0115 -0.65588,-0.0101 -0.97311,-0.003 -0.0295,5.3e-4 -0.0589,0.001 -0.0885,0.001 0.81751,-2.58613 -0.99356,-4.49356 -5.8195,-6.67709 -5.00545,-2.20216 -8.99408,-1.98307 -9.66821,2.48307 -0.0431,0.23399 -0.0778,0.47242 -0.1043,0.71417 -0.37396,0.1298 -0.74996,0.29567 -1.12689,0.50192 -2.3504,1.28606 -3.63327,3.61959 -4.34677,6.48168 -0.71293,2.85978 -0.91731,6.31709 -1.11407,10.20349 0,5.4e-4 0,10e-4 0,10e-4 -0.12029,1.95422 -0.92367,4.59736 -1.73854,7.39689 -8.1997,5.84899 -19.5801,8.38309 -29.2425,1.7889 -0.65483,-1.03586 -1.406,-2.06221 -2.17918,-3.07448 -0.49377,-0.64644 -1.00098,-1.28893 -1.50523,-1.92236 0.9919,5.2e-4 1.83502,-0.16167 2.51643,-0.47065 0.84737,-0.38423 1.44274,-1.00139 1.7373,-1.79366 0.58909,-1.58458 -0.003,-3.8199 -1.88845,-6.37253 -1.88577,-2.55244 -5.07958,-5.4331 -9.77268,-8.31132 0,0 -5.3e-4,0 -5.3e-4,-5.3e-4 -3.44782,-2.14503 -5.37604,-4.77418 -6.27858,-7.62878 -0.90262,-2.85485 -0.77605,-5.94187 -0.0804,-8.98968 1.33525,-5.8502 4.766,-11.53998 6.955,-15.11063 0.58935,-0.43364 0.21056,0.80492 -2.21604,5.3111 -2.17478,4.11989 -6.24053,13.62773 -0.67379,21.04949 0.14877,-5.28169 1.41012,-10.66838 3.52763,-15.70698 3.08431,-6.99145 9.53555,-19.1155 10.04794,-28.77852 0.26418,0.19183 1.17199,0.80435 1.5765,1.03439 5.1e-4,10e-4 10e-4,10e-4 0.003,10e-4 1.18351,0.69693 2.07236,1.71571 3.22357,2.64089 1.15348,0.92703 2.59452,1.72773 4.77161,1.85459 l 0,0 c 2.54111,0.14704 4.47781,-0.64003 6.06457,-1.54737 1.58437,-0.90596 2.85007,-1.90859 4.04921,-2.29996 0.001,-10e-4 0.004,-10e-4 0.006,-10e-4 2.53387,-0.79237 4.54856,-2.19485 5.69504,-3.83062 z m 16.09391,44.44654 c 1.02633,-0.004 2.26959,0.33741 3.6305,0.94624 3.66279,1.69096 4.80882,3.14035 3.80886,5.26949 -0.84267,1.60669 -4.44929,4.16279 -6.92112,3.48865 -2.52237,-0.65166 -3.75267,-4.28638 -3.34257,-7.03347 0.21966,-1.86546 1.2748,-2.66367 2.82433,-2.67091 z m -4.14417,5.02002 c 0.20706,3.35932 1.86911,6.78545 4.80848,7.52696 3.21659,0.8475 7.85427,-1.91237 9.81235,-4.16348 0.39043,-0.0156 0.77214,-0.0347 1.14287,-0.0438 1.7176,-0.0415 3.15819,0.0566 4.63011,1.34388 l 0.006,0.004 0.006,0.004 c 1.13111,0.95832 1.66877,2.76932 2.13511,4.79812 0.46629,2.02879 0.83919,4.23838 2.23762,5.81248 l 10e-4,10e-4 0.001,10e-4 c 2.68855,2.98346 3.55274,5.00005 3.47918,6.28718 -0.0736,1.28715 -1.00551,2.2427 -2.72639,3.28061 -3.44024,2.07496 -9.53587,3.87931 -13.42932,8.5954 -3.38074,4.02326 -7.50317,6.23291 -11.13376,6.51945 -3.63057,0.28652 -6.7629,-1.22032 -8.60961,-4.92682 l -0.004,-0.009 -0.004,-0.009 c -1.14565,-2.17934 -0.6684,-5.6186 0.29668,-9.24636 0.96511,-3.62777 2.3517,-7.3527 2.53731,-10.38029 l 0,-0.004 0,-0.004 c 0.19635,-3.87915 0.41348,-7.26679 1.06511,-9.88062 0.65161,-2.61384 1.67766,-4.38411 3.49567,-5.37887 0.0847,-0.0464 0.16869,-0.09 0.25226,-0.13124 z m -59.03769,0.2535 c 0.27135,10e-4 0.55851,0.0238 0.86443,0.07 2.05791,0.31171 3.85248,1.75059 5.58144,4.09571 1.729,2.34515 3.33779,5.54643 4.99159,9.0975 l 0.001,0.004 10e-4,0.004 c 1.32899,2.77381 4.1334,5.82382 6.50996,8.93527 2.37656,3.11144 4.21586,6.23462 3.97634,8.62505 l -0.001,0.0101 -5.4e-4,0.0101 c -0.30983,4.07698 -2.60964,6.29646 -6.14007,7.10283 -3.52937,0.8061 -8.31399,0.003 -13.09295,-2.49503 -10e-4,-5.2e-4 -0.003,-10e-4 -0.004,-10e-4 -5.28726,-2.80034 -11.5771,-2.52219 -15.61184,-3.36488 -2.01792,-0.42146 -3.33463,-1.05509 -3.93894,-2.23238 -0.60438,-1.17726 -0.61786,-3.23119 0.66639,-6.73324 l 0.006,-0.0154 0.006,-0.0156 c 0.63512,-1.9591 0.16511,-4.10265 -0.14319,-6.1146 -0.30835,-2.01197 -0.45915,-3.84204 0.22787,-5.11762 l 0.003,-0.006 0.003,-0.006 c 0.87962,-1.69553 2.16982,-2.30165 3.77112,-2.87613 1.6013,-0.57451 3.50008,-1.02571 4.99948,-2.52835 l 0.007,-0.009 0.007,-0.009 c 1.38614,-1.46229 2.42735,-3.29527 3.64594,-4.59623 1.02818,-1.09768 2.05711,-1.82518 3.60802,-1.83596 0.018,0 0.036,0 0.054,0 z"
       id="path154" />
    <path
       transform="scale(-1,1)"
       style="fill:none;stroke:#000000;stroke-width:0.1;stroke-miterlimit:4"
       d="m -525.0625,317.42468 150,0 0,150 -150,0 z"
       id="rect2985-7-4-9"
       inkscape:connector-curvature="0" />
    <path
       sodipodi:type="arc"
       style="fill:#008000;stroke:none"
       id="path3080"
       sodipodi:cx="-247.5"
       sodipodi:cy="-52.512821"
       sodipodi:rx="12.5"
       sodipodi:ry="12.5"
       d="m -235,-52.512821 c 0,6.903559 -5.59644,12.5 -12.5,12.5 -6.90356,0 -12.5,-5.596441 -12.5,-12.5 0,-6.90356 5.59644,-12.5 12.5,-12.5 6.90356,0 12.5,5.59644 12.5,12.5 z"
       transform="matrix(1.2,0,0,1.2,432,350.37757)" />
    <path
       sodipodi:type="arc"
       style="fill:#008000;stroke:none"
       id="path3080-2"
       sodipodi:cx="-247.5"
       sodipodi:cy="-52.512821"
       sodipodi:rx="12.5"
       sodipodi:ry="12.5"
       d="m -235,-52.512821 c 0,6.903559 -5.59644,12.5 -12.5,12.5 -6.90356,0 -12.5,-5.596441 -12.5,-12.5 0,-6.90356 5.59644,-12.5 12.5,-12.5 6.90356,0 12.5,5.59644 12.5,12.5 z"
       transform="matrix(1.4,0,0,1.4,439,323.38013)" />
    <path
       sodipodi:type="arc"
       style="fill:#008000;stroke:none"
       id="path3080-2-4"
       sodipodi:cx="-247.5"
       sodipodi:cy="-52.512821"
       sodipodi:rx="12.5"
       sodipodi:ry="12.5"
       d="m -235,-52.512821 c 0,6.903559 -5.59644,12.5 -12.5,12.5 -6.90356,0 -12.5,-5.596441 -12.5,-12.5 0,-6.90356 5.59644,-12.5 12.5,-12.5 6.90356,0 12.5,5.59644 12.5,12.5 z"
       transform="matrix(1.8,0,0,1.8000001,628,289.38526)" />
    <path
       transform="translate(375,317.375)"
       style="fill:#008000;stroke:none"
       d="m -212.76786,-132.15568 39.91071,20.44643 -54.46428,89.642862 -26.25,-14.375 z"
       id="rect3886"
       inkscape:connector-curvature="0"
       sodipodi:nodetypes="ccccc" />
    <path
       transform="translate(375,317.375)"
       style="fill:#008000;stroke:none"
       d="m -294.55357,-54.74496 23.125,-26.428571 40.53571,39.285714 -17.67857,24.196429 z"
       id="rect3888"
       inkscape:connector-curvature="0"
       sodipodi:nodetypes="ccccc" />
    <path
       sodipodi:type="arc"
       style="fill:#800000;stroke:none"
       id="path3080-5"
       sodipodi:cx="-247.5"
       sodipodi:cy="-52.512821"
       sodipodi:rx="12.5"
       sodipodi:ry="12.5"
       d="m -235,-52.512821 c 0,6.903559 -5.59644,12.5 -12.5,12.5 -6.90356,0 -12.5,-5.596441 -12.5,-12.5 0,-6.90356 5.59644,-12.5 12.5,-12.5 6.90356,0 12.5,5.59644 12.5,12.5 z"
       transform="matrix(1.159111,0.31058285,-0.31058285,1.159111,515.57411,425.0959)" />
    <path
       sodipodi:type="arc"
       style="fill:#800000;stroke:none"
       id="path3080-2-4-5"
       sodipodi:cx="-247.5"
       sodipodi:cy="-52.512821"
       sodipodi:rx="12.5"
       sodipodi:ry="12.5"
       d="m -235,-52.512821 c 0,6.903559 -5.59644,12.5 -12.5,12.5 -6.90356,0 -12.5,-5.596441 -12.5,-12.5 0,-6.90356 5.59644,-12.5 12.5,-12.5 6.90356,0 12.5,5.59644 12.5,12.5 z"
       transform="matrix(1.7386665,0.46587428,-0.46587431,1.7386666,743.35,401.47394)" />
    <path
       style="fill:#800000;stroke:none"
       d="m 320.35882,180.25885 32.36601,31.15081 -97.95259,87.2241 -21.36717,-20.85775 z"
       id="rect3886-1"
       inkscape:connector-curvature="0"
       sodipodi:nodetypes="ccccc" />
    <path
       sodipodi:type="arc"
       style="fill:#800000;stroke:none"
       id="path3080-5-7"
       sodipodi:cx="-247.5"
       sodipodi:cy="-52.512821"
       sodipodi:rx="12.5"
       sodipodi:ry="12.5"
       d="m -235,-52.512821 c 0,6.903559 -5.59644,12.5 -12.5,12.5 -6.90356,0 -12.5,-5.596441 -12.5,-12.5 0,-6.90356 5.59644,-12.5 12.5,-12.5 6.90356,0 12.5,5.59644 12.5,12.5 z"
       transform="matrix(0.31058285,-1.159111,1.159111,0.31058285,482.72255,16.776899)" />
    <path
       sodipodi:type="arc"
       style="fill:#800000;stroke:none"
       id="path3080-2-4-5-1"
       sodipodi:cx="-247.5"
       sodipodi:cy="-52.512821"
       sodipodi:rx="12.5"
       sodipodi:ry="12.5"
       d="m -235,-52.512821 c 0,6.903559 -5.59644,12.5 -12.5,12.5 -6.90356,0 -12.5,-5.596441 -12.5,-12.5 0,-6.90356 5.59644,-12.5 12.5,-12.5 6.90356,0 12.5,5.59644 12.5,12.5 z"
       transform="matrix(0.46587428,-1.7386665,1.7386666,0.46587431,459.10059,-210.99899)" />
    <path
       style="fill:#800000;stroke:none"
       d="m 237.8855,211.99219 31.15081,-32.36601 87.2241,97.95259 -20.85775,21.36717 z"
       id="rect3886-1-1"
       inkscape:connector-curvature="0"
       sodipodi:nodetypes="ccccc" />
    <rect
       style="fill:none;stroke:#000000;stroke-width:0.1;stroke-miterlimit:4;stroke-dasharray:none"
       id="rect2985-7-5"
       width="150"
       height="150"
       x="-569.9375"
       y="127.42468"
       transform="scale(-1,1)" />
  </g>
</svg>
