<!DOCTYPE svg PUBLIC "-//W3C//DTD SVG 1.1//EN" "http://www.w3.org/Graphics/SVG/1.1/DTD/svg11.dtd">
<!-- Uploaded to: SVG Repo, www.svgrepo.com, Transformed by: SVG Repo Mixer Tools -->
<svg width="800px" height="800px" viewBox="0 0 512 512" version="1.1" xmlns="http://www.w3.org/2000/svg" xmlns:xlink="http://www.w3.org/1999/xlink" fill="#ffffff" stroke="#ffffff">
<g id="SVGRepo_bgCarrier" stroke-width="0"/>
<g id="SVGRepo_tracerCarrier" stroke-linecap="round" stroke-linejoin="round"/>
<g id="SVGRepo_iconCarrier"> <title>namur-failure</title> <g id="Page-1" stroke="none" stroke-width="1" fill="none" fill-rule="evenodd"> <g id="add" fill="#ff0000" transform="translate(42.666667, 42.666667)"> <path d="M213.333333,3.55271368e-14 C331.15408,3.55271368e-14 426.666667,95.5125867 426.666667,213.333333 C426.666667,331.15408 331.15408,426.666667 213.333333,426.666667 C95.5125867,426.666667 3.55271368e-14,331.15408 3.55271368e-14,213.333333 C3.55271368e-14,95.5125867 95.5125867,3.55271368e-14 213.333333,3.55271368e-14 Z M213.333333,21.3333333 C107.294661,21.3333333 21.3333333,107.294661 21.3333333,213.333333 C21.3333333,319.372005 107.294661,405.333333 213.333333,405.333333 C319.372005,405.333333 405.333333,319.372005 405.333333,213.333333 C405.333333,107.294661 319.372005,21.3333333 213.333333,21.3333333 Z M294.351491,102.157291 L324.521381,132.32718 L243.515146,213.333291 L324.521381,294.339486 L294.351491,324.509376 L213.345146,243.502291 L132.490035,324.358526 L102.320146,294.188637 L183.175146,213.333291 L102.320146,132.47803 L132.490035,102.308141 L213.345146,183.163291 L294.351491,102.157291 Z" id="Combined-Shape"> </path> </g> </g> </g>
</svg>