<!DOCTYPE svg PUBLIC "-//W3C//DTD SVG 1.1//EN" "http://www.w3.org/Graphics/SVG/1.1/DTD/svg11.dtd">
<!-- Uploaded to: SVG Repo, www.svgrepo.com, Transformed by: SVG Repo Mixer Tools -->
<svg fill="#ffffff" version="1.1" id="Ebene_1" xmlns="http://www.w3.org/2000/svg" xmlns:xlink="http://www.w3.org/1999/xlink" width="800px" height="800px" viewBox="0 0 64 64" enable-background="new 0 0 64 64" xml:space="preserve">
<g id="SVGRepo_bgCarrier" stroke-width="0"/>
<g id="SVGRepo_tracerCarrier" stroke-linecap="round" stroke-linejoin="round"/>
<g id="SVGRepo_iconCarrier"> <g> <path d="M50,16v-6h4c1.104,0,2-0.896,2-2V2c0-1.104-0.896-2-2-2H10C8.896,0,8,0.896,8,2v6c0,1.104,0.896,2,2,2h4v6 c0,6.967,3.986,13.01,9.792,16C17.986,34.99,14,41.033,14,48v6h-4c-1.104,0-2,0.896-2,2v6c0,1.104,0.896,2,2,2h44 c1.104,0,2-0.896,2-2v-6c0-1.104-0.896-2-2-2h-4v-6c0-6.967-3.986-13.01-9.792-16C46.014,29.01,50,22.967,50,16z M12,4h40v2H12V4z M52,60H12v-2h40V60z M46,48v6H18v-6c0-7.72,6.28-14,14-14S46,40.28,46,48z M32,30c-7.72,0-14-6.28-14-14v-6h28v6 C46,23.72,39.72,30,32,30z"/> </g> </g>
</svg>