<?xml version="1.0" encoding="UTF-8" standalone="no"?>
<!-- Uploaded to: SVG Repo, www.svgrepo.com, Transformed by: SVG Repo Mixer Tools -->

<svg
   width="800px"
   height="800px"
   viewBox="0 0 24 24"
   fill="none"
   version="1.1"
   id="svg3"
   sodipodi:docname="Asset.svg"
   inkscape:version="1.3 (0e150ed6c4, 2023-07-21)"
   xmlns:inkscape="http://www.inkscape.org/namespaces/inkscape"
   xmlns:sodipodi="http://sodipodi.sourceforge.net/DTD/sodipodi-0.dtd"
   xmlns="http://www.w3.org/2000/svg"
   xmlns:svg="http://www.w3.org/2000/svg">
  <defs
     id="defs3" />
  <sodipodi:namedview
     id="namedview3"
     pagecolor="#ffffff"
     bordercolor="#000000"
     borderopacity="0.25"
     inkscape:showpageshadow="2"
     inkscape:pageopacity="0.0"
     inkscape:pagecheckerboard="true"
     inkscape:deskcolor="#d1d1d1"
     inkscape:zoom="1.11375"
     inkscape:cx="400"
     inkscape:cy="400"
     inkscape:window-width="1920"
     inkscape:window-height="1129"
     inkscape:window-x="1912"
     inkscape:window-y="-8"
     inkscape:window-maximized="1"
     inkscape:current-layer="SVGRepo_iconCarrier" />
  <g
     id="SVGRepo_bgCarrier"
     stroke-width="0" />
  <g
     id="SVGRepo_tracerCarrier"
     stroke-linecap="round"
     stroke-linejoin="round" />
  <g
     id="SVGRepo_iconCarrier">
    <path
       d="M12.92 2.25997L19.43 5.76997C20.19 6.17997 20.19 7.34997 19.43 7.75997L12.92 11.27C12.34 11.58 11.66 11.58 11.08 11.27L4.57 7.75997C3.81 7.34997 3.81 6.17997 4.57 5.76997L11.08 2.25997C11.66 1.94997 12.34 1.94997 12.92 2.25997Z"
       stroke="#ffffff"
       stroke-width="1.5"
       stroke-linecap="round"
       stroke-linejoin="round"
       id="path1"
       style="stroke:#b96b29;stroke-opacity:1" />
    <path
       d="M3.61 10.13L9.66 13.16C10.41 13.54 10.89 14.31 10.89 15.15V20.8701C10.89 21.7001 10.02 22.2301 9.28 21.8601L3.23 18.83C2.48 18.45 2 17.68 2 16.84V11.12C2 10.29 2.87 9.76005 3.61 10.13Z"
       stroke="#ffffff"
       stroke-width="1.5"
       stroke-linecap="round"
       stroke-linejoin="round"
       id="path2"
       style="stroke:#b96b29;stroke-opacity:1" />
    <path
       d="M20.39 10.13L14.34 13.16C13.59 13.54 13.11 14.31 13.11 15.15V20.8701C13.11 21.7001 13.98 22.2301 14.72 21.8601L20.77 18.83C21.52 18.45 22 17.68 22 16.84V11.12C22 10.29 21.13 9.76005 20.39 10.13Z"
       stroke="#ffffff"
       stroke-width="1.5"
       stroke-linecap="round"
       stroke-linejoin="round"
       id="path3"
       style="stroke:#b96b29;stroke-opacity:1" />
  </g>
</svg>
