<!DOCTYPE svg PUBLIC "-//W3C//DTD SVG 1.1//EN" "http://www.w3.org/Graphics/SVG/1.1/DTD/svg11.dtd">
<!-- Uploaded to: SVG Repo, www.svgrepo.com, Transformed by: SVG Repo Mixer Tools -->
<svg fill="#ffffff" width="800px" height="800px" viewBox="0 0 24 24" xmlns="http://www.w3.org/2000/svg">
<g id="SVGRepo_bgCarrier" stroke-width="0"/>
<g id="SVGRepo_tracerCarrier" stroke-linecap="round" stroke-linejoin="round"/>
<g id="SVGRepo_iconCarrier">
<path d="M4,12a1,1,0,0,1-2,0A9.983,9.983,0,0,1,18.242,4.206V2.758a1,1,0,1,1,2,0v4a1,1,0,0,1-1,1h-4a1,1,0,0,1,0-2h1.743A7.986,7.986,0,0,0,4,12Zm17-1a1,1,0,0,0-1,1A7.986,7.986,0,0,1,7.015,18.242H8.757a1,1,0,1,0,0-2h-4a1,1,0,0,0-1,1v4a1,1,0,0,0,2,0V19.794A9.984,9.984,0,0,0,22,12,1,1,0,0,0,21,11Z"/>
</g>
</svg>