<!DOCTYPE svg PUBLIC "-//W3C//DTD SVG 1.1//EN" "http://www.w3.org/Graphics/SVG/1.1/DTD/svg11.dtd">
<!-- Uploaded to: SVG Repo, www.svgrepo.com, Transformed by: SVG Repo Mixer Tools -->
<svg width="800px" height="800px" viewBox="0 0 24 24" fill="none" xmlns="http://www.w3.org/2000/svg">
<g id="SVGRepo_bgCarrier" stroke-width="0"/>
<g id="SVGRepo_tracerCarrier" stroke-linecap="round" stroke-linejoin="round"/>
<g id="SVGRepo_iconCarrier"> <path fill-rule="evenodd" clip-rule="evenodd" d="M1 5C1 3.34315 2.34315 2 4 2H8.43845C9.81505 2 11.015 2.93689 11.3489 4.27239L11.7808 6H13.5H20C21.6569 6 23 7.34315 23 9V19C23 20.6569 21.6569 22 20 22H4C2.34315 22 1 20.6569 1 19V10V9V5ZM3 9V10V19C3 19.5523 3.44772 20 4 20H20C20.5523 20 21 19.5523 21 19V9C21 8.44772 20.5523 8 20 8H13.5H11.7808H4C3.44772 8 3 8.44772 3 9ZM9.71922 6H4C3.64936 6 3.31278 6.06015 3 6.17071V5C3 4.44772 3.44772 4 4 4H8.43845C8.89732 4 9.2973 4.3123 9.40859 4.75746L9.71922 6Z" fill="#ffffff"/> </g>
</svg>