<!DOCTYPE svg PUBLIC "-//W3C//DTD SVG 1.1//EN" "http://www.w3.org/Graphics/SVG/1.1/DTD/svg11.dtd">
<!-- Uploaded to: SVG Repo, www.svgrepo.com, Transformed by: SVG Repo Mixer Tools -->
<svg fill="#ffffff" width="800px" height="800px" viewBox="0 0 1920 1920" xmlns="http://www.w3.org/2000/svg">
<g id="SVGRepo_bgCarrier" stroke-width="0"/>
<g id="SVGRepo_tracerCarrier" stroke-linecap="round" stroke-linejoin="round"/>
<g id="SVGRepo_iconCarrier"> <path d="M1821.63 637.76c0-130.027-43.627-236.373-116.054-319.68 11.627-30.187 50.347-151.36-11.2-315.307 0 0-94.72-32-310.4 122.134-90.133-26.454-186.773-39.68-282.773-40.107-96 .427-192.64 13.653-282.667 40.107C602.749-29.227 507.923 2.773 507.923 2.773c-61.547 163.947-22.72 285.12-11.094 315.307-72.32 83.307-116.266 189.653-116.266 319.68 0 456.533 263.68 558.72 514.453 588.8 0 0-180.267 111.68-180.267 299.413-64.32 30.507-336.533 123.947-437.333-58.133 0 0-59.627-114.347-173.013-122.773 0 0-110.294-1.494-7.787 72.426 0 0 74.027 36.694 125.44 174.294 0 0 57.173 289.92 489.067 159.68 4.373 2.24 1.6 140.266 1.6 168.533h777.173s1.28-277.013 1.28-365.12c0-216.64-144.64-292.48-185.28-329.28 251.627-29.44 515.733-130.133 515.733-587.84" fill-rule="evenodd"/> </g>
</svg>