<!DOCTYPE svg PUBLIC "-//W3C//DTD SVG 1.1//EN" "http://www.w3.org/Graphics/SVG/1.1/DTD/svg11.dtd">
<!-- Uploaded to: SVG Repo, www.svgrepo.com, Transformed by: SVG Repo Mixer Tools -->
<svg width="800px" height="800px" viewBox="0 0 24 24" fill="none" xmlns="http://www.w3.org/2000/svg">
<g id="SVGRepo_bgCarrier" stroke-width="0"/>
<g id="SVGRepo_tracerCarrier" stroke-linecap="round" stroke-linejoin="round"/>
<g id="SVGRepo_iconCarrier"> <path fill-rule="evenodd" clip-rule="evenodd" d="M10.3172 4.62596L15.8843 6.67702C16.654 6.96052 17.31 7.20218 17.7857 7.46219C18.2841 7.73459 18.7565 8.11787 18.8984 8.76409C19.0403 9.41032 18.772 9.95628 18.4337 10.4124C18.1108 10.8479 17.6164 11.3422 17.0364 11.9221L16.3224 12.6362L19.7466 16.0604C19.9366 16.2504 20.105 16.4188 20.2357 16.5686C20.3746 16.7279 20.5075 16.9062 20.5988 17.1266C20.8005 17.6136 20.8005 18.1608 20.5988 18.6479C20.5075 18.8682 20.3746 19.0466 20.2357 19.2058C20.105 19.3557 19.9366 19.5241 19.7466 19.714L19.714 19.7466C19.5241 19.9366 19.3557 20.105 19.2058 20.2357C19.0466 20.3746 18.8682 20.5075 18.6479 20.5988C18.1608 20.8005 17.6136 20.8005 17.1266 20.5988C16.9062 20.5075 16.7279 20.3746 16.5686 20.2357C16.4188 20.105 16.2504 19.9366 16.0604 19.7466L12.6362 16.3224L11.9221 17.0364C11.3422 17.6164 10.8479 18.1108 10.4124 18.4337C9.95629 18.772 9.41032 19.0403 8.76409 18.8984C8.11787 18.7565 7.73459 18.2841 7.46219 17.7857C7.20218 17.31 6.96052 16.654 6.67702 15.8843L4.62596 10.3172C4.04508 8.74059 3.57969 7.47746 3.37319 6.50443C3.16699 5.53281 3.15517 4.56717 3.86117 3.86117C4.56717 3.15517 5.53281 3.16699 6.50444 3.3732C7.47746 3.5797 8.74059 4.04508 10.3172 4.62596ZM6.19303 4.84052C5.32497 4.65629 5.05579 4.78787 4.92183 4.92183C4.78787 5.05579 4.65629 5.32497 4.84052 6.19303C5.02172 7.04685 5.44734 8.2077 6.05656 9.86128L8.06415 15.3105C8.37375 16.1508 8.57822 16.7001 8.7784 17.0663C8.96614 17.4097 9.06401 17.429 9.08413 17.433C9.0848 17.4331 9.08538 17.4332 9.08588 17.4333C9.08638 17.4334 9.08696 17.4336 9.08762 17.4337C9.10755 17.4386 9.20448 17.4621 9.51887 17.2289C9.85409 16.9803 10.2699 16.5673 10.9032 15.934L12.1058 14.7314C12.3987 14.4385 12.8736 14.4385 13.1665 14.7314L17.1048 18.6697C17.3159 18.8808 17.448 19.0123 17.5546 19.1053C17.6562 19.1939 17.6935 19.21 17.7006 19.213C17.8201 19.2625 17.9544 19.2625 18.0739 19.213C18.081 19.21 18.1183 19.1939 18.2198 19.1053C18.3264 19.0123 18.4585 18.8808 18.6697 18.6697C18.8808 18.4585 19.0123 18.3264 19.1053 18.2198C19.1939 18.1183 19.21 18.081 19.213 18.0739C19.2625 17.9544 19.2625 17.8201 19.213 17.7006C19.21 17.6935 19.1939 17.6562 19.1053 17.5546C19.0123 17.448 18.8808 17.3159 18.6697 17.1048L14.7314 13.1665C14.4385 12.8736 14.4385 12.3987 14.7314 12.1058L15.934 10.9032C16.5673 10.2699 16.9803 9.85409 17.2289 9.51887C17.4621 9.20448 17.4386 9.10755 17.4337 9.08762C17.4336 9.08696 17.4334 9.08638 17.4333 9.08588C17.4332 9.08538 17.4331 9.0848 17.433 9.08413C17.429 9.06401 17.4097 8.96614 17.0663 8.7784C16.7001 8.57822 16.1508 8.37375 15.3105 8.06415L9.86128 6.05656C8.2077 5.44734 7.04685 5.02172 6.19303 4.84052Z" fill="#ffffff"/> </g>
</svg>