<!DOCTYPE svg PUBLIC "-//W3C//DTD SVG 1.1//EN" "http://www.w3.org/Graphics/SVG/1.1/DTD/svg11.dtd">
<!-- Uploaded to: SVG Repo, www.svgrepo.com, Transformed by: SVG Repo Mixer Tools -->
<svg version="1.1" id="Layer_1" xmlns="http://www.w3.org/2000/svg" xmlns:xlink="http://www.w3.org/1999/xlink" width="800px" height="800px" viewBox="0 0 32 32" enable-background="new 0 0 32 32" xml:space="preserve" fill="#ffffff">
<g id="SVGRepo_bgCarrier" stroke-width="0"/>
<g id="SVGRepo_tracerCarrier" stroke-linecap="round" stroke-linejoin="round"/>
<g id="SVGRepo_iconCarrier"> <g> <path fill="#ffffff" d="M30.208,0H1.792C0.804,0,0,0.804,0,1.792v28.416C0,31.196,0.804,32,1.792,32h28.417 C31.196,32,32,31.196,32,30.208V1.792C32,0.804,31.196,0,30.208,0z M1,11h9v10H1V11z M11,11h10v10H11V11z M22,11h9v10h-9V11z M30.208,1C30.645,1,31,1.355,31,1.792V10h-9V1H30.208z M21,1v9H11V1H21z M1,1.792C1,1.355,1.355,1,1.792,1H10v9H1V1.792z M1.792,31C1.355,31,1,30.645,1,30.208V22h9v9H1.792z M11,31v-9h10v9H11z M31,30.208C31,30.645,30.645,31,30.208,31H22v-9h9V30.208 z"/> </g> </g>
</svg>