<!DOCTYPE svg PUBLIC "-//W3C//DTD SVG 1.1//EN" "http://www.w3.org/Graphics/SVG/1.1/DTD/svg11.dtd">
<!-- Uploaded to: SVG Repo, www.svgrepo.com, Transformed by: SVG Repo Mixer Tools -->
<svg width="800px" height="800px" viewBox="0 0 24 24" fill="none" xmlns="http://www.w3.org/2000/svg">
<g id="SVGRepo_bgCarrier" stroke-width="0"/>
<g id="SVGRepo_tracerCarrier" stroke-linecap="round" stroke-linejoin="round"/>
<g id="SVGRepo_iconCarrier"> <path fill-rule="evenodd" clip-rule="evenodd" d="M3 5C2.44772 5 2 5.44771 2 6V18C2 18.5523 2.44772 19 3 19H21C21.5523 19 22 18.5523 22 18V6C22 5.44772 21.5523 5 21 5H3ZM0 6C0 4.34315 1.34314 3 3 3H21C22.6569 3 24 4.34315 24 6V18C24 19.6569 22.6569 21 21 21H3C1.34315 21 0 19.6569 0 18V6ZM6 10.5C6 9.67157 6.67157 9 7.5 9C8.32843 9 9 9.67157 9 10.5C9 11.3284 8.32843 12 7.5 12C6.67157 12 6 11.3284 6 10.5ZM10.1756 12.7565C10.69 12.1472 11 11.3598 11 10.5C11 8.567 9.433 7 7.5 7C5.567 7 4 8.567 4 10.5C4 11.3598 4.31002 12.1472 4.82438 12.7565C3.68235 13.4994 3 14.7069 3 16C3 16.5523 3.44772 17 4 17C4.55228 17 5 16.5523 5 16C5 15.1145 5.80048 14 7.5 14C9.19952 14 10 15.1145 10 16C10 16.5523 10.4477 17 11 17C11.5523 17 12 16.5523 12 16C12 14.7069 11.3177 13.4994 10.1756 12.7565ZM13 8C12.4477 8 12 8.44772 12 9C12 9.55228 12.4477 10 13 10H19C19.5523 10 20 9.55228 20 9C20 8.44772 19.5523 8 19 8H13ZM14 12C13.4477 12 13 12.4477 13 13C13 13.5523 13.4477 14 14 14H18C18.5523 14 19 13.5523 19 13C19 12.4477 18.5523 12 18 12H14Z" fill="#ffffff"/> </g>
</svg>