<?xml version="1.0" encoding="UTF-8" standalone="no"?>
<!-- Uploaded to: SVG Repo, www.svgrepo.com, Transformed by: SVG Repo Mixer Tools -->

<svg
   width="800px"
   height="800px"
   viewBox="0 0 24 24"
   id="down-sign"
   class="icon glyph"
   fill="#ffffff"
   stroke="#ffffff"
   version="1.1"
   sodipodi:docname="ImportedFile.svg"
   inkscape:version="1.3 (0e150ed6c4, 2023-07-21)"
   xmlns:inkscape="http://www.inkscape.org/namespaces/inkscape"
   xmlns:sodipodi="http://sodipodi.sourceforge.net/DTD/sodipodi-0.dtd"
   xmlns="http://www.w3.org/2000/svg"
   xmlns:svg="http://www.w3.org/2000/svg">
  <defs
     id="defs1" />
  <sodipodi:namedview
     id="namedview1"
     pagecolor="#ffffff"
     bordercolor="#000000"
     borderopacity="0.25"
     inkscape:showpageshadow="2"
     inkscape:pageopacity="0.0"
     inkscape:pagecheckerboard="true"
     inkscape:deskcolor="#d1d1d1"
     inkscape:zoom="0.556875"
     inkscape:cx="361.84063"
     inkscape:cy="378.90011"
     inkscape:window-width="958"
     inkscape:window-height="1120"
     inkscape:window-x="2873"
     inkscape:window-y="0"
     inkscape:window-maximized="0"
     inkscape:current-layer="SVGRepo_iconCarrier" />
  <g
     id="SVGRepo_bgCarrier"
     stroke-width="0" />
  <g
     id="SVGRepo_tracerCarrier"
     stroke-linecap="round"
     stroke-linejoin="round" />
  <g
     id="SVGRepo_iconCarrier">
    <path
       d="M21.51,4.14a1,1,0,0,0-1,0L12,8.86,3.49,4.13a1,1,0,0,0-1,0A1,1,0,0,0,2,5v9a1,1,0,0,0,.51.87l9,5,.15.06.09,0A1,1,0,0,0,12,20h0a1,1,0,0,0,.25,0l.09,0,.15-.06,9-5A1,1,0,0,0,22,14V5A1,1,0,0,0,21.51,4.14Z"
       style="fill:#717171;fill-opacity:1;stroke:#9b9b9b;stroke-opacity:1"
       id="path1" />
  </g>
</svg>
