<?xml version="1.0" encoding="UTF-8" standalone="no"?>
<!-- Uploaded to: SVG Repo, www.svgrepo.com, Transformed by: SVG Repo Mixer Tools -->

<svg
   width="800px"
   height="800px"
   viewBox="0 0 24 24"
   fill="none"
   version="1.1"
   id="svg61"
   sodipodi:docname="ImportedFile.svg"
   inkscape:version="1.3 (0e150ed6c4, 2023-07-21)"
   xmlns:inkscape="http://www.inkscape.org/namespaces/inkscape"
   xmlns:sodipodi="http://sodipodi.sourceforge.net/DTD/sodipodi-0.dtd"
   xmlns="http://www.w3.org/2000/svg"
   xmlns:svg="http://www.w3.org/2000/svg">
  <defs
     id="defs65" />
  <sodipodi:namedview
     id="namedview63"
     pagecolor="#000000"
     bordercolor="#000000"
     borderopacity="0.25"
     inkscape:showpageshadow="2"
     inkscape:pageopacity="0"
     inkscape:pagecheckerboard="0"
     inkscape:deskcolor="#d1d1d1"
     showgrid="false"
     showguides="true"
     inkscape:zoom="1.28375"
     inkscape:cx="396.10516"
     inkscape:cy="402.3369"
     inkscape:window-width="1920"
     inkscape:window-height="1129"
     inkscape:window-x="1912"
     inkscape:window-y="-8"
     inkscape:window-maximized="1"
     inkscape:current-layer="svg61" />
  <g
     id="SVGRepo_bgCarrier"
     stroke-width="0" />
  <g
     id="SVGRepo_tracerCarrier"
     stroke-linecap="round"
     stroke-linejoin="round" />
  <path
     d="M 3,10 C 3,6.22876 3,4.34315 4.17157,3.17157 5.34315,2 7.22876,2 11,2 h 2 c 3.7712,0 5.6569,0 6.8284,1.17157 C 21,4.34315 21,6.22876 21,10 v 4 c 0,3.7712 0,5.6569 -1.1716,6.8284 C 18.6569,22 16.7712,22 13,22 H 11 C 7.22876,22 5.34315,22 4.17157,20.8284 3,19.6569 3,17.7712 3,14 Z"
     stroke="#ffffff"
     stroke-width="1.5"
     id="path54" />
  <path
     d="m 12.035053,5.940493 v 8.044913"
     id="path1"
     style="stroke:#7d7d7d;stroke-width:1.5;stroke-linecap:round;stroke-linejoin:round;stroke-dasharray:none;stroke-opacity:1" />
  <path
     d="m 9.3534159,11.303769 2.6816371,2.681637 2.681638,-2.681637"
     id="path2"
     style="stroke:#7d7d7d;stroke-width:1.5;stroke-linecap:round;stroke-linejoin:round;stroke-dasharray:none;stroke-opacity:1" />
  <path
     d="M 9.3534159,7.2813118 H 6.6717783 A 1.3408188,1.3408188 0 0 0 5.3309595,8.6221306 v 6.7040934 a 1.3408188,1.3408188 0 0 0 1.3408188,1.340819 H 17.398328 a 1.3408188,1.3408188 0 0 0 1.340819,-1.340819 V 8.6221306 A 1.3408188,1.3408188 0 0 0 17.398328,7.2813118 h -2.681637"
     id="path3"
     style="stroke:#7d7d7d;stroke-width:1.5;stroke-linecap:round;stroke-linejoin:round;stroke-dasharray:none;stroke-opacity:1" />
</svg>
