<!DOCTYPE svg PUBLIC "-//W3C//DTD SVG 1.1//EN" "http://www.w3.org/Graphics/SVG/1.1/DTD/svg11.dtd">
<!-- Uploaded to: SVG Repo, www.svgrepo.com, Transformed by: SVG Repo Mixer Tools -->
<svg fill="#ffffff" width="800px" height="800px" viewBox="0 -3.5 31 31" xmlns="http://www.w3.org/2000/svg">
<g id="SVGRepo_bgCarrier" stroke-width="0"/>
<g id="SVGRepo_tracerCarrier" stroke-linecap="round" stroke-linejoin="round"/>
<g id="SVGRepo_iconCarrier">
<path d="m18.646 5.077c.044.289.069.622.069.96 0 .109-.003.218-.008.326l.001-.015c0 2.344-.007 4.688.006 7.032.655.34 1.427.549 2.245.57h.007c.022.001.048.001.074.001.521 0 1.011-.131 1.439-.362l-.016.008c.478-.268.867-.644 1.143-1.096l.008-.014c.295-.491.512-1.064.616-1.677l.004-.029c.08-.464.125-.998.125-1.542 0-.191-.006-.382-.017-.57l.001.026c-.013-1.131-.259-2.202-.692-3.171l.02.051c-.269-.559-.613-1.036-1.027-1.443l-.001-.001c-.389-.383-.824-.72-1.298-1l-.031-.017c-.979-.56-2.112-1.048-3.302-1.404l-.116-.03c-.75-.24-1.505-.47-2.262-.69-1.323-.375-2.652-.735-4.005-.987q0 11.2 0 22.393l5.065 1.607q.006-9.414 0-18.827c-.001-.018-.001-.039-.001-.06 0-.36.112-.693.304-.967l-.004.005c.115-.146.292-.24.49-.24.038 0 .074.003.11.01l-.004-.001c.234.043.44.143.609.286l-.002-.002c.235.224.397.523.446.858l.001.008zm-13.226 13.272c1.738-.621 3.475-1.249 5.216-1.866.007-.076.01-.165.01-.254 0-.034-.001-.069-.002-.103v.005c0-.865 0-1.73 0-2.594-2.202.777-4.4 1.563-6.602 2.342-.537.196-1.082.37-1.608.594-.675.272-1.254.581-1.795.943l.035-.022c-.243.156-.438.368-.569.619l-.004.009c-.065.135-.103.294-.103.461 0 .139.026.271.073.393l-.003-.007c.139.322.354.589.624.785l.005.004c.47.338 1.02.601 1.613.756l.035.008c1.548.53 3.332.835 5.187.835.117 0 .234-.001.351-.004h-.017c.995-.024 1.948-.129 2.876-.308l-.108.017c.014-.146.006-.293.008-.439 0-.732 0-1.463 0-2.194-.744.266-1.487.537-2.23.806-.244.101-.536.193-.837.26l-.037.007c-.406.087-.873.138-1.351.139h-.001c-.009 0-.021 0-.032 0-.42 0-.823-.072-1.198-.204l.025.008c-.15-.049-.271-.15-.344-.282l-.002-.003c-.007-.025-.011-.054-.011-.084 0-.102.047-.193.12-.254h.001c.188-.165.413-.294.66-.372l.013-.004zm25.184-1.68c-.436-.361-.949-.648-1.509-.831l-.033-.009c-.309-.098-.609-.22-.918-.314-1.432-.449-3.079-.708-4.786-.708-.036 0-.073 0-.109 0h.006c-.502.018-1.004.032-1.503.09-1.52.165-2.908.484-4.228.946l.132-.04q0 1.52 0 3.04c1.829-.64 3.654-1.287 5.482-1.928.551-.183 1.185-.288 1.844-.288h.052-.003c.018 0 .039-.001.06-.001.412 0 .808.071 1.176.201l-.025-.008c.148.048.269.147.343.276l.002.003c.005.024.008.051.008.079 0 .139-.075.261-.186.327l-.002.001c-.291.195-.629.352-.99.453l-.025.006q-3.85 1.374-7.699 2.745c-.054.01-.033.076-.038.114v2.834q5.06-1.819 10.121-3.635c.665-.218 1.21-.437 1.738-.685l-.092.039c.528-.245.979-.567 1.359-.959l.001-.001c.198-.209.32-.492.32-.804 0-.004 0-.008 0-.012v.001c-.034-.378-.22-.707-.497-.929l-.003-.002z"/>
</g>
</svg>