<!DOCTYPE svg PUBLIC "-//W3C//DTD SVG 1.1//EN" "http://www.w3.org/Graphics/SVG/1.1/DTD/svg11.dtd">
<!-- Uploaded to: SVG Repo, www.svgrepo.com, Transformed by: SVG Repo Mixer Tools -->
<svg fill="#ffffff" width="800px" height="800px" viewBox="0 0 1920 1920" xmlns="http://www.w3.org/2000/svg">
<g id="SVGRepo_bgCarrier" stroke-width="0"/>
<g id="SVGRepo_tracerCarrier" stroke-linecap="round" stroke-linejoin="round"/>
<g id="SVGRepo_iconCarrier"> <path d="M1863.53 1016.437c31.171 0 56.47 25.299 56.47 56.47v790.589c0 16.376-7.115 31.849-19.313 42.465-10.39 9.149-23.605 14.005-37.158 14.005-2.484 0-5.082-.113-7.567-.452l-903.53-123.331c-28.008-3.84-48.903-27.784-48.903-56.02v-667.256c0-31.171 25.3-56.47 56.471-56.47Zm-1129.412 0c31.171 0 56.47 25.299 56.47 56.47v634.504c0 16.376-7.115 31.85-19.426 42.579-10.39 9.035-23.491 13.891-37.044 13.891-2.485 0-5.196-.113-7.68-.564L48.79 1669.35C20.78 1665.51 0 1641.68 0 1613.444v-540.537c0-31.171 25.299-56.47 56.47-56.47Zm-7.726-859.855c16.151-2.372 32.415 2.597 44.725 13.327 12.424 10.73 19.426 26.315 19.426 42.579V846.99c0 31.285-25.186 56.47-56.47 56.47H56.424c-31.171 0-56.47-25.185-56.47-56.47V306.455c0-28.123 20.781-52.066 48.79-55.906ZM1855.974.474c16.15-2.033 32.414 2.71 44.724 13.44 12.198 10.73 19.313 26.203 19.313 42.466v790.588c0 31.285-25.299 56.471-56.47 56.471H960.01c-31.171 0-56.47-25.186-56.47-56.47V179.711c0-28.235 20.78-52.066 48.903-55.906Z" fill-rule="evenodd"/> </g>
</svg>