<!DOCTYPE svg PUBLIC "-//W3C//DTD SVG 1.1//EN" "http://www.w3.org/Graphics/SVG/1.1/DTD/svg11.dtd">
<!-- Uploaded to: SVG Repo, www.svgrepo.com, Transformed by: SVG Repo Mixer Tools -->
<svg fill="#ffffff" width="800px" height="800px" viewBox="0 0 14 14" role="img" focusable="false" aria-hidden="true" xmlns="http://www.w3.org/2000/svg">
<g id="SVGRepo_bgCarrier" stroke-width="0"/>
<g id="SVGRepo_tracerCarrier" stroke-linecap="round" stroke-linejoin="round"/>
<g id="SVGRepo_iconCarrier">
<path d="m 8.088,13 1.837,0 C 11.613,13 13,11.613 13,9.925 l 0,-5.85 C 13,2.3875 11.613,1 9.925,1 L 8.05,1 C 8.013,1 7.975,1.037 7.975,1.075 l 0,11.85 C 7.9745,12.963 8.0125,13 8.088,13 Z m 2.287,-6.5995 c 0.6755,0 1.1995,0.5625 1.1995,1.199 0,0.676 -0.5625,1.2 -1.1995,1.2 -0.675,0 -1.2,-0.5245 -1.2,-1.2 C 9.1375,6.925 9.7,6.4005 10.375,6.4005 Z M 6.7,1 4.075,1 C 2.3875,1 1,2.3875 1,4.075 l 0,5.85 C 1,11.613 2.3875,13 4.075,13 L 6.7,13 c 0.037,0 0.075,-0.037 0.075,-0.0745 l 0,-11.8505 C 6.7755,1.037 6.7375,1 6.7,1 Z m -0.862,11.0255 -1.763,0 c -1.163,0 -2.1005,-0.9375 -2.1005,-2.1005 l 0,-5.85 c 0,-1.163 0.9375,-2.1005 2.1005,-2.1005 l 1.725,0 0.038,10.051 z M 2.875,4.5995 c 0,0.6375 0.4875,1.125 1.125,1.125 0.6375,0 1.125,-0.4875 1.125,-1.125 0,-0.6365 -0.4875,-1.125 -1.125,-1.125 -0.6375,0 -1.125,0.4885 -1.125,1.125 z"/>
</g>
</svg>