<!DOCTYPE svg PUBLIC "-//W3C//DTD SVG 1.1//EN" "http://www.w3.org/Graphics/SVG/1.1/DTD/svg11.dtd">
<!-- Uploaded to: SVG Repo, www.svgrepo.com, Transformed by: SVG Repo Mixer Tools -->
<svg width="800px" height="800px" viewBox="-3.5 0 48 48" version="1.1" xmlns="http://www.w3.org/2000/svg" xmlns:xlink="http://www.w3.org/1999/xlink" fill="#ffffff">
<g id="SVGRepo_bgCarrier" stroke-width="0"/>
<g id="SVGRepo_tracerCarrier" stroke-linecap="round" stroke-linejoin="round"/>
<g id="SVGRepo_iconCarrier"> <title>Apple-color</title> <desc>Created with Sketch.</desc> <defs> </defs> <g id="Icons" stroke="none" stroke-width="1" fill="none" fill-rule="evenodd"> <g id="Color-" transform="translate(-204.000000, -560.000000)" fill="#ffffff"> <path d="M231.174735,567.792499 C232.740177,565.771699 233.926883,562.915484 233.497649,560 C230.939077,560.177808 227.948466,561.814769 226.203475,563.948463 C224.612784,565.88177 223.305444,568.757742 223.816036,571.549042 C226.613071,571.636535 229.499881,569.960061 231.174735,567.792499 L231.174735,567.792499 Z M245,595.217241 C243.880625,597.712195 243.341978,598.827022 241.899976,601.03692 C239.888467,604.121745 237.052156,607.962958 233.53412,607.991182 C230.411652,608.02505 229.606488,605.94498 225.367451,605.970382 C221.128414,605.99296 220.244696,608.030695 217.116618,607.999649 C213.601387,607.968603 210.913765,604.502761 208.902256,601.417937 C203.27452,592.79849 202.68257,582.680377 206.152914,577.298162 C208.621711,573.476705 212.515678,571.241407 216.173986,571.241407 C219.89682,571.241407 222.239372,573.296075 225.322563,573.296075 C228.313175,573.296075 230.133913,571.235762 234.440281,571.235762 C237.700215,571.235762 241.153726,573.022307 243.611302,576.10431 C235.554045,580.546683 236.85858,592.121127 245,595.217241 L245,595.217241 Z" id="Apple"> </path> </g> </g> </g>
</svg>