<!DOCTYPE svg PUBLIC "-//W3C//DTD SVG 1.1//EN" "http://www.w3.org/Graphics/SVG/1.1/DTD/svg11.dtd">
<!-- Uploaded to: SVG Repo, www.svgrepo.com, Transformed by: SVG Repo Mixer Tools -->
<svg fill="#ffffff" height="800px" width="800px" version="1.1" id="Layer_1" xmlns="http://www.w3.org/2000/svg" xmlns:xlink="http://www.w3.org/1999/xlink" viewBox="0 0 330 330" xml:space="preserve">
<g id="SVGRepo_bgCarrier" stroke-width="0"/>
<g id="SVGRepo_tracerCarrier" stroke-linecap="round" stroke-linejoin="round"/>
<g id="SVGRepo_iconCarrier"> <g id="XMLID_2_"> <path id="XMLID_4_" d="M315,0h-60c-8.284,0-15,6.716-15,15s6.716,15,15,15h45v45c0,8.284,6.716,15,15,15c8.284,0,15-6.716,15-15V15 C330,6.716,323.284,0,315,0z"/> <path id="XMLID_5_" d="M267.043,165.248c-2.83-3.811-7.296-6.058-12.043-6.058c-4.747,0-9.213,2.247-12.044,6.058l-47.53,64.016 l-78.093-112.802C114.531,112.415,109.922,110,105,110c-4.922,0-9.531,2.415-12.333,6.462l-90,130C0.93,248.97,0,251.949,0,255v60 c0,8.284,6.716,15,15,15h60c8.284,0,15-6.716,15-15s-6.716-15-15-15H30v-40.315l75-108.333l77.667,112.186 c2.752,3.975,7.251,6.38,12.084,6.46c4.862,0.107,9.41-2.174,12.292-6.056L255,199.352l45,60.608V300h-45c-8.284,0-15,6.716-15,15 s6.716,15,15,15h60c8.284,0,15-6.716,15-15v-60c0-3.221-1.037-6.356-2.957-8.942L267.043,165.248z"/> <path id="XMLID_6_" d="M15,90c8.284,0,15-6.716,15-15V30h45c8.284,0,15-6.716,15-15S83.284,0,75,0H15C6.716,0,0,6.716,0,15v60 C0,83.284,6.716,90,15,90z"/> <path id="XMLID_7_" d="M195,150c27.57,0,50-22.43,50-50s-22.43-50-50-50s-50,22.43-50,50S167.43,150,195,150z M195,80 c11.028,0,20,8.972,20,20s-8.972,20-20,20c-11.028,0-20-8.972-20-20S183.972,80,195,80z"/> </g> </g>
</svg>