<!DOCTYPE svg PUBLIC "-//W3C//DTD SVG 1.1//EN" "http://www.w3.org/Graphics/SVG/1.1/DTD/svg11.dtd">
<!-- Uploaded to: SVG Repo, www.svgrepo.com, Transformed by: SVG Repo Mixer Tools -->
<svg width="800px" height="800px" viewBox="0 0 512 512" xmlns="http://www.w3.org/2000/svg" fill="#ffffff">
<g id="SVGRepo_bgCarrier" stroke-width="0"/>
<g id="SVGRepo_tracerCarrier" stroke-linecap="round" stroke-linejoin="round"/>
<g id="SVGRepo_iconCarrier">
<path fill="#ffffff" d="M128 32a96 96 0 0 0-96 96 96 96 0 0 0 96 96 96 96 0 0 0 30.285-4.986L140.29 201.02l64.353-64.352 6.363-6.363 11.86 11.86A96 96 0 0 0 224 128a96 96 0 0 0-96-96zm83.006 123.76l-45.26 45.26L252.73 288l-23.468 23.467 115.24 23.047-23.05-115.24-23.466 23.466-86.98-86.98zM353.556 288l13.89 69.46L288 341.57V480h192V288H353.555z"/>
</g>
</svg>