<!DOCTYPE svg PUBLIC "-//W3C//DTD SVG 1.1//EN" "http://www.w3.org/Graphics/SVG/1.1/DTD/svg11.dtd">
<!-- Uploaded to: SVG Repo, www.svgrepo.com, Transformed by: SVG Repo Mixer Tools -->
<svg fill="#ffffff" width="800px" height="800px" viewBox="0 0 32 32" id="icon" xmlns="http://www.w3.org/2000/svg">
<g id="SVGRepo_bgCarrier" stroke-width="0"/>
<g id="SVGRepo_tracerCarrier" stroke-linecap="round" stroke-linejoin="round"/>
<g id="SVGRepo_iconCarrier"> <defs> <style> .cls-1 { fill: none; } </style> </defs> <rect x="4" y="26" width="4" height="4"/> <rect x="14" y="26" width="4" height="4"/> <rect x="24" y="26" width="4" height="4"/> <path d="M25,16H17V12H15v4H7a2.0023,2.0023,0,0,0-2,2v6H7V18h8v6h2V18h8v6h2V18A2.0023,2.0023,0,0,0,25,16Z" transform="translate(0 0)"/> <path d="M20,10V2H12v8ZM14,8V4h4V8Z" transform="translate(0 0)"/> <rect id="_Transparent_Rectangle_" data-name="&lt;Transparent Rectangle&gt;" class="cls-1" width="32" height="32"/> </g>
</svg>