<!DOCTYPE svg PUBLIC "-//W3C//DTD SVG 1.1//EN" "http://www.w3.org/Graphics/SVG/1.1/DTD/svg11.dtd">
<!-- Uploaded to: SVG Repo, www.svgrepo.com, Transformed by: SVG Repo Mixer Tools -->
<svg width="800px" height="800px" viewBox="0 0 24 24" version="1.1" xmlns="http://www.w3.org/2000/svg" xmlns:xlink="http://www.w3.org/1999/xlink" fill="#ffffff">
<g id="SVGRepo_bgCarrier" stroke-width="0"/>
<g id="SVGRepo_tracerCarrier" stroke-linecap="round" stroke-linejoin="round"/>
<g id="SVGRepo_iconCarrier"> <title>remote_line</title> <g id="页面-1" stroke="none" stroke-width="1" fill="none" fill-rule="evenodd"> <g id="Device" transform="translate(-480.000000, -96.000000)" fill-rule="nonzero"> <g id="remote_line" transform="translate(480.000000, 96.000000)"> <path d="M24,0 L24,24 L0,24 L0,0 L24,0 Z M12.5934901,23.257841 L12.5819402,23.2595131 L12.5108777,23.2950439 L12.4918791,23.2987469 L12.4918791,23.2987469 L12.4767152,23.2950439 L12.4056548,23.2595131 C12.3958229,23.2563662 12.3870493,23.2590235 12.3821421,23.2649074 L12.3780323,23.275831 L12.360941,23.7031097 L12.3658947,23.7234994 L12.3769048,23.7357139 L12.4804777,23.8096931 L12.4953491,23.8136134 L12.4953491,23.8136134 L12.5071152,23.8096931 L12.6106902,23.7357139 L12.6232938,23.7196733 L12.6232938,23.7196733 L12.6266527,23.7031097 L12.609561,23.275831 C12.6075724,23.2657013 12.6010112,23.2592993 12.5934901,23.257841 L12.5934901,23.257841 Z M12.8583906,23.1452862 L12.8445485,23.1473072 L12.6598443,23.2396597 L12.6498822,23.2499052 L12.6498822,23.2499052 L12.6471943,23.2611114 L12.6650943,23.6906389 L12.6699349,23.7034178 L12.6699349,23.7034178 L12.678386,23.7104931 L12.8793402,23.8032389 C12.8914285,23.8068999 12.9022333,23.8029875 12.9078286,23.7952264 L12.9118235,23.7811639 L12.8776777,23.1665331 C12.8752882,23.1545897 12.8674102,23.1470016 12.8583906,23.1452862 L12.8583906,23.1452862 Z M12.1430473,23.1473072 C12.1332178,23.1423925 12.1221763,23.1452606 12.1156365,23.1525954 L12.1099173,23.1665331 L12.0757714,23.7811639 C12.0751323,23.7926639 12.0828099,23.8018602 12.0926481,23.8045676 L12.108256,23.8032389 L12.3092106,23.7104931 L12.3186497,23.7024347 L12.3186497,23.7024347 L12.3225043,23.6906389 L12.340401,23.2611114 L12.337245,23.2485176 L12.337245,23.2485176 L12.3277531,23.2396597 L12.1430473,23.1473072 Z" id="MingCute" fill-rule="nonzero"> </path> <path d="M16,12 C17.6569,12 19,13.3431 19,15 L19,21 C19,21.5523 18.5523,22 18,22 C17.4477,22 17,21.5523 17,21 L17,15 C17,14.4477 16.5523,14 16,14 L8.00002,14 C7.44773,14 7.00002,14.4477 7.00002,15 L7.00002,21 C7.00002,21.5523 6.5523,22 6.00002,22 C5.44773,22 5.00002,21.5523 5.00002,21 L5.00002,15 C5.00002,13.3431 6.34316,12 8.00002,12 L16,12 Z M14.00001,16 C14.5523,16 15.00001,16.4477 15.00001,17 C15.00001,17.51285 14.6139743,17.9355092 14.1166321,17.9932725 L14.00001,18 L10.00001,18 C9.44773,18 9.00001,17.5523 9.00001,17 C9.00001,16.48715 9.38605429,16.0644908 9.88338975,16.0067275 L10.00001,16 L14.00001,16 Z M12,8 C13.0608,8 14.0472,8.33148 14.8574,8.89649 C15.3104,9.2124 15.4215,9.83574 15.1056,10.2887 C14.7897,10.7418 14.1664,10.8529 13.7134,10.537 C13.2279,10.1984 12.6386,10 12,10 C11.3615,10 10.7723,10.1984 10.2868,10.5368 C9.83378,10.8527 9.21045,10.7415 8.89457,10.2885 C8.57869,9.83549 8.68987,9.21216 9.1429,8.89628 C9.95305,8.33139 10.9393,8 12,8 Z M11.9999,5 C13.9182,5 15.6811,5.67641 17.0594,6.80278 C17.487,7.15227 17.5504,7.78226 17.2009,8.2099 C16.8514,8.63754 16.2214,8.70089 15.7937,8.3514 C14.7596,7.50623 13.4402,7 11.9999,7 C10.5604,7 9.24165,7.50569 8.20775,8.35005 C7.77999,8.6994 7.15002,8.63582 6.80068,8.20806 C6.45134,7.7803 6.51491,7.15034 6.94267,6.801 C8.32059,5.67569 10.0827,5 11.9999,5 Z M12.0001,2 C14.7569,2 17.279,3.01541 19.209,4.69127 C19.626,5.05337 19.6705,5.68497 19.3084,6.10199 C18.9463,6.519 18.3147,6.56352 17.8977,6.20142 C16.3176,4.82942 14.257,4 12.0001,4 C9.74141,4 7.67927,4.83073 6.0987,6.20468 C5.68188,6.56701 5.05026,6.52283 4.68793,6.10602 C4.3256,5.6892 4.36977,5.05758 4.78659,4.69525 C6.7172,3.01702 9.24111,2 12.0001,2 Z" id="形状" fill="#ffffff"> </path> </g> </g> </g> </g>
</svg>