<!DOCTYPE svg PUBLIC "-//W3C//DTD SVG 1.1//EN" "http://www.w3.org/Graphics/SVG/1.1/DTD/svg11.dtd">
<!-- Uploaded to: SVG Repo, www.svgrepo.com, Transformed by: SVG Repo Mixer Tools -->
<svg width="800px" height="800px" viewBox="0 0 24 24" xmlns="http://www.w3.org/2000/svg" mirror-in-rtl="true" fill="#ffffff">
<g id="SVGRepo_bgCarrier" stroke-width="0"/>
<g id="SVGRepo_tracerCarrier" stroke-linecap="round" stroke-linejoin="round"/>
<g id="SVGRepo_iconCarrier"> <path fill="#ffffff" d="M24 15c0 .31-.15.61-.4.8l-4 3c-.18.13-.39.2-.6.2-.15 0-.31-.04-.45-.11-.34-.17-.55-.51-.55-.89v-2H5c-.55 0-1-.45-1-1s.45-1 1-1h13v-2c0-.38.21-.73.55-.89.34-.17.75-.14 1.05.09l4 3c.25.19.4.49.4.8z"/> <path fill="#ffffff" d="M18 2v7c0 .55-.45 1-1 1s-1-.45-1-1V2.5c0-.28-.22-.5-.5-.5h-13c-.28 0-.5.22-.5.5v19c0 .28.22.5.5.5h13c.28 0 .5-.22.5-.5V21c0-.55.45-1 1-1s1 .45 1 1v1c0 1.1-.9 2-2 2H2c-1.1 0-2-.9-2-2V2C0 .9.9 0 2 0h14c1.1 0 2 .9 2 2z"/> </g>
</svg>