<!DOCTYPE svg PUBLIC "-//W3C//DTD SVG 1.1//EN" "http://www.w3.org/Graphics/SVG/1.1/DTD/svg11.dtd">
<!-- Uploaded to: SVG Repo, www.svgrepo.com, Transformed by: SVG Repo Mixer Tools -->
<svg fill="#ffffff" width="800px" height="800px" viewBox="0 0 24 24" xmlns="http://www.w3.org/2000/svg">
<g id="SVGRepo_bgCarrier" stroke-width="0"/>
<g id="SVGRepo_tracerCarrier" stroke-linecap="round" stroke-linejoin="round"/>
<g id="SVGRepo_iconCarrier"> <g id="Light"> <g> <path d="M12,18.09A6.09,6.09,0,1,1,18.09,12,6.1,6.1,0,0,1,12,18.09ZM12,6.91A5.09,5.09,0,1,0,17.09,12,5.1,5.1,0,0,0,12,6.91Z"/> <path d="M11.5,2.568v1.6a.5.5,0,1,0,1,0v-1.6a.5.5,0,1,0-1,0Z"/> <path d="M12.5,21.432v-1.6a.5.5,0,0,0-1,0v1.6a.5.5,0,1,0,1,0Z"/> <path d="M21.432,11.5h-1.6a.5.5,0,0,0,0,1h1.6a.5.5,0,1,0,0-1Z"/> <path d="M2.568,12.5h1.6a.5.5,0,1,0,0-1h-1.6a.5.5,0,1,0,0,1Z"/> <path d="M18.316,4.977l-.992.992-.141.141a.514.514,0,0,0-.146.353.508.508,0,0,0,.146.354.5.5,0,0,0,.354.146.515.515,0,0,0,.353-.146l.992-.992.141-.141a.515.515,0,0,0,.147-.354.508.508,0,0,0-.147-.353.5.5,0,0,0-.353-.147.522.522,0,0,0-.354.147Z"/> <path d="M5.684,19.023l.992-.992.141-.141a.514.514,0,0,0,.146-.353.508.508,0,0,0-.146-.354.5.5,0,0,0-.354-.146.515.515,0,0,0-.353.146l-.992.992-.141.141a.515.515,0,0,0-.147.354.508.508,0,0,0,.147.353.5.5,0,0,0,.353.147.522.522,0,0,0,.354-.147Z"/> <path d="M19.023,18.316l-.992-.992-.141-.141a.514.514,0,0,0-.353-.146.508.508,0,0,0-.354.146.5.5,0,0,0-.146.354.515.515,0,0,0,.146.353l.992.992.141.141a.515.515,0,0,0,.354.147.508.508,0,0,0,.353-.147.5.5,0,0,0,.147-.353.522.522,0,0,0-.147-.354Z"/> <path d="M4.977,5.684l.992.992.141.141a.514.514,0,0,0,.353.146.508.508,0,0,0,.354-.146.5.5,0,0,0,.146-.354.515.515,0,0,0-.146-.353l-.992-.992-.141-.141A.515.515,0,0,0,5.33,4.83a.508.508,0,0,0-.353.147.5.5,0,0,0-.147.353.522.522,0,0,0,.147.354Z"/> </g> </g> </g>
</svg>