<?xml version="1.0" encoding="UTF-8" standalone="no"?>
<!-- Uploaded to: SVG Repo, www.svgrepo.com, Transformed by: SVG Repo Mixer Tools -->

<svg
   width="800px"
   height="800px"
   viewBox="0 0 24 24"
   fill="none"
   version="1.1"
   id="svg1"
   sodipodi:docname="WorldSpace.svg"
   inkscape:version="1.3 (0e150ed6c4, 2023-07-21)"
   xmlns:inkscape="http://www.inkscape.org/namespaces/inkscape"
   xmlns:sodipodi="http://sodipodi.sourceforge.net/DTD/sodipodi-0.dtd"
   xmlns="http://www.w3.org/2000/svg"
   xmlns:svg="http://www.w3.org/2000/svg">
  <defs
     id="defs1" />
  <sodipodi:namedview
     id="namedview1"
     pagecolor="#ffffff"
     bordercolor="#000000"
     borderopacity="0.25"
     inkscape:showpageshadow="2"
     inkscape:pageopacity="0.0"
     inkscape:pagecheckerboard="true"
     inkscape:deskcolor="#d1d1d1"
     inkscape:zoom="1.40125"
     inkscape:cx="399.64318"
     inkscape:cy="412.84567"
     inkscape:window-width="2256"
     inkscape:window-height="1398"
     inkscape:window-x="-11"
     inkscape:window-y="-11"
     inkscape:window-maximized="1"
     inkscape:current-layer="SVGRepo_iconCarrier" />
  <g
     id="SVGRepo_bgCarrier"
     stroke-width="0" />
  <g
     id="SVGRepo_tracerCarrier"
     stroke-linecap="round"
     stroke-linejoin="round" />
  <g
     id="SVGRepo_iconCarrier"
     transform="matrix(1.2022004,0,0,1.2688076,-2.426405,-3.2256913)">
    <path
       fill-rule="evenodd"
       clip-rule="evenodd"
       d="M 6.15407,7.30116 C 7.52877,5.59304 9.63674,4.5 12,4.5 c 0.365,0 0.7238,0.02607 1.0748,0.07644 l 0.6378,1.27548 -2.441,2.44098 -2.625,0.375 -1.28651,1.28651 z M 5.2011,8.82954 C 4.75126,9.79256 4.5,10.8669 4.5,12 c 0,3.6945 2.67133,6.7651 6.1878,7.3856 L 11.0989,18.7195 8.8147,15.547 10.3741,13.5256 9.63268,13.1549 6.94027,13.6036 6.41366,11.4972 Z m 2.75449,2.65066 0.10403,0.4162 1.8076,-0.3013 1.50538,0.7527 2.7098,-0.3764 4.872,2.8421 C 19.3063,13.9447 19.5,12.995 19.5,12 19.5,8.93729 17.6642,6.30336 15.033,5.13856 l 0.5047,1.00954 -3.559,3.55901 -2.62499,0.37499 z m 10.29831,4.6612 c -1.2765,1.9238 -3.417,3.2246 -5.868,3.3488 l 0.5152,-0.8347 -2.2158,-3.0775 1.4,-1.8148 1.6895,-0.2346 z M 12,3 c -4.97056,0 -9,4.02944 -9,9 0,4.9706 4.02944,9 9,9 4.9706,0 9,-4.0294 9,-9 0,-4.97056 -4.0294,-9 -9,-9 z"
       fill="#ffffff"
       id="path1"
       style="fill:#3f6fa3;fill-opacity:1" />
  </g>
</svg>
