<!DOCTYPE svg PUBLIC "-//W3C//DTD SVG 1.1//EN" "http://www.w3.org/Graphics/SVG/1.1/DTD/svg11.dtd">
<!-- Uploaded to: SVG Repo, www.svgrepo.com, Transformed by: SVG Repo Mixer Tools -->
<svg fill="#ffffff" width="800px" height="800px" viewBox="0 0 32 32" version="1.1" xmlns="http://www.w3.org/2000/svg">
<g id="SVGRepo_bgCarrier" stroke-width="0"/>
<g id="SVGRepo_tracerCarrier" stroke-linecap="round" stroke-linejoin="round"/>
<g id="SVGRepo_iconCarrier"> <title>damage_kinetic</title> <path d="M30.83 30.773c-0.233 0.070-0.349-0.045-0.473-0.103-3.406-1.623-6.832-3.204-10.115-5.071-0.091-0.052-0.204-0.108-0.32-0.157l-0.023-0.009c-0.559-0.237-0.816-0.158-1.126 0.378-0.126 0.221-0.261 0.494-0.381 0.774l-0.022 0.057c-0.74 1.654-1.474 3.312-2.218 4.966-0.057 0.127-0.080 0.284-0.251 0.391-0.273-0.571-0.546-1.131-0.809-1.695q-0.958-2.044-1.913-4.091c-0.085-0.19-0.169-0.347-0.263-0.498l0.010 0.018c-0.263-0.417-0.558-0.517-1.019-0.334-0.212 0.095-0.387 0.187-0.555 0.288l0.023-0.013c-3.301 1.791-6.633 3.523-9.956 5.261-0.063 0.052-0.145 0.083-0.234 0.083-0.010 0-0.021-0-0.031-0.001l0.001 0c-0.121-0.129 0.028-0.23 0.072-0.328 1.607-3.452 3.185-6.92 5.092-10.223 0.045-0.079 0.090-0.158 0.127-0.241 0.29-0.655 0.116-1.128-0.546-1.42-0.614-0.27-1.242-0.508-1.856-0.785-1.351-0.608-2.697-1.238-4.045-1.859 0.062-0.218 0.249-0.226 0.387-0.292q2.621-1.253 5.259-2.493c0.082-0.039 0.166-0.074 0.247-0.109 0.805-0.399 0.914-0.724 0.476-1.506-1.044-1.879-2.038-3.776-3.025-5.675q-1.168-2.244-2.322-4.497c-0.052-0.102-0.166-0.194-0.12-0.337 0.166-0.076 0.282 0.050 0.402 0.109 3.435 1.643 6.88 3.268 10.206 5.132 0.015 0.009 0.028 0.022 0.045 0.031 0.848 0.455 1.158 0.359 1.565-0.531 0.835-1.83 1.658-3.668 2.486-5.502 0.073-0.161 0.102-0.348 0.293-0.494 0.347 0.764 0.689 1.512 1.026 2.263q0.793 1.762 1.579 3.526c0.029 0.067 0.059 0.133 0.090 0.199 0.429 0.914 0.764 1.024 1.659 0.52 3.286-1.856 6.661-3.544 10.026-5.251 0.091-0.046 0.175-0.129 0.299-0.109 0.073 0.161-0.053 0.275-0.109 0.394-1.604 3.434-3.193 6.88-5.051 10.185-0.009 0.016-0.022 0.030-0.029 0.046-0.442 0.835-0.358 1.136 0.507 1.529 1.849 0.842 3.664 1.754 5.485 2.652l0.302 0.156c-0.074 0.204-0.278 0.212-0.427 0.278-1.719 0.775-3.443 1.54-5.164 2.31-1.092 0.488-1.192 0.794-0.608 1.826 1.896 3.352 3.598 6.8 5.346 10.251zM7.572 7.754c-0.016-0.050-0.055-0.091-0.094-0.046s0.007 0.074 0.056 0.082c0.048 0.312 0.236 0.566 0.376 0.835 0.954 1.856 1.92 3.698 2.887 5.556-1.27 0.604-2.537 1.208-3.858 1.838 1.31 0.681 2.602 1.239 3.88 1.821-1.192 2.14-2.203 4.307-3.167 6.494l0.095 0.079c2.1-1.104 4.2-2.207 6.321-3.323l1.866 3.943 1.78-3.957c2.146 1.179 4.311 2.206 6.544 3.218-0.012-0.071-0.027-0.133-0.045-0.193l0.003 0.010c-0.988-1.981-1.973-3.962-3.040-5.897-0.218-0.398-0.218-0.399 0.211-0.592 0.828-0.369 1.659-0.733 2.484-1.107 0.287-0.131 0.596-0.218 0.915-0.463l-3.81-1.876q1.778-3.23 3.267-6.574c-2.218 1.052-4.383 2.141-6.536 3.336l-1.823-4.040c-0.624 1.377-1.22 2.691-1.824 4.024-1.92-1.064-3.853-1.983-5.788-2.893-0.227-0.104-0.439-0.259-0.701-0.276z"/> <path d="M15.906 12.777c1.75 0.009 3.165 1.43 3.165 3.181 0 1.757-1.424 3.181-3.181 3.181s-3.181-1.424-3.181-3.181c0-0 0-0.001 0-0.001v0c0.006-1.758 1.432-3.18 3.191-3.18 0.002 0 0.005 0 0.007 0h-0zM16.799 15.935c-0.012-0.483-0.406-0.871-0.891-0.871-0.492 0-0.891 0.399-0.891 0.891 0 0.007 0 0.015 0 0.022l-0-0.001c0.019 0.48 0.413 0.863 0.896 0.863 0.015 0 0.030-0 0.044-0.001l-0.002 0c0.473-0.034 0.844-0.426 0.844-0.905 0 0 0-0 0-0v0z"/> </g>
</svg>