<!DOCTYPE svg PUBLIC "-//W3C//DTD SVG 1.1//EN" "http://www.w3.org/Graphics/SVG/1.1/DTD/svg11.dtd">
<!-- Uploaded to: SVG Repo, www.svgrepo.com, Transformed by: SVG Repo Mixer Tools -->
<svg fill="#ffffff" version="1.1" id="Layer_1" xmlns="http://www.w3.org/2000/svg" xmlns:xlink="http://www.w3.org/1999/xlink" viewBox="0 0 489.527 489.527" xml:space="preserve" width="800px" height="800px">
<g id="SVGRepo_bgCarrier" stroke-width="0"/>
<g id="SVGRepo_tracerCarrier" stroke-linecap="round" stroke-linejoin="round"/>
<g id="SVGRepo_iconCarrier"> <g id="XMLID_647_"> <g> <g> <path d="M320.85,30.406H168.678v387.819H320.85V30.406z M305.507,402.882H184.022V45.749h121.485V402.882z"/> <rect x="242.803" y="59.549" transform="matrix(0.7071 0.7071 -0.7071 0.7071 155.3788 -143.1404)" width="15.343" height="112.877"/> <rect x="261.782" y="131.389" transform="matrix(-0.7071 -0.7071 0.7071 -0.7071 353.7784 446.9426)" width="15.344" height="37.625"/> <path d="M351.256,0H138.272v448.631h38.958l-27.226,40.896h18.391l27.264-40.897h41.434v40.897h15.343V448.63h41.381 l26.626,40.896h18.888l-27.076-40.896h39.001V0z M335.913,433.288H153.614V15.343h182.298V433.288z"/> </g> </g> </g> </g>
</svg>