<!DOCTYPE svg PUBLIC "-//W3C//DTD SVG 1.1//EN" "http://www.w3.org/Graphics/SVG/1.1/DTD/svg11.dtd">
<!-- Uploaded to: SVG Repo, www.svgrepo.com, Transformed by: SVG Repo Mixer Tools -->
<svg fill="#ffffff" height="800px" width="800px" version="1.1" id="Capa_1" xmlns="http://www.w3.org/2000/svg" xmlns:xlink="http://www.w3.org/1999/xlink" viewBox="0 0 322.38 322.38" xml:space="preserve">
<g id="SVGRepo_bgCarrier" stroke-width="0"/>
<g id="SVGRepo_tracerCarrier" stroke-linecap="round" stroke-linejoin="round"/>
<g id="SVGRepo_iconCarrier"> <g> <path d="M239.747,194.604v-71.697c0-11.134-8.699-20.232-19.67-20.878v-9.874c0-6.445-5.224-11.669-11.669-11.669h-21.961 c-6.445,0-11.669,5.225-11.669,11.669v9.833h-71.226c-11.553,0-20.919,9.366-20.919,20.919v71.697 c0,11.553,9.366,20.919,20.919,20.919h115.277C230.381,215.522,239.747,206.157,239.747,194.604z M161.19,199.245 c-22.362,0-40.49-18.128-40.49-40.49s18.128-40.489,40.49-40.489s40.49,18.128,40.49,40.489S183.552,199.245,161.19,199.245z"/> <path d="M66.945,51.904c6.903,0,12.5-5.597,12.5-12.5s-5.597-12.5-12.5-12.5C30.031,26.904,0,56.935,0,93.849 c0,6.903,5.596,12.5,12.5,12.5c6.903,0,12.5-5.597,12.5-12.5C25,70.72,43.816,51.904,66.945,51.904z"/> <path d="M93.675,77.907c0-6.903-5.597-12.5-12.5-12.5c-23.529,0-42.672,19.142-42.672,42.671c0,6.903,5.597,12.5,12.5,12.5 c6.903,0,12.5-5.597,12.5-12.5c0-9.744,7.928-17.671,17.672-17.671C88.078,90.407,93.675,84.81,93.675,77.907z"/> <path d="M309.88,216.031c-6.903,0-12.5,5.597-12.5,12.5c0,23.129-18.816,41.945-41.945,41.945c-6.903,0-12.5,5.597-12.5,12.5 c0,6.903,5.597,12.5,12.5,12.5c36.914,0,66.945-30.031,66.945-66.945C322.38,221.627,316.783,216.031,309.88,216.031z"/> <path d="M283.877,214.302c0-6.903-5.597-12.5-12.5-12.5c-6.903,0-12.5,5.597-12.5,12.5c0,9.744-7.927,17.671-17.671,17.671 c-6.903,0-12.5,5.597-12.5,12.5c0,6.903,5.597,12.5,12.5,12.5C264.735,256.973,283.877,237.832,283.877,214.302z"/> </g> </g>
</svg>