<!DOCTYPE svg PUBLIC "-//W3C//DTD SVG 1.1//EN" "http://www.w3.org/Graphics/SVG/1.1/DTD/svg11.dtd">
<!-- Uploaded to: SVG Repo, www.svgrepo.com, Transformed by: SVG Repo Mixer Tools -->
<svg fill="#ffffff" height="800px" width="800px" version="1.2" baseProfile="tiny" id="Layer_1" xmlns="http://www.w3.org/2000/svg" xmlns:xlink="http://www.w3.org/1999/xlink" viewBox="-351 153 256 256" xml:space="preserve">
<g id="SVGRepo_bgCarrier" stroke-width="0"/>
<g id="SVGRepo_tracerCarrier" stroke-linecap="round" stroke-linejoin="round"/>
<g id="SVGRepo_iconCarrier"> <path id="XMLID_4_" d="M-134.8,275h-21.9c-2.1-4-4.4-7.7-6.8-11.5l19.7-21.1c2.7-2.8,4.9-9.5,4.9-14v-20.8c0-6.4-5.6-11.6-12-11.6 s-12,5.2-12,11.6v15.3c0,2.1-0.4,4-1.5,5.6l-12.4,13.4c-5.2-10.1-9-21.7-9-36.6c0-13.6-7.3-25.5-18.2-32c-2.4-8.3-10-14.4-19-14.4 c-9.1,0-16.7,6.1-19.1,14.5c-10.8,6.5-18,18.3-18,31.8c0,14.9-3.9,26.4-9.1,36.5l-12.3-13.1c-1.1-1.7-1.5-3.6-1.5-5.7v-15.3 c0-6.4-5.6-11.6-12-11.6s-12,5.2-12,11.6v20.9c0,4.4,2.2,11.1,4.9,14l19.5,21c-2.5,3.8-4.7,7.5-6.7,11.5h-21.9 c-12.8,0-23.2,10.4-23.2,23.2c-0.1,0-0.1,20.9-0.1,20.9c0,6.4,4.9,11.6,11.2,11.6c6.3,0,11.3-5.2,11.3-11.6v-10.7 c0-5.7,5.3-10.4,10.9-10.4h4.1c-0.3,2-0.4,4.4-0.4,6.7c0,9,1.7,17.7,4.8,25.7l-14.4,15.2c-2.7,2.8-5,9.1-5,12.9v32.4 c0,6.4,5.6,11.6,12,11.6s12-5.2,12-11.6v-25.7c0-2.1,0.6-4,1.6-5.6l7.1-7.6c8.9,10.1,19.1,20.3,34.1,24.4c0.3,0.2,0.7,0.3,1.1,0.3 c0.8,0.3,1.3,0.3,2.1,0.3c5.1,0,9-4.2,9-9.3v-78.9c0-5.1,4.9-9.3,10-9.3c5.1,0,10,4.2,10,9.3v79c0,5.1,3.8,9.3,8.9,9.3 c1,0,1.8-0.2,2.7-0.5l1.1-0.3c14.4-4,24.7-14.3,33.6-24.3l7.1,7.6c1.1,1.6,1.7,3.5,1.7,5.6V391c0,6.4,5.1,11.6,11.5,11.6 s11.4-5.2,11.4-11.6v-32.4c0-3.8-1.9-10.1-4.5-12.9l-14-15.2c3.1-8.1,4.8-16.8,4.8-25.8c0-2.3-0.1-4.7-0.3-6.7h4.1 c5.7,0,10,4.7,10,10.4v10.7c0,6.4,5.6,11.6,12,11.6s12-5.2,12-11.6v-20.9C-111,285.3-122,275-134.8,275z"/> </g>
</svg>