<!DOCTYPE svg PUBLIC "-//W3C//DTD SVG 1.1//EN" "http://www.w3.org/Graphics/SVG/1.1/DTD/svg11.dtd">
<!-- Uploaded to: SVG Repo, www.svgrepo.com, Transformed by: SVG Repo Mixer Tools -->
<svg fill="#ffffff" width="800px" height="800px" viewBox="0 0 1920 1920" xmlns="http://www.w3.org/2000/svg">
<g id="SVGRepo_bgCarrier" stroke-width="0"/>
<g id="SVGRepo_tracerCarrier" stroke-linecap="round" stroke-linejoin="round"/>
<g id="SVGRepo_iconCarrier"> <path d="m742.81 1024.051 185.984-512h62.336l186.112 512H742.81Zm605.056 469.888 120.32-43.776-387.328-1066.112H839.194L451.866 1450.163l120.32 43.776 124.16-341.888h527.36l124.16 341.888ZM1792 1728.051c0 35.2-28.672 64-64 64H192c-35.328 0-64-28.8-64-64v-1536c0-35.2 28.672-64 64-64h1536c35.328 0 64 28.8 64 64v1536Zm-64-1728H192c-105.856 0-192 86.144-192 192v1536c0 105.856 86.144 192 192 192h1536c105.856 0 192-86.144 192-192v-1536c0-105.856-86.144-192-192-192Z" fill-rule="evenodd"/> </g>
</svg>