<!DOCTYPE svg PUBLIC "-//W3C//DTD SVG 1.1//EN" "http://www.w3.org/Graphics/SVG/1.1/DTD/svg11.dtd">
<!-- Uploaded to: SVG Repo, www.svgrepo.com, Transformed by: SVG Repo Mixer Tools -->
<svg fill="#ffffff" height="800px" width="800px" version="1.1" id="Layer_1" xmlns="http://www.w3.org/2000/svg" xmlns:xlink="http://www.w3.org/1999/xlink" viewBox="0 0 511.999 511.999" xml:space="preserve">
<g id="SVGRepo_bgCarrier" stroke-width="0"/>
<g id="SVGRepo_tracerCarrier" stroke-linecap="round" stroke-linejoin="round"/>
<g id="SVGRepo_iconCarrier"> <g> <g> <path d="M467.984,44.065c-58.757-58.753-153.85-58.756-212.608,0.002l-24.979,24.979c-18.623-8.871-41.628-5.618-57.025,9.78 c-9.069,9.069-13.921,20.778-14.572,32.675c-11.898,0.65-23.606,5.502-32.674,14.57c-9.069,9.069-13.921,20.778-14.571,32.675 c-11.898,0.65-23.606,5.502-32.674,14.57c-15.398,15.398-18.652,38.401-9.78,57.025l-24.979,24.98 c-58.754,58.754-58.759,153.848,0,212.607c58.756,58.756,153.848,58.759,212.607,0l24.958-24.958 c18.249,8.736,41.331,5.917,57.048-9.801c9.069-9.069,13.921-20.778,14.571-32.675c11.898-0.65,23.606-5.503,32.674-14.572 c9.068-9.068,13.921-20.776,14.571-32.674c11.898-0.65,23.606-5.502,32.674-14.571c15.399-15.399,18.652-38.403,9.78-57.026 l24.979-24.979C526.599,198.057,526.599,102.682,467.984,44.065z M233.101,444.308c-45.697,45.699-119.658,45.703-165.36,0.001 c-45.698-45.698-45.702-119.66,0-165.361L90.689,256l23.623,23.623L91.364,302.57c-32.564,32.564-32.564,85.551,0,118.115 c32.607,32.607,85.508,32.606,118.114,0l22.948-22.948l23.623,23.623L233.101,444.308z M138.611,373.44 c6.521,6.522,17.098,6.525,23.623,0l22.948-22.947l23.623,23.623l-22.948,22.948c-19.539,19.538-51.33,19.538-70.869,0 c-19.538-19.539-19.538-51.332,0-70.871l22.948-22.947l23.624,23.624l-22.948,22.947 C132.088,356.34,132.088,366.917,138.611,373.44z M315.107,409.551c-6.529,6.529-17.093,6.529-23.623,0 c-1.373-1.373-187.383-187.383-188.985-188.985c-6.529-6.529-6.529-17.094,0-23.623c6.53-6.529,17.094-6.529,23.623,0 l188.985,188.984C321.636,392.455,321.637,403.022,315.107,409.551z M362.354,362.304c-6.53,6.529-17.094,6.529-23.624,0 L149.746,173.32c-6.528-6.528-6.529-17.095,0-23.624c6.53-6.529,17.094-6.529,23.624,0l188.985,188.985 C368.882,345.209,368.883,355.775,362.354,362.304z M409.601,315.058c-6.53,6.529-17.094,6.529-23.623,0L196.993,126.073 c-6.529-6.529-6.529-17.095,0-23.624c6.512-6.51,17.108-6.512,23.621-0.002c0,0,0.001,0.001,0.002,0.002 c0.002,0.001,0.003,0.003,0.006,0.004c2.369,2.369,186.87,186.871,188.979,188.981 C416.129,297.963,416.129,308.53,409.601,315.058z M373.491,138.56c-6.522-6.522-17.099-6.522-23.623,0l-22.948,22.948 l-23.623-23.623l22.948-22.947c19.552-19.552,51.318-19.549,70.869,0c19.55,19.55,19.55,51.319,0,70.87l-22.948,22.946 l-23.623-23.623l22.948-22.948C380.013,155.661,380.013,145.084,373.491,138.56z M421.412,256l-23.624-23.624l22.948-22.947 c32.607-32.606,32.607-85.508,0-118.114c-32.606-32.607-85.508-32.61-118.115,0l-22.947,22.947l-23.624-23.623l22.948-22.947 c45.698-45.698,119.66-45.702,165.361,0c45.591,45.59,45.591,119.771,0.001,165.361L421.412,256z"/> </g> </g> </g>
</svg>