<!DOCTYPE svg PUBLIC "-//W3C//DTD SVG 1.1//EN" "http://www.w3.org/Graphics/SVG/1.1/DTD/svg11.dtd">
<!-- Uploaded to: SVG Repo, www.svgrepo.com, Transformed by: SVG Repo Mixer Tools -->
<svg version="1.1" id="_x32_" xmlns="http://www.w3.org/2000/svg" xmlns:xlink="http://www.w3.org/1999/xlink" width="800px" height="800px" viewBox="0 0 512 512" xml:space="preserve" fill="#ffffff">
<g id="SVGRepo_bgCarrier" stroke-width="0"/>
<g id="SVGRepo_tracerCarrier" stroke-linecap="round" stroke-linejoin="round"/>
<g id="SVGRepo_iconCarrier"> <style type="text/css">  .st0{fill:#ffffff;}  </style> <g> <path class="st0" d="M475.606,295.503L434.2,207.722c0.109-2.625,0.203-5.25,0.203-7.906c0-110.344-89.469-199.813-199.828-199.813 S34.747,89.472,34.747,199.815c0,62.063,28.281,117.516,72.672,154.172v70.625c0,6.891,4.109,13.125,10.453,15.813l165.5,70.203 c5.297,2.25,11.375,1.703,16.172-1.469c4.813-3.188,7.703-8.563,7.703-14.313v-59.859c0-9.469,7.688-17.172,17.156-17.172h84.766 c9.484,0,17.156-7.688,17.156-17.156V349.05c0-6.578,3.766-12.578,9.672-15.453l31.578-15.328 C476.044,314.144,479.622,304.003,475.606,295.503z"/> </g> </g>
</svg>