<!DOCTYPE svg PUBLIC "-//W3C//DTD SVG 1.1//EN" "http://www.w3.org/Graphics/SVG/1.1/DTD/svg11.dtd">
<!-- Uploaded to: SVG Repo, www.svgrepo.com, Transformed by: SVG Repo Mixer Tools -->
<svg fill="#ffffff" height="800px" width="800px" version="1.1" id="Layer_1" xmlns="http://www.w3.org/2000/svg" xmlns:xlink="http://www.w3.org/1999/xlink" viewBox="0 0 512.034 512.034" xml:space="preserve">
<g id="SVGRepo_bgCarrier" stroke-width="0"/>
<g id="SVGRepo_tracerCarrier" stroke-linecap="round" stroke-linejoin="round"/>
<g id="SVGRepo_iconCarrier"> <g transform="translate(-1)"> <g> <path d="M512.437,243.268l-21.333-88.277c-1.477-6.11-5.573-11.259-11.196-14.07l-38.162-19.081l-60.978-81.304 c-8.533-11.378-25.6-11.378-34.133,0l-60.306,80.407l-55.529,21.239l-19.025-35.029c-8.232-15.157-30.114-14.786-37.828,0.641 l-22.093,44.185L105.976,44.931c-6.967-16.257-29.555-17.462-38.212-2.038l-64,114.027c-1.79,3.189-2.73,6.785-2.73,10.442v290.28 c-0.076,1.565,0.023,3.115,0.286,4.625c1.134,7.328,5.684,12.667,11.45,15.484c1.929,0.971,4.045,1.654,6.303,1.996 c0.035,0.006,0.069,0.012,0.104,0.017c0.313,0.046,0.63,0.081,0.949,0.113c1.102,0.124,2.211,0.166,3.321,0.124h354.967 c0.001,0,0.002,0,0.003,0c0.001,0,0.002,0,0.003,0h113.28c11.782,0,21.333-9.551,21.333-21.333V248.279 C513.034,246.591,512.834,244.908,512.437,243.268z M83.799,101.498l43.06,100.473L43.701,368.286V172.939L83.799,101.498z M56.885,437.335l112.563-225.126c0.031-0.062,0.057-0.126,0.088-0.188l24.274-48.547l148.741,273.862H56.885z M470.367,437.335 h-79.039L255.662,178.353l51.66-19.759c3.757-1.437,7.032-3.907,9.445-7.126l46.933-62.578l46.933,62.578 c1.987,2.65,4.564,4.8,7.526,6.281l33.8,16.9l18.408,76.171V437.335z"/> </g> </g> </g>
</svg>