<!DOCTYPE svg PUBLIC "-//W3C//DTD SVG 1.1//EN" "http://www.w3.org/Graphics/SVG/1.1/DTD/svg11.dtd">
<!-- Uploaded to: SVG Repo, www.svgrepo.com, Transformed by: SVG Repo Mixer Tools -->
<svg fill="#ffffff" width="800px" height="800px" viewBox="0 0 14 14" role="img" focusable="false" aria-hidden="true" xmlns="http://www.w3.org/2000/svg">
<g id="SVGRepo_bgCarrier" stroke-width="0"/>
<g id="SVGRepo_tracerCarrier" stroke-linecap="round" stroke-linejoin="round"/>
<g id="SVGRepo_iconCarrier">
<path d="m 5.8,2.3764705 c 0.941176,0 1.811765,0.376471 2.423529,1.011765 l -1.741176,1.741176 4.117647,0 0,-4.117647 -1.411765,1.411765 C 8.317647,1.5529415 7.117647,1.0117645 5.8,1.0117645 c -2.423529,0 -4.423529,1.788236 -4.752941,4.117647 l 1.388235,0 C 2.741176,3.5529415 4.129412,2.3764705 5.8,2.3764705 Z m 3.8588235,6.282353 c 0.4470585,-0.611764 0.7764705,-1.341176 0.8705885,-2.164706 l -1.388236,0 c -0.305882,1.552942 -1.694117,2.752942 -3.364705,2.752942 -0.941177,0 -1.811765,-0.376471 -2.42353,-1.011765 L 5.094118,6.4941175 1,6.4941175 1,10.611765 2.411765,9.2000005 C 3.282353,10.070589 4.482353,10.611765 5.8,10.611765 c 1.058824,0 2.047059,-0.352942 2.847059,-0.9411765 L 11.988235,12.988236 13,11.97647 9.6588235,8.6588235 Z"/>
</g>
</svg>