<!DOCTYPE svg PUBLIC "-//W3C//DTD SVG 1.1//EN" "http://www.w3.org/Graphics/SVG/1.1/DTD/svg11.dtd">
<!-- Uploaded to: SVG Repo, www.svgrepo.com, Transformed by: SVG Repo Mixer Tools -->
<svg fill="#ffffff" version="1.1" id="Capa_1" xmlns="http://www.w3.org/2000/svg" xmlns:xlink="http://www.w3.org/1999/xlink" width="800px" height="800px" viewBox="0 0 358.029 358.03" xml:space="preserve">
<g id="SVGRepo_bgCarrier" stroke-width="0"/>
<g id="SVGRepo_tracerCarrier" stroke-linecap="round" stroke-linejoin="round"/>
<g id="SVGRepo_iconCarrier"> <g> <g> <path d="M189.854,71.857c-4.781,2.238-12.144,2.161-16.868-0.201c-16.008-7.975-34.014-12.517-53.11-12.517 C53.674,59.139,0,112.813,0,179.014C0,245.215,53.665,298.89,119.875,298.89c19.097,0,37.103-4.552,53.11-12.527 c4.724-2.352,12.086-2.438,16.868-0.19c15.166,7.114,32.055,11.13,49.889,11.13c65.225,0,118.287-53.062,118.287-118.288 c0-65.226-53.062-118.288-118.287-118.288C221.908,60.727,205.02,64.743,189.854,71.857z M205.747,274.439 c-4.973-1.788-5.527-6.379-1.769-10.089c22.061-21.735,35.754-51.924,35.754-85.336c0-33.411-13.693-63.6-35.754-85.335 c-3.759-3.71-3.204-8.3,1.769-10.088c10.634-3.834,22.052-5.967,33.985-5.967c55.902,0,101.391,45.479,101.391,101.382 c0,55.911-45.488,101.391-101.391,101.391C227.799,280.396,216.381,278.264,205.747,274.439z"/> </g> </g> </g>
</svg>