<!DOCTYPE svg PUBLIC "-//W3C//DTD SVG 1.1//EN" "http://www.w3.org/Graphics/SVG/1.1/DTD/svg11.dtd">
<!-- Uploaded to: SVG Repo, www.svgrepo.com, Transformed by: SVG Repo Mixer Tools -->
<svg fill="#ffffff" version="1.1" id="Capa_1" xmlns="http://www.w3.org/2000/svg" xmlns:xlink="http://www.w3.org/1999/xlink" width="800px" height="800px" viewBox="0 0 990.7 990.7" xml:space="preserve">
<g id="SVGRepo_bgCarrier" stroke-width="0"/>
<g id="SVGRepo_tracerCarrier" stroke-linecap="round" stroke-linejoin="round"/>
<g id="SVGRepo_iconCarrier"> <g> <path d="M943.35,204.3h-896c-16.6,0-30,13.4-30,30v522c0,16.6,13.4,30,30,30h896c16.6,0,30-13.4,30-30v-522 C973.35,217.7,959.95,204.3,943.35,204.3z M193.35,286.8h382c12.4,0,22.5,10.1,22.5,22.5s-10.1,22.5-22.5,22.5h-382 c-12.4,0-22.5-10.1-22.5-22.5S180.95,286.8,193.35,286.8z M193.35,410.8h522c12.4,0,22.5,10.1,22.5,22.5s-10.1,22.5-22.5,22.5h-522 c-12.4,0-22.5-10.1-22.5-22.5S180.95,410.8,193.35,410.8z M193.35,534.8h454c12.4,0,22.5,10.1,22.5,22.5s-10.1,22.5-22.5,22.5h-454 c-12.4,0-22.5-10.1-22.5-22.5S180.95,534.8,193.35,534.8z M797.35,703.8h-604c-12.4,0-22.5-10.1-22.5-22.5s10.1-22.5,22.5-22.5h604 c12.4,0,22.5,10.1,22.5,22.5S809.75,703.8,797.35,703.8z"/> <path d="M943.35,853h-896c-16.6,0-30,13.399-30,30v77.7c0,16.6,13.4,30,30,30h896c16.6,0,30-13.4,30-30V883 C973.35,866.399,959.95,853,943.35,853z"/> <path d="M943.35,0h-896c-16.6,0-30,13.4-30,30v77.7c0,16.6,13.4,30,30,30h896c16.6,0,30-13.4,30-30V30 C973.35,13.4,959.95,0,943.35,0z"/> </g> </g>
</svg>