<!DOCTYPE svg PUBLIC "-//W3C//DTD SVG 1.1//EN" "http://www.w3.org/Graphics/SVG/1.1/DTD/svg11.dtd">
<!-- Uploaded to: SVG Repo, www.svgrepo.com, Transformed by: SVG Repo Mixer Tools -->
<svg width="800px" height="800px" viewBox="0 0 512 512" version="1.1" xmlns="http://www.w3.org/2000/svg" xmlns:xlink="http://www.w3.org/1999/xlink" fill="#ffffff" stroke="#ffffff">
<g id="SVGRepo_bgCarrier" stroke-width="0"/>
<g id="SVGRepo_tracerCarrier" stroke-linecap="round" stroke-linejoin="round"/>
<g id="SVGRepo_iconCarrier"> <title>spatial</title> <g id="Page-1" stroke="none" stroke-width="1" fill="none" fill-rule="evenodd"> <g id="icon" fill="#ffffff" transform="translate(42.666667, 40.831848)"> <path d="M258.454442,2.13162821e-14 L426.666667,96.1212711 L426.666667,348.100799 L168.212224,430.336304 L3.55271368e-14,334.215033 L3.55271368e-14,82.2355043 L258.454442,2.13162821e-14 Z M254.741333,258.752152 L192,278.718 L192,377.991 L366.336,322.507 L254.741333,258.752152 Z M149.333,292.295 L61.547,320.231 L149.333,370.405 L149.333,292.295 Z M384,137.676 L266.666,175.01 L266.666,240.978 L384,308.026 L384,137.676 Z M42.666,134.595 L42.666,303.853 L149.333,269.914 L149.333,195.548 L42.666,134.595 Z M245.333,181.797 L192,198.767 L192,256.338 L245.333,239.368 L245.333,181.797 Z M245.333,48.921 L74.088,103.41 L173.12,160.000152 L245.333,137.023 L245.333,48.921 Z M266.666,53.826 L266.666,130.235 L352.539,102.912 L266.666,53.826 Z" id="Combined-Shape"> </path> </g> </g> </g>
</svg>