<!DOCTYPE svg PUBLIC "-//W3C//DTD SVG 1.1//EN" "http://www.w3.org/Graphics/SVG/1.1/DTD/svg11.dtd">
<!-- Uploaded to: SVG Repo, www.svgrepo.com, Transformed by: SVG Repo Mixer Tools -->
<svg fill="#ffffff" width="800px" height="800px" viewBox="0 0 32 32" xmlns="http://www.w3.org/2000/svg">
<g id="SVGRepo_bgCarrier" stroke-width="0"/>
<g id="SVGRepo_tracerCarrier" stroke-linecap="round" stroke-linejoin="round"/>
<g id="SVGRepo_iconCarrier"> <title/> <g data-name="Layer 45" id="Layer_45"> <path d="M29.33,15.06l-26-9A1,1,0,0,0,2.09,7.41L5.91,16,2.09,24.59a1,1,0,0,0,.17,1.09A1,1,0,0,0,3,26a1,1,0,0,0,.33-.06l26-9a1,1,0,0,0,0-1.88ZM4.85,23.3l3.06-6.89a1,1,0,0,0,0-.82L4.85,8.7,25.94,16Z"/> </g> </g>
</svg>