<?xml version="1.0" encoding="UTF-8" standalone="no"?>
<!DOCTYPE svg PUBLIC "-//W3C//DTD SVG 1.1//EN" "http://www.w3.org/Graphics/SVG/1.1/DTD/svg11.dtd">
<svg width="100%" height="100%" viewBox="0 0 128 128" version="1.1" xmlns="http://www.w3.org/2000/svg" xmlns:xlink="http://www.w3.org/1999/xlink" xml:space="preserve" xmlns:serif="http://www.serif.com/" style="fill-rule:evenodd;clip-rule:evenodd;stroke-linejoin:round;stroke-miterlimit:1.5;">
    <path d="M29.256,50.253C29.087,48.858 29,47.439 29,46C29,26.683 44.683,11 64,11C83.317,11 99,26.683 99,46C99,47.439 98.913,48.858 98.744,50.253C110.702,55.82 119,67.949 119,82C119,101.317 103.317,117 84,117C76.567,117 69.672,114.678 64,110.719C58.328,114.678 51.433,117 44,117C24.683,117 9,101.317 9,82C9,67.949 17.298,55.82 29.256,50.253Z"/>
    <path d="M25.046,47.914C13.092,54.579 5,67.352 5,82C5,103.525 22.475,121 44,121C51.308,121 58.15,118.985 64,115.481C69.85,118.985 76.692,121 84,121C105.525,121 123,103.525 123,82C123,67.352 114.908,54.579 102.953,47.914C102.984,47.28 103,46.642 103,46C103,24.475 85.525,7 64,7C42.475,7 25,24.475 25,46C25,46.642 25.016,47.28 25.046,47.914ZM29.256,50.253C29.087,48.858 29,47.439 29,46C29,26.683 44.683,11 64,11C83.317,11 99,26.683 99,46C99,47.439 98.913,48.858 98.744,50.253C110.702,55.82 119,67.949 119,82C119,101.317 103.317,117 84,117C76.567,117 69.672,114.678 64,110.719C58.328,114.678 51.433,117 44,117C24.683,117 9,101.317 9,82C9,67.949 17.298,55.82 29.256,50.253Z"/>
    <g transform="matrix(1.09375,0,0,1.09375,-22.4062,-14.1562)">
        <circle cx="79" cy="55" r="32" style="fill:rgb(255,0,0);"/>
    </g>
    <g transform="matrix(1.09375,0,0,1.09375,-42.4062,21.8438)">
        <circle cx="79" cy="55" r="32" style="fill:rgb(0,255,0);"/>
    </g>
    <g transform="matrix(1.09375,0,0,1.09375,-2.40625,21.8438)">
        <circle cx="79" cy="55" r="32" style="fill:rgb(0,0,255);"/>
    </g>
    <path d="M64,53.281C73.064,59.608 79,70.116 79,82C79,93.884 73.064,104.392 64,110.719C54.936,104.392 49,93.884 49,82C49,70.116 54.936,59.608 64,53.281Z" style="fill:rgb(0,255,255);stroke:rgb(0,255,255);stroke-width:0.2px;"/>
    <path d="M49.256,77.747C51.357,60.433 66.122,47 84,47C89.266,47 94.262,48.165 98.744,50.253C96.643,67.567 81.878,81 64,81C58.734,81 53.738,79.835 49.256,77.747Z" style="fill:rgb(255,0,255);stroke:rgb(255,0,255);stroke-width:0.2px;"/>
    <path d="M29.256,50.253C33.738,48.165 38.734,47 44,47C61.878,47 76.643,60.433 78.744,77.747C74.262,79.835 69.266,81 64,81C46.122,81 31.357,67.567 29.256,50.253Z" style="fill:rgb(255,255,0);stroke:rgb(255,255,0);stroke-width:0.2px;"/>
    <path d="M64,53.281C71.967,58.842 77.517,67.632 78.744,77.747C74.262,79.835 69.266,81 64,81C58.734,81 53.738,79.835 49.256,77.747C50.483,67.633 56.033,58.842 64,53.281Z" style="fill:white;stroke:white;stroke-width:0.2px;"/>
</svg>
