<!DOCTYPE svg PUBLIC "-//W3C//DTD SVG 1.1//EN" "http://www.w3.org/Graphics/SVG/1.1/DTD/svg11.dtd">
<!-- Uploaded to: SVG Repo, www.svgrepo.com, Transformed by: SVG Repo Mixer Tools -->
<svg fill="#ffffff" height="800px" width="800px" version="1.1" id="Capa_1" xmlns="http://www.w3.org/2000/svg" xmlns:xlink="http://www.w3.org/1999/xlink" viewBox="0 0 451.18 451.18" xml:space="preserve">
<g id="SVGRepo_bgCarrier" stroke-width="0"/>
<g id="SVGRepo_tracerCarrier" stroke-linecap="round" stroke-linejoin="round"/>
<g id="SVGRepo_iconCarrier"> <path d="M421.94,118.059c-17.89-17.148-42.21-26.983-66.725-26.983c-16.564,0-33.091,4.486-47.791,12.974l-34.021,19.638 c-3.286-7.429-10.715-12.633-19.347-12.633h-0.772c-5.203,0-9.966,1.897-13.654,5.024c-3.688-3.127-8.451-5.024-13.654-5.024h-0.772 c-5.203,0-9.966,1.897-13.654,5.024c-3.688-3.127-8.451-5.024-13.654-5.024h-0.772c-8.632,0-16.062,5.204-19.347,12.634 l-34.021-19.638c-30.003-17.324-65.829-17.328-95.836-0.005C17.914,121.367,0,152.393,0,187.04 c0,26.412,10.386,50.911,29.245,68.985c17.891,17.145,42.212,26.979,66.729,26.979c16.569,0,33.092-4.483,47.782-12.964 l34.02-19.646c3.286,7.43,10.715,12.634,19.347,12.634h0.772c5.203,0,9.966-1.897,13.654-5.024 c3.688,3.127,8.451,5.024,13.654,5.024h0.772c2.141,0,4.205-0.325,6.154-0.919v76.864c0,11.665,9.49,21.154,21.154,21.154h0.772 c11.664,0,21.154-9.49,21.154-21.154v-87.533l32.212,18.602c15.003,8.661,31.456,12.99,47.915,12.989 c16.458,0,32.922-4.333,47.925-12.995c30.003-17.324,47.916-48.35,47.916-82.994C451.18,160.631,440.796,136.133,421.94,118.059z M275.212,182.69l62.037,35.695c5.805,3.351,11.681,4.98,17.964,4.98h0.008c9.145,0,18.658-3.885,25.447-10.394 c7.11-6.815,10.869-15.781,10.869-25.931c0-24.779-21.677-36.324-36.326-36.324c-6.281,0-12.157,1.629-17.961,4.981l-39.395,22.744 l-14.822-8.558l46.799-27.023c8.012-4.622,16.552-6.966,25.384-6.966c24.597,0,51.144,19.554,51.144,51.144 c0,14.079-5.482,27.088-15.438,36.633c-9.617,9.222-22.631,14.51-35.705,14.51c-8.832,0-17.372-2.344-25.382-6.964l-54.622-31.54 V182.69z M312.961,187.041l31.789-18.353c3.511-2.027,6.835-2.971,10.461-2.971c6.681,0,21.326,5.37,21.326,21.324 c0,6.047-2.103,11.128-6.248,15.102c-4.005,3.838-9.778,6.223-15.068,6.223h-0.006c-3.63,0-6.956-0.945-10.467-2.971 L312.961,187.041z M153.22,178.381l-39.288-22.683c-5.806-3.352-11.681-4.981-17.961-4.981c-14.65,0-36.327,11.544-36.327,36.324 c0,24.779,21.677,36.324,36.327,36.324c6.28,0,12.155-1.629,17.961-4.98l62.037-35.817v17.11l-54.622,31.539 c-8.012,4.622-16.549,6.966-25.373,6.966c-24.601,0-51.153-19.553-51.153-51.143s26.553-51.144,51.153-51.144 c8.824,0,17.361,2.344,25.371,6.964l46.697,26.964L153.22,178.381z M106.433,205.394c-3.512,2.027-6.836,2.971-10.462,2.971 c-6.682,0-21.327-5.369-21.327-21.324s14.646-21.324,21.327-21.324c3.626,0,6.95,0.944,10.461,2.971l31.788,18.353L106.433,205.394z M136.255,257.049c-12.59,7.269-26.143,10.954-40.281,10.954c-20.686,0-41.225-8.313-56.35-22.809 C23.745,229.977,15,209.324,15,187.04c0-29.224,15.109-55.394,40.419-70.004c25.309-14.61,55.526-14.609,80.837,0.005l39.713,22.924 v17.116l-47.126-27.212c-10.32-5.954-21.38-8.973-32.869-8.973c-31.814,0-66.153,25.289-66.153,66.144s34.339,66.143,66.153,66.143 c11.489,0,22.549-3.019,32.871-8.974l47.124-27.21v17.116L136.255,257.049z M197.896,248.026h-0.772 c-3.394,0-6.154-2.761-6.154-6.154V132.209c0-3.394,2.761-6.154,6.154-6.154h0.772c3.394,0,6.154,2.761,6.154,6.154v109.664 C204.05,245.266,201.289,248.026,197.896,248.026z M225.977,248.026h-0.772c-3.394,0-6.154-2.761-6.154-6.154V132.209 c0-3.394,2.761-6.154,6.154-6.154h0.772c3.394,0,6.154,2.761,6.154,6.154v109.664C232.131,245.266,229.37,248.026,225.977,248.026z M260.212,338.971c0,3.394-2.761,6.154-6.154,6.154h-0.772c-3.394,0-6.154-2.761-6.154-6.154v-97.098V132.209 c0-3.394,2.761-6.154,6.154-6.154h0.772c3.394,0,6.154,2.761,6.154,6.154V338.971z M395.763,257.044 c-25.309,14.613-55.529,14.614-80.838,0.005l-39.713-22.933V217l47.124,27.21c10.32,5.954,21.383,8.973,32.88,8.973 c16.905,0,33.703-6.81,46.086-18.683c12.935-12.4,20.058-29.255,20.058-47.46c0-40.855-34.333-66.144-66.144-66.144 c-11.497,0-22.56,3.019-32.882,8.974l-47.122,27.209v-17.116l39.712-22.923c12.602-7.275,26.158-10.964,40.292-10.964 c20.684,0,41.221,8.314,56.345,22.812c15.876,15.219,24.619,35.871,24.619,58.152C436.18,216.262,421.07,242.431,395.763,257.044z"/> </g>
</svg>