<?xml version="1.0" encoding="UTF-8" standalone="no"?>
<!DOCTYPE svg PUBLIC "-//W3C//DTD SVG 1.1//EN" "http://www.w3.org/Graphics/SVG/1.1/DTD/svg11.dtd">
<svg width="100%" height="100%" viewBox="0 0 128 128" version="1.1" xmlns="http://www.w3.org/2000/svg" xmlns:xlink="http://www.w3.org/1999/xlink" xml:space="preserve" xmlns:serif="http://www.serif.com/" style="fill-rule:evenodd;clip-rule:evenodd;stroke-linejoin:round;stroke-miterlimit:2;">
    <g transform="matrix(1.05713,0,0,1.11111,-3.69447,-4.5337)">
        <path d="M118.382,61.585C109.032,69.082 100.356,75.749 92.008,80.004C83.661,84.26 74.921,86.73 64,87.083C53.079,86.73 44.339,84.26 35.992,80.004C27.644,75.749 19.04,68.865 9.69,61.368C19.04,53.871 27.644,47.612 35.992,43.356C44.339,39.1 53.079,36.631 64,36.278C74.921,36.631 83.661,39.1 92.008,43.356C100.356,47.612 109.032,54.087 118.382,61.585ZM112.485,61.589C104.669,67.775 97.329,73.207 90.221,76.831C82.402,80.818 74.215,83.133 64.002,83.48C53.786,83.134 45.598,80.818 37.779,76.831C30.67,73.207 23.387,67.61 15.584,61.382C23.385,55.276 30.673,50.152 37.779,46.529C45.598,42.543 53.785,40.227 63.998,39.88C74.214,40.227 82.402,42.543 90.221,46.529C97.328,50.153 104.669,55.44 112.485,61.589Z" style="fill:white;stroke:white;stroke-width:3.69px;"/>
    </g>
    <g transform="matrix(0.982509,0,0,0.982509,-2.95612,-0.230077)">
        <path d="M68.148,40.818C81.701,40.818 92.704,51.821 92.704,65.374C92.704,78.927 81.701,89.93 68.148,89.93C54.595,89.93 43.592,78.927 43.592,65.374C43.592,51.821 54.595,40.818 68.148,40.818ZM68.148,48.96C59.089,48.96 51.734,56.315 51.734,65.374C51.734,74.433 59.089,81.788 68.148,81.788C77.207,81.788 84.562,74.433 84.562,65.374C84.562,56.315 77.207,48.96 68.148,48.96Z" style="fill:white;"/>
    </g>
    <g transform="matrix(1.62209,0,0,1.62209,-45.5665,-41.7014)">
        <circle cx="62.292" cy="59.094" r="5.716" style="fill:white;"/>
    </g>
</svg>
