<!DOCTYPE svg PUBLIC "-//W3C//DTD SVG 1.1//EN" "http://www.w3.org/Graphics/SVG/1.1/DTD/svg11.dtd">
<!-- Uploaded to: SVG Repo, www.svgrepo.com, Transformed by: SVG Repo Mixer Tools -->
<svg fill="#ffffff" height="800px" width="800px" version="1.1" id="Capa_1" xmlns="http://www.w3.org/2000/svg" xmlns:xlink="http://www.w3.org/1999/xlink" viewBox="0 0 494.347 494.347" xml:space="preserve">
<g id="SVGRepo_bgCarrier" stroke-width="0"/>
<g id="SVGRepo_tracerCarrier" stroke-linecap="round" stroke-linejoin="round"/>
<g id="SVGRepo_iconCarrier"> <g> <path d="M277.04,266.007c7.069,0,14.075-3.021,18.959-8.861l54.209-64.941c4.9-5.873,6.811-13.689,5.157-21.16 c-1.654-7.463-6.684-13.745-13.608-16.999c0,0-105.998-50.335-116.323-50.409c-0.128,0-0.24,0-0.354,0 c-7.543,0-14.612,1.832-21.011,4.861C203.059,108.86,103.36,160,103.36,160c-6.636,3.414-11.359,9.632-12.869,16.926 c-1.511,7.294,0.354,14.886,5.076,20.646l57.278,69.955c4.868,5.961,11.954,9.045,19.104,9.045c1.151,0,2.272-0.375,3.413-0.575 l7.979,95.272l-17.127,88.512c-3.021,15.609,7.182,30.72,22.782,33.74c1.863,0.353,3.694,0.53,5.511,0.53 c13.512,0,25.578-9.568,28.229-23.329l17.883-92.392c0.498-2.579,0.643-5.206,0.434-7.824l-4.417-53.934 c0.135-0.035,0.265-0.087,0.399-0.124l44.104,20.213l10.219,70.388c2.072,14.332,14.38,24.663,28.454,24.654 c1.366,0,2.764-0.096,4.161-0.297c15.746-2.281,26.655-16.894,24.357-32.631l-12.468-85.9c-1.397-9.672-7.615-17.971-16.501-22.036 l-45.734-20.956l0.021-4.46C274.786,265.583,275.895,266.007,277.04,266.007z M274.271,176.885l17.551,8.242l-17.759,21.276 L274.271,176.885z M175.269,217.022l-22.199-27.114l22.473-11.574L175.269,217.022z"/> <path d="M258.725,93.442c25.047-8.925,38.093-36.438,29.191-61.462c-8.917-25.024-36.438-38.094-61.47-29.178 c-25.032,8.917-38.079,36.424-29.177,61.457C206.188,89.29,233.71,102.351,258.725,93.442z"/> <path d="M391.403,443.094H264.942c-7.165,0-12.964,5.808-12.964,12.973v25.305c0,7.167,5.799,12.975,12.964,12.975h126.461 c7.166,0,12.967-5.808,12.967-12.975v-25.305C404.37,448.902,398.569,443.094,391.403,443.094z"/> </g> </g>
</svg>