<!DOCTYPE svg PUBLIC "-//W3C//DTD SVG 1.1//EN" "http://www.w3.org/Graphics/SVG/1.1/DTD/svg11.dtd">
<!-- Uploaded to: SVG Repo, www.svgrepo.com, Transformed by: SVG Repo Mixer Tools -->
<svg fill="#ffffff" width="800px" height="800px" viewBox="0 0 24 24" xmlns="http://www.w3.org/2000/svg">
<g id="SVGRepo_bgCarrier" stroke-width="0"/>
<g id="SVGRepo_tracerCarrier" stroke-linecap="round" stroke-linejoin="round"/>
<g id="SVGRepo_iconCarrier">
<path d="M22.929,6.628l-2-5A1,1,0,0,0,20,1H4a1,1,0,0,0-.929.628l-2,5A1.012,1.012,0,0,0,1,7V22a1,1,0,0,0,1,1H22a1,1,0,0,0,1-1V7A1.012,1.012,0,0,0,22.929,6.628ZM4.677,3H19.323l1.2,3H3.477ZM3,21V8H21V21Zm12.707-7.707a1,1,0,1,1-1.414,1.414L13,13.414V18a1,1,0,0,1-2,0V13.414L9.707,14.707a1,1,0,0,1-1.414-1.414l3-3a1,1,0,0,1,1.414,0Z"/>
</g>
</svg>