<!DOCTYPE svg PUBLIC "-//W3C//DTD SVG 1.1//EN" "http://www.w3.org/Graphics/SVG/1.1/DTD/svg11.dtd">
<!-- Uploaded to: SVG Repo, www.svgrepo.com, Transformed by: SVG Repo Mixer Tools -->
<svg fill="#ffffff" height="800px" width="800px" version="1.1" id="Layer_1" xmlns="http://www.w3.org/2000/svg" xmlns:xlink="http://www.w3.org/1999/xlink" viewBox="0 0 512 512" xml:space="preserve">
<g id="SVGRepo_bgCarrier" stroke-width="0"/>
<g id="SVGRepo_tracerCarrier" stroke-linecap="round" stroke-linejoin="round"/>
<g id="SVGRepo_iconCarrier"> <g> <g> <path d="M415.055,75.785C372.731,26.915,316.245,0,255.999,0S139.267,26.915,96.944,75.785 C55.208,123.978,32.223,187.979,32.223,256s22.985,132.022,64.721,180.215C139.268,485.085,195.754,512,256,512 s116.732-26.915,159.056-75.785c41.737-48.193,64.721-112.194,64.721-180.215S456.79,123.978,415.055,75.785z M255.999,475.582 c-103.31,0-187.357-98.504-187.357-219.582S152.69,36.418,255.999,36.418S443.357,134.922,443.357,256 S359.309,475.582,255.999,475.582z"/> </g> </g> <g> <g> <path d="M368.293,123.334C338.56,86.794,298.68,66.67,255.999,66.67c-42.681,0-82.561,20.123-112.294,56.663 C114.809,158.848,98.893,205.963,98.893,256s15.915,97.153,44.813,132.668c29.733,36.54,69.612,56.663,112.294,56.663 c42.682,0,82.561-20.123,112.294-56.663c28.897-35.514,44.813-82.629,44.813-132.668 C413.107,205.962,397.19,158.848,368.293,123.334z M255.999,408.912c-66.547,0-120.687-68.595-120.687-152.911 s54.141-152.912,120.687-152.912S376.687,171.684,376.687,256S322.546,408.912,255.999,408.912z"/> </g> </g> <g> <g> <path d="M307.236,154.762c-7.11-7.113-18.641-7.112-25.753,0L172.425,263.82c-7.11,7.112-7.11,18.641,0,25.753 c3.556,3.556,8.216,5.333,12.876,5.333c4.659,0,9.322-1.778,12.876-5.333l109.058-109.058 C314.347,173.402,314.347,161.872,307.236,154.762z"/> </g> </g> <g> <g> <path d="M339.594,222.561c-7.112-7.11-18.64-7.11-25.753,0L204.841,331.562c-7.11,7.112-7.11,18.641,0,25.753 c3.556,3.556,8.216,5.334,12.876,5.334c4.66,0,9.32-1.778,12.876-5.334l109.001-109.001 C346.704,241.203,346.704,229.673,339.594,222.561z"/> </g> </g> </g>
</svg>