<?xml version="1.0" encoding="UTF-8" standalone="no"?>
<!DOCTYPE svg PUBLIC "-//W3C//DTD SVG 1.1//EN" "http://www.w3.org/Graphics/SVG/1.1/DTD/svg11.dtd">
<svg width="100%" height="100%" viewBox="0 0 128 128" version="1.1" xmlns="http://www.w3.org/2000/svg" xmlns:xlink="http://www.w3.org/1999/xlink" xml:space="preserve" xmlns:serif="http://www.serif.com/" style="fill-rule:evenodd;clip-rule:evenodd;stroke-linecap:round;stroke-miterlimit:1.5;">
    <g transform="matrix(1,0,0,1,-10.187,-16.3745)">
        <path d="M81.345,107.036L70,97L70,107.036L56.346,107.036L56.346,111L70,111L70,120L81.304,111L94.156,111L94.156,107.036L81.345,107.036Z" style="fill:white;"/>
    </g>
    <g transform="matrix(0.507955,0.861384,-0.861384,0.507955,140.719,-56.8217)">
        <path d="M81.345,107.036L70,97L70,107.036L50.81,107.036L50.81,111L70,111L70,120L81.304,111L95.455,111L95.455,107.036L81.345,107.036Z" style="fill:white;"/>
    </g>
    <g transform="matrix(-0.545378,0.83819,-0.83819,-0.545378,175.198,59.2308)">
        <path d="M81.345,107.036L70,97L70,107.036L50.382,107.036L50.382,111L70,111L70,120L81.304,111L95.142,111L95.142,107.036L81.345,107.036Z" style="fill:white;"/>
    </g>
    <g transform="matrix(0.84006,0,0,0.890965,9.22844,7.92982)">
        <rect x="40.009" y="10.02" width="50.381" height="29.636" style="fill:none;stroke:white;stroke-width:11.55px;"/>
    </g>
    <g transform="matrix(0.81349,0,0,0.92457,48.4638,69.1611)">
        <rect x="40.009" y="10.02" width="50.381" height="29.636" style="fill:none;stroke:white;stroke-width:11.48px;"/>
    </g>
    <g transform="matrix(0.825746,0,0,0.859915,-25.7546,70.6225)">
        <rect x="40.009" y="10.02" width="50.381" height="29.636" style="fill:none;stroke:white;stroke-width:11.86px;"/>
    </g>
</svg>
