<?xml version="1.0" encoding="UTF-8" standalone="no"?>
<!DOCTYPE svg PUBLIC "-//W3C//DTD SVG 1.1//EN" "http://www.w3.org/Graphics/SVG/1.1/DTD/svg11.dtd">
<svg width="100%" height="100%" viewBox="0 0 128 128" version="1.1" xmlns="http://www.w3.org/2000/svg" xmlns:xlink="http://www.w3.org/1999/xlink" xml:space="preserve" xmlns:serif="http://www.serif.com/" style="fill-rule:evenodd;clip-rule:evenodd;stroke-linecap:round;stroke-miterlimit:1.5;">
    <g transform="matrix(1,0,0,1,-9.19361,-16.3745)">
        <path d="M81.345,107.036L70,97L70,107.036L43.291,107.036L43.291,111L70,111L70,120L81.304,111L103.096,111L103.096,107.036L81.345,107.036Z" style="fill:rgb(128,128,128);"/>
        <path d="M82.861,103.036L72.65,94.004C71.472,92.961 69.792,92.707 68.357,93.353C66.922,93.999 66,95.427 66,97L66,103.036C66,103.036 43.291,103.036 43.291,103.036C41.082,103.036 39.291,104.827 39.291,107.036L39.291,111C39.291,113.209 41.082,115 43.291,115L66,115C66,115 66,120 66,120C66,121.536 66.879,122.936 68.263,123.603C69.647,124.27 71.29,124.086 72.491,123.129L82.702,115C82.702,115 103.096,115 103.096,115C105.305,115 107.096,113.209 107.096,111L107.096,107.036C107.096,104.827 105.305,103.036 103.096,103.036L82.861,103.036ZM81.345,107.036L70,97L70,107.036L43.291,107.036L43.291,111L70,111L70,120L81.304,111L103.096,111L103.096,107.036L81.345,107.036Z"/>
    </g>
    <g transform="matrix(0.507955,0.861384,-0.861384,0.507955,138.448,-58.6665)">
        <path d="M81.345,107.036L70,97L70,107.036L43.291,107.036L43.291,111L70,111L70,120L81.304,111L103.096,111L103.096,107.036L81.345,107.036Z" style="fill:rgb(128,128,128);"/>
        <path d="M82.861,103.036L72.65,94.004C71.472,92.961 69.792,92.707 68.357,93.353C66.922,93.999 66,95.427 66,97L66,103.036C66,103.036 43.291,103.036 43.291,103.036C41.082,103.036 39.291,104.827 39.291,107.036L39.291,111C39.291,113.209 41.082,115 43.291,115L66,115C66,115 66,120 66,120C66,121.536 66.879,122.936 68.263,123.603C69.647,124.27 71.29,124.086 72.491,123.129L82.702,115C82.702,115 103.096,115 103.096,115C105.305,115 107.096,113.209 107.096,111L107.096,107.036C107.096,104.827 105.305,103.036 103.096,103.036L82.861,103.036ZM81.345,107.036L70,97L70,107.036L43.291,107.036L43.291,111L70,111L70,120L81.304,111L103.096,111L103.096,107.036L81.345,107.036Z"/>
    </g>
    <g transform="matrix(-0.545378,0.83819,-0.83819,-0.545378,177.327,57.2441)">
        <path d="M81.345,107.036L70,97L70,107.036L43.291,107.036L43.291,111L70,111L70,120L81.304,111L103.096,111L103.096,107.036L81.345,107.036Z" style="fill:rgb(128,128,128);"/>
        <path d="M82.861,103.036L72.65,94.004C71.472,92.961 69.792,92.707 68.357,93.353C66.922,93.999 66,95.427 66,97L66,103.036C66,103.036 43.291,103.036 43.291,103.036C41.082,103.036 39.291,104.827 39.291,107.036L39.291,111C39.291,113.209 41.082,115 43.291,115L66,115C66,115 66,120 66,120C66,121.536 66.879,122.936 68.263,123.603C69.647,124.27 71.29,124.086 72.491,123.129L82.702,115C82.702,115 103.096,115 103.096,115C105.305,115 107.096,113.209 107.096,111L107.096,107.036C107.096,104.827 105.305,103.036 103.096,103.036C103.096,103.036 82.861,103.036 82.861,103.036ZM81.345,107.036L70,97L70,107.036L43.291,107.036L43.291,111L70,111L70,120L81.304,111L103.096,111L103.096,107.036L81.345,107.036Z"/>
    </g>
    <g transform="matrix(0.84006,0,0,0.890965,9.22844,7.92982)">
        <rect x="40.009" y="10.02" width="50.381" height="29.636" style="fill:rgb(132,94,194);stroke:black;stroke-width:4.62px;"/>
    </g>
    <g transform="matrix(0.81349,0,0,0.92457,49.1733,69.1611)">
        <rect x="40.009" y="10.02" width="50.381" height="29.636" style="fill:rgb(68,68,68);stroke:black;stroke-width:4.59px;"/>
    </g>
    <g transform="matrix(0.825746,0,0,0.859915,-27.8832,70.6225)">
        <rect x="40.009" y="10.02" width="50.381" height="29.636" style="fill:rgb(0,143,122);stroke:black;stroke-width:4.74px;"/>
    </g>
</svg>
