<!DOCTYPE svg PUBLIC "-//W3C//DTD SVG 1.1//EN" "http://www.w3.org/Graphics/SVG/1.1/DTD/svg11.dtd">
<!-- Uploaded to: SVG Repo, www.svgrepo.com, Transformed by: SVG Repo Mixer Tools -->
<svg fill="#ffffff" height="800px" width="800px" version="1.1" id="Layer_1" xmlns="http://www.w3.org/2000/svg" xmlns:xlink="http://www.w3.org/1999/xlink" viewBox="0 0 512 512" xml:space="preserve">
<g id="SVGRepo_bgCarrier" stroke-width="0"/>
<g id="SVGRepo_tracerCarrier" stroke-linecap="round" stroke-linejoin="round"/>
<g id="SVGRepo_iconCarrier"> <g> <g> <path d="M147.669,208.085c-0.725-5.867-6.123-10.091-11.861-9.323c-7.531,0.917-14.805,1.899-21.781,2.965 c-5.824,0.875-9.835,6.315-8.939,12.139c0.811,5.291,5.355,9.067,10.517,9.067c0.533,0,1.088-0.043,1.643-0.128 c6.784-1.045,13.824-1.984,21.099-2.859C144.213,219.243,148.373,213.931,147.669,208.085z"/> </g> </g> <g> <g> <path d="M462.464,215.936c-6.571-2.112-13.803-4.117-21.611-5.995c-5.995-1.387-11.52,2.176-12.885,7.893 c-1.387,5.739,2.133,11.477,7.872,12.864c7.253,1.749,13.952,3.605,20.053,5.568c1.067,0.341,2.176,0.512,3.264,0.512 c4.501,0,8.704-2.88,10.176-7.424C471.147,223.765,468.075,217.749,462.464,215.936z"/> </g> </g> <g> <g> <path d="M397.461,201.621c-7.04-1.045-14.272-2.027-21.76-2.923c-5.717-0.576-11.157,3.477-11.861,9.323 s3.477,11.157,9.323,11.861c7.275,0.875,14.315,1.813,21.12,2.837c0.533,0.064,1.088,0.107,1.6,0.107 c5.184,0,9.749-3.797,10.539-9.088C407.296,207.915,403.264,202.496,397.461,201.621z"/> </g> </g> <g> <g> <path d="M266.645,192.043L256,192l-11.179,0.043c-5.888,0.043-10.624,4.864-10.603,10.752c0.043,5.888,4.971,10.496,10.752,10.581 L256,213.333l10.432,0.043c0.043,0,0.085,0,0.107,0c5.867,0,10.603-4.693,10.667-10.581 C277.269,196.928,272.491,192.085,266.645,192.043z"/> </g> </g> <g> <g> <path d="M83.499,217.899c-1.408-5.717-7.211-9.237-12.885-7.829c-7.787,1.899-14.997,3.925-21.568,6.037 c-5.589,1.813-8.683,7.808-6.869,13.419c1.472,4.523,5.653,7.403,10.155,7.403c1.088,0,2.197-0.171,3.285-0.533 c6.101-1.963,12.8-3.84,20.053-5.611C81.387,229.397,84.885,223.637,83.499,217.899z"/> </g> </g> <g> <g> <path d="M512,255.979c0-0.064-0.021-0.107-0.021-0.149C511.893,114.731,397.099,0,256,0C114.837,0,0,114.837,0,256 s114.837,256,256,256c141.12,0,255.936-114.773,256-255.893C511.979,256.064,512,256.021,512,255.979z M22.187,239.083 c8.021-111.851,94.656-202.155,204.907-215.787c-19.861,35.989-29.483,107.648-33.173,170.475 c-4.885,0.277-9.792,0.533-14.549,0.875c-5.888,0.405-10.325,5.525-9.899,11.392c0.405,5.632,5.077,9.92,10.624,9.92 c0.277,0,0.533-0.021,0.747-0.043c3.947-0.277,8-0.491,12.032-0.725C192.277,229.845,192,243.733,192,256 c0,12.288,0.299,26.197,0.875,40.853C81.472,290.496,21.333,268.331,21.333,256c0-0.619,0.555-1.643,1.493-2.731 C26.368,249.045,25.941,242.965,22.187,239.083z M23.296,284.907c36.011,19.883,107.755,29.504,170.624,33.173 c3.669,62.848,13.291,134.592,33.173,170.624C120.811,475.563,36.437,391.189,23.296,284.907z M272.875,489.813 c-3.883-3.733-9.941-4.139-14.144-0.619c-1.088,0.917-2.112,1.472-2.731,1.472c-12.331,0-34.496-60.16-40.853-171.541 C229.803,319.701,243.691,320,256,320c12.288,0,26.155-0.299,40.811-0.875c-0.235,3.84-0.427,7.744-0.683,11.52 c-0.384,5.888,4.053,10.965,9.92,11.371c0.256,0.021,0.491,0.021,0.747,0.021c5.547,0,10.219-4.309,10.624-9.984 c0.32-4.565,0.555-9.301,0.832-13.973c62.827-3.691,134.464-13.312,170.453-33.173 C475.051,395.157,384.747,481.792,272.875,489.813z M256,298.667c-14.656,0-28.48-0.341-41.835-0.832 c-0.512-13.355-0.832-27.179-0.832-41.835c0-151.829,28.181-234.667,42.667-234.667c0.619,0,1.643,0.555,2.752,1.472 c1.984,1.664,4.437,2.496,6.848,2.496c2.667,0,5.227-1.173,7.253-3.115c115.904,8.299,208.619,100.992,216.939,216.917 c-3.733,3.883-4.16,9.963-0.619,14.144c0.939,1.109,1.493,2.133,1.493,2.752C490.667,270.485,407.829,298.667,256,298.667z"/> </g> </g> <g> <g> <path d="M319.936,244.779c-0.064-5.888-5.824-10.923-10.795-10.539c-5.888,0.064-10.603,4.907-10.539,10.795L298.667,256 l-0.043,10.496c-0.043,5.888,4.715,10.709,10.603,10.731c0.021,0,0.043,0,0.064,0c5.845,0,10.624-4.736,10.667-10.603L320,256 L319.936,244.779z"/> </g> </g> <g> <g> <path d="M313.259,135.787c-0.896-7.509-1.899-14.763-2.965-21.76c-0.875-5.824-6.571-9.685-12.117-8.96 c-5.845,0.875-9.835,6.315-8.96,12.139c1.024,6.784,1.984,13.845,2.88,21.12c0.64,5.419,5.248,9.387,10.56,9.387 c0.427,0,0.875-0.021,1.301-0.043C309.803,146.944,313.963,141.632,313.259,135.787z"/> </g> </g> <g> <g> <path d="M304.043,363.819c-5.653-0.619-11.179,3.456-11.883,9.323c-0.896,7.275-1.835,14.315-2.88,21.099 c-0.896,5.824,3.115,11.264,8.917,12.16c0.533,0.085,1.109,0.128,1.643,0.128c5.163,0,9.707-3.776,10.539-9.045 c1.088-7.019,2.069-14.272,2.965-21.781C314.048,369.856,309.867,364.544,304.043,363.819z"/> </g> </g> <g> <g> <path d="M294.165,427.968c-5.824-1.408-11.52,2.155-12.885,7.872c-1.749,7.253-3.605,13.995-5.568,20.096 c-1.792,5.589,1.301,11.605,6.912,13.397c1.067,0.341,2.176,0.491,3.243,0.491c4.523,0,8.725-2.88,10.197-7.403 c2.069-6.549,4.096-13.76,5.973-21.568C303.445,435.115,299.925,429.355,294.165,427.968z"/> </g> </g> <g> <g> <path d="M301.931,70.656c-1.92-7.808-3.904-15.04-6.037-21.589c-1.813-5.589-7.808-8.661-13.419-6.869 c-5.589,1.792-8.683,7.808-6.869,13.419c1.941,6.08,3.84,12.779,5.589,20.053c1.173,4.885,5.547,8.149,10.368,8.149 c0.832,0,1.664-0.085,2.517-0.277C299.797,82.155,303.296,76.395,301.931,70.656z"/> </g> </g> <g> <g> <path d="M332.096,194.624c-4.523-0.341-9.216-0.576-13.888-0.832c-0.277-4.843-0.533-9.728-0.853-14.464 c-0.405-5.888-6.123-10.432-11.392-9.877c-5.909,0.405-10.347,5.525-9.899,11.392c0.512,6.976,0.939,14.101,1.301,21.333 c0.149,2.965,1.515,5.547,3.563,7.403c1.792,2.816,4.736,4.885,8.32,5.035c7.253,0.363,14.379,0.789,21.333,1.28 c0.277,0.021,0.512,0.021,0.789,0.021c5.525,0,10.219-4.288,10.603-9.877C342.379,200.149,337.963,195.051,332.096,194.624z"/> </g> </g> </g>
</svg>