<!DOCTYPE svg PUBLIC "-//W3C//DTD SVG 1.1//EN" "http://www.w3.org/Graphics/SVG/1.1/DTD/svg11.dtd">
<!-- Uploaded to: SVG Repo, www.svgrepo.com, Transformed by: SVG Repo Mixer Tools -->
<svg fill="#ffffff" height="800px" width="800px" version="1.1" id="Layer_1" xmlns="http://www.w3.org/2000/svg" xmlns:xlink="http://www.w3.org/1999/xlink" viewBox="0 0 512 512" xml:space="preserve">
<g id="SVGRepo_bgCarrier" stroke-width="0"/>
<g id="SVGRepo_tracerCarrier" stroke-linecap="round" stroke-linejoin="round"/>
<g id="SVGRepo_iconCarrier"> <g> <g> <path d="M160,193.536c-5.888,0-10.667,4.779-10.667,10.667v22.848c0,5.888,4.779,10.667,10.667,10.667s10.667-4.779,10.667-10.667 v-22.848C170.667,198.315,165.888,193.536,160,193.536z"/> </g> </g> <g> <g> <path d="M160,56.384c-5.888,0-10.667,4.779-10.667,10.667v22.848c0,5.888,4.779,10.667,10.667,10.667s10.667-4.757,10.667-10.667 V67.051C170.667,61.163,165.888,56.384,160,56.384z"/> </g> </g> <g> <g> <path d="M160,262.101c-5.888,0-10.667,4.779-10.667,10.667v22.848c0,5.888,4.779,10.667,10.667,10.667s10.667-4.757,10.667-10.667 v-22.848C170.667,266.88,165.888,262.101,160,262.101z"/> </g> </g> <g> <g> <path d="M170.667,341.333c0-5.888-4.779-10.667-10.667-10.667s-10.667,4.779-10.667,10.667v6.251l-4.437,4.437 c-4.16,4.16-4.16,10.923,0,15.083c2.091,2.069,4.821,3.115,7.552,3.115s5.461-1.045,7.531-3.115l4.437-4.437h6.251 c5.888,0,10.667-4.779,10.667-10.667C181.333,346.112,176.555,341.333,170.667,341.333z"/> </g> </g> <g> <g> <path d="M239.232,341.333h-22.848c-5.888,0-10.667,4.779-10.667,10.667c0,5.888,4.779,10.667,10.667,10.667h22.848 c5.909,0,10.667-4.779,10.667-10.667C249.899,346.112,245.12,341.333,239.232,341.333z"/> </g> </g> <g> <g> <path d="M307.819,341.333h-22.848c-5.888,0-10.667,4.779-10.667,10.667c0,5.888,4.779,10.667,10.667,10.667h22.848 c5.888,0,10.667-4.779,10.667-10.667C318.485,346.112,313.707,341.333,307.819,341.333z"/> </g> </g> <g> <g> <path d="M444.949,341.333h-22.848c-5.888,0-10.667,4.779-10.667,10.667c0,5.888,4.779,10.667,10.667,10.667h22.848 c5.909,0,10.667-4.779,10.667-10.667C455.616,346.112,450.837,341.333,444.949,341.333z"/> </g> </g> <g> <g> <path d="M511.531,8.384c-0.128-0.576-0.128-1.195-0.363-1.749c-1.088-2.645-3.179-4.736-5.824-5.824 c-0.555-0.235-1.152-0.213-1.749-0.363C502.869,0.299,502.144,0,501.333,0H160c-0.619,0-1.173,0.256-1.771,0.363 c-0.768,0.128-1.557,0.149-2.283,0.448c-1.323,0.555-2.496,1.323-3.499,2.325L3.115,152.469c-0.085,0.085-0.107,0.213-0.213,0.299 c-0.853,0.917-1.6,1.963-2.091,3.136C0.277,157.248,0,158.635,0,160.043v341.269c0,1.408,0.277,2.816,0.832,4.117 c0.299,0.704,0.811,1.237,1.237,1.856c0.363,0.533,0.576,1.109,1.045,1.579c0.363,0.341,0.811,0.491,1.195,0.789 c0.725,0.555,1.429,1.152,2.283,1.493C7.893,511.723,9.28,512,10.667,512H352c1.387,0,2.773-0.277,4.075-0.832 c1.195-0.491,2.219-1.237,3.157-2.091c0.085-0.085,0.213-0.107,0.299-0.192l149.333-149.333c0.981-0.981,1.771-2.176,2.304-3.477 c0.299-0.747,0.341-1.515,0.469-2.304c0.107-0.597,0.363-1.152,0.363-1.771V10.667C512,9.856,511.701,9.131,511.531,8.384z M341.333,490.667H28.267c-0.491-1.6-1.237-3.136-2.517-4.416c-1.28-1.28-2.816-2.027-4.416-2.517V170.667h320V490.667z M347.584,149.333H170.667v-13.696c0-5.888-4.779-10.667-10.667-10.667s-10.667,4.779-10.667,10.667v13.696H36.416L155.093,30.656 C156.587,31.445,158.208,32,160,32c5.888,0,10.667-4.779,10.667-10.667h304.917L347.584,149.333z M490.667,341.333 c-5.888,0-10.667,4.779-10.667,10.667c0,1.792,0.555,3.413,1.344,4.907L362.667,475.584V362.667h13.717 c5.888,0,10.667-4.779,10.667-10.667c0-5.888-4.779-10.667-10.667-10.667h-13.717V164.416l128-128V341.333z"/> </g> </g> <g> <g> <path d="M76.096,435.904c-4.16-4.16-10.923-4.16-15.083,0l-16.789,16.789c-4.16,4.16-4.16,10.923,0,15.083 c2.091,2.069,4.821,3.115,7.552,3.115s5.461-1.045,7.531-3.115l16.789-16.789C80.256,446.827,80.256,440.064,76.096,435.904z"/> </g> </g> <g> <g> <path d="M126.443,385.557c-4.16-4.16-10.923-4.16-15.083,0l-16.789,16.789c-4.16,4.16-4.16,10.923,0,15.083 c2.091,2.069,4.821,3.115,7.552,3.115s5.44-1.024,7.531-3.115l16.789-16.789C130.603,396.48,130.603,389.717,126.443,385.557z"/> </g> </g> </g>
</svg>