<!DOCTYPE svg PUBLIC "-//W3C//DTD SVG 1.1//EN" "http://www.w3.org/Graphics/SVG/1.1/DTD/svg11.dtd">
<!-- Uploaded to: SVG Repo, www.svgrepo.com, Transformed by: SVG Repo Mixer Tools -->
<svg fill="#ffffff" width="800px" height="800px" viewBox="0 0 24 24" xmlns="http://www.w3.org/2000/svg">
<g id="SVGRepo_bgCarrier" stroke-width="0"/>
<g id="SVGRepo_tracerCarrier" stroke-linecap="round" stroke-linejoin="round"/>
<g id="SVGRepo_iconCarrier">
<path d="M7,12A5,5,0,1,0,2,7,5.006,5.006,0,0,0,7,12ZM7,4A3,3,0,1,1,4,7,3,3,0,0,1,7,4Zm5,10a4,4,0,1,0,4,4A4,4,0,0,0,12,14Zm0,6a2,2,0,1,1,2-2A2,2,0,0,1,12,20ZM22,9a3,3,0,1,0-3,3A3,3,0,0,0,22,9Zm-3,1a1,1,0,1,1,1-1A1,1,0,0,1,19,10ZM16,5a1,1,0,1,1-1-1A1,1,0,0,1,16,5Zm3,10a1,1,0,1,1-1,1A1,1,0,0,1,19,15ZM6,13a1,1,0,1,1-1,1A1,1,0,0,1,6,13Z"/>
</g>
</svg>