<?xml version="1.0" encoding="UTF-8" standalone="no"?>
<!DOCTYPE svg PUBLIC "-//W3C//DTD SVG 1.1//EN" "http://www.w3.org/Graphics/SVG/1.1/DTD/svg11.dtd">
<svg width="100%" height="100%" viewBox="0 0 256 256" version="1.1" xmlns="http://www.w3.org/2000/svg" xmlns:xlink="http://www.w3.org/1999/xlink" xml:space="preserve" xmlns:serif="http://www.serif.com/" style="fill-rule:evenodd;clip-rule:evenodd;stroke-linejoin:round;stroke-miterlimit:2;">
    <g transform="matrix(0.1024,0,0,0.1024,0,0)">
        <path d="M2430.83,1188.63L2046.44,1188.63L2046.44,551.762C2046.44,490.77 1996.79,441.126 1935.8,441.126L1298.93,441.126L1298.93,56.736C1301.77,29.787 1281.91,5.674 1256.38,2.837C1229.43,0 1205.32,19.858 1202.48,45.389L1202.48,439.707L564.199,439.707C503.207,439.707 453.563,489.351 453.563,550.343L453.563,1188.63L72.01,1188.63C45.061,1185.79 20.948,1205.65 18.111,1231.18C15.274,1258.13 35.132,1282.24 60.663,1285.08L452.144,1285.08L452.144,1923.36C452.144,1984.36 501.789,2034 562.78,2034L1935.8,2034C1996.79,2034 2046.44,1984.36 2046.44,1923.36L2046.44,1285.08L2430.83,1285.08C2459.2,1286.5 2483.31,1265.22 2484.73,1236.85C2484.73,1209.9 2459.2,1188.63 2430.83,1188.63Z" style="fill:rgb(255,78,37);fill-rule:nonzero;"/>
    </g>
    <g transform="matrix(0.1024,0,0,0.1024,0,0)">
        <path d="M713.132,924.803L1250.71,614.172L1788.29,924.803L1788.29,1205.65L1541.48,1126.22L1541.48,1068.06L1249.29,900.69L1037.95,1024.09L1786.87,1263.8L1786.87,1544.65L1250.71,1855.28L714.55,1544.65L714.55,1263.8L962.772,1341.82L962.772,1399.97L1252.13,1567.34L1467.73,1442.52L713.132,1204.23L713.132,924.803Z" style="fill:white;fill-rule:nonzero;"/>
    </g>
</svg>
