<?xml version="1.0" encoding="UTF-8" standalone="no"?>
<!DOCTYPE svg PUBLIC "-//W3C//DTD SVG 1.1//EN" "http://www.w3.org/Graphics/SVG/1.1/DTD/svg11.dtd">
<svg width="100%" height="100%" viewBox="0 0 256 256" version="1.1" xmlns="http://www.w3.org/2000/svg" xmlns:xlink="http://www.w3.org/1999/xlink" xml:space="preserve" xmlns:serif="http://www.serif.com/" style="fill-rule:evenodd;clip-rule:evenodd;stroke-linejoin:round;stroke-miterlimit:2;">
    <g transform="matrix(0.1024,0,0,0.1024,0,0)">
        <path d="M2430.83,1188.63C2459.2,1188.63 2484.73,1209.9 2484.73,1236.85C2483.31,1265.22 2459.2,1286.5 2430.83,1285.08L2046.44,1285.08L2046.44,1923.36C2046.44,1984.36 1996.79,2034 1935.8,2034L562.78,2034C501.789,2034 452.144,1984.36 452.144,1923.36L452.144,1285.08L60.663,1285.08C35.132,1282.24 15.274,1258.13 18.111,1231.18C20.948,1205.65 45.061,1185.79 72.01,1188.63L453.563,1188.63L453.563,550.343C453.563,489.351 503.207,439.707 564.199,439.707L1202.48,439.707L1202.48,45.389C1205.32,19.858 1229.43,0 1256.38,2.837C1281.91,5.674 1301.77,29.787 1298.93,56.736L1298.93,441.126L1935.8,441.126C1996.79,441.126 2046.44,490.77 2046.44,551.762L2046.44,1188.63L2430.83,1188.63ZM559.676,1238.42C565.888,1252.72 569.332,1268.5 569.332,1285.08L569.332,1916.81L1929.25,1916.81L1929.25,1285.08C1929.25,1267.89 1932.95,1251.56 1939.6,1236.86C1932.95,1222.15 1929.25,1205.82 1929.25,1188.63L1929.25,558.314L1298.93,558.314C1281.13,558.314 1264.25,554.343 1249.14,547.239C1234.84,553.451 1219.06,556.895 1202.48,556.895L570.751,556.895L570.75,1188.63C570.751,1206.43 566.78,1223.31 559.676,1238.42Z" style="fill:white;"/>
    </g>
    <g transform="matrix(0.1024,0,0,0.1024,0,0)">
        <path d="M713.132,924.803L1250.71,614.172L1788.29,924.803L1788.29,1205.65L1541.48,1126.22L1541.48,1068.06L1249.29,900.69L1037.95,1024.09L1786.87,1263.8L1786.87,1544.65L1250.71,1855.28L714.55,1544.65L714.55,1263.8L962.772,1341.82L962.772,1399.97L1252.13,1567.34L1467.73,1442.52L713.132,1204.23L713.132,924.803Z" style="fill:white;fill-rule:nonzero;"/>
    </g>
</svg>
