<?xml version="1.0" encoding="UTF-8" standalone="no"?>
<!-- Uploaded to: SVG Repo, www.svgrepo.com, Generator: SVG Repo Mixer Tools -->

<svg
   width="30"
   height="30"
   viewBox="0 0 30 30"
   version="1.1"
   id="svg822"
   inkscape:version="1.3 (0e150ed6c4, 2023-07-21)"
   sodipodi:docname="Speed.svg"
   xmlns:inkscape="http://www.inkscape.org/namespaces/inkscape"
   xmlns:sodipodi="http://sodipodi.sourceforge.net/DTD/sodipodi-0.dtd"
   xmlns="http://www.w3.org/2000/svg"
   xmlns:svg="http://www.w3.org/2000/svg"
   xmlns:rdf="http://www.w3.org/1999/02/22-rdf-syntax-ns#"
   xmlns:cc="http://creativecommons.org/ns#"
   xmlns:dc="http://purl.org/dc/elements/1.1/">
  <defs
     id="defs816" />
  <sodipodi:namedview
     id="base"
     pagecolor="#ffffff"
     bordercolor="#666666"
     borderopacity="1.0"
     inkscape:pageopacity="0.0"
     inkscape:pageshadow="2"
     inkscape:zoom="17.866667"
     inkscape:cx="15"
     inkscape:cy="15.027985"
     inkscape:document-units="px"
     inkscape:current-layer="layer1"
     showgrid="true"
     units="px"
     inkscape:window-width="2256"
     inkscape:window-height="1398"
     inkscape:window-x="-11"
     inkscape:window-y="-11"
     inkscape:window-maximized="1"
     inkscape:lockguides="true"
     inkscape:showpageshadow="2"
     inkscape:pagecheckerboard="0"
     inkscape:deskcolor="#d1d1d1">
    <inkscape:grid
       type="xygrid"
       id="grid816"
       originx="0"
       originy="0"
       spacingy="1"
       spacingx="1"
       units="px"
       visible="true" />
  </sodipodi:namedview>
  <metadata
     id="metadata819">
    <rdf:RDF>
      <cc:Work
         rdf:about="">
        <dc:format>image/svg+xml</dc:format>
        <dc:type
           rdf:resource="http://purl.org/dc/dcmitype/StillImage" />
        <dc:title />
      </cc:Work>
    </rdf:RDF>
  </metadata>
  <g
     inkscape:label="Layer 1"
     inkscape:groupmode="layer"
     id="layer1"
     transform="translate(0,-289.0625)">
    <path
       style="opacity:1;fill:#7da63f;fill-opacity:1;stroke:none;stroke-width:10;stroke-miterlimit:4;stroke-dasharray:none;stroke-opacity:1"
       d="m 14.703125,5.5722656 a 12,12 0 0 0 -12,12.0000004 12,12 0 0 0 0.6894531,3.964843 A 10.746539,10.746539 0 0 1 3.0976562,19.09375 10.746539,10.746539 0 0 1 13.84375,8.3476562 10.746539,10.746539 0 0 1 19.826172,10.173828 L 21.966797,8.0332031 A 12,12 0 0 0 14.703125,5.5722656 Z m 9.148437,3.6035156 c -0.25173,0.00423 -0.507325,0.1022801 -0.71875,0.28125 l -9.193359,7.7812498 c -0.422789,0.35795 -1.416166,1.411952 -0.002,2.826172 1.414471,1.41445 2.468093,0.418804 2.826172,-0.0039 l 7.783203,-9.189453 c 0.358051,-0.42275 0.391737,-1.0223328 0,-1.4140628 -0.195869,-0.19587 -0.443582,-0.285475 -0.695313,-0.28125 z m 1.84961,3.6074218 -2.021484,2.021485 A 10.746539,10.746539 0 0 1 24.585938,19 h 2.015624 a 12,12 0 0 0 0.101563,-1.427734 12,12 0 0 0 -1.001953,-4.789063 z"
       transform="translate(0,289.0625)"
       id="path4625"
       inkscape:connector-curvature="0" />
  </g>
</svg>
