<?xml version="1.0" encoding="UTF-8"?>
<!-- Uploaded to: SVG Repo, www.svgrepo.com, Generator: SVG Repo Mixer Tools -->
<svg width="800px" height="800px" viewBox="0 0 512 512" version="1.1" xmlns="http://www.w3.org/2000/svg" xmlns:xlink="http://www.w3.org/1999/xlink">
    <title>waveform</title>
    <g id="Page-1" stroke="none" stroke-width="1" fill="none" fill-rule="evenodd">
        <g id="icon" fill="#FFFFFF" transform="translate(42.666667, 42.666667)">
            <path d="M384,170.666667 L426.666667,170.666667 L426.666667,256 L384,256 L384,170.666667 Z M320,106.666667 L362.666667,106.666667 L362.666667,320 L320,320 L320,106.666667 Z M256,128 L298.666667,128 L298.666667,298.666667 L256,298.666667 L256,128 Z M192,64 L234.666667,64 L234.666667,362.666667 L192,362.666667 L192,64 Z M7.10542736e-15,170.666667 L42.6666667,170.666667 L42.6666667,256 L7.10542736e-15,256 L7.10542736e-15,170.666667 Z M64,106.666667 L106.666667,106.666667 L106.666667,320 L64,320 L64,106.666667 Z M128,7.10542736e-15 L170.666667,7.10542736e-15 L170.666667,426.666667 L128,426.666667 L128,7.10542736e-15 Z" id="Combined-Shape">

</path>
        </g>
    </g>
</svg>