<!DOCTYPE svg PUBLIC "-//W3C//DTD SVG 1.1//EN" "http://www.w3.org/Graphics/SVG/1.1/DTD/svg11.dtd">
<!-- Uploaded to: SVG Repo, www.svgrepo.com, Transformed by: SVG Repo Mixer Tools -->
<svg fill="#ffffff" width="800px" height="800px" viewBox="0 0 16 16" xmlns="http://www.w3.org/2000/svg">
<g id="SVGRepo_bgCarrier" stroke-width="0"/>
<g id="SVGRepo_tracerCarrier" stroke-linecap="round" stroke-linejoin="round"/>
<g id="SVGRepo_iconCarrier">
<path d="M8.869 6.092V3.955h1.25v2.137h2.118v1.25h-2.118v2.213h-1.25V7.342H6.636v-1.25H8.87z"/>
<path fill-rule="evenodd" d="M15.5 10.76c0 .69-.56 1.25-1.25 1.25H4.623c-.69 0-1.25-.56-1.25-1.25V2.75c0-.69.56-1.25 1.25-1.25h9.627c.69 0 1.25.56 1.25 1.25v8.01zm-1.25 0H4.623V2.75h9.627v8.01z"/>
<path d="M1.75 13.25h9.615v-.62h1.25v.62c0 .69-.56 1.25-1.25 1.25H1.75c-.69 0-1.25-.56-1.25-1.25v-8C.5 4.56 1.06 4 1.75 4h1.005v1.25H1.75v8z"/>
</g>
</svg>