<!DOCTYPE svg PUBLIC "-//W3C//DTD SVG 1.1//EN" "http://www.w3.org/Graphics/SVG/1.1/DTD/svg11.dtd">
<!-- Uploaded to: SVG Repo, www.svgrepo.com, Transformed by: SVG Repo Mixer Tools -->
<svg fill="#ffffff" version="1.1" id="Capa_1" xmlns="http://www.w3.org/2000/svg" xmlns:xlink="http://www.w3.org/1999/xlink" width="800px" height="800px" viewBox="0 0 121.025 121.025" xml:space="preserve">
<g id="SVGRepo_bgCarrier" stroke-width="0"/>
<g id="SVGRepo_tracerCarrier" stroke-linecap="round" stroke-linejoin="round"/>
<g id="SVGRepo_iconCarrier"> <g> <path d="M1.35,64.212c7.9,9.9,31.4,36.3,59.2,36.3c27.8,0,51.3-26.399,59.2-36.3c1.699-2.2,1.699-5.3,0-7.399 c-7.9-9.9-31.4-36.3-59.2-36.3c-27.8-0.1-51.3,26.3-59.2,36.2C-0.45,58.913-0.45,62.012,1.35,64.212z M60.55,36.413 c13.3,0,24,10.7,24,24s-10.7,24-24,24c-13.3,0-24-10.7-24-24S47.25,36.413,60.55,36.413z"/> <circle cx="60.55" cy="60.413" r="12"/> </g> </g>
</svg>