<!DOCTYPE svg PUBLIC "-//W3C//DTD SVG 1.1//EN" "http://www.w3.org/Graphics/SVG/1.1/DTD/svg11.dtd">
<!-- Uploaded to: SVG Repo, www.svgrepo.com, Transformed by: SVG Repo Mixer Tools -->
<svg fill="#ffffff" width="800px" height="800px" viewBox="0 0 24 24" xmlns="http://www.w3.org/2000/svg">
<g id="SVGRepo_bgCarrier" stroke-width="0"/>
<g id="SVGRepo_tracerCarrier" stroke-linecap="round" stroke-linejoin="round"/>
<g id="SVGRepo_iconCarrier">
<path d="M22,13v8a1,1,0,0,1-1,1H13a1,1,0,0,1-1-1V13a1,1,0,0,1,1-1h8A1,1,0,0,1,22,13ZM7,6A1,1,0,0,0,6,7v9a1,1,0,0,0,1,1h3V10.5a.5.5,0,0,1,.5-.5H17V7a1,1,0,0,0-1-1ZM3,13H4V4.5A.5.5,0,0,1,4.5,4H13V3a1,1,0,0,0-1-1H3A1,1,0,0,0,2,3v9A1,1,0,0,0,3,13Z"/>
</g>
</svg>