<!DOCTYPE svg PUBLIC "-//W3C//DTD SVG 1.1//EN" "http://www.w3.org/Graphics/SVG/1.1/DTD/svg11.dtd">
<!-- Uploaded to: SVG Repo, www.svgrepo.com, Transformed by: SVG Repo Mixer Tools -->
<svg width="800px" height="800px" viewBox="0 0 24 24" fill="none" xmlns="http://www.w3.org/2000/svg">
<g id="SVGRepo_bgCarrier" stroke-width="0"/>
<g id="SVGRepo_tracerCarrier" stroke-linecap="round" stroke-linejoin="round"/>
<g id="SVGRepo_iconCarrier"> <path d="M23 18C23 18.75 22.79 19.46 22.42 20.06C22.21 20.42 21.94 20.74 21.63 21C20.93 21.63 20.01 22 19 22C17.78 22 16.69 21.45 15.97 20.59C15.95 20.56 15.92 20.54 15.9 20.51C15.78 20.37 15.67 20.22 15.58 20.06C15.21 19.46 15 18.75 15 18C15 16.74 15.58 15.61 16.5 14.88C17.19 14.33 18.06 14 19 14C20 14 20.9 14.36 21.6 14.97C21.72 15.06 21.83 15.17 21.93 15.28C22.59 16 23 16.95 23 18Z" stroke="#fff" stroke-width="1.5" stroke-miterlimit="10" stroke-linecap="round" stroke-linejoin="round"/> <path d="M20.49 17.98H17.51" stroke="#fff" stroke-width="1.5" stroke-miterlimit="10" stroke-linecap="round" stroke-linejoin="round"/> <path d="M19 16.52V19.51" stroke="#fff" stroke-width="1.5" stroke-miterlimit="10" stroke-linecap="round" stroke-linejoin="round"/> <path d="M3.17004 7.43994L12 12.5499L20.7701 7.46991" stroke="#fff" stroke-width="1.5" stroke-linecap="round" stroke-linejoin="round"/> <path d="M12 21.6099V12.5399" stroke="#fff" stroke-width="1.5" stroke-linecap="round" stroke-linejoin="round"/> <path d="M21.61 9.17V14.83C21.61 14.88 21.61 14.92 21.6 14.97C20.9 14.36 20 14 19 14C18.06 14 17.19 14.33 16.5 14.88C15.58 15.61 15 16.74 15 18C15 18.75 15.21 19.46 15.58 20.06C15.67 20.22 15.78 20.37 15.9 20.51L14.07 21.52C12.93 22.16 11.07 22.16 9.93001 21.52L4.59001 18.56C3.38001 17.89 2.39001 16.21 2.39001 14.83V9.17C2.39001 7.79 3.38001 6.11002 4.59001 5.44002L9.93001 2.48C11.07 1.84 12.93 1.84 14.07 2.48L19.41 5.44002C20.62 6.11002 21.61 7.79 21.61 9.17Z" stroke="#fff" stroke-width="1.5" stroke-linecap="round" stroke-linejoin="round"/> </g>
</svg>