<!DOCTYPE svg PUBLIC "-//W3C//DTD SVG 1.1//EN" "http://www.w3.org/Graphics/SVG/1.1/DTD/svg11.dtd">
<!-- Uploaded to: SVG Repo, www.svgrepo.com, Transformed by: SVG Repo Mixer Tools -->
<svg width="800px" height="800px" viewBox="0 0 24 24" fill="none" xmlns="http://www.w3.org/2000/svg">
<g id="SVGRepo_bgCarrier" stroke-width="0"/>
<g id="SVGRepo_tracerCarrier" stroke-linecap="round" stroke-linejoin="round"/>
<g id="SVGRepo_iconCarrier"> <path d="M23 17.91C23.02 18.66 22.82 19.37 22.46 19.98C22.26 20.34 21.99 20.6701 21.69 20.9401C21 21.5801 20.09 21.9701 19.08 22.0001C17.62 22.0301 16.33 21.2801 15.62 20.1301C15.24 19.5401 15.01 18.8301 15 18.0801C14.97 16.8201 15.53 15.6801 16.43 14.9301C17.11 14.3701 17.97 14.0201 18.91 14.0001C21.12 13.9501 22.95 15.7 23 17.91Z" stroke="#fff" stroke-width="1.5" stroke-miterlimit="10" stroke-linecap="round" stroke-linejoin="round"/> <path d="M17.44 18.03L18.45 18.99L20.54 16.97" stroke="#fff" stroke-width="1.5" stroke-linecap="round" stroke-linejoin="round"/> <path d="M3.17004 7.43994L12 12.5499L20.77 7.46991" stroke="#fff" stroke-width="1.5" stroke-linecap="round" stroke-linejoin="round"/> <path d="M12 21.6099V12.5399" stroke="#fff" stroke-width="1.5" stroke-linecap="round" stroke-linejoin="round"/> <path d="M21.61 9.17V14.83C21.61 14.88 21.61 14.92 21.6 14.97C20.9 14.36 20 14 19 14C18.06 14 17.19 14.33 16.5 14.88C15.58 15.61 15 16.74 15 18C15 18.75 15.21 19.46 15.58 20.06C15.67 20.22 15.78 20.37 15.9 20.51L14.07 21.52C12.93 22.16 11.07 22.16 9.92999 21.52L4.59 18.56C3.38 17.89 2.39001 16.21 2.39001 14.83V9.17C2.39001 7.79 3.38 6.11002 4.59 5.44002L9.92999 2.48C11.07 1.84 12.93 1.84 14.07 2.48L19.41 5.44002C20.62 6.11002 21.61 7.79 21.61 9.17Z" stroke="#fff" stroke-width="1.5" stroke-linecap="round" stroke-linejoin="round"/> </g>
</svg>