<!DOCTYPE svg PUBLIC "-//W3C//DTD SVG 1.1//EN" "http://www.w3.org/Graphics/SVG/1.1/DTD/svg11.dtd">
<!-- Uploaded to: SVG Repo, www.svgrepo.com, Transformed by: SVG Repo Mixer Tools -->
<svg width="800px" height="800px" viewBox="0 0 24 24" fill="none" xmlns="http://www.w3.org/2000/svg">
<g id="SVGRepo_bgCarrier" stroke-width="0"/>
<g id="SVGRepo_tracerCarrier" stroke-linecap="round" stroke-linejoin="round"/>
<g id="SVGRepo_iconCarrier"> <path d="M18.67 18.67L20.89 17.56V14.78M14.22 9.78L12 10.89L14.22 9.78ZM12 10.89L9.77998 9.78L12 10.89ZM12 10.89V13.67V10.89ZM20.89 6.44L18.67 7.55L20.89 6.44ZM20.89 6.44L18.67 5.33L20.89 6.44ZM20.89 6.44V9.22V6.44ZM14.22 3.11L12 2L9.77998 3.11H14.22ZM3.10999 6.44L5.32999 5.33L3.10999 6.44ZM3.10999 6.44L5.32999 7.55L3.10999 6.44ZM3.10999 6.44V9.22V6.44ZM12 22L9.77998 20.89L12 22ZM12 22L14.22 20.89L12 22ZM12 22V19.22V22ZM5.32999 18.67L3.10999 17.56V14.78L5.32999 18.67Z" stroke="#fff" stroke-width="1.5" stroke-linecap="round" stroke-linejoin="round"/> </g>
</svg>