<!DOCTYPE svg PUBLIC "-//W3C//DTD SVG 1.1//EN" "http://www.w3.org/Graphics/SVG/1.1/DTD/svg11.dtd">
<!-- Uploaded to: SVG Repo, www.svgrepo.com, Transformed by: SVG Repo Mixer Tools -->
<svg width="800px" height="800px" viewBox="0 0 24 24" fill="none" xmlns="http://www.w3.org/2000/svg">
<g id="SVGRepo_bgCarrier" stroke-width="0"/>
<g id="SVGRepo_tracerCarrier" stroke-linecap="round" stroke-linejoin="round"/>
<g id="SVGRepo_iconCarrier"> <path fill-rule="evenodd" clip-rule="evenodd" d="M11.7899 3.5463C11.9232 3.48457 12.0768 3.48457 12.2101 3.5463L17.2101 5.86209C17.3869 5.94395 17.5 6.12101 17.5 6.31579V12.1053C17.5 12.2837 17.4049 12.4486 17.2505 12.538L12.2505 15.4327C12.0956 15.5224 11.9044 15.5224 11.7495 15.4327L6.74948 12.538C6.59507 12.4486 6.5 12.2837 6.5 12.1053V6.31579C6.5 6.12101 6.61312 5.94395 6.78987 5.86209L11.7899 3.5463ZM7.5 7.12608L11.5 9.13309V14.1328L7.5 11.817V7.12608ZM12.5 14.1328L16.5 11.817V7.12608L12.5 9.13309V14.1328ZM12 8.26515L15.8492 6.33381L12 4.55103L8.15081 6.33381L12 8.26515Z" fill="#ffffff"/> <path fill-rule="evenodd" clip-rule="evenodd" d="M12 17C12.2761 17 12.5 17.2239 12.5 17.5V20.5C12.5 20.7761 12.2761 21 12 21C11.7239 21 11.5 20.7761 11.5 20.5V17.5C11.5 17.2239 11.7239 17 12 17Z" fill="#ffffff"/> <path fill-rule="evenodd" clip-rule="evenodd" d="M7.5 14.5C7.77614 14.5 8 14.7239 8 15V18C8 18.2761 7.77614 18.5 7.5 18.5C7.22386 18.5 7 18.2761 7 18V15C7 14.7239 7.22386 14.5 7.5 14.5Z" fill="#ffffff"/> <path fill-rule="evenodd" clip-rule="evenodd" d="M16.5 14.5C16.7761 14.5 17 14.7239 17 15V19C17 19.2761 16.7761 19.5 16.5 19.5C16.2239 19.5 16 19.2761 16 19V15C16 14.7239 16.2239 14.5 16.5 14.5Z" fill="#ffffff"/> </g>
</svg>