<?xml version="1.0" encoding="UTF-8" standalone="no"?>
<!-- Uploaded to: SVG Repo, www.svgrepo.com, Generator: SVG Repo Mixer Tools -->

<svg
   height="800px"
   width="800px"
   version="1.1"
   id="_x32_"
   viewBox="0 0 512 512"
   xml:space="preserve"
   sodipodi:docname="ScenePlay.svg"
   inkscape:version="1.3 (0e150ed6c4, 2023-07-21)"
   xmlns:inkscape="http://www.inkscape.org/namespaces/inkscape"
   xmlns:sodipodi="http://sodipodi.sourceforge.net/DTD/sodipodi-0.dtd"
   xmlns="http://www.w3.org/2000/svg"
   xmlns:svg="http://www.w3.org/2000/svg"><defs
   id="defs1" /><sodipodi:namedview
   id="namedview1"
   pagecolor="#ffffff"
   bordercolor="#000000"
   borderopacity="0.25"
   inkscape:showpageshadow="2"
   inkscape:pageopacity="0.0"
   inkscape:pagecheckerboard="true"
   inkscape:deskcolor="#d1d1d1"
   inkscape:zoom="1.11375"
   inkscape:cx="400"
   inkscape:cy="400"
   inkscape:window-width="1920"
   inkscape:window-height="1129"
   inkscape:window-x="1912"
   inkscape:window-y="-8"
   inkscape:window-maximized="1"
   inkscape:current-layer="g1" />&#10;<style
   type="text/css"
   id="style1">&#10;	.st0{fill:#FFFFFF;}&#10;</style>&#10;<g
   id="g1">&#10;	<path
   class="st0"
   d="M256,0C114.625,0,0,114.625,0,256c0,141.374,114.625,256,256,256c141.374,0,256-114.626,256-256   C512,114.625,397.374,0,256,0z M351.062,258.898l-144,85.945c-1.031,0.626-2.344,0.657-3.406,0.031   c-1.031-0.594-1.687-1.702-1.687-2.937v-85.946v-85.946c0-1.218,0.656-2.343,1.687-2.938c1.062-0.609,2.375-0.578,3.406,0.031   l144,85.962c1.031,0.586,1.641,1.718,1.641,2.89C352.703,257.187,352.094,258.297,351.062,258.898z"
   id="path1"
   style="fill:#6e9e2d;fill-opacity:1" />&#10;</g>&#10;</svg>
