<!DOCTYPE svg PUBLIC "-//W3C//DTD SVG 1.1//EN" "http://www.w3.org/Graphics/SVG/1.1/DTD/svg11.dtd">
<!-- Uploaded to: SVG Repo, www.svgrepo.com, Transformed by: SVG Repo Mixer Tools -->
<svg width="800px" height="800px" viewBox="0 0 24 24" version="1.1" xmlns="http://www.w3.org/2000/svg" xmlns:xlink="http://www.w3.org/1999/xlink" fill="#ffffff" stroke="#ffffff">
<g id="SVGRepo_bgCarrier" stroke-width="0"/>
<g id="SVGRepo_tracerCarrier" stroke-linecap="round" stroke-linejoin="round"/>
<g id="SVGRepo_iconCarrier"> <title>run_fill</title> <g id="页面-1" stroke="none" stroke-width="1" fill="none" fill-rule="evenodd"> <g id="Transport" transform="translate(-816.000000, -48.000000)" fill-rule="nonzero"> <g id="run_fill" transform="translate(816.000000, 48.000000)"> <path d="M24,0 L24,24 L0,24 L0,0 L24,0 Z M12.5934901,23.257841 L12.5819402,23.2595131 L12.5108777,23.2950439 L12.4918791,23.2987469 L12.4918791,23.2987469 L12.4767152,23.2950439 L12.4056548,23.2595131 C12.3958229,23.2563662 12.3870493,23.2590235 12.3821421,23.2649074 L12.3780323,23.275831 L12.360941,23.7031097 L12.3658947,23.7234994 L12.3769048,23.7357139 L12.4804777,23.8096931 L12.4953491,23.8136134 L12.4953491,23.8136134 L12.5071152,23.8096931 L12.6106902,23.7357139 L12.6232938,23.7196733 L12.6232938,23.7196733 L12.6266527,23.7031097 L12.609561,23.275831 C12.6075724,23.2657013 12.6010112,23.2592993 12.5934901,23.257841 L12.5934901,23.257841 Z M12.8583906,23.1452862 L12.8445485,23.1473072 L12.6598443,23.2396597 L12.6498822,23.2499052 L12.6498822,23.2499052 L12.6471943,23.2611114 L12.6650943,23.6906389 L12.6699349,23.7034178 L12.6699349,23.7034178 L12.678386,23.7104931 L12.8793402,23.8032389 C12.8914285,23.8068999 12.9022333,23.8029875 12.9078286,23.7952264 L12.9118235,23.7811639 L12.8776777,23.1665331 C12.8752882,23.1545897 12.8674102,23.1470016 12.8583906,23.1452862 L12.8583906,23.1452862 Z M12.1430473,23.1473072 C12.1332178,23.1423925 12.1221763,23.1452606 12.1156365,23.1525954 L12.1099173,23.1665331 L12.0757714,23.7811639 C12.0751323,23.7926639 12.0828099,23.8018602 12.0926481,23.8045676 L12.108256,23.8032389 L12.3092106,23.7104931 L12.3186497,23.7024347 L12.3186497,23.7024347 L12.3225043,23.6906389 L12.340401,23.2611114 L12.337245,23.2485176 L12.337245,23.2485176 L12.3277531,23.2396597 L12.1430473,23.1473072 Z" id="MingCute" fill-rule="nonzero"> </path> <path d="M13,2 C14.6569,2 16,3.34315 16,5 C16,6.4374272 14.989097,7.63873126 13.6394248,7.93171632 L13.469,7.96356 L14.9049,10.261 L16.6286,9.57154 C17.1414,9.36643 17.7234,9.61584 17.9285,10.1286 C18.11895,10.6047714 17.9175097,11.1406102 17.4771844,11.3789437 L17.3714,11.4285 L15.6477,12.118 C14.8018647,12.4563529 13.842291,12.1788886 13.3046353,11.4607687 L13.2089,11.321 L13.0463,11.0609 L12.4403,13.4851 C12.38606,13.7019 12.298348,13.901548 12.184076,14.0798456 L12.0935,14.2095 L13.7468,15.4377 C14.1430667,15.7320111 14.4146519,16.1610383 14.5132351,16.6403612 L14.542,16.8223 L14.895,20 L15,20 C15.5523,20 16,20.4477 16,21 C16,21.51285 15.613973,21.9355092 15.1166239,21.9932725 L15,22 L14.0895,22 C13.5690357,22 13.1258286,21.63665 13.0156081,21.1386974 L12.9962,21.0215 L12.5542,17.0431 L9.40368,14.7028 C9.34671,14.6605 9.29553,14.6132 9.2503,14.5621 C8.69851333,14.1201667 8.40463653,13.4019169 8.52705735,12.6715064 L8.55972,12.5149 L9.35399,9.33785 L7.78454,9.80869 L6.94868,12.3162 C6.77404,12.8402 6.20772,13.1234 5.68377,12.9487 C5.19725429,12.7865714 4.9183499,12.2866153 5.0208232,11.7965565 L5.05132,11.6838 L5.88717,9.17623 C6.07583833,8.61021583 6.50617896,8.16080701 7.05678434,7.94578318 L7.20984,7.89304 L10.6474,6.86176 C10.2421,6.35022 10,5.70338 10,5 C10,3.34315 11.3431,2 13,2 Z M9.6,15.2 C10.0418,15.5314 10.1314,16.1582 9.8,16.6 L8.5838,18.2216 C8.10614,18.8585 7.21414,19.0113 6.55175,18.5697 L4.62197,17.2832 C4.22939,17.5957 3.65616,17.5704 3.29289,17.2071 C2.90237,16.8166 2.90237,16.1834 3.29289,15.7929 L3.7871,15.2987 C4.12753,14.9583 4.66094,14.9055 5.06152,15.1725 L7.26759,16.6432 L8.2,15.4 C8.53137,14.9582 9.15817,14.8686 9.6,15.2 Z" id="形状" fill="#ffffff"> </path> </g> </g> </g> </g>
</svg>