<!DOCTYPE svg PUBLIC "-//W3C//DTD SVG 1.1//EN" "http://www.w3.org/Graphics/SVG/1.1/DTD/svg11.dtd">
<!-- Uploaded to: SVG Repo, www.svgrepo.com, Transformed by: SVG Repo Mixer Tools -->
<svg fill="#ffffff" width="800px" height="800px" viewBox="0 0 256 256" id="Flat" xmlns="http://www.w3.org/2000/svg">
<g id="SVGRepo_bgCarrier" stroke-width="0"/>
<g id="SVGRepo_tracerCarrier" stroke-linecap="round" stroke-linejoin="round"/>
<g id="SVGRepo_iconCarrier"> <path d="M77.51367,66.47363a12.00063,12.00063,0,0,1,.00195-16.9707l42-41.98926a11.99917,11.99917,0,0,1,16.96875,0l42,41.98926a12.0001,12.0001,0,0,1-16.96875,16.97266L140,44.96558V128a12,12,0,0,1-24,0V44.96558l-21.51563,21.51A12.00063,12.00063,0,0,1,77.51367,66.47363ZM200,88H176a12,12,0,0,0,0,24h20v92H60V112H80a12,12,0,0,0,0-24H56a20.0226,20.0226,0,0,0-20,20V208a20.0226,20.0226,0,0,0,20,20H200a20.0226,20.0226,0,0,0,20-20V108A20.0226,20.0226,0,0,0,200,88Z"/> </g>
</svg>