<?xml version="1.0" encoding="UTF-8" standalone="no"?>
<!-- Uploaded to: SVG Repo, www.svgrepo.com, Transformed by: SVG Repo Mixer Tools -->

<svg
   fill="#ffffff"
   width="800px"
   height="800px"
   viewBox="0 0 32 32"
   version="1.1"
   id="svg1"
   sodipodi:docname="SelectParent.svg"
   inkscape:version="1.3 (0e150ed6c4, 2023-07-21)"
   xmlns:inkscape="http://www.inkscape.org/namespaces/inkscape"
   xmlns:sodipodi="http://sodipodi.sourceforge.net/DTD/sodipodi-0.dtd"
   xmlns="http://www.w3.org/2000/svg"
   xmlns:svg="http://www.w3.org/2000/svg">
  <defs
     id="defs1" />
  <sodipodi:namedview
     id="namedview1"
     pagecolor="#ffffff"
     bordercolor="#000000"
     borderopacity="0.25"
     inkscape:showpageshadow="2"
     inkscape:pageopacity="0.0"
     inkscape:pagecheckerboard="true"
     inkscape:deskcolor="#d1d1d1"
     inkscape:zoom="1.11375"
     inkscape:cx="400"
     inkscape:cy="400"
     inkscape:window-width="1920"
     inkscape:window-height="1129"
     inkscape:window-x="1912"
     inkscape:window-y="-8"
     inkscape:window-maximized="1"
     inkscape:current-layer="SVGRepo_iconCarrier" />
  <g
     id="SVGRepo_bgCarrier"
     stroke-width="0" />
  <g
     id="SVGRepo_tracerCarrier"
     stroke-linecap="round"
     stroke-linejoin="round" />
  <g
     id="SVGRepo_iconCarrier">
    <title
       id="title1">up-out</title>
    <path
       d="M0 26.016q0 2.496 1.76 4.224t4.256 1.76h20q2.464 0 4.224-1.76t1.76-4.224v-20q0-2.496-1.76-4.256t-4.224-1.76h-5.024l2.496 4h2.528q0.8 0 1.408 0.608t0.576 1.408v20q0 0.832-0.576 1.408t-1.408 0.576h-20q-0.832 0-1.44-0.576t-0.576-1.408v-20q0-0.832 0.576-1.408t1.44-0.608h2.496l2.496-4h-4.992q-2.496 0-4.256 1.76t-1.76 4.256v20zM6.016 26.016h20l-4-6.016h-12zM10.016 8h4v8h4v-8h4l-6.016-8z"
       id="path1"
       style="stroke:none;stroke-opacity:1;fill:#4da88c;fill-opacity:1" />
  </g>
</svg>
