<!DOCTYPE svg PUBLIC "-//W3C//DTD SVG 1.1//EN" "http://www.w3.org/Graphics/SVG/1.1/DTD/svg11.dtd">
<!-- Uploaded to: SVG Repo, www.svgrepo.com, Transformed by: SVG Repo Mixer Tools -->
<svg width="800px" height="800px" viewBox="0 0 128 128" xmlns="http://www.w3.org/2000/svg" xmlns:xlink="http://www.w3.org/1999/xlink" aria-hidden="true" role="img" class="iconify iconify--noto" preserveAspectRatio="xMidYMid meet" fill="#ffffff">
<g id="SVGRepo_bgCarrier" stroke-width="0"/>
<g id="SVGRepo_tracerCarrier" stroke-linecap="round" stroke-linejoin="round"/>
<g id="SVGRepo_iconCarrier">
<path d="M127.29 16.43a2.42 2.42 0 0 0-1.87-.91h-24.79c-1.14 0-2.12.8-2.33 1.92l-9.58 48.68l-13.47-48.86c-.08-.29-.22-.54-.39-.77c-.01-.01-.01-.04-.03-.05c-.03-.04-.08-.05-.11-.09c-.17-.2-.37-.36-.6-.49c-.08-.04-.15-.09-.23-.12c-.29-.13-.6-.22-.94-.22H55.04c-.33 0-.65.09-.94.22c-.08.04-.15.08-.23.12c-.23.13-.43.29-.6.49c-.04.04-.08.05-.11.09c-.01.02-.01.04-.03.05c-.17.23-.31.49-.39.77L39.29 66.12L29.7 17.44a2.386 2.386 0 0 0-2.33-1.92H2.59c-.73 0-1.43.34-1.87.91c-.46.57-.62 1.33-.45 2.03l24.79 100.45c.01.03.04.06.04.1c.06.19.13.36.23.53c.03.05.05.1.09.15c.02.03.03.06.06.09c.12.16.25.29.41.42c.02.02.05.03.08.05c.16.12.34.22.53.29c.05.02.11.04.17.06c.22.07.46.12.7.12h19.78c.33 0 .63-.08.92-.21c.08-.04.15-.08.23-.12c.2-.12.39-.26.55-.44c.04-.04.1-.06.14-.1c.02-.03.02-.06.04-.09c.19-.25.34-.52.42-.83L64 62.33l14.55 56.61c.08.31.23.58.42.83c.02.03.02.06.05.09c.03.04.09.06.13.1c.16.18.34.32.55.44c.08.04.15.09.23.12c.29.12.59.21.92.21h19.78c.24 0 .47-.05.7-.12c.06-.02.11-.04.18-.06c.18-.07.36-.17.53-.29c.03-.02.05-.03.08-.05c.15-.12.29-.26.41-.42c.02-.03.03-.06.06-.09c.03-.05.05-.1.09-.15c.09-.17.17-.34.23-.53c.01-.03.04-.06.04-.1l24.79-100.45c.16-.71 0-1.47-.45-2.04z" fill="#ff8000"/>
</g>
</svg>