<!DOCTYPE svg PUBLIC "-//W3C//DTD SVG 1.1//EN" "http://www.w3.org/Graphics/SVG/1.1/DTD/svg11.dtd">
<!-- Uploaded to: SVG Repo, www.svgrepo.com, Transformed by: SVG Repo Mixer Tools -->
<svg width="800px" height="800px" viewBox="0 0 128 128" xmlns="http://www.w3.org/2000/svg" xmlns:xlink="http://www.w3.org/1999/xlink" aria-hidden="true" role="img" class="iconify iconify--noto" preserveAspectRatio="xMidYMid meet" fill="#ffffff">
<g id="SVGRepo_bgCarrier" stroke-width="0"/>
<g id="SVGRepo_tracerCarrier" stroke-linecap="round" stroke-linejoin="round"/>
<g id="SVGRepo_iconCarrier">
<path d="M114.89 16.69a2.36 2.36 0 0 0-2.09-1.25H90.5c-.77 0-1.5.38-1.94 1.02L64 51.74L39.43 16.45a2.346 2.346 0 0 0-1.94-1.02h-22.3c-.87 0-1.67.48-2.08 1.25s-.36 1.71.12 2.43l36.58 54.56v44.58c0 1.29 1.05 2.33 2.34 2.33h23.71c1.29 0 2.34-1.04 2.34-2.33V73.68l36.57-54.56c.48-.72.53-1.66.12-2.43z" fill="#00ff00"/>
</g>
</svg>