<!DOCTYPE svg PUBLIC "-//W3C//DTD SVG 1.1//EN" "http://www.w3.org/Graphics/SVG/1.1/DTD/svg11.dtd">
<!-- Uploaded to: SVG Repo, www.svgrepo.com, Transformed by: SVG Repo Mixer Tools -->
<svg fill="#ffffff" width="800px" height="800px" viewBox="0 0 32 32" id="icon" xmlns="http://www.w3.org/2000/svg">
<g id="SVGRepo_bgCarrier" stroke-width="0"/>
<g id="SVGRepo_tracerCarrier" stroke-linecap="round" stroke-linejoin="round"/>
<g id="SVGRepo_iconCarrier">
<defs>
<style>.cls-1{fill:none;}</style>
</defs>
<title>data-base</title>
<path d="M24,3H8A2,2,0,0,0,6,5V27a2,2,0,0,0,2,2H24a2,2,0,0,0,2-2V5A2,2,0,0,0,24,3Zm0,2v6H8V5ZM8,19V13H24v6Zm0,8V21H24v6Z"/>
<circle cx="11" cy="8" r="1"/>
<circle cx="11" cy="16" r="1"/>
<circle cx="11" cy="24" r="1"/>
<rect id="_Transparent_Rectangle_" data-name="&lt;Transparent Rectangle&gt;" class="cls-1" width="32" height="32"/>
</g>
</svg>