<!DOCTYPE svg PUBLIC "-//W3C//DTD SVG 1.1//EN" "http://www.w3.org/Graphics/SVG/1.1/DTD/svg11.dtd">
<!-- Uploaded to: SVG Repo, www.svgrepo.com, Transformed by: SVG Repo Mixer Tools -->
<svg fill="#ffffff" width="800px" height="800px" viewBox="0 0 1024 1024" xmlns="http://www.w3.org/2000/svg">
<g id="SVGRepo_bgCarrier" stroke-width="0"/>
<g id="SVGRepo_tracerCarrier" stroke-linecap="round" stroke-linejoin="round"/>
<g id="SVGRepo_iconCarrier">
<path d="M896.381 512.211c-16.733-5.407-35.408-9.447-75.536-16.974l-5.41-1.014c-87.754-16.46-111.932-23.559-122.365-48.719-7.731-18.639 1.656-38.307 24.031-67.56 13.916-18.195 29.143-35.434 62.447-71.667 37.453-40.743 51.397-56.501 64.325-73.64 3.741-4.959 6.85-9.418 9.308-13.323-5.585 1.942-12.243 4.729-19.892 8.341-20.723 9.784-42.116 21.881-87.257 48.635-106.248 62.977-131.552 75.593-157.232 64.943-23.869-9.897-31.812-29.735-48.398-92.787-8.135-30.922-11.993-43.714-17.155-55.177-4.668-10.367-7.859-13.628-8.082-13.628s-3.414 3.262-8.082 13.628c-5.162 11.463-9.02 24.254-16.672 53.339-17.07 64.89-25.012 84.728-48.88 94.624-18.787 7.792-40.926-2.97-80.136-30.346-24.419-17.049-46.464-34.165-100.218-77.024-54.538-43.483-78.422-61.933-102.507-78.362-7.412-5.056-14.044-9.301-19.852-12.709 3.408 5.808 7.653 12.439 12.709 19.852 16.429 24.085 34.878 47.969 77.984 102.033 43.237 54.229 60.353 76.273 77.402 100.692 27.376 39.21 38.139 61.349 30.347 80.134-10.433 25.162-34.612 32.261-122.37 48.721l-5.41 1.014c-40.13 7.527-58.806 11.567-75.54 16.974-7.28 2.352-13.021 4.703-17.087 6.926 4.066 2.223 9.807 4.574 17.087 6.926 16.734 5.407 35.41 9.447 75.54 16.974l5.41 1.014c87.758 16.46 111.937 23.559 122.37 48.719 10.109 24.373 1.409 45.878-32.463 107.805-16.373 29.933-22.568 42.104-27.317 54.871-2.39 6.427-3.708 11.578-4.018 15.237 3.085-.611 7.299-2.082 12.456-4.469 11.746-5.437 22.586-12.148 50.108-30.346 58.675-38.774 80.305-49.275 105.504-38.827 25.162 10.433 32.261 34.611 48.721 122.366l1.014 5.41c7.527 40.128 11.567 58.803 16.974 75.536 2.352 7.28 4.703 13.02 6.926 17.086 2.223-4.066 4.574-9.806 6.926-17.086 5.407-16.733 9.447-35.408 16.974-75.536l1.014-5.41c16.46-87.754 23.559-111.932 48.719-122.365 25.435-10.549 50.314 1.353 150.259 58.787 44.633 25.646 65.131 36.848 84.995 45.798 7.573 3.412 14.127 5.99 19.571 7.716-2.264-3.703-5.164-7.952-8.68-12.688-12.073-16.26-25.129-31.113-59.669-68.867-32.341-35.355-46.839-51.895-59.945-69.306-21.032-27.939-29.896-47.301-22.26-65.712 10.433-25.162 34.611-32.261 122.366-48.721l5.41-1.014c40.128-7.527 58.803-11.567 75.536-16.974 7.28-2.352 13.02-4.703 17.086-6.926-4.066-2.223-9.806-4.574-17.086-6.926zm-141.328-73.026c15.553 4.567 32.239 8.085 67.932 14.78l5.41 1.014c41.978 7.874 61.557 12.11 80.578 18.256 31.527 10.187 49.664 22.878 49.664 45.902s-18.137 35.715-49.664 45.902c-19.021 6.146-38.601 10.382-80.578 18.256l-5.41 1.014c-35.693 6.695-52.379 10.213-67.932 14.78-9.033 2.652-15.956 5.291-20.631 7.828-1.866 2.066-1.489 2.984-1.02 4.009 2.665 5.821 7.584 13.536 14.651 22.924 12.024 15.973 26.047 31.97 56.315 65.06 36.776 40.198 50.203 55.473 63.461 73.329 23.202 31.251 31.471 52.948 13.427 70.985-16.015 16.015-38.537 11.739-74.03-4.252-21.558-9.713-42.682-21.257-87.18-46.825-44.624-25.644-61.533-35.021-80.452-44.072-11.493-5.498-20.838-9.271-27.943-11.27-2.803-.789-5.114-1.259-6.847-1.439-.551.768-1.181 1.78-1.859 3.029-2.538 4.676-5.176 11.598-7.828 20.631-4.567 15.553-8.085 32.239-14.78 67.932l-1.014 5.41c-7.874 41.978-12.11 61.557-18.256 80.578-10.187 31.527-22.878 49.664-45.902 49.664s-35.715-18.137-45.902-49.664c-6.146-19.021-10.382-38.601-18.256-80.578l-1.014-5.41c-6.695-35.693-10.213-52.379-14.78-67.932-2.652-9.033-5.291-15.956-7.828-20.631-.917-1.689-1.745-2.944-2.41-3.748-6.423-.966-26.781 9.234-64.458 34.132-31.405 20.766-43.002 27.946-57.394 34.607-24.374 11.282-44.367 12.992-59.535-2.176-14.665-14.665-13.963-34.598-4.498-60.043 5.714-15.363 12.333-28.367 29.411-59.587 23.71-43.349 32.719-64.964 31.196-72.218-.802-.671-2.071-1.512-3.789-2.445-4.676-2.538-11.599-5.176-20.632-7.828-15.554-4.567-32.241-8.085-67.936-14.78l-5.411-1.015c-41.979-7.874-61.56-12.11-80.582-18.256-31.528-10.187-49.666-22.878-49.666-45.902s18.138-35.716 49.666-45.902c19.022-6.146 38.602-10.382 80.582-18.256l5.411-1.015c35.695-6.695 52.382-10.213 67.936-14.78 9.033-2.652 15.957-5.291 20.632-7.828 1.154-2.888.192-5.163-1.09-7.799-4.251-8.745-11.45-20.364-21.488-34.741-16.349-23.417-33.224-45.15-75.467-98.132-44.196-55.432-62.94-79.698-80.173-104.961-29.599-43.393-39.527-66.81-21.138-85.199s41.807-8.461 85.199 21.138c25.263 17.232 49.529 35.977 104.487 79.795 53.456 42.621 75.189 59.495 98.606 75.845 14.378 10.038 25.997 17.237 34.741 21.488 3.279 1.594 5.999 2.694 8.03 3.306 5.142-5.277 12.357-24.751 22.7-64.07 8.763-33.312 12.965-47.242 19.419-61.575 10.6-23.54 24.519-37.77 45.43-37.77s34.83 14.23 45.43 37.77c6.454 14.333 10.656 28.263 18.936 59.737 12.076 45.906 19.739 65.045 24.96 67.21 1.198-.664 3.881-1.23 7.243-2.249 7.42-2.25 17.201-6.406 29.25-12.413 19.771-9.858 37.435-19.982 82.763-46.85 47.741-28.295 69.725-40.726 92.055-51.269 36.883-17.414 59.689-22.345 75.964-6.07 18.259 18.266 9.427 40.117-15.192 72.756-14.063 18.645-28.365 34.807-65.903 75.643-33.369 36.304-48.155 53.044-61.035 69.883-7.626 9.97-12.97 18.149-15.917 24.324a40.806 40.806 0 00-1.311 3.028c6.691 3.715 13.613 6.353 22.646 9.005z"/>
</g>
</svg>