<?xml version="1.0" encoding="UTF-8" standalone="no"?>
<!-- Uploaded to: SVG Repo, www.svgrepo.com, Transformed by: SVG Repo Mixer Tools -->

<svg
   fill="#ffffff"
   version="1.1"
   id="Capa_1"
   width="800px"
   height="800px"
   viewBox="0 0 863.143 863.144"
   xml:space="preserve"
   sodipodi:docname="JointSwingLimits.svg"
   inkscape:version="1.3 (0e150ed6c4, 2023-07-21)"
   xmlns:inkscape="http://www.inkscape.org/namespaces/inkscape"
   xmlns:sodipodi="http://sodipodi.sourceforge.net/DTD/sodipodi-0.dtd"
   xmlns="http://www.w3.org/2000/svg"
   xmlns:svg="http://www.w3.org/2000/svg"><defs
   id="defs1" /><sodipodi:namedview
   id="namedview1"
   pagecolor="#ffffff"
   bordercolor="#000000"
   borderopacity="0.25"
   inkscape:showpageshadow="2"
   inkscape:pageopacity="0.0"
   inkscape:pagecheckerboard="true"
   inkscape:deskcolor="#d1d1d1"
   inkscape:zoom="1.40125"
   inkscape:cx="399.64318"
   inkscape:cy="400"
   inkscape:window-width="2256"
   inkscape:window-height="1398"
   inkscape:window-x="-11"
   inkscape:window-y="-11"
   inkscape:window-maximized="1"
   inkscape:current-layer="Capa_1" />&#10;&#10;<g
   id="SVGRepo_bgCarrier"
   stroke-width="0" />&#10;&#10;<g
   id="SVGRepo_tracerCarrier"
   stroke-linecap="round"
   stroke-linejoin="round" />&#10;&#10;<g
   id="SVGRepo_iconCarrier"
   style="fill:#4f9ea9;fill-opacity:1"> <g
   id="g1"
   style="fill:#4f9ea9;fill-opacity:1"> <path
   d="M114.929,205.788c-28.012,35.098-49.833,74.258-64.857,116.393c-15.548,43.6-23.431,89.367-23.431,136.031 c0,54.643,10.714,107.679,31.843,157.634c20.397,48.225,49.588,91.524,86.759,128.695s80.471,66.361,128.696,86.759 c49.955,21.13,102.99,31.844,157.633,31.844c54.643,0,107.678-10.713,157.633-31.844c48.225-20.397,91.525-49.587,128.695-86.759 c37.172-37.171,66.361-80.471,86.76-128.695c21.129-49.956,31.842-102.991,31.842-157.634c0-79.906-23.258-157.21-67.258-223.557 C733.45,180.683,685.676,136.407,629.717,105h79.797c28.996,0,52.5-23.505,52.5-52.5c0-28.995-23.504-52.5-52.5-52.5H510.629 c-28.994,0-52.5,23.505-52.5,52.5v196.21c0,28.995,23.506,52.5,52.5,52.5c28.996,0,52.5-23.505,52.5-52.5v-60.124 c48.027,23.464,88.877,59.273,118.609,104.104c32.555,49.087,49.764,106.324,49.764,165.521 c0,80.114-31.199,155.435-87.848,212.083c-56.65,56.649-131.971,87.849-212.083,87.849c-80.114,0-155.435-31.198-212.083-87.849 c-56.649-56.649-87.848-131.969-87.848-212.083c0-34.612,5.831-68.515,17.331-100.764c11.115-31.171,27.273-60.161,48.024-86.162 c27.876-34.928,63.302-63.147,103.018-82.616v60.04c0,28.995,23.505,52.5,52.5,52.5s52.5-23.505,52.5-52.5V52.5 c0-28.995-23.505-52.5-52.5-52.5H153.63c-28.995,0-52.5,23.505-52.5,52.5c0,28.995,23.505,52.5,52.5,52.5h79.817 c-6.901,3.88-13.706,7.958-20.398,12.255C175.677,141.25,142.664,171.037,114.929,205.788z"
   id="path1"
   style="fill:#4f9ea9;fill-opacity:1" /> </g> </g>&#10;&#10;</svg>
