<!DOCTYPE svg PUBLIC "-//W3C//DTD SVG 1.1//EN" "http://www.w3.org/Graphics/SVG/1.1/DTD/svg11.dtd">
<!-- Uploaded to: SVG Repo, www.svgrepo.com, Transformed by: SVG Repo Mixer Tools -->
<svg fill="#ffffff" version="1.1" id="Capa_1" xmlns="http://www.w3.org/2000/svg" xmlns:xlink="http://www.w3.org/1999/xlink" width="800px" height="800px" viewBox="0 0 863.143 863.144" xml:space="preserve">
<g id="SVGRepo_bgCarrier" stroke-width="0"/>
<g id="SVGRepo_tracerCarrier" stroke-linecap="round" stroke-linejoin="round"/>
<g id="SVGRepo_iconCarrier"> <g> <path d="M114.929,205.788c-28.012,35.098-49.833,74.258-64.857,116.393c-15.548,43.6-23.431,89.367-23.431,136.031 c0,54.643,10.714,107.679,31.843,157.634c20.397,48.225,49.588,91.524,86.759,128.695s80.471,66.361,128.696,86.759 c49.955,21.13,102.99,31.844,157.633,31.844c54.643,0,107.678-10.713,157.633-31.844c48.225-20.397,91.525-49.587,128.695-86.759 c37.172-37.171,66.361-80.471,86.76-128.695c21.129-49.956,31.842-102.991,31.842-157.634c0-79.906-23.258-157.21-67.258-223.557 C733.45,180.683,685.676,136.407,629.717,105h79.797c28.996,0,52.5-23.505,52.5-52.5c0-28.995-23.504-52.5-52.5-52.5H510.629 c-28.994,0-52.5,23.505-52.5,52.5v196.21c0,28.995,23.506,52.5,52.5,52.5c28.996,0,52.5-23.505,52.5-52.5v-60.124 c48.027,23.464,88.877,59.273,118.609,104.104c32.555,49.087,49.764,106.324,49.764,165.521 c0,80.114-31.199,155.435-87.848,212.083c-56.65,56.649-131.971,87.849-212.083,87.849c-80.114,0-155.435-31.198-212.083-87.849 c-56.649-56.649-87.848-131.969-87.848-212.083c0-34.612,5.831-68.515,17.331-100.764c11.115-31.171,27.273-60.161,48.024-86.162 c27.876-34.928,63.302-63.147,103.018-82.616v60.04c0,28.995,23.505,52.5,52.5,52.5s52.5-23.505,52.5-52.5V52.5 c0-28.995-23.505-52.5-52.5-52.5H153.63c-28.995,0-52.5,23.505-52.5,52.5c0,28.995,23.505,52.5,52.5,52.5h79.817 c-6.901,3.88-13.706,7.958-20.398,12.255C175.677,141.25,142.664,171.037,114.929,205.788z"/> </g> </g>
</svg>