<!DOCTYPE svg PUBLIC "-//W3C//DTD SVG 1.1//EN" "http://www.w3.org/Graphics/SVG/1.1/DTD/svg11.dtd">
<!-- Uploaded to: SVG Repo, www.svgrepo.com, Transformed by: SVG Repo Mixer Tools -->
<svg fill="#ffffff" height="800px" width="800px" version="1.1" id="Layer_1" xmlns="http://www.w3.org/2000/svg" xmlns:xlink="http://www.w3.org/1999/xlink" viewBox="0 0 506.4 506.4" xml:space="preserve">
<g id="SVGRepo_bgCarrier" stroke-width="0"/>
<g id="SVGRepo_tracerCarrier" stroke-linecap="round" stroke-linejoin="round"/>
<g id="SVGRepo_iconCarrier"> <g> <g> <path d="M75,252c-6-6-14-9.2-22.4-9.2c-8.4,0-16.4,3.2-22.4,9.2S21,266,21,274.4c0,8.4,3.2,16.4,9.2,22.4s14,9.2,22.4,9.2 c8.4,0,16.4-3.2,22.4-9.2s9.2-14,9.2-22.4C84.2,266,81,258,75,252z"/> </g> </g> <g> <g> <path d="M130.6,390.4c-10-10.4-18-21.6-24.8-33.6c-5.6-10-16-16-27.6-16c-5.2,0-10.8,1.2-15.6,4c-15.2,8.4-20.8,28-12,43.2 c9.2,16.8,20.8,32,34,46c6,6.4,14.4,10,23.2,10c8,0,16-3.2,21.6-8.8c6-6,9.6-13.6,10-22C139.8,404.8,136.6,396.8,130.6,390.4z"/> </g> </g> <g> <g> <path d="M355,450c-5.6-12-17.6-20-30.4-20c-4,0-7.6,0.8-11.2,2c-19.2,7.2-39.6,11.2-60,11.2c-14.4,0-28.4-1.6-42.4-5.2 c-1.2-0.4-2.4-0.4-3.2-0.8c-2.8-0.8-5.6-1.2-8.4-1.2c-14,0-26.8,9.6-30.4,23.2c-2.4,8-1.2,16.8,2.8,24S182.6,496,191,498 c1.6,0.4,3.2,0.8,4.8,1.2c18.8,4.8,38.4,7.2,58,7.2c28.4,0,56.4-5.2,82.8-15.2c8-3.2,14-8.8,17.6-16.8 C357.8,466.8,357.8,458,355,450z"/> </g> </g> <g> <g> <path d="M328.6,55.2c4.8-4.4,8-10,9.6-16.4c2-8.4,0.4-16.8-4-24c-6-9.2-16-14.8-26.8-14.8c-6,0-11.6,1.6-16.8,4.8l-58,36.8 c-7.2,4.4-12,11.6-14,19.6c-2,8.4-0.4,16.8,4,24l36.8,58c6,9.2,16,14.8,26.8,14.8c6,0,11.6-1.6,16.8-4.8c12-7.6,17.2-22,13.6-35.2 c63.2,25.6,105.2,87.6,105.2,156.4c0,38-12.4,74-35.6,104c-10.8,13.6-8.4,33.6,5.6,44.4c5.6,4.4,12.4,6.8,19.6,6.8 c10,0,18.8-4.4,24.8-12c32-41.2,49.2-90.4,49.2-142.8C485,174.4,422.6,87.6,328.6,55.2z"/> </g> </g> </g>
</svg>