<!DOCTYPE svg PUBLIC "-//W3C//DTD SVG 1.1//EN" "http://www.w3.org/Graphics/SVG/1.1/DTD/svg11.dtd">
<!-- Uploaded to: SVG Repo, www.svgrepo.com, Transformed by: SVG Repo Mixer Tools -->
<svg fill="#ffffff" height="800px" width="800px" version="1.1" id="Capa_1" xmlns="http://www.w3.org/2000/svg" xmlns:xlink="http://www.w3.org/1999/xlink" viewBox="0 0 320 320" xml:space="preserve">
<g id="SVGRepo_bgCarrier" stroke-width="0"/>
<g id="SVGRepo_tracerCarrier" stroke-linecap="round" stroke-linejoin="round"/>
<g id="SVGRepo_iconCarrier"> <path d="M273.507,0H46.495C21.896,0,1.882,20.21,1.882,45.051v229.897C1.882,299.79,21.896,320,46.495,320h227.012 c24.599,0,44.611-20.21,44.611-45.052V45.051C318.118,20.21,298.105,0,273.507,0z M95.943,224.689v-55.31H224.06v55.31H95.943z M234.698,149.38c-0.212-0.013-0.423-0.032-0.638-0.032s-0.426,0.019-0.638,0.032h-63.42V94.069h128.117v55.311H234.698z M95.943,74.069V20H224.06v54.069H95.943z M150.001,94.069v55.311H86.582c-0.212-0.013-0.423-0.032-0.638-0.032 s-0.426,0.019-0.638,0.032H21.882V94.069H150.001z M21.882,169.38h54.062v55.31H21.882V169.38z M244.06,169.38h54.059v55.31H244.06 V169.38z M298.118,45.051v29.019H244.06V20h29.447C287.077,20,298.118,31.237,298.118,45.051z M46.495,20h29.448v54.069H21.882 V45.051C21.882,31.237,32.923,20,46.495,20z M21.882,274.948v-30.259h128.119V300H46.495C32.923,300,21.882,288.762,21.882,274.948z M273.507,300H170.001v-55.311h128.117v30.259C298.118,288.762,287.077,300,273.507,300z"/> </g>
</svg>