<!DOCTYPE svg PUBLIC "-//W3C//DTD SVG 1.1//EN" "http://www.w3.org/Graphics/SVG/1.1/DTD/svg11.dtd">
<!-- Uploaded to: SVG Repo, www.svgrepo.com, Transformed by: SVG Repo Mixer Tools -->
<svg width="800px" height="800px" viewBox="0 0 400 400" fill="none" xmlns="http://www.w3.org/2000/svg">
<g id="SVGRepo_bgCarrier" stroke-width="0"/>
<g id="SVGRepo_tracerCarrier" stroke-linecap="round" stroke-linejoin="round"/>
<g id="SVGRepo_iconCarrier"> <path d="M266.43 53.6046C265.826 53.3126 265.145 53.246 264.485 53.1153C264.042 53.0288 263.577 53 263.105 53C262.305 53 261.488 53.0847 260.73 53.1225C257.949 53.2541 255.174 53.4424 252.393 53.601C248.478 53.7136 244.561 53.6325 240.645 53.7172C236.092 53.8154 231.557 54.0686 227.014 54.3506C224.447 54.4263 221.88 54.4172 219.309 54.4497C216.332 54.4911 213.355 54.6605 210.378 54.8236C208.098 54.9047 205.829 54.9173 203.547 54.865C201.382 54.8155 199.216 54.7065 197.051 54.6749C192.346 54.6073 187.645 54.583 182.939 54.5055C178.101 54.4281 173.274 54.4776 168.432 54.5974C163.86 54.7137 159.283 54.8326 154.707 54.8119C152.59 54.8011 150.472 54.6569 148.355 54.5866C147.184 54.5479 146.017 54.5623 144.85 54.5794C144.028 54.5902 143.207 54.601 142.39 54.5902C141.256 54.5758 140.24 54.8011 139.346 55.5119C138.473 56.2021 137.917 57.2229 137.828 58.3032" stroke="#ffffff" stroke-opacity="0.9" stroke-width="16" stroke-linecap="round" stroke-linejoin="round"/> <path d="M269.804 147.131C270.138 146.423 270.386 145.728 270.405 144.994C270.426 144.398 270.332 143.707 270.205 143.098C270.044 142.286 268.158 65.3936 267.99 63.0228C267.877 61.4876 267.803 59.9556 267.501 58.4288C267.227 57.0506 266.826 55.6914 266.431 54.3258" stroke="#ffffff" stroke-opacity="0.9" stroke-width="16" stroke-linecap="round" stroke-linejoin="round"/> <path d="M140.48 55.6516C139.649 55.8254 138.898 56.3752 138.411 57.1649C137.882 58.0245 137.757 58.9795 137.862 60.0015C137.991 61.2295 138.068 62.4556 138.128 63.6884C138.242 70.0399 139.118 130.121 139.273 132.881C139.352 135.033 139.411 137.187 139.505 139.342C139.617 141.954 139.71 144.567 140.201 147.131" stroke="#ffffff" stroke-opacity="0.9" stroke-width="16" stroke-linecap="round" stroke-linejoin="round"/> <path d="M140.478 149.783C142.039 150.036 143.553 150.171 145.125 150.154C146.69 150.137 259.181 152.632 261.925 152.422C263.016 152.339 264.103 152.226 265.19 152.112C265.668 152.06 266.146 152.016 266.62 151.938C267.357 151.816 268.517 151.197 269.079 150.607" stroke="#ffffff" stroke-opacity="0.9" stroke-width="16" stroke-linecap="round" stroke-linejoin="round"/> <path d="M194.567 97.0262C194.211 93.527 194.756 89.3005 194.904 86.1448" stroke="#ffffff" stroke-opacity="0.9" stroke-width="16" stroke-linecap="round" stroke-linejoin="round"/> <path d="M218.03 97.0262C218.064 93.6313 218.094 90.2581 218.199 86.8701" stroke="#ffffff" stroke-opacity="0.9" stroke-width="16" stroke-linecap="round" stroke-linejoin="round"/> <path d="M278.045 263.801C278.217 261.721 293.122 200.108 291.95 199.5C291.567 199.301 261.809 174.227 243.245 174.787C218.872 175.523 185.383 176.66 159.989 177.531C139.35 178.239 108.037 213.019 107.332 213.019" stroke="#ffffff" stroke-opacity="0.9" stroke-width="16" stroke-linecap="round" stroke-linejoin="round"/> <path fill-rule="evenodd" clip-rule="evenodd" d="M107.333 213.021C107.988 215.621 116.719 257.102 116.992 259.566C117.096 260.517 107.206 212.647 107.333 213.021Z" stroke="#ffffff" stroke-opacity="0.9" stroke-width="16" stroke-linecap="round" stroke-linejoin="round"/> <path d="M169.644 266.452C169.531 268.854 169.347 277.005 169.205 279.401C169.064 281.786 169 284.176 168.905 286.565C168.707 291.518 168.082 327.674 167.88 330.335C167.692 332.782 167.494 335.233 167.418 337.684C167.371 339.12 167.388 340.566 167.562 341.995C167.622 342.501 155.809 344.326 155.061 344.674" stroke="#ffffff" stroke-opacity="0.9" stroke-width="16" stroke-linecap="round" stroke-linejoin="round"/> <path d="M239.912 345.847C239.629 345.821 233.144 345.799 230.693 346C230.187 346.04 232.976 304.826 232.908 295.185C232.841 285.569 232.799 277.395 232.946 267.778" stroke="#ffffff" stroke-opacity="0.9" stroke-width="16" stroke-linecap="round" stroke-linejoin="round"/> <path d="M282.835 281.842C283.902 281.949 284.983 281.637 285.821 280.975C286.745 280.248 287.137 279.304 287.348 278.185C287.576 276.966 287.808 275.747 288.03 274.526C288.12 274.043 288.195 273.555 288.27 273.068C288.579 271.051 288.007 268.865 286.239 267.639C284.769 266.623 283.059 266.105 281.41 265.453C280.313 265.015 279.215 264.577 278.118 264.142C276.893 263.655 275.635 263.235 274.361 262.87C273.259 262.554 272.145 262.279 271.033 262.036C270.548 261.931 270.065 261.83 269.583 261.733C268.561 261.534 267.427 261.223 266.392 261.425C264.929 261.709 263.721 262.277 262.657 263.32C261.599 264.357 260.752 265.515 259.966 266.762C259.363 267.72 259.042 268.707 259.229 269.85C259.403 270.933 260.014 271.918 260.911 272.564" stroke="#ffffff" stroke-opacity="0.9" stroke-width="16" stroke-linecap="round" stroke-linejoin="round"/> <path d="M130.999 275.361C131.944 274.854 132.665 273.991 132.989 272.974C133.349 271.854 133.146 270.852 132.694 269.807C132.202 268.669 131.713 267.529 131.213 266.393C131.018 265.942 130.807 265.496 130.597 265.049C129.725 263.205 128.028 261.713 125.876 261.685C124.089 261.663 122.382 262.191 120.65 262.572C119.495 262.822 118.34 263.072 117.187 263.325C115.899 263.606 114.622 263.961 113.361 264.371C112.27 264.725 111.193 265.119 110.135 265.54C109.675 265.724 109.218 265.91 108.763 266.099C107.805 266.505 106.691 266.882 105.946 267.628C104.892 268.681 104.208 269.827 103.91 271.287C103.612 272.738 103.558 274.171 103.604 275.644C103.64 276.775 103.925 277.773 104.72 278.616C105.47 279.417 106.527 279.892 107.633 279.926" stroke="#ffffff" stroke-opacity="0.9" stroke-width="16" stroke-linecap="round" stroke-linejoin="round"/> <path d="M165.105 182.088C164.455 183.012 164.392 183.93 164.459 185.014C164.473 185.227 164.486 185.44 164.498 185.652C164.897 194.868 164.443 204.092 164.775 213.307C164.95 218.247 165.125 223.183 165.206 228.122C165.28 232.668 165.346 237.236 164.971 241.771C164.74 244.57 164.508 247.366 164.409 250.173C164.312 252.904 164.297 255.71 164.522 258.439C164.613 259.562 164.894 260.799 165.644 261.667C166.669 262.85 167.967 263.389 169.514 263.449C170.543 263.491 171.605 263.29 172.626 263.148C173.808 262.985 174.981 262.765 176.142 262.482C177.418 262.169 205.149 261.274 207.054 261.337C209.226 261.408 211.369 261.55 213.53 261.724C217.14 262.014 220.729 262.588 224.336 262.904C226.301 263.073 228.265 263.229 230.234 263.346C231.779 263.436 233.364 263.412 234.885 263.715L235.18 263.779C236.135 263.867 236.63 263.679 237.51 263.385C238.59 263.028 239.492 261.883 239.871 260.827C240.298 259.642 240.101 258.338 239.997 257.094C239.849 252.698 239.931 248.324 240.193 243.933C240.262 242.788 241.914 229.918 242.755 215.072C243.632 199.601 243.699 182.138 243.728 181.34C243.752 180.581 243.784 179.823 243.816 179.068C243.868 177.694 244.072 176.252 243.447 174.973" stroke="#ffffff" stroke-opacity="0.9" stroke-width="16" stroke-linecap="round" stroke-linejoin="round"/> <path d="M283.949 205.391C286.282 208.52 299.662 197.539 299.439 198.099" stroke="#ffffff" stroke-opacity="0.9" stroke-width="16" stroke-linecap="round" stroke-linejoin="round"/> <path d="M116.995 215.722C116.725 215.722 111.393 213.844 101 210.089" stroke="#ffffff" stroke-opacity="0.9" stroke-width="16" stroke-linecap="round" stroke-linejoin="round"/> <path d="M174.947 302.283C173.193 302.277 171.436 302.249 169.681 302.249C169.111 302.249 168.541 302.253 167.971 302.26C165.363 302.303 162.918 302.866 160.363 303.575" stroke="#ffffff" stroke-opacity="0.9" stroke-width="16" stroke-linecap="round" stroke-linejoin="round"/> <path d="M241.237 302.283C239.483 302.277 237.726 302.249 235.971 302.249C235.401 302.249 234.831 302.253 234.261 302.26C231.653 302.303 229.208 302.866 226.653 303.575" stroke="#ffffff" stroke-opacity="0.9" stroke-width="16" stroke-linecap="round" stroke-linejoin="round"/> <path d="M269.08 95.4253L282.629 96.7511L291.619 95.4253" stroke="#ffffff" stroke-opacity="0.9" stroke-width="16" stroke-linecap="round" stroke-linejoin="round"/> <path d="M131.2 94.7625H112.639" stroke="#ffffff" stroke-opacity="0.9" stroke-width="16" stroke-linecap="round" stroke-linejoin="round"/> <path d="M291.95 86.4895V102.782" stroke="#ffffff" stroke-opacity="0.9" stroke-width="16" stroke-linecap="round" stroke-linejoin="round"/> <path d="M111.824 86.4895V102.782" stroke="#ffffff" stroke-opacity="0.9" stroke-width="16" stroke-linecap="round" stroke-linejoin="round"/> </g>
</svg>