<?xml version="1.0" encoding="UTF-8" standalone="no"?>
<!-- Uploaded to: SVG Repo, www.svgrepo.com, Transformed by: SVG Repo Mixer Tools -->

<svg
   width="800px"
   height="800px"
   viewBox="0 0 400 400"
   fill="none"
   version="1.1"
   id="svg21"
   sodipodi:docname="PreviewMesh.svg"
   inkscape:version="1.3 (0e150ed6c4, 2023-07-21)"
   xmlns:inkscape="http://www.inkscape.org/namespaces/inkscape"
   xmlns:sodipodi="http://sodipodi.sourceforge.net/DTD/sodipodi-0.dtd"
   xmlns="http://www.w3.org/2000/svg"
   xmlns:svg="http://www.w3.org/2000/svg">
  <defs
     id="defs21" />
  <sodipodi:namedview
     id="namedview21"
     pagecolor="#ffffff"
     bordercolor="#000000"
     borderopacity="0.25"
     inkscape:showpageshadow="2"
     inkscape:pageopacity="0.0"
     inkscape:pagecheckerboard="true"
     inkscape:deskcolor="#d1d1d1"
     inkscape:zoom="1.40125"
     inkscape:cx="399.64318"
     inkscape:cy="400"
     inkscape:window-width="2256"
     inkscape:window-height="1398"
     inkscape:window-x="-11"
     inkscape:window-y="-11"
     inkscape:window-maximized="1"
     inkscape:current-layer="svg21" />
  <g
     id="SVGRepo_bgCarrier"
     stroke-width="0" />
  <g
     id="SVGRepo_tracerCarrier"
     stroke-linecap="round"
     stroke-linejoin="round" />
  <g
     id="SVGRepo_iconCarrier"
     style="stroke:#4f9ea9;stroke-opacity:1"
     transform="matrix(1.3631309,0,0,1.2654484,-72.705838,-52.953662)">
    <path
       d="m 266.43,53.6046 c -0.604,-0.292 -1.285,-0.3586 -1.945,-0.4893 C 264.042,53.0288 263.577,53 263.105,53 c -0.8,0 -1.617,0.0847 -2.375,0.1225 -2.781,0.1316 -5.556,0.3199 -8.337,0.4785 -3.915,0.1126 -7.832,0.0315 -11.748,0.1162 -4.553,0.0982 -9.088,0.3514 -13.631,0.6334 -2.567,0.0757 -5.134,0.0666 -7.705,0.0991 -2.977,0.0414 -5.954,0.2108 -8.931,0.3739 -2.28,0.0811 -4.549,0.0937 -6.831,0.0414 -2.165,-0.0495 -4.331,-0.1585 -6.496,-0.1901 -4.705,-0.0676 -9.406,-0.0919 -14.112,-0.1694 -4.838,-0.0774 -9.665,-0.0279 -14.507,0.0919 -4.572,0.1163 -9.149,0.2352 -13.725,0.2145 -2.117,-0.0108 -4.235,-0.155 -6.352,-0.2253 -1.171,-0.0387 -2.338,-0.0243 -3.505,-0.0072 -0.822,0.0108 -1.643,0.0216 -2.46,0.0108 -1.134,-0.0144 -2.15,0.2109 -3.044,0.9217 -0.873,0.6902 -1.429,1.711 -1.518,2.7913"
       stroke="#ffffff"
       stroke-opacity="0.9"
       stroke-width="16"
       stroke-linecap="round"
       stroke-linejoin="round"
       id="path1"
       style="stroke:#4f9ea9;stroke-opacity:1" />
    <path
       d="m 269.804,147.131 c 0.334,-0.708 0.582,-1.403 0.601,-2.137 0.021,-0.596 -0.073,-1.287 -0.2,-1.896 -0.161,-0.812 -2.047,-77.7044 -2.215,-80.0752 -0.113,-1.5352 -0.187,-3.0672 -0.489,-4.594 -0.274,-1.3782 -0.675,-2.7374 -1.07,-4.103"
       stroke="#ffffff"
       stroke-opacity="0.9"
       stroke-width="16"
       stroke-linecap="round"
       stroke-linejoin="round"
       id="path2"
       style="stroke:#4f9ea9;stroke-opacity:1" />
    <path
       d="m 140.48,55.6516 c -0.831,0.1738 -1.582,0.7236 -2.069,1.5133 -0.529,0.8596 -0.654,1.8146 -0.549,2.8366 0.129,1.228 0.206,2.4541 0.266,3.6869 0.114,6.3515 0.99,66.4326 1.145,69.1926 0.079,2.152 0.138,4.306 0.232,6.461 0.112,2.612 0.205,5.225 0.696,7.789"
       stroke="#ffffff"
       stroke-opacity="0.9"
       stroke-width="16"
       stroke-linecap="round"
       stroke-linejoin="round"
       id="path3"
       style="stroke:#4f9ea9;stroke-opacity:1" />
    <path
       d="m 140.478,149.783 c 1.561,0.253 3.075,0.388 4.647,0.371 1.565,-0.017 114.056,2.478 116.8,2.268 1.091,-0.083 2.178,-0.196 3.265,-0.31 0.478,-0.052 0.956,-0.096 1.43,-0.174 0.737,-0.122 1.897,-0.741 2.459,-1.331"
       stroke="#ffffff"
       stroke-opacity="0.9"
       stroke-width="16"
       stroke-linecap="round"
       stroke-linejoin="round"
       id="path4"
       style="stroke:#4f9ea9;stroke-opacity:1" />
    <path
       d="m 194.567,97.0262 c -0.356,-3.4992 0.189,-7.7257 0.337,-10.8814"
       stroke="#ffffff"
       stroke-opacity="0.9"
       stroke-width="16"
       stroke-linecap="round"
       stroke-linejoin="round"
       id="path5"
       style="stroke:#4f9ea9;stroke-opacity:1" />
    <path
       d="m 218.03,97.0262 c 0.034,-3.3949 0.064,-6.7681 0.169,-10.1561"
       stroke="#ffffff"
       stroke-opacity="0.9"
       stroke-width="16"
       stroke-linecap="round"
       stroke-linejoin="round"
       id="path6"
       style="stroke:#4f9ea9;stroke-opacity:1" />
    <path
       d="m 278.045,263.801 c 0.172,-2.08 15.077,-63.693 13.905,-64.301 -0.383,-0.199 -30.141,-25.273 -48.705,-24.713 -24.373,0.736 -57.862,1.873 -83.256,2.744 -20.639,0.708 -51.952,35.488 -52.657,35.488"
       stroke="#ffffff"
       stroke-opacity="0.9"
       stroke-width="16"
       stroke-linecap="round"
       stroke-linejoin="round"
       id="path7"
       style="stroke:#4f9ea9;stroke-opacity:1" />
    <path
       fill-rule="evenodd"
       clip-rule="evenodd"
       d="m 107.333,213.021 c 0.655,2.6 9.386,44.081 9.659,46.545 0.104,0.951 -9.786,-46.919 -9.659,-46.545 z"
       stroke="#ffffff"
       stroke-opacity="0.9"
       stroke-width="16"
       stroke-linecap="round"
       stroke-linejoin="round"
       id="path8"
       style="stroke:#4f9ea9;stroke-opacity:1" />
    <path
       d="m 169.644,266.452 c -0.113,2.402 -0.297,10.553 -0.439,12.949 -0.141,2.385 -0.205,4.775 -0.3,7.164 -0.198,4.953 -0.823,41.109 -1.025,43.77 -0.188,2.447 -0.386,4.898 -0.462,7.349 -0.047,1.436 -0.03,2.882 0.144,4.311 0.06,0.506 -11.753,2.331 -12.501,2.679"
       stroke="#ffffff"
       stroke-opacity="0.9"
       stroke-width="16"
       stroke-linecap="round"
       stroke-linejoin="round"
       id="path9"
       style="stroke:#4f9ea9;stroke-opacity:1" />
    <path
       d="m 239.912,345.847 c -0.283,-0.026 -6.768,-0.048 -9.219,0.153 -0.506,0.04 2.283,-41.174 2.215,-50.815 -0.067,-9.616 -0.109,-17.79 0.038,-27.407"
       stroke="#ffffff"
       stroke-opacity="0.9"
       stroke-width="16"
       stroke-linecap="round"
       stroke-linejoin="round"
       id="path10"
       style="stroke:#4f9ea9;stroke-opacity:1" />
    <path
       d="m 282.835,281.842 c 1.067,0.107 2.148,-0.205 2.986,-0.867 0.924,-0.727 1.316,-1.671 1.527,-2.79 0.228,-1.219 0.46,-2.438 0.682,-3.659 0.09,-0.483 0.165,-0.971 0.24,-1.458 0.309,-2.017 -0.263,-4.203 -2.031,-5.429 -1.47,-1.016 -3.18,-1.534 -4.829,-2.186 -1.097,-0.438 -2.195,-0.876 -3.292,-1.311 -1.225,-0.487 -2.483,-0.907 -3.757,-1.272 -1.102,-0.316 -2.216,-0.591 -3.328,-0.834 -0.485,-0.105 -0.968,-0.206 -1.45,-0.303 -1.022,-0.199 -2.156,-0.51 -3.191,-0.308 -1.463,0.284 -2.671,0.852 -3.735,1.895 -1.058,1.037 -1.905,2.195 -2.691,3.442 -0.603,0.958 -0.924,1.945 -0.737,3.088 0.174,1.083 0.785,2.068 1.682,2.714"
       stroke="#ffffff"
       stroke-opacity="0.9"
       stroke-width="16"
       stroke-linecap="round"
       stroke-linejoin="round"
       id="path11"
       style="stroke:#4f9ea9;stroke-opacity:1" />
    <path
       d="m 130.999,275.361 c 0.945,-0.507 1.666,-1.37 1.99,-2.387 0.36,-1.12 0.157,-2.122 -0.295,-3.167 -0.492,-1.138 -0.981,-2.278 -1.481,-3.414 -0.195,-0.451 -0.406,-0.897 -0.616,-1.344 -0.872,-1.844 -2.569,-3.336 -4.721,-3.364 -1.787,-0.022 -3.494,0.506 -5.226,0.887 -1.155,0.25 -2.31,0.5 -3.463,0.753 -1.288,0.281 -2.565,0.636 -3.826,1.046 -1.091,0.354 -2.168,0.748 -3.226,1.169 -0.46,0.184 -0.917,0.37 -1.372,0.559 -0.958,0.406 -2.072,0.783 -2.817,1.529 -1.054,1.053 -1.738,2.199 -2.036,3.659 -0.298,1.451 -0.352,2.884 -0.306,4.357 0.036,1.131 0.321,2.129 1.116,2.972 0.75,0.801 1.807,1.276 2.913,1.31"
       stroke="#ffffff"
       stroke-opacity="0.9"
       stroke-width="16"
       stroke-linecap="round"
       stroke-linejoin="round"
       id="path12"
       style="stroke:#4f9ea9;stroke-opacity:1" />
    <path
       d="m 165.105,182.088 c -0.65,0.924 -0.713,1.842 -0.646,2.926 0.014,0.213 0.027,0.426 0.039,0.638 0.399,9.216 -0.055,18.44 0.277,27.655 0.175,4.94 0.35,9.876 0.431,14.815 0.074,4.546 0.14,9.114 -0.235,13.649 -0.231,2.799 -0.463,5.595 -0.562,8.402 -0.097,2.731 -0.112,5.537 0.113,8.266 0.091,1.123 0.372,2.36 1.122,3.228 1.025,1.183 2.323,1.722 3.87,1.782 1.029,0.042 2.091,-0.159 3.112,-0.301 1.182,-0.163 2.355,-0.383 3.516,-0.666 1.276,-0.313 29.007,-1.208 30.912,-1.145 2.172,0.071 4.315,0.213 6.476,0.387 3.61,0.29 7.199,0.864 10.806,1.18 1.965,0.169 3.929,0.325 5.898,0.442 1.545,0.09 3.13,0.066 4.651,0.369 l 0.295,0.064 c 0.955,0.088 1.45,-0.1 2.33,-0.394 1.08,-0.357 1.982,-1.502 2.361,-2.558 0.427,-1.185 0.23,-2.489 0.126,-3.733 -0.148,-4.396 -0.066,-8.77 0.196,-13.161 0.069,-1.145 1.721,-14.015 2.562,-28.861 0.877,-15.471 0.944,-32.934 0.973,-33.732 0.024,-0.759 0.056,-1.517 0.088,-2.272 0.052,-1.374 0.256,-2.816 -0.369,-4.095"
       stroke="#ffffff"
       stroke-opacity="0.9"
       stroke-width="16"
       stroke-linecap="round"
       stroke-linejoin="round"
       id="path13"
       style="stroke:#4f9ea9;stroke-opacity:1" />
    <path
       d="m 283.949,205.391 c 2.333,3.129 15.713,-7.852 15.49,-7.292"
       stroke="#ffffff"
       stroke-opacity="0.9"
       stroke-width="16"
       stroke-linecap="round"
       stroke-linejoin="round"
       id="path14"
       style="stroke:#4f9ea9;stroke-opacity:1" />
    <path
       d="m 116.995,215.722 c -0.27,0 -5.602,-1.878 -15.995,-5.633"
       stroke="#ffffff"
       stroke-opacity="0.9"
       stroke-width="16"
       stroke-linecap="round"
       stroke-linejoin="round"
       id="path15"
       style="stroke:#4f9ea9;stroke-opacity:1" />
    <path
       d="m 174.947,302.283 c -1.754,-0.006 -3.511,-0.034 -5.266,-0.034 -0.57,0 -1.14,0.004 -1.71,0.011 -2.608,0.043 -5.053,0.606 -7.608,1.315"
       stroke="#ffffff"
       stroke-opacity="0.9"
       stroke-width="16"
       stroke-linecap="round"
       stroke-linejoin="round"
       id="path16"
       style="stroke:#4f9ea9;stroke-opacity:1" />
    <path
       d="m 241.237,302.283 c -1.754,-0.006 -3.511,-0.034 -5.266,-0.034 -0.57,0 -1.14,0.004 -1.71,0.011 -2.608,0.043 -5.053,0.606 -7.608,1.315"
       stroke="#ffffff"
       stroke-opacity="0.9"
       stroke-width="16"
       stroke-linecap="round"
       stroke-linejoin="round"
       id="path17"
       style="stroke:#4f9ea9;stroke-opacity:1" />
    <path
       d="m 269.08,95.4253 13.549,1.3258 8.99,-1.3258"
       stroke="#ffffff"
       stroke-opacity="0.9"
       stroke-width="16"
       stroke-linecap="round"
       stroke-linejoin="round"
       id="path18"
       style="stroke:#4f9ea9;stroke-opacity:1" />
    <path
       d="M 131.2,94.7625 H 112.639"
       stroke="#ffffff"
       stroke-opacity="0.9"
       stroke-width="16"
       stroke-linecap="round"
       stroke-linejoin="round"
       id="path19"
       style="stroke:#4f9ea9;stroke-opacity:1" />
    <path
       d="M 291.95,86.4895 V 102.782"
       stroke="#ffffff"
       stroke-opacity="0.9"
       stroke-width="16"
       stroke-linecap="round"
       stroke-linejoin="round"
       id="path20"
       style="stroke:#4f9ea9;stroke-opacity:1" />
    <path
       d="M 111.824,86.4895 V 102.782"
       stroke="#ffffff"
       stroke-opacity="0.9"
       stroke-width="16"
       stroke-linecap="round"
       stroke-linejoin="round"
       id="path21"
       style="stroke:#4f9ea9;stroke-opacity:1" />
  </g>
</svg>
