<!DOCTYPE svg PUBLIC "-//W3C//DTD SVG 1.1//EN" "http://www.w3.org/Graphics/SVG/1.1/DTD/svg11.dtd">
<!-- Uploaded to: SVG Repo, www.svgrepo.com, Transformed by: SVG Repo Mixer Tools -->
<svg fill="#ffffff" height="800px" width="800px" version="1.1" id="Capa_1" xmlns="http://www.w3.org/2000/svg" xmlns:xlink="http://www.w3.org/1999/xlink" viewBox="0 0 452.025 452.025" xml:space="preserve">
<g id="SVGRepo_bgCarrier" stroke-width="0"/>
<g id="SVGRepo_tracerCarrier" stroke-linecap="round" stroke-linejoin="round"/>
<g id="SVGRepo_iconCarrier"> <g> <g> <path d="M147.912,363.325c-4.7-4.7-12.3-4.7-17,0c-4.7,4.7-4.7,12.3,0,17l13.6,13.6h-55.2c-35.9,0-65-29.2-65-65v-40.3 c0-6.6-5.4-12-12-12s-12,5.4-12,12v40.3c0,49.1,39.9,89,89,89h55.2l-13.6,13.6c-4.7,4.7-4.7,12.3,0,17c2.3,2.3,5.4,3.5,8.5,3.5 s6.1-1.2,8.5-3.5l34.1-34.1c4.7-4.7,4.7-12.3,0-17L147.912,363.325z"/> <path d="M210.312,0.025h-197.1c-6.6,0-12,5.4-12,12v197.1c0,6.6,5.4,12,12,12h197.1c6.6,0,12-5.4,12-12v-197.1 C222.312,5.425,217.012,0.025,210.312,0.025z M198.312,197.125h-173.1v-173.1h173.1V197.125z"/> <path d="M362.612,34.125h-55.2l13.6-13.6c4.7-4.7,4.7-12.3,0-17s-12.3-4.7-17,0l-34,34.1c-4.7,4.7-4.7,12.3,0,17l34.1,34.1 c2.3,2.3,5.4,3.5,8.5,3.5s6.1-1.2,8.5-3.5c4.7-4.7,4.7-12.3,0-17l-13.6-13.6h55.2c35.9,0,65,29.2,65,65v40.3c0,6.6,5.4,12,12,12 s12-5.4,12-12v-40.3C451.712,74.025,411.712,34.125,362.612,34.125z"/> <path d="M438.812,428.025c-3.2,0-6.3,1.3-8.5,3.5s-3.5,5.3-3.5,8.5c0,3.1,1.3,6.3,3.5,8.5s5.3,3.5,8.5,3.5s6.3-1.3,8.5-3.5 s3.5-5.3,3.5-8.5s-1.3-6.3-3.5-8.5C445.012,429.325,441.912,428.025,438.812,428.025z"/> <path d="M389.512,428.025c-6.6,0-12,5.4-12,12s5.4,12,12,12s12-5.4,12-12S396.112,428.025,389.512,428.025z"/> <path d="M290.912,428.025c-6.6,0-12,5.4-12,12s5.4,12,12,12s12-5.4,12-12S297.612,428.025,290.912,428.025z"/> <path d="M340.212,428.025c-6.6,0-12,5.4-12,12s5.4,12,12,12s12-5.4,12-12S346.812,428.025,340.212,428.025z"/> <path d="M241.713,428.025c-3.2,0-6.3,1.3-8.5,3.5s-3.5,5.3-3.5,8.5c0,3.1,1.3,6.3,3.5,8.5s5.3,3.5,8.5,3.5c3.1,0,6.3-1.3,8.5-3.5 s3.5-5.3,3.5-8.5s-1.3-6.3-3.5-8.5S244.812,428.025,241.713,428.025z"/> <path d="M241.713,378.725c-6.6,0-12,5.4-12,12s5.4,12,12,12s12-5.4,12-12S248.312,378.725,241.713,378.725z"/> <path d="M241.713,329.425c-6.6,0-12,5.4-12,12s5.4,12,12,12s12-5.4,12-12S248.312,329.425,241.713,329.425z"/> <path d="M241.713,280.125c-6.6,0-12,5.4-12,12s5.4,12,12,12s12-5.4,12-12S248.312,280.125,241.713,280.125z"/> <path d="M241.713,230.925c-3.2,0-6.3,1.3-8.5,3.5s-3.5,5.3-3.5,8.5s1.3,6.3,3.5,8.5s5.3,3.5,8.5,3.5c3.1,0,6.3-1.3,8.5-3.5 s3.5-5.3,3.5-8.5c0-3.1-1.3-6.3-3.5-8.5C247.912,232.125,244.812,230.925,241.713,230.925z"/> <path d="M389.512,230.925c-6.6,0-12,5.4-12,12s5.4,12,12,12s12-5.4,12-12S396.112,230.925,389.512,230.925z"/> <path d="M340.212,230.925c-6.6,0-12,5.4-12,12s5.4,12,12,12s12-5.4,12-12S346.812,230.925,340.212,230.925z"/> <path d="M290.912,230.925c-6.6,0-12,5.4-12,12s5.4,12,12,12s12-5.4,12-12S297.612,230.925,290.912,230.925z"/> <path d="M438.812,230.925c-3.2,0-6.3,1.3-8.5,3.5s-3.5,5.3-3.5,8.5s1.3,6.3,3.5,8.5s5.3,3.5,8.5,3.5s6.3-1.3,8.5-3.5 s3.5-5.3,3.5-8.5c0-3.1-1.3-6.3-3.5-8.5C445.012,232.225,441.912,230.925,438.812,230.925z"/> <path d="M438.812,280.125c-6.6,0-12,5.4-12,12s5.4,12,12,12s12-5.4,12-12S445.412,280.125,438.812,280.125z"/> <path d="M438.812,378.725c-6.6,0-12,5.4-12,12s5.4,12,12,12s12-5.4,12-12S445.412,378.725,438.812,378.725z"/> <path d="M438.812,329.425c-6.6,0-12,5.4-12,12s5.4,12,12,12s12-5.4,12-12S445.412,329.425,438.812,329.425z"/> </g> </g> </g>
</svg>