<!DOCTYPE svg PUBLIC "-//W3C//DTD SVG 1.1//EN" "http://www.w3.org/Graphics/SVG/1.1/DTD/svg11.dtd">
<!-- Uploaded to: SVG Repo, www.svgrepo.com, Transformed by: SVG Repo Mixer Tools -->
<svg fill="#ffffff" version="1.1" id="Capa_1" xmlns="http://www.w3.org/2000/svg" xmlns:xlink="http://www.w3.org/1999/xlink" width="800px" height="800px" viewBox="0 0 86.02 86.02" xml:space="preserve">
<g id="SVGRepo_bgCarrier" stroke-width="0"/>
<g id="SVGRepo_tracerCarrier" stroke-linecap="round" stroke-linejoin="round"/>
<g id="SVGRepo_iconCarrier"> <g> <path d="M0.354,48.874l0.118,25.351c0.001,0.326,0.181,0.624,0.467,0.779l20.249,10.602c0.132,0.071,0.276,0.106,0.421,0.106 c0.001,0,0.001,0,0.002,0c0.061,0.068,0.129,0.133,0.211,0.182c0.14,0.084,0.297,0.126,0.455,0.126 c0.146,0,0.291-0.035,0.423-0.106l19.992-10.842c0.183-0.099,0.315-0.261,0.392-0.445c0.081,0.155,0.203,0.292,0.364,0.379 l20.248,10.602c0.132,0.071,0.277,0.106,0.422,0.106c0.001,0,0.001,0,0.002,0c0.062,0.068,0.129,0.133,0.21,0.182 c0.142,0.084,0.299,0.126,0.456,0.126c0.146,0,0.29-0.035,0.422-0.106L85.2,75.071c0.287-0.154,0.467-0.456,0.467-0.783V47.911 c0-0.008-0.004-0.016-0.004-0.022c0-0.006,0.002-0.013,0.002-0.021c-0.001-0.023-0.01-0.049-0.014-0.072 c-0.007-0.05-0.014-0.098-0.027-0.146c-0.011-0.031-0.023-0.062-0.038-0.093c-0.019-0.042-0.037-0.082-0.062-0.12 c-0.019-0.03-0.04-0.058-0.062-0.084c-0.028-0.034-0.059-0.066-0.092-0.097c-0.025-0.023-0.054-0.045-0.083-0.066 c-0.02-0.012-0.034-0.03-0.056-0.043c-0.02-0.011-0.041-0.017-0.062-0.025c-0.019-0.01-0.03-0.022-0.049-0.029l-20.603-9.978 c-0.082-0.034-0.17-0.038-0.257-0.047V10.865c0-0.007-0.002-0.015-0.002-0.022c-0.001-0.007,0.001-0.013,0.001-0.02 c-0.001-0.025-0.012-0.049-0.015-0.073c-0.007-0.049-0.014-0.098-0.027-0.145c-0.01-0.032-0.024-0.063-0.038-0.093 c-0.02-0.042-0.036-0.083-0.062-0.12c-0.02-0.03-0.041-0.057-0.062-0.084c-0.028-0.034-0.058-0.067-0.091-0.097 c-0.025-0.023-0.055-0.045-0.083-0.065c-0.021-0.014-0.035-0.032-0.056-0.045c-0.021-0.011-0.042-0.016-0.062-0.026 c-0.019-0.009-0.031-0.021-0.048-0.027L43.118,0.07c-0.24-0.102-0.512-0.093-0.746,0.025L22.009,10.71 c-0.299,0.151-0.487,0.456-0.489,0.79c0,0.006,0.002,0.011,0.002,0.016c-0.037,0.099-0.063,0.202-0.063,0.312l0.118,25.233 c-0.106,0.011-0.213,0.03-0.311,0.079L0.903,47.755c-0.298,0.15-0.487,0.456-0.489,0.791c0,0.005,0.003,0.009,0.003,0.015 C0.379,48.659,0.353,48.764,0.354,48.874z M61.321,10.964L43.372,21l-19.005-9.485l18.438-9.646L61.321,10.964z M62.486,37.008 l-18.214,9.586V22.535l18.214-10.18V37.008z M65.674,59.58l18.214-10.179v24.355l-18.214,9.883V59.58z M45.77,48.559l18.438-9.646 l18.515,9.099L64.775,58.045L45.77,48.559z M23.165,59.58L41.38,49.402v24.355l-18.215,9.882V59.58z M3.262,48.559L21.7,38.913 l18.515,9.099L22.266,58.045L3.262,48.559z"/> </g> </g>
</svg>