<?xml version="1.0" encoding="UTF-8" standalone="no"?>
<!-- Uploaded to: SVG Repo, www.svgrepo.com, Transformed by: SVG Repo Mixer Tools -->

<svg
   width="800px"
   height="800px"
   viewBox="0 0 24 24"
   fill="none"
   version="1.1"
   id="svg1"
   sodipodi:docname="SkeletonBones.svg"
   inkscape:version="1.3 (0e150ed6c4, 2023-07-21)"
   xmlns:inkscape="http://www.inkscape.org/namespaces/inkscape"
   xmlns:sodipodi="http://sodipodi.sourceforge.net/DTD/sodipodi-0.dtd"
   xmlns="http://www.w3.org/2000/svg"
   xmlns:svg="http://www.w3.org/2000/svg">
  <defs
     id="defs1" />
  <sodipodi:namedview
     id="namedview1"
     pagecolor="#ffffff"
     bordercolor="#000000"
     borderopacity="0.25"
     inkscape:showpageshadow="2"
     inkscape:pageopacity="0.0"
     inkscape:pagecheckerboard="true"
     inkscape:deskcolor="#d1d1d1"
     inkscape:zoom="1.40125"
     inkscape:cx="399.64318"
     inkscape:cy="400"
     inkscape:window-width="2256"
     inkscape:window-height="1398"
     inkscape:window-x="-11"
     inkscape:window-y="-11"
     inkscape:window-maximized="1"
     inkscape:current-layer="svg1" />
  <g
     id="SVGRepo_bgCarrier"
     stroke-width="0" />
  <g
     id="SVGRepo_tracerCarrier"
     stroke-linecap="round"
     stroke-linejoin="round" />
  <g
     id="SVGRepo_iconCarrier"
     style="stroke:#4f9ea9;stroke-opacity:1">
    <path
       d="M18 5.5C18 5.6939 17.9779 5.88264 17.9362 6.06385C18.1174 6.02207 18.3061 6 18.5 6C19.8807 6 21 7.11929 21 8.5C21 9.88071 19.8807 11 18.5 11C17.7411 11 16.9411 10.836 16.2614 11.1734C15.4685 11.567 14.7401 12.0884 14.1073 12.7213L12.7214 14.1072C12.0885 14.7401 11.567 15.4685 11.1734 16.2615C10.836 16.9412 11 17.7412 11 18.5C11 19.8807 9.88071 21 8.5 21C7.11929 21 6 19.8807 6 18.5C6 18.3061 6.02207 18.1174 6.06385 17.9362C5.88264 17.9779 5.6939 18 5.5 18C4.11929 18 3 16.8807 3 15.5C3 14.1193 4.11929 13 5.5 13C6.25893 13 7.05907 13.1641 7.73885 12.8266C8.53173 12.433 9.2601 11.9116 9.89295 11.2787L11.2788 9.89284C11.9116 9.26007 12.433 8.53178 12.8266 7.739C13.1641 7.05919 13 6.25898 13 5.5C13 4.11929 14.1193 3 15.5 3C16.8807 3 18 4.11929 18 5.5Z"
       stroke="#ffffff"
       stroke-width="1.5"
       stroke-linecap="round"
       stroke-linejoin="round"
       id="path1"
       style="stroke:#4f9ea9;stroke-opacity:1" />
  </g>
</svg>
