<!DOCTYPE svg PUBLIC "-//W3C//DTD SVG 1.1//EN" "http://www.w3.org/Graphics/SVG/1.1/DTD/svg11.dtd">
<!-- Uploaded to: SVG Repo, www.svgrepo.com, Transformed by: SVG Repo Mixer Tools -->
<svg width="800px" height="800px" viewBox="0 0 24 24" xmlns="http://www.w3.org/2000/svg" fill="#ffffff">
<g id="SVGRepo_bgCarrier" stroke-width="0"/>
<g id="SVGRepo_tracerCarrier" stroke-linecap="round" stroke-linejoin="round"/>
<g id="SVGRepo_iconCarrier"> <g> <path fill="none" d="M0 0H24V24H0z"/> <path d="M10 2c.552 0 1 .448 1 1v4c0 .552-.448 1-1 1H8v2h5V9c0-.552.448-1 1-1h6c.552 0 1 .448 1 1v4c0 .552-.448 1-1 1h-6c-.552 0-1-.448-1-1v-1H8v6h5v-1c0-.552.448-1 1-1h6c.552 0 1 .448 1 1v4c0 .552-.448 1-1 1h-6c-.552 0-1-.448-1-1v-1H7c-.552 0-1-.448-1-1V8H4c-.552 0-1-.448-1-1V3c0-.552.448-1 1-1h6zm9 16h-4v2h4v-2zm0-8h-4v2h4v-2zM9 4H5v2h4V4z"/> </g> </g>
</svg>