<!DOCTYPE svg PUBLIC "-//W3C//DTD SVG 1.1//EN" "http://www.w3.org/Graphics/SVG/1.1/DTD/svg11.dtd">
<!-- Uploaded to: SVG Repo, www.svgrepo.com, Transformed by: SVG Repo Mixer Tools -->
<svg width="800px" height="800px" viewBox="0 0 16 16" xmlns="http://www.w3.org/2000/svg" fill="#ffffff">
<g id="SVGRepo_bgCarrier" stroke-width="0"/>
<g id="SVGRepo_tracerCarrier" stroke-linecap="round" stroke-linejoin="round"/>
<g id="SVGRepo_iconCarrier">
<path d="M13 3.5C13 2.119 10.761 1 8 1S3 2.119 3 3.5c0 .04.02.077.024.117H3v8.872l.056.357C3.336 14.056 5.429 15 8 15c2.571 0 4.664-.944 4.944-2.154l.056-.357V3.617h-.024c.004-.04.024-.077.024-.117zM8 2.032c2.442 0 4 .964 4 1.468s-1.558 1.468-4 1.468S4 4 4 3.5s1.558-1.468 4-1.468zm4 10.458l-.03.131C11.855 13.116 10.431 14 8 14s-3.855-.884-3.97-1.379L4 12.49v-7.5A7.414 7.414 0 0 0 8 6a7.414 7.414 0 0 0 4-1.014v7.504z"/>
</g>
</svg>