<!DOCTYPE svg PUBLIC "-//W3C//DTD SVG 1.1//EN" "http://www.w3.org/Graphics/SVG/1.1/DTD/svg11.dtd">
<!-- Uploaded to: SVG Repo, www.svgrepo.com, Transformed by: SVG Repo Mixer Tools -->
<svg width="800px" height="800px" viewBox="0 0 16 16" xmlns="http://www.w3.org/2000/svg" fill="#ffffff">
<g id="SVGRepo_bgCarrier" stroke-width="0"/>
<g id="SVGRepo_tracerCarrier" stroke-linecap="round" stroke-linejoin="round"/>
<g id="SVGRepo_iconCarrier">
<path fill-rule="evenodd" clip-rule="evenodd" d="M1.5 14H15v-1H2V0H1v13.5l.5.5zM3 11.5v-8l.5-.5h2l.5.5v8l-.5.5h-2l-.5-.5zm2-.5V4H4v7h1zm6-9.5v10l.5.5h2l.5-.5v-10l-.5-.5h-2l-.5.5zm2 .5v9h-1V2h1zm-6 9.5v-6l.5-.5h2l.5.5v6l-.5.5h-2l-.5-.5zm2-.5V6H8v5h1z"/>
</g>
</svg>