<!DOCTYPE svg PUBLIC "-//W3C//DTD SVG 1.1//EN" "http://www.w3.org/Graphics/SVG/1.1/DTD/svg11.dtd">
<!-- Uploaded to: SVG Repo, www.svgrepo.com, Transformed by: SVG Repo Mixer Tools -->
<svg width="800px" height="800px" viewBox="0 0 24 24" fill="none" xmlns="http://www.w3.org/2000/svg">
<g id="SVGRepo_bgCarrier" stroke-width="0"/>
<g id="SVGRepo_tracerCarrier" stroke-linecap="round" stroke-linejoin="round"/>
<g id="SVGRepo_iconCarrier"> <path d="M9.5 9.50011L14.5 14.5001M14.5 9.50011L9.5 14.5001M20 12.0001C20 16.4612 14.54 19.6939 12.6414 20.6831C12.4361 20.7901 12.3334 20.8436 12.191 20.8713C12.08 20.8929 11.92 20.8929 11.809 20.8713C11.6666 20.8436 11.5639 20.7901 11.3586 20.6831C9.45996 19.6939 4 16.4612 4 12.0001V8.21772C4 7.4182 4 7.01845 4.13076 6.67482C4.24627 6.37126 4.43398 6.10039 4.67766 5.88564C4.9535 5.64255 5.3278 5.50219 6.0764 5.22146L11.4382 3.21079C11.6461 3.13283 11.75 3.09385 11.857 3.07839C11.9518 3.06469 12.0482 3.06469 12.143 3.07839C12.25 3.09385 12.3539 3.13283 12.5618 3.21079L17.9236 5.22146C18.6722 5.50219 19.0465 5.64255 19.3223 5.88564C19.566 6.10039 19.7537 6.37126 19.8692 6.67482C20 7.01845 20 7.4182 20 8.21772V12.0001Z" stroke="#fff" stroke-width="2" stroke-linecap="round" stroke-linejoin="round"/> </g>
</svg>