<!DOCTYPE svg PUBLIC "-//W3C//DTD SVG 1.1//EN" "http://www.w3.org/Graphics/SVG/1.1/DTD/svg11.dtd">
<!-- Uploaded to: SVG Repo, www.svgrepo.com, Transformed by: SVG Repo Mixer Tools -->
<svg fill="#ffffff" height="800px" width="800px" version="1.1" id="Layer_1" xmlns="http://www.w3.org/2000/svg" xmlns:xlink="http://www.w3.org/1999/xlink" viewBox="0 0 491.52 491.52" xml:space="preserve">
<g id="SVGRepo_bgCarrier" stroke-width="0"/>
<g id="SVGRepo_tracerCarrier" stroke-linecap="round" stroke-linejoin="round"/>
<g id="SVGRepo_iconCarrier"> <g> <g> <path d="M285.266,440.32c-3.724-14.326-14.943-25.542-29.266-29.266v-32.404c76.556-2.345,133.12-30.677,133.12-67.821V68.05 C389.12,29.26,327.49,0,245.76,0S102.4,29.26,102.4,68.05v242.78c0,37.144,56.564,65.476,133.12,67.821v32.404 c-14.324,3.723-25.543,14.94-29.266,29.266H0v20.48h206.254c4.579,17.618,20.477,30.72,39.506,30.72s34.927-13.102,39.506-30.72 H491.52v-20.48H285.266z M245.76,20.48c72.415,0,122.88,25.07,122.88,47.57s-50.465,47.56-122.88,47.56S122.88,90.55,122.88,68.05 S173.345,20.48,245.76,20.48z M122.88,103.966c24.624,19.541,69.376,32.124,122.88,32.124s98.256-12.583,122.88-32.124v45.014 c0,22.5-50.465,47.56-122.88,47.56s-122.88-25.06-122.88-47.56V103.966z M122.88,184.896 c24.624,19.541,69.376,32.124,122.88,32.124s98.256-12.583,122.88-32.124V229.9c0,22.5-50.465,47.57-122.88,47.57 S122.88,252.4,122.88,229.9V184.896z M122.88,310.83v-45.011c24.624,19.544,69.376,32.131,122.88,32.131 s98.256-12.587,122.88-32.131v45.011c0,22.5-50.465,47.57-122.88,47.57S122.88,333.33,122.88,310.83z M245.76,471.04 c-11.295,0-20.48-9.19-20.48-20.48s9.185-20.48,20.48-20.48c11.295,0,20.48,9.19,20.48,20.48S257.055,471.04,245.76,471.04z"/> </g> </g> </g>
</svg>