<!DOCTYPE svg PUBLIC "-//W3C//DTD SVG 1.1//EN" "http://www.w3.org/Graphics/SVG/1.1/DTD/svg11.dtd">
<!-- Uploaded to: SVG Repo, www.svgrepo.com, Transformed by: SVG Repo Mixer Tools -->
<svg width="800px" height="800px" viewBox="0 0 24 24" fill="none" xmlns="http://www.w3.org/2000/svg">
<g id="SVGRepo_bgCarrier" stroke-width="0"/>
<g id="SVGRepo_tracerCarrier" stroke-linecap="round" stroke-linejoin="round"/>
<g id="SVGRepo_iconCarrier"> <path d="M19 8.5V7.2C19 6.0799 19 5.51984 18.782 5.09202C18.5903 4.71569 18.2843 4.40973 17.908 4.21799C17.4802 4 16.9201 4 15.8 4H6.2C5.0799 4 4.51984 4 4.09202 4.21799C3.71569 4.40973 3.40973 4.71569 3.21799 5.09202C3 5.51984 3 6.0799 3 7.2V16.8C3 17.9201 3 18.4802 3.21799 18.908C3.40973 19.2843 3.71569 19.5903 4.09202 19.782C4.51984 20 5.0799 20 6.2 20H9.5M7 8V12M11 8V12M19.8284 19.8284C18.2663 21.3905 15.7337 21.3905 14.1716 19.8284C13.3905 19.0474 13 18.0237 13 17C13 15.9763 13.3905 14.9526 14.1716 14.1716C14.1716 14.1716 14.5 15 15.5 15.5C15.5 14.5 15.75 13 16.9929 12C18 13 19.0456 13.3887 19.8284 14.1716C20.6095 14.9526 21 15.9763 21 17C21 18.0237 20.6095 19.0474 19.8284 19.8284Z" stroke="#fff" stroke-width="2" stroke-linecap="round" stroke-linejoin="round"/> </g>
</svg>