<!DOCTYPE svg PUBLIC "-//W3C//DTD SVG 1.1//EN" "http://www.w3.org/Graphics/SVG/1.1/DTD/svg11.dtd">
<!-- Uploaded to: SVG Repo, www.svgrepo.com, Transformed by: SVG Repo Mixer Tools -->
<svg width="800px" height="800px" viewBox="0 0 24 24" fill="none" xmlns="http://www.w3.org/2000/svg" stroke="#ffffff">
<g id="SVGRepo_bgCarrier" stroke-width="0"/>
<g id="SVGRepo_tracerCarrier" stroke-linecap="round" stroke-linejoin="round"/>
<g id="SVGRepo_iconCarrier">
<path d="M22 20h-3.278l-1.014-3.646c-.081.043-.17.076-.265.095-1.758.364-3.576.551-5.443.551-1.868 0-3.767-.197-5.564-.571a.999.999 0 0 1-.153-.045L5.278 20H2a1 1 0 1 0 0 2h20a1 1 0 1 0 0-2ZM6.817 14.466l.027.005C8.507 14.817 10.268 15 12 15c1.733 0 3.415-.173 5.037-.51a.995.995 0 0 1 .148-.019l-1.087-3.912a1.001 1.001 0 0 1-.275.094A20.875 20.875 0 0 1 12 11a21.351 21.351 0 0 1-4.108-.404l-1.075 3.87ZM8.43 8.665A19.33 19.33 0 0 0 12 9c1.181 0 2.34-.105 3.457-.313.039-.007.077-.012.116-.015L14.16 3.59a.801.801 0 0 0-.77-.59h-2.78c-.36 0-.67.24-.77.59L8.43 8.665Z" fill="#ffffff"/>
</g>
</svg>